<svg width="285" height="520" viewBox="0 0 285 520" fill="none" xmlns="http://www.w3.org/2000/svg">
<path d="M143.5 520C221.648 520 285 456.648 285 378.5C285 300.352 221.648 237 143.5 237C65.3517 237 2 300.352 2 378.5C2 456.648 65.3517 520 143.5 520Z" fill="url(#paint0_linear_0_1)"/>
<path d="M142.372 402.48C140.502 409.38 139.032 416.35 139.652 423.54C140.092 428.63 140.912 433.68 141.552 438.75C141.702 439.91 141.872 441.07 141.972 442.24C142.128 443.377 141.936 444.535 141.422 445.561C140.908 446.587 140.096 447.434 139.092 447.99C137.114 449.071 134.929 449.719 132.682 449.89C128.682 450.37 124.742 450.98 120.742 451.23C116.972 451.46 113.192 451.23 109.942 448.81C109.751 448.704 109.55 448.617 109.342 448.55C109.048 449.274 108.853 450.034 108.762 450.81C108.706 451.837 108.888 452.864 109.292 453.81C109.584 454.328 109.721 454.919 109.687 455.513C109.654 456.107 109.45 456.678 109.102 457.16C108.425 458.506 108.014 459.969 107.892 461.47C107.722 463.47 109.242 464.67 111.252 464.37C111.512 464.37 111.912 464.04 111.942 463.82C112.332 460.97 114.202 459.25 116.472 457.82C119.811 455.905 123.443 454.553 127.222 453.82C129.772 453.25 132.362 452.82 134.932 452.32L135.002 452.57C133.252 453.25 131.482 453.89 129.752 454.62C126.642 455.93 123.522 457.23 120.452 458.62C118.316 459.645 116.511 461.25 115.242 463.25C114.822 463.917 114.227 464.457 113.521 464.809C112.816 465.162 112.028 465.314 111.242 465.25C105.782 465.19 102.152 462.48 100.122 457.59C99.214 455.25 98.4657 452.851 97.8817 450.41C97.4477 448.707 96.7201 447.093 95.7317 445.64C91.4748 439.73 86.9015 434.056 82.0317 428.64C76.3817 422.11 70.6517 415.64 65.1017 409.04C60.7517 403.86 60.3017 397.98 62.7317 391.81C62.844 391.586 62.8775 391.331 62.8267 391.086C62.7759 390.841 62.6438 390.62 62.4517 390.46C60.3265 388.189 58.7676 385.448 57.9017 382.46C57.9017 382.26 57.8017 382.06 57.7617 381.85C57.7732 381.689 57.7932 381.529 57.8217 381.37C58.4553 383.085 59.6362 384.543 61.1817 385.52C59.1817 380.39 59.7717 375.84 63.2417 371.87C66.7117 367.9 71.1317 366.79 76.3417 367.57C72.8017 364.87 72.5017 361.23 73.1717 357.26C71.9431 358.53 71.1424 360.152 70.8817 361.9C69.5983 361.939 68.3188 362.062 67.0517 362.27C65.7808 362.644 64.5349 363.098 63.3217 363.63C64.0917 345.38 69.3817 328.86 80.7517 314.42C80.4917 314.69 80.2217 314.96 79.9717 315.24C70.9717 325.39 65.4617 337.33 62.3317 350.43C61.1649 355.411 60.4586 360.489 60.2217 365.6C60.0223 366.39 59.6837 367.139 59.2217 367.81L58.8317 367.72C58.8317 366.89 58.6917 366.06 58.6917 365.22C58.8537 358.271 59.9502 351.376 61.9517 344.72C65.1917 333.21 70.0417 322.47 77.4117 312.97C81.8632 307.079 87.4455 302.136 93.8317 298.43C94.4293 298.101 95.0913 297.907 95.7717 297.86C102.682 297.303 109.538 299.463 114.882 303.88C119.537 307.469 123.501 311.874 126.582 316.88C128.712 320.5 129.392 324.64 130.252 328.7C130.732 331 131.248 333.29 131.802 335.57C132.852 339.91 135.312 343.57 137.492 347.37C139.755 351.042 141.812 354.838 143.652 358.74C146.552 365.43 147.272 372.6 147.042 379.85C146.942 383.16 146.712 386.48 146.352 389.77M120.962 447.22C121.47 447.469 121.994 447.683 122.532 447.86C125.328 448.565 128.255 448.565 131.052 447.86C132.596 447.388 134.084 446.751 135.492 445.96C136.15 445.631 136.697 445.115 137.064 444.476C137.43 443.837 137.6 443.105 137.552 442.37C137.595 440.546 137.471 438.722 137.182 436.92C135.127 426.831 135.246 416.419 137.532 406.38C139.172 398.79 140.692 391.17 142.222 383.55C144.022 374.55 143.222 365.84 138.912 357.66C137.532 355.02 135.552 352.66 133.912 350.18C130.487 344.965 128.11 339.133 126.912 333.01C124.532 320.68 117.862 311.3 107.522 304.42C104.049 301.89 99.8134 300.626 95.5217 300.84C95.1853 300.876 94.8513 300.933 94.5217 301.01C107.762 304.58 118.272 322.31 115.072 334.15C101.922 333.89 92.9817 340.26 87.0017 351.56C86.5746 351.201 86.1272 350.867 85.6617 350.56C85.1534 350.294 84.629 350.061 84.0917 349.86C87.2817 355.26 87.7517 358.46 85.5517 360.53C83.2617 359.53 79.7717 361.72 79.3417 364.37C79.8466 363.907 80.3774 363.473 80.9317 363.07C81.6291 362.574 82.4705 362.322 83.3256 362.353C84.1807 362.384 85.0018 362.695 85.6617 363.24C85.7975 363.366 85.9023 363.522 85.9682 363.696C86.0341 363.869 86.0592 364.055 86.0417 364.24C85.1917 367.24 84.3517 370.24 83.3817 373.17C82.5917 375.55 81.6217 377.86 80.6717 380.34C81.2275 380.295 81.786 380.295 82.3417 380.34C82.8565 380.444 83.3892 380.415 83.8896 380.256C84.39 380.096 84.8416 379.812 85.2017 379.43C87.7917 376.94 93.5717 377.65 94.6417 382.43C95.0921 383.971 94.953 385.625 94.2517 387.07C94.1998 387.242 94.1696 387.42 94.1617 387.6C94.3223 387.512 94.4761 387.411 94.6217 387.3C95.9256 386.138 96.7404 384.525 96.9019 382.786C97.0633 381.047 96.5594 379.312 95.4917 377.93C94.0623 376.099 92.2456 374.606 90.1717 373.56C89.8506 373.419 89.5815 373.182 89.4022 372.88C89.2228 372.579 89.1422 372.229 89.1717 371.88C89.1717 370.53 89.0517 369.18 89.0617 367.88C89.0617 364.78 88.6217 361.68 89.3517 358.59C89.4968 357.875 89.4763 357.136 89.2917 356.43C88.9663 354.896 89.242 353.296 90.0617 351.96C91.5309 349.312 93.7745 347.177 96.4917 345.84C97.9062 344.988 99.5074 344.494 101.156 344.402C102.805 344.31 104.451 344.621 105.952 345.31C107.952 346.25 109.862 347.47 111.812 348.58C112.292 348.85 112.762 349.14 113.242 349.42L112.952 349.8C115.669 348.911 118.125 347.365 120.102 345.3C118.432 348.03 115.832 349.64 113.162 351.02C113.282 352.17 113.722 352.54 114.772 352.17C115.822 351.8 116.972 351.59 118.062 351.25C119.152 350.91 120.432 350.46 121.622 350.06L121.732 350.33L114.842 353.33C119.871 353.997 124.489 356.462 127.842 360.27C128.463 360.873 128.935 361.613 129.219 362.431C129.504 363.248 129.594 364.121 129.482 364.98C129.352 366.488 128.82 367.933 127.94 369.165C127.061 370.396 125.866 371.369 124.482 371.98C121.97 373.196 119.34 374.148 116.632 374.82C111.112 376.06 105.512 376.96 99.9417 377.98C99.3017 378.1 98.6917 378.18 98.8117 379.16C99.1987 379.264 99.5932 379.338 99.9917 379.38C102.672 379.56 105.372 379.67 108.052 379.91C112.472 380.3 116.722 381.31 120.422 383.91C125.072 387.18 127.492 391.91 128.552 397.3C130.136 405.562 131.235 413.909 131.842 422.3C131.867 422.872 131.724 423.438 131.432 423.93C130.02 426.114 128.141 427.958 125.932 429.33C125.333 429.744 124.643 430.007 123.92 430.098C123.198 430.188 122.464 430.103 121.782 429.85C120.695 429.4 119.83 428.54 119.373 427.456C118.916 426.372 118.905 425.152 119.342 424.06C120.532 421.46 121.632 418.82 122.752 416.18C122.983 415.602 123.18 415.011 123.342 414.41C123.502 413.86 123.622 413.3 123.762 412.75C123.698 412.76 123.638 412.787 123.587 412.827C123.536 412.867 123.496 412.92 123.472 412.98C119.582 423.13 112.142 430.05 102.962 435.34C101.479 436.254 99.7624 436.717 98.0211 436.675C96.2798 436.632 94.5883 436.085 93.1517 435.1C92.9217 434.96 92.6817 434.85 92.4417 434.72C93.5855 436.196 95.2547 437.174 97.1017 437.45C98.8817 437.59 99.5117 438.62 100.102 439.95C100.292 440.4 100.462 440.85 100.642 441.3C100.856 441.752 100.953 442.251 100.925 442.75C100.897 443.25 100.745 443.734 100.482 444.16C100.061 444.914 99.7634 445.731 99.6017 446.58C98.7946 450.483 99.5485 454.546 101.702 457.9C102.613 459.541 103.832 460.991 105.292 462.17C105.079 461.748 104.828 461.346 104.542 460.97C102.206 457.88 101.05 454.057 101.282 450.19C101.284 448.995 101.61 447.823 102.227 446.8C102.843 445.777 103.726 444.94 104.782 444.38C109.942 441.38 114.782 437.9 119.782 434.63C120.116 434.355 120.539 434.209 120.972 434.22C122.511 434.583 124.012 435.096 125.452 435.75C128.172 437.16 128.732 439.45 126.812 441.82C125.355 443.421 123.788 444.918 122.122 446.3C121.882 446.63 121.502 446.85 120.972 447.26L120.962 447.22ZM112.562 416.83C113.462 415.06 114.492 413.4 115.182 411.62C117.102 406.62 118.902 401.62 120.702 396.55C120.92 395.833 121.344 395.197 121.922 394.72C122.232 394.46 122.282 393.9 122.452 393.47C122.024 393.404 121.589 393.404 121.162 393.47C119.802 393.98 118.522 394.73 117.162 395.1C112.462 396.35 107.722 397.45 103.012 398.66C99.3017 399.66 95.6117 400.66 91.9217 401.66C91.7285 401.704 91.546 401.786 91.3847 401.901C91.2234 402.016 91.0864 402.162 90.9817 402.33C90.4236 403.826 89.5362 405.177 88.385 406.283C87.2338 407.389 85.8486 408.222 84.3317 408.72C83.7554 408.921 83.2371 409.261 82.8223 409.709C82.4074 410.157 82.1085 410.7 81.9517 411.29C81.2316 413.844 81.2074 416.544 81.8817 419.11C82.1617 420.48 82.6017 421.82 82.9717 423.18C82.8917 421.88 82.5417 420.65 82.3417 419.4C81.8617 416.51 81.6417 413.61 82.9817 410.87C83.2754 410.352 83.7377 409.949 84.2917 409.73C87.3138 408.744 89.8666 406.679 91.4617 403.93C91.6321 403.529 91.8948 403.174 92.2285 402.894C92.5622 402.615 92.9574 402.418 93.3817 402.32C93.7517 402.23 94.1117 402.09 94.4817 402C99.8217 400.76 105.172 399.53 110.482 398.27C112.652 397.77 114.812 397.21 116.972 396.67C116.087 397.444 115.155 398.162 114.182 398.82C108.708 402.802 102.972 406.41 97.0117 409.62C95.324 410.559 93.7388 411.672 92.2817 412.94C90.3817 414.47 88.6217 416.17 86.7517 417.74C85.0417 419.17 84.1317 420.95 84.6917 423.13C85.1222 424.499 85.7272 425.806 86.4917 427.02C87.1494 428.167 88.1409 429.087 89.3342 429.657C90.5275 430.227 91.866 430.42 93.1717 430.21C93.5917 430.14 94.0117 430.03 94.3917 429.95V432.66C95.1698 430.238 96.6445 428.099 98.6317 426.51C102.372 423.91 106.182 421.4 109.872 418.73C110.997 417.869 112.386 417.424 113.802 417.47H114.412V417.26L112.562 416.83ZM68.6817 393.25C69.9317 394.13 71.1217 394.95 72.2917 395.79C72.4666 395.936 72.5866 396.137 72.6317 396.36C72.9417 398.12 73.8517 398.69 75.6317 398.36C77.4117 398.03 79.1117 397.9 80.8417 397.65C82.1817 397.45 83.5117 397.19 84.8417 396.96L84.7917 396.64L83.7917 396.74C79.5898 397.214 75.3654 396.066 71.9817 393.53C70.5713 392.573 69.4809 391.214 68.8517 389.63C68.6056 389.183 68.5269 388.662 68.6295 388.162C68.7321 387.662 69.0094 387.214 69.4117 386.9C72.4117 384.8 74.1217 381.81 75.6117 378.62C77.3194 375.035 78.4565 371.206 78.9817 367.27C78.819 367.474 78.6906 367.704 78.6017 367.95C77.3017 370.95 76.0917 374.01 74.6717 376.95C73.4683 379.641 71.7725 382.082 69.6717 384.15C69.3522 384.451 68.9645 384.671 68.5417 384.79C67.229 385.093 66.0316 385.768 65.0933 386.735C64.1549 387.702 63.5155 388.919 63.2517 390.24L63.5817 390.49L66.6417 387.14C66.2917 389.38 67.2217 391.09 68.3917 392.69C67.0717 393.98 66.8017 395.11 67.6717 396.69C68.2764 397.555 68.9449 398.374 69.6717 399.14C69.964 399.436 70.1623 399.812 70.2417 400.22C70.3085 403.99 70.9562 407.727 72.1617 411.3C72.2417 411.56 72.3017 411.83 72.3717 412.09C67.9917 407.27 64.7517 401.93 64.2917 395.26C63.6978 397.553 63.6772 399.957 64.2317 402.26C65.2317 406.59 67.7817 410.01 70.7917 413.12C72.8617 415.24 74.9617 417.31 76.2817 420.05C76.7907 421.034 77.4335 421.942 78.1917 422.75C79.7517 424.51 81.3917 426.2 83.0017 427.92L83.3117 427.69C76.3117 418.99 72.9217 409.61 77.6917 398.6C76.8217 398.6 76.0317 398.69 75.2517 398.71C74.4717 398.73 73.5917 398.71 72.7617 398.71C71.741 398.65 70.7619 398.284 69.9521 397.66C69.1424 397.036 68.5394 396.182 68.2217 395.21C68.0812 394.877 68.05 394.507 68.1327 394.155C68.2153 393.803 68.4076 393.486 68.6817 393.25ZM94.8017 364.78C95.3217 362.738 96.2689 360.829 97.5806 359.179C98.8924 357.529 100.539 356.177 102.412 355.21C105.032 353.71 107.752 352.32 111.252 353.44C110.912 352.52 110.852 351.44 110.332 351.11C108.472 349.763 106.247 349.013 103.952 348.96C99.1617 348.91 96.0417 351.55 93.8217 355.49C92.5999 357.521 92.1292 359.917 92.4917 362.26C92.5525 362.873 92.8104 363.45 93.2269 363.905C93.6434 364.359 94.1959 364.666 94.8017 364.78ZM63.7017 385.19C63.8717 384.92 63.9717 384.79 64.0517 384.64C64.7318 383.03 65.8342 381.634 67.2424 380.599C68.6506 379.564 70.3122 378.928 72.0517 378.76C72.1837 378.755 72.3136 378.725 72.4337 378.67C72.5539 378.615 72.662 378.537 72.7517 378.44C73.5817 377.03 74.3617 375.58 75.1917 374.09C72.3617 372.55 69.5917 372.32 66.9017 373.92C64.2117 375.52 62.2017 377.97 62.2017 381.44C62.1454 382.138 62.2515 382.84 62.5117 383.491C62.7719 384.141 63.1793 384.723 63.7017 385.19ZM86.7817 386.37L86.7117 386.58C86.1617 386.58 85.6017 386.58 85.0617 386.71C83.6344 386.78 82.2854 387.383 81.2817 388.4C81.0276 388.673 80.8362 388.998 80.7212 389.352C80.6062 389.707 80.5703 390.082 80.6161 390.452C80.6618 390.822 80.7882 391.177 80.9861 391.493C81.184 391.809 81.4488 392.077 81.7617 392.28C82.6023 392.749 83.549 392.996 84.5117 392.996C85.4745 392.996 86.4212 392.749 87.2617 392.28C88.3717 391.52 89.4817 390.75 90.6117 390.03C91.7417 389.31 91.8517 388.15 90.6117 387.57C89.3632 387.085 88.0838 386.684 86.7817 386.37ZM118.392 417.85C113.302 425.08 106.392 430.11 98.9617 434.73C105.002 433.47 116.802 424.38 118.392 417.85ZM113.802 356.45C106.942 355.61 97.5117 361.75 96.7117 367.62C98.6421 364.686 101.155 362.18 104.095 360.258C107.035 358.337 110.339 357.04 113.802 356.45ZM83.0817 406.99L81.8817 399.11C80.2917 401.21 81.1517 406.19 83.0817 406.99ZM90.4117 401.45C90.2887 400.363 89.7578 399.363 88.9263 398.652C88.0948 397.941 87.0246 397.572 85.9317 397.62L90.4117 401.45Z" fill="url(#paint1_linear_0_1)"/>
<path d="M186.491 416.27C186.491 414.92 186.491 413.58 186.491 412.27C186.461 411.752 186.36 411.241 186.191 410.75C186.144 410.491 186.038 410.247 185.881 410.035C185.725 409.824 185.522 409.651 185.288 409.53C185.055 409.41 184.796 409.344 184.533 409.339C184.27 409.334 184.009 409.389 183.771 409.5C182.631 409.88 181.541 410.42 180.431 410.9C177.671 412.1 174.851 412.96 171.791 412.26C169.404 411.648 167.22 410.417 165.461 408.69C162.322 405.806 159.706 402.398 157.731 398.62C156.221 395.76 156.011 392.62 158.151 389.81C158.821 388.92 158.651 388.55 157.541 388.45C156.431 388.35 155.541 388.45 154.541 388.35C153.468 388.191 152.499 387.619 151.841 386.756C151.184 385.893 150.889 384.807 151.021 383.73C151.831 379.73 152.741 375.84 153.521 371.88C154.47 367.186 157.21 363.047 161.161 360.34C164.231 358.1 167.211 355.74 170.221 353.42C170.801 352.97 171.311 352.42 171.851 351.93L171.701 351.61C171.217 351.65 170.738 351.737 170.271 351.87C167.571 352.87 164.901 353.87 162.201 354.87C161.529 355.099 160.812 355.161 160.111 355.05C157.169 354.617 154.457 353.208 152.411 351.05C149.841 348.25 149.411 344.85 149.871 341.26C150.583 336.393 152.248 331.713 154.771 327.49C158.691 320.41 163.771 314.17 168.991 308.03C170.061 306.77 171.091 305.47 172.121 304.17C172.33 303.852 172.514 303.517 172.671 303.17L172.461 302.91C171.982 303.103 171.526 303.348 171.101 303.64C168.991 305.52 166.811 307.34 164.851 309.37C157.369 316.941 150.572 325.16 144.541 333.93C142.541 336.86 140.711 339.86 140.131 343.5C139.361 342.41 138.711 338.79 139.281 337.63C140.557 334.766 142.034 331.996 143.701 329.34C150.774 318.894 159.178 309.414 168.701 301.14C170.398 299.67 172.218 298.348 174.141 297.19C175.191 296.535 176.404 296.188 177.641 296.188C178.879 296.188 180.091 296.535 181.141 297.19C193.598 304.666 204.673 314.233 213.881 325.47C214.738 326.595 215.536 327.763 216.271 328.97C216.334 329.122 216.368 329.285 216.371 329.45C215.692 329.423 215.028 329.238 214.431 328.912C213.835 328.586 213.321 328.127 212.931 327.57C208.389 322.31 203.285 317.562 197.711 313.41C193.771 310.33 189.641 307.48 185.601 304.53C185.238 304.268 184.841 304.056 184.421 303.9C187.681 306.56 191.001 309.14 194.181 311.9C197.361 314.66 200.541 317.63 203.621 320.6C206.698 323.513 209.482 326.722 211.931 330.18C209.791 332.47 207.681 334.72 205.581 336.98L205.711 337.14C206.641 336.66 207.561 336.14 208.501 335.69C210.407 334.617 212.529 333.981 214.711 333.83C215.805 333.837 216.892 334.016 217.931 334.36C220.171 335.09 220.801 338.36 219.811 339.93C218.271 342.38 216.911 344.93 215.301 347.35C213.769 349.386 211.629 350.882 209.191 351.62C207.531 352.24 206.501 351.85 205.381 350.46C203.662 348.534 201.49 347.066 199.061 346.19L199.641 346.91C199.861 347.17 200.081 347.44 200.291 347.72C202.421 350.63 203.551 354.02 204.821 357.34C204.868 357.502 204.885 357.672 204.871 357.84C204.268 362.935 205.54 368.075 208.451 372.3C209.172 373.516 209.804 374.783 210.341 376.09C213.19 381.739 216.705 387.027 220.811 391.84C221.901 393.17 222.961 394.54 223.931 395.97C224.901 397.4 224.741 398.57 223.251 399.61C220.616 401.416 217.432 402.244 214.251 401.95C212.986 401.753 211.693 402.012 210.601 402.68C208.221 404.34 205.441 404 202.801 404.28C202.501 404.28 202.101 404 201.851 403.76C201.069 402.999 200.467 402.072 200.09 401.047C199.712 400.023 199.569 398.927 199.671 397.84L199.531 397.91C199.531 399.58 198.381 400.83 197.961 402.34C197.241 404.89 197.961 406.6 200.411 407.58C202.534 408.561 204.921 408.81 207.201 408.29C207.589 408.186 207.998 408.196 208.38 408.321C208.762 408.445 209.099 408.678 209.351 408.99C210.064 409.824 210.732 410.695 211.351 411.6C211.544 411.938 211.863 412.185 212.237 412.288C212.612 412.391 213.013 412.342 213.351 412.15C214.149 411.757 214.797 411.115 215.2 410.322C215.602 409.529 215.735 408.626 215.581 407.75C215.421 406.22 215.701 405.68 217.001 405C219.082 404.172 221.292 403.712 223.531 403.64L220.981 411.87C220.071 411.59 218.981 411.21 217.981 410.98C217.58 410.9 217.164 410.949 216.792 411.119C216.42 411.29 216.112 411.574 215.911 411.93C215.046 413.018 213.915 413.866 212.628 414.391C211.341 414.916 209.941 415.102 208.561 414.93C208.207 414.856 207.838 414.888 207.501 415.02C201.691 418.73 196.021 422.62 191.501 427.88C190.479 429.134 189.606 430.504 188.901 431.96C188.598 432.806 188.4 433.686 188.311 434.58L188.671 434.71L189.441 433.56C191.677 429.931 194.635 426.8 198.131 424.36C201.301 422.444 204.779 421.091 208.411 420.36C212.251 419.47 215.561 417.47 218.961 415.66C219.364 415.404 219.705 415.063 219.961 414.66C220.316 414.048 220.739 413.478 221.221 412.96V421.66C220.951 421.54 220.501 421.18 220.151 421.25C219.801 421.32 219.411 421.84 219.021 422.12C213.135 426.544 206.169 429.307 198.851 430.12C198.397 430.229 197.982 430.461 197.651 430.79C195.591 432.51 193.651 434.32 191.491 435.98C190.747 436.477 189.91 436.817 189.031 436.98C188.757 437.075 188.466 437.113 188.177 437.093C187.888 437.073 187.605 436.995 187.347 436.863C187.088 436.732 186.859 436.549 186.672 436.327C186.486 436.105 186.346 435.848 186.261 435.57C185.94 434.665 185.728 433.725 185.631 432.77C185.181 429.26 186.171 425.92 186.961 422.56C188.671 415.31 191.511 408.44 194.431 401.61C194.981 400.32 195.571 399.04 196.141 397.75L195.921 397.61C195.161 398.73 194.361 399.84 193.641 401C192.921 402.16 192.201 403.44 191.541 404.69C190.881 405.94 190.251 407.21 189.671 408.5C189.091 409.79 188.541 411.09 188.031 412.41C187.521 413.73 187.031 415.06 186.621 416.41L186.491 416.27ZM167.611 391.86C166.231 395.36 167.841 397.92 171.421 398.13C172.04 398.175 172.662 398.175 173.281 398.13C176.525 397.855 179.689 396.977 182.611 395.54C184.62 394.52 186.366 393.048 187.711 391.24C190.331 387.78 191.291 383.75 191.861 379.57C192.081 378.03 192.271 376.48 192.581 374.97C192.811 373.88 193.391 373.69 194.201 374.42C195.135 375.239 195.98 376.154 196.721 377.15C198.941 380.15 201.031 383.32 203.241 386.37C204.551 388.18 205.951 389.94 207.381 391.67C207.821 392.072 208.316 392.408 208.851 392.67L209.211 392.34C209.02 391.657 208.78 390.988 208.491 390.34C206.661 386.94 204.751 383.57 202.931 380.16C201.111 376.75 199.101 373.11 198.231 369.16C197.909 368.091 197.911 366.951 198.237 365.883C198.563 364.815 199.197 363.868 200.061 363.16C201.231 362.16 202.551 361.41 203.821 360.54C202.821 358.96 200.821 358.39 198.381 359.21C197.669 356.493 196.582 353.887 195.151 351.47C195.147 351.889 195.183 352.308 195.261 352.72C195.797 355.672 195.273 358.718 193.781 361.32C193.485 362.017 192.927 362.57 192.228 362.859C191.528 363.149 190.743 363.153 190.041 362.87C189.041 362.61 188.041 362.27 187.041 361.96C183.933 360.931 180.586 360.869 177.441 361.78C172.852 363.108 168.525 365.215 164.651 368.01C161.796 370.105 159.563 372.936 158.191 376.2C156.961 379.01 155.531 381.73 154.191 384.49C153.991 384.91 153.831 385.34 153.551 386.01C153.991 385.964 154.426 385.881 154.851 385.76C158.253 384.522 161.173 382.236 163.191 379.23C164.001 377.98 164.791 376.72 165.591 375.47C167.143 372.857 169.603 370.906 172.501 369.99C174.273 369.425 176.089 369.01 177.931 368.75C180.375 368.371 182.876 368.697 185.141 369.69C185.98 370.009 186.668 370.634 187.065 371.439C187.462 372.244 187.539 373.17 187.281 374.03L186.491 373.9C183.188 373.255 179.78 373.395 176.541 374.31C171.411 375.75 167.641 379.04 164.541 383.18C163.331 384.78 162.201 386.44 160.371 387.42C160.371 387.42 160.371 387.54 160.371 387.75C160.811 387.68 161.231 387.61 161.651 387.56C162.973 387.321 164.309 387.171 165.651 387.11C169.15 387.28 172.643 386.66 175.869 385.295C179.096 383.931 181.975 381.858 184.291 379.23C184.881 378.57 185.291 378.66 185.751 379.34C187.361 381.77 187.311 383.86 185.451 386.1C183.278 388.589 180.469 390.44 177.324 391.453C174.179 392.466 170.818 392.603 167.601 391.85L167.611 391.86Z" fill="url(#paint2_linear_0_1)"/>
<path d="M222.41 356.97C222.83 358.8 223.14 360.71 223.71 362.53C224.136 364.062 224.783 365.524 225.63 366.87C229.3 372.29 229.88 378.11 228.22 384.3C227.3 387.7 226.43 391.11 225.54 394.51C225.271 394.385 225.031 394.207 224.832 393.988C224.633 393.768 224.48 393.511 224.383 393.231C224.285 392.952 224.244 392.655 224.262 392.36C224.281 392.064 224.358 391.775 224.49 391.51C225.461 388.53 226.282 385.503 226.95 382.44C227.58 378.593 226.912 374.645 225.05 371.22C227.47 378.1 225.59 384.35 222.22 390.55C221.58 389.79 220.98 389.06 220.36 388.35C218.622 386.434 217.246 384.218 216.3 381.81C215.18 378.81 213.85 375.95 212.67 373.18C215.19 372.01 217.67 370.95 220.09 369.71C221.051 369.243 221.85 368.5 222.385 367.575C222.92 366.65 223.165 365.586 223.09 364.52C222.73 364.83 222.47 365.06 222.2 365.28C220.81 366.42 219.49 367.66 218.02 368.67C214.21 371.26 208.27 368.57 207.68 364.02C207.563 362.85 207.506 361.675 207.51 360.5C207.509 360.237 207.601 359.982 207.77 359.78C209.17 358.12 210.6 356.49 212 354.84C212.59 354.16 213.1 353.41 213.69 352.74C215.35 350.88 217.85 350.56 220.5 352C219.701 352.49 218.876 352.937 218.03 353.34C215.272 354.466 212.769 356.136 210.67 358.25C210.31 358.62 209.95 359 209.67 359.4C208.79 360.5 208.82 361.09 209.85 362.07C211.4 363.54 213.31 363.55 215.2 363.14C216.819 362.789 218.325 362.042 219.583 360.965C220.842 359.888 221.813 358.515 222.41 356.97Z" fill="url(#paint3_linear_0_1)"/>
<path d="M214.641 359.38C217.341 360.57 218.521 360.27 220.171 357.96C220.144 358.569 219.92 359.154 219.532 359.625C219.144 360.095 218.614 360.427 218.021 360.57C217.406 360.783 216.737 360.781 216.123 360.565C215.509 360.349 214.987 359.931 214.641 359.38Z" fill="white"/>
<path d="M120.97 447.26C121.5 446.85 121.83 446.63 122.13 446.35C123.796 444.968 125.364 443.471 126.82 441.87C128.74 439.5 128.18 437.21 125.46 435.8C124.02 435.146 122.52 434.633 120.98 434.27C120.547 434.259 120.125 434.404 119.79 434.68C114.79 437.95 109.93 441.45 104.79 444.43C103.735 444.99 102.852 445.827 102.235 446.85C101.619 447.873 101.292 449.045 101.29 450.24C101.058 454.107 102.214 457.93 104.55 461.02C104.836 461.396 105.087 461.798 105.3 462.22C103.84 461.041 102.621 459.591 101.71 457.95C99.557 454.596 98.8031 450.533 99.6101 446.63C99.7719 445.781 100.069 444.964 100.49 444.21C100.753 443.784 100.906 443.3 100.934 442.8C100.961 442.301 100.864 441.802 100.65 441.35C100.47 440.9 100.3 440.45 100.11 440C99.5501 438.67 98.9201 437.64 97.1101 437.5C95.2631 437.224 93.5939 436.246 92.4501 434.77C92.6901 434.9 92.9302 435.01 93.1602 435.15C94.5967 436.135 96.2882 436.682 98.0295 436.725C99.7709 436.767 101.487 436.304 102.97 435.39C112.15 430.1 119.59 423.18 123.48 413.03C123.505 412.97 123.544 412.917 123.595 412.877C123.646 412.837 123.706 412.81 123.77 412.8C123.63 413.35 123.51 413.91 123.35 414.46C123.188 415.061 122.991 415.652 122.76 416.23C121.64 418.87 120.54 421.51 119.35 424.11C118.913 425.202 118.924 426.422 119.381 427.506C119.838 428.59 120.703 429.45 121.79 429.9C122.473 430.153 123.206 430.238 123.929 430.148C124.651 430.057 125.341 429.794 125.94 429.38C128.15 428.008 130.028 426.164 131.44 423.98C131.732 423.488 131.875 422.922 131.85 422.35C131.243 413.959 130.145 405.612 128.56 397.35C127.5 391.93 125.08 387.23 120.43 383.96C116.73 381.35 112.48 380.34 108.06 379.96C105.38 379.72 102.68 379.61 100 379.43C99.6192 379.352 99.2448 379.245 98.8801 379.11C98.7601 378.11 99.3701 378.05 100.01 377.93C105.58 376.93 111.18 376.01 116.7 374.77C119.408 374.098 122.039 373.146 124.55 371.93C125.935 371.319 127.129 370.346 128.009 369.115C128.889 367.883 129.421 366.438 129.55 364.93C129.662 364.071 129.573 363.198 129.288 362.381C129.003 361.563 128.531 360.823 127.91 360.22C124.557 356.412 119.94 353.947 114.91 353.28L121.8 350.28L121.69 350.01C120.5 350.41 119.32 350.84 118.13 351.2C116.94 351.56 115.91 351.74 114.84 352.12C113.77 352.5 113.35 352.12 113.23 350.97C115.9 349.59 118.5 347.97 120.17 345.25C118.193 347.315 115.737 348.861 113.02 349.75L113.31 349.37C112.83 349.09 112.36 348.8 111.88 348.53C109.88 347.42 108.04 346.2 106.02 345.26C104.519 344.571 102.873 344.26 101.224 344.352C99.5758 344.444 97.9746 344.938 96.5601 345.79C93.8429 347.127 91.5993 349.262 90.1301 351.91C89.3104 353.246 89.0348 354.846 89.3601 356.38C89.5447 357.086 89.5652 357.825 89.4201 358.54C88.6901 361.63 89.1601 364.73 89.1301 367.83C89.1301 369.17 89.2701 370.52 89.2401 371.83C89.2107 372.179 89.2913 372.529 89.4706 372.83C89.6499 373.132 89.919 373.369 90.2401 373.51C92.314 374.556 94.1308 376.049 95.5601 377.88C96.6278 379.262 97.1317 380.997 96.9703 382.736C96.8088 384.475 95.994 386.088 94.6901 387.25C94.5445 387.361 94.3907 387.462 94.2301 387.55C94.2379 387.37 94.2682 387.192 94.3201 387.02C95.0215 385.575 95.1605 383.921 94.7101 382.38C93.6401 377.59 87.8601 376.88 85.2701 379.38C84.91 379.762 84.4584 380.046 83.958 380.205C83.4576 380.365 82.9249 380.394 82.4102 380.29C81.8544 380.245 81.2959 380.245 80.7401 380.29C81.7401 377.81 82.6601 375.5 83.4501 373.12C84.4501 370.12 85.2601 367.18 86.1101 364.19C86.1277 364.005 86.1025 363.819 86.0366 363.646C85.9707 363.472 85.8659 363.316 85.7301 363.19C85.0701 362.645 84.2491 362.334 83.394 362.303C82.5389 362.272 81.6975 362.524 81.0001 363.02C80.4458 363.423 79.915 363.857 79.4102 364.32C79.8402 361.67 83.3301 359.51 85.6201 360.48C87.8201 358.41 87.3502 355.21 84.1602 349.81C84.6975 350.011 85.2217 350.244 85.7301 350.51C86.1956 350.817 86.643 351.151 87.0701 351.51C93.0701 340.21 101.99 333.84 115.14 334.1C118.34 322.26 107.83 304.53 94.5901 300.96C94.9197 300.883 95.2537 300.826 95.5901 300.79C99.8818 300.576 104.117 301.84 107.59 304.37C117.93 311.25 124.59 320.63 126.98 332.96C128.178 339.083 130.556 344.915 133.98 350.13C135.61 352.65 137.59 354.97 138.98 357.61C143.27 365.79 144.09 374.51 142.29 383.5C140.76 391.12 139.24 398.74 137.6 406.33C135.315 416.369 135.195 426.781 137.25 436.87C137.539 438.671 137.663 440.496 137.62 442.32C137.668 443.055 137.498 443.787 137.132 444.426C136.766 445.064 136.219 445.581 135.56 445.91C134.153 446.701 132.664 447.338 131.12 447.81C128.324 448.515 125.396 448.515 122.6 447.81C122.045 447.665 121.5 447.481 120.97 447.26Z" fill="black"/>
<path d="M112.571 416.87L114.411 417.3V417.51H113.801C112.385 417.464 110.996 417.909 109.871 418.77C106.181 421.44 102.371 423.95 98.6311 426.55C96.6439 428.139 95.1691 430.278 94.3911 432.7V429.99C94.0111 430.07 93.5911 430.18 93.1711 430.25C91.8691 430.467 90.5321 430.282 89.3373 429.721C88.1425 429.161 87.1464 428.25 86.4811 427.11C85.7165 425.896 85.1116 424.589 84.6811 423.22C84.1211 421.04 85.0311 419.22 86.7411 417.83C88.6111 416.26 90.3711 414.56 92.2711 413.03C93.7282 411.762 95.3134 410.649 97.0011 409.71C102.961 406.5 108.697 402.892 114.171 398.91C115.145 398.252 116.076 397.534 116.961 396.76C114.801 397.3 112.641 397.86 110.471 398.36C105.131 399.62 99.7811 400.85 94.4711 402.09C94.1011 402.18 93.7411 402.32 93.3711 402.41C92.9467 402.508 92.5516 402.705 92.2179 402.985C91.8842 403.264 91.6214 403.619 91.4511 404.02C89.856 406.77 87.3032 408.835 84.2811 409.82C83.7271 410.039 83.2648 410.442 82.9711 410.96C81.6311 413.7 81.8511 416.6 82.3311 419.49C82.5311 420.74 82.8811 421.97 82.9611 423.27C82.5911 421.91 82.1511 420.57 81.8711 419.2C81.2138 416.644 81.2483 413.959 81.9711 411.42C82.1279 410.83 82.4267 410.287 82.8416 409.839C83.2565 409.391 83.7747 409.052 84.351 408.85C85.8679 408.352 87.2532 407.519 88.4044 406.413C89.5556 405.307 90.443 403.956 91.0011 402.46C91.1057 402.292 91.2427 402.146 91.404 402.031C91.5654 401.916 91.7479 401.834 91.9411 401.79C95.6311 400.79 99.3211 399.73 103.031 398.79C107.741 397.58 112.481 396.48 117.181 395.23C118.561 394.86 119.841 394.11 121.181 393.6C121.609 393.534 122.044 393.534 122.471 393.6C122.301 394.03 122.251 394.6 121.941 394.85C121.363 395.327 120.939 395.963 120.721 396.68C118.921 401.68 117.121 406.76 115.201 411.75C114.501 413.44 113.471 415.11 112.571 416.87ZM100.271 410.57C99.5511 409.41 99.5411 409.39 98.4811 409.93C97.4211 410.47 96.2511 411.03 95.2011 411.69C94.1511 412.35 93.3611 413.06 92.4511 413.76L92.5111 414.13C93.1511 414.35 94.0211 414.94 94.3811 414.71C96.4111 413.44 98.3211 411.97 100.271 410.57ZM92.0611 414.23C90.7111 415.5 89.4911 416.7 88.2111 417.83C87.4311 418.52 87.5611 419.06 88.3211 419.67L93.2411 415.67L92.0611 414.23ZM101.961 409.71C103.551 408.6 105.101 407.57 106.601 406.46C106.891 406.25 106.991 405.77 107.181 405.46L106.901 405.27L100.901 408.83L101.961 409.71ZM86.6611 419.01C84.9411 420.59 84.7611 421.17 85.5811 422.4C88.1111 420.38 87.7011 421.03 86.6611 419.01ZM109.661 403.4C111.981 403.58 112.241 403.4 112.731 401.4L109.661 403.4Z" fill="black"/>
<path d="M68.6808 393.25C68.4065 393.495 68.2184 393.821 68.1446 394.182C68.0707 394.542 68.115 394.916 68.2708 395.25C68.5885 396.221 69.1914 397.075 70.0012 397.699C70.811 398.324 71.7901 398.69 72.8108 398.75C73.6408 398.75 74.4708 398.75 75.3008 398.75C76.1308 398.75 76.8708 398.68 77.7408 398.64C72.9708 409.64 76.4008 419.03 83.3608 427.73L83.0508 427.96C81.4408 426.24 79.8008 424.55 78.2408 422.79C77.4826 421.982 76.8398 421.073 76.3308 420.09C75.0108 417.35 72.9108 415.28 70.8408 413.16C67.8408 410.05 65.2908 406.63 64.2808 402.3C63.7264 399.997 63.747 397.593 64.3408 395.3C64.8008 401.97 68.0408 407.3 72.4208 412.13C72.3508 411.87 72.2908 411.6 72.2108 411.34C71.0053 407.767 70.3576 404.03 70.2908 400.26C70.2114 399.851 70.0131 399.476 69.7208 399.18C68.994 398.414 68.3255 397.595 67.7208 396.73C66.8508 395.2 67.1208 394.07 68.4408 392.73C67.2708 391.13 66.3408 389.42 66.6908 387.18L63.6308 390.53L63.3008 390.28C63.5646 388.958 64.2041 387.741 65.1424 386.775C66.0807 385.808 67.2781 385.133 68.5908 384.83C69.0136 384.711 69.4014 384.491 69.7208 384.19C71.8216 382.122 73.5174 379.68 74.7208 376.99C76.1408 373.99 77.3508 370.99 78.6508 367.99C78.7398 367.744 78.8681 367.514 79.0308 367.31C78.5056 371.245 77.3686 375.075 75.6608 378.66C74.1708 381.85 72.4208 384.84 69.4608 386.94C69.0585 387.254 68.7812 387.701 68.6786 388.202C68.576 388.702 68.6548 389.222 68.9008 389.67C69.53 391.254 70.6205 392.612 72.0308 393.57C75.4145 396.106 79.6389 397.254 83.8408 396.78L84.8408 396.68L84.8908 397C83.5508 397.23 82.2208 397.49 80.8908 397.69C79.1608 397.94 77.4108 398.1 75.6808 398.4C73.9508 398.7 73.0008 398.13 72.6808 396.4C72.6356 396.176 72.5157 395.975 72.3408 395.83C71.1208 394.95 69.9308 394.11 68.6808 393.25Z" fill="black"/>
<path d="M94.8002 364.78C94.1945 364.666 93.6419 364.359 93.2255 363.905C92.809 363.45 92.551 362.873 92.4902 362.26C92.1277 359.917 92.5984 357.521 93.8203 355.49C96.0403 351.55 99.1603 348.91 103.95 348.96C106.246 349.013 108.471 349.763 110.33 351.11C110.85 351.48 110.91 352.52 111.25 353.44C107.75 352.32 105.03 353.71 102.41 355.21C100.537 356.176 98.8909 357.529 97.5792 359.179C96.2674 360.828 95.3203 362.737 94.8002 364.78ZM98.4402 354.95C98.0402 354.7 97.7903 354.41 97.5903 354.45C97.4614 354.494 97.3459 354.571 97.2549 354.672C97.1639 354.774 97.1003 354.897 97.0703 355.03C97.1105 355.16 97.1844 355.278 97.2844 355.371C97.3845 355.464 97.5072 355.529 97.6403 355.56C97.8803 355.57 98.0702 355.25 98.4402 354.95Z" fill="black"/>
<path d="M63.7002 385.19C63.185 384.719 62.7852 384.136 62.532 383.486C62.2788 382.835 62.1789 382.135 62.2402 381.44C62.2402 377.97 64.1302 375.59 66.9402 373.92C69.7502 372.25 72.4002 372.55 75.2302 374.09C74.4002 375.58 73.6202 377.03 72.7902 378.44C72.7004 378.537 72.5924 378.615 72.4722 378.67C72.3521 378.725 72.2222 378.756 72.0902 378.76C70.3507 378.929 68.6891 379.564 67.2809 380.599C65.8727 381.634 64.7703 383.03 64.0902 384.64C63.9702 384.79 63.8802 384.92 63.7002 385.19ZM66.1502 377.35C65.8502 377.72 65.5402 377.94 65.5502 378.15C65.5602 378.36 65.8702 378.57 66.0502 378.78C66.2602 378.6 66.6002 378.44 66.6402 378.22C66.6802 378 66.4002 377.76 66.1502 377.35Z" fill="black"/>
<path d="M86.7811 386.37C88.0754 386.672 89.3482 387.059 90.5911 387.53C91.8511 388.11 91.7811 389.25 90.5911 389.99C89.4011 390.73 88.3511 391.48 87.2411 392.24C86.4005 392.71 85.4538 392.956 84.4911 392.956C83.5283 392.956 82.5816 392.71 81.7411 392.24C81.4281 392.038 81.1634 391.769 80.9655 391.453C80.7675 391.137 80.6412 390.782 80.5955 390.412C80.5497 390.042 80.5856 389.667 80.7006 389.312C80.8156 388.958 81.0069 388.633 81.2611 388.36C82.2647 387.343 83.6138 386.74 85.0411 386.67C85.5811 386.58 86.1411 386.58 86.6911 386.54L86.7811 386.37Z" fill="black"/>
<path d="M118.391 417.85C116.801 424.38 105.001 433.47 98.9609 434.73C106.391 430.11 113.301 425.11 118.391 417.85Z" fill="black"/>
<path d="M113.801 356.45C110.339 357.04 107.035 358.337 104.095 360.258C101.155 362.18 98.6413 364.686 96.7109 367.62C97.5109 361.75 106.941 355.61 113.801 356.45Z" fill="black"/>
<path d="M83.0818 406.99C81.1518 406.19 80.2918 401.21 81.9118 399.12L83.0818 406.99Z" fill="black"/>
<path d="M90.4117 401.45L85.9316 397.62C87.0245 397.572 88.0948 397.941 88.9263 398.652C89.7578 399.363 90.2886 400.363 90.4117 401.45Z" fill="black"/>
<path d="M167.611 391.86C170.828 392.613 174.189 392.475 177.334 391.462C180.478 390.449 183.288 388.599 185.461 386.11C187.321 383.87 187.371 381.78 185.761 379.35C185.311 378.67 184.891 378.58 184.301 379.24C181.983 381.866 179.104 383.937 175.878 385.3C172.651 386.662 169.159 387.281 165.661 387.11C164.319 387.171 162.982 387.321 161.661 387.56C161.241 387.56 160.821 387.68 160.381 387.75C160.381 387.54 160.381 387.43 160.381 387.42C162.211 386.42 163.381 384.78 164.551 383.18C167.681 379.04 171.451 375.75 176.551 374.31C179.789 373.395 183.198 373.254 186.501 373.9L187.291 374.03C187.549 373.17 187.472 372.244 187.075 371.439C186.677 370.633 185.99 370.008 185.151 369.69C182.886 368.697 180.384 368.371 177.941 368.75C176.099 369.01 174.282 369.424 172.511 369.99C169.612 370.905 167.152 372.856 165.601 375.47C164.801 376.72 164.011 377.98 163.201 379.23C161.183 382.235 158.262 384.522 154.861 385.76C154.435 385.88 154 385.964 153.561 386.01C153.841 385.34 154.001 384.91 154.201 384.49C155.531 381.73 156.961 379.01 158.201 376.2C159.572 372.935 161.805 370.104 164.661 368.01C168.535 365.215 172.861 363.107 177.451 361.78C180.595 360.868 183.942 360.931 187.051 361.96C188.051 362.27 189.051 362.61 190.051 362.87C190.753 363.153 191.538 363.149 192.237 362.859C192.937 362.569 193.494 362.017 193.791 361.32C195.283 358.717 195.807 355.671 195.271 352.72C195.193 352.308 195.156 351.889 195.161 351.47C196.592 353.887 197.679 356.492 198.391 359.21C200.801 358.39 202.841 358.96 203.831 360.54C202.561 361.41 201.241 362.19 200.071 363.16C199.207 363.867 198.572 364.815 198.246 365.882C197.921 366.95 197.919 368.091 198.241 369.16C199.111 373.16 201.061 376.65 202.941 380.16C204.821 383.67 206.671 386.94 208.501 390.34C208.789 390.988 209.03 391.656 209.221 392.34L208.861 392.67C208.326 392.408 207.831 392.071 207.391 391.67C205.961 389.94 204.561 388.18 203.251 386.37C201.041 383.37 198.951 380.19 196.731 377.15C195.989 376.153 195.145 375.238 194.211 374.42C193.401 373.69 192.821 373.88 192.591 374.97C192.281 376.48 192.091 378.03 191.871 379.57C191.301 383.75 190.341 387.78 187.721 391.24C186.375 393.047 184.63 394.519 182.621 395.54C179.695 396.971 176.527 397.842 173.281 398.11C172.661 398.155 172.04 398.155 171.421 398.11C167.881 397.92 166.231 395.36 167.611 391.86ZM172.881 380.42C173.36 381.236 174.114 381.856 175.007 382.169C175.901 382.482 176.876 382.468 177.761 382.13C178.579 381.896 179.295 381.394 179.796 380.706C180.296 380.017 180.551 379.18 180.521 378.33C178.731 381.7 176.881 382.2 172.881 380.42Z" fill="url(#paint4_linear_0_1)"/>
<path d="M100.271 410.57C98.3212 411.97 96.4112 413.44 94.3812 414.71C94.0212 414.94 93.1512 414.35 92.5112 414.13L92.4512 413.76C93.3612 413.06 94.2412 412.3 95.2012 411.69C96.1612 411.08 97.3711 410.49 98.4811 409.93C99.5911 409.37 99.5512 409.41 100.271 410.57Z" fill="white"/>
<path d="M92.0615 414.23L93.2415 415.63L88.3215 419.63C87.5615 419.02 87.4315 418.48 88.2115 417.79C89.4915 416.7 90.7115 415.5 92.0615 414.23Z" fill="white"/>
<path d="M101.961 409.71L100.881 408.79L106.881 405.23L107.161 405.42C106.971 405.77 106.871 406.25 106.581 406.42C105.101 407.57 103.551 408.6 101.961 409.71Z" fill="white"/>
<path d="M86.6616 419.01C87.6616 421.01 88.1115 420.38 85.5815 422.4C84.7615 421.17 84.9416 420.59 86.6616 419.01Z" fill="white"/>
<path d="M109.691 403.4L112.761 401.4C112.271 403.39 112.011 403.58 109.691 403.4Z" fill="white"/>
<path d="M98.4403 354.95C98.0703 355.25 97.8503 355.57 97.6403 355.56C97.5072 355.529 97.3845 355.464 97.2845 355.371C97.1845 355.278 97.1106 355.16 97.0703 355.03C97.1004 354.897 97.1639 354.774 97.2549 354.672C97.346 354.571 97.4614 354.494 97.5903 354.45C97.7903 354.41 98.0403 354.7 98.4403 354.95Z" fill="white"/>
<path d="M172.881 380.42C176.881 382.2 178.691 381.7 180.521 378.33C180.551 379.181 180.296 380.017 179.796 380.706C179.296 381.395 178.579 381.896 177.761 382.13C176.877 382.469 175.901 382.483 175.007 382.17C174.114 381.857 173.36 381.237 172.881 380.42Z" fill="white"/>
<path d="M198.302 444.48C198.302 444.48 194.301 435.99 209.211 428.3C224.121 420.61 226.141 431.88 222.211 437.52C218.281 443.16 215.212 449.21 196.672 451.06C195.452 450.85 194.232 447.28 189.672 445.22C183.057 442.284 176.218 439.88 169.222 438.03C159.812 435.47 150.482 425.53 148.702 422.29C146.922 419.05 143.952 414.96 142.962 408.29C142.364 403.528 142.197 398.722 142.462 393.93L143.952 388.29L146.472 388.12C146.472 388.12 145.652 401.94 148.272 408.96C150.892 415.98 152.802 421.96 159.032 426.9C165.262 431.84 173.382 434.76 179.232 436.14C185.082 437.52 190.452 441.54 193.712 444.65C196.972 447.76 200.932 450.56 207.872 446.85C214.812 443.14 220.262 440.08 220.262 437.51C219.262 434.95 214.692 433.89 214.262 433.91C213.832 433.93 212.862 436.15 211.612 437.85C210.362 439.55 204.662 445.79 198.302 444.48Z" fill="url(#paint5_linear_0_1)"/>
<path d="M201.911 406.48L181.541 430.74V437.18L185.501 430.74L207.801 413.4L201.911 406.48Z" fill="black"/>
<path d="M216.182 405L227.182 410.63L229.272 413.35L225.512 411.91L215.932 409.83L216.182 405Z" fill="black"/>
<path opacity="0.1" d="M251.93 0H33.07C14.806 0 0 14.8059 0 33.07V486.93C0 505.194 14.806 520 33.07 520H251.93C270.194 520 285 505.194 285 486.93V33.07C285 14.8059 270.194 0 251.93 0Z" fill="white"/>
<defs>
<linearGradient id="paint0_linear_0_1" x1="143.5" y1="503" x2="143.5" y2="242.04" gradientUnits="userSpaceOnUse">
<stop stop-color="#101111"/>
<stop offset="0.02" stop-color="#111212"/>
<stop offset="0.58" stop-color="#2A2A2A"/>
<stop offset="0.92" stop-color="#333333"/>
</linearGradient>
<linearGradient id="paint1_linear_0_1" x1="57.7317" y1="381.55" x2="147.092" y2="381.55" gradientUnits="userSpaceOnUse">
<stop stop-color="#EC3593"/>
<stop offset="0.09" stop-color="#E4338E"/>
<stop offset="0.23" stop-color="#CF2F81"/>
<stop offset="0.4" stop-color="#AD276C"/>
<stop offset="0.59" stop-color="#7D1C4E"/>
<stop offset="0.8" stop-color="#410F28"/>
<stop offset="1"/>
</linearGradient>
<linearGradient id="paint2_linear_0_1" x1="247.601" y1="366.57" x2="162.151" y2="366.57" gradientUnits="userSpaceOnUse">
<stop offset="0.02"/>
<stop offset="0.05" stop-color="#03090B"/>
<stop offset="0.25" stop-color="#153E4E"/>
<stop offset="0.44" stop-color="#246B87"/>
<stop offset="0.62" stop-color="#308DB2"/>
<stop offset="0.77" stop-color="#38A6D2"/>
<stop offset="0.91" stop-color="#3DB6E5"/>
<stop offset="1" stop-color="#3FBBEC"/>
</linearGradient>
<linearGradient id="paint3_linear_0_1" x1="210.44" y1="379.43" x2="228.56" y2="367.78" gradientUnits="userSpaceOnUse">
<stop offset="0.02"/>
<stop offset="0.05" stop-color="#03090B"/>
<stop offset="0.25" stop-color="#153E4E"/>
<stop offset="0.44" stop-color="#246B87"/>
<stop offset="0.62" stop-color="#308DB2"/>
<stop offset="0.77" stop-color="#38A6D2"/>
<stop offset="0.91" stop-color="#3DB6E5"/>
<stop offset="1" stop-color="#3FBBEC"/>
</linearGradient>
<linearGradient id="paint4_linear_0_1" x1="153.591" y1="374.82" x2="209.211" y2="374.82" gradientUnits="userSpaceOnUse">
<stop stop-color="#101111"/>
<stop offset="0.02" stop-color="#111212"/>
<stop offset="0.58" stop-color="#2A2A2A"/>
<stop offset="0.92" stop-color="#333333"/>
</linearGradient>
<linearGradient id="paint5_linear_0_1" x1="150.732" y1="447.1" x2="207.352" y2="388.18" gradientUnits="userSpaceOnUse">
<stop offset="0.02"/>
<stop offset="0.05" stop-color="#03090B"/>
<stop offset="0.25" stop-color="#153E4E"/>
<stop offset="0.44" stop-color="#246B87"/>
<stop offset="0.62" stop-color="#308DB2"/>
<stop offset="0.77" stop-color="#38A6D2"/>
<stop offset="0.91" stop-color="#3DB6E5"/>
<stop offset="1" stop-color="#3FBBEC"/>
</linearGradient>
</defs>
</svg>
