<svg width="285" height="521" viewBox="0 0 285 521" fill="none" xmlns="http://www.w3.org/2000/svg">
<path opacity="0.1" d="M251.93 0.890015H33.07C14.806 0.890015 0 15.6959 0 33.96V487.82C0 506.084 14.806 520.89 33.07 520.89H251.93C270.194 520.89 285 506.084 285 487.82V33.96C285 15.6959 270.194 0.890015 251.93 0.890015Z" fill="white"/>
<path d="M142.62 395.89C220.768 395.89 284.12 332.538 284.12 254.39C284.12 176.242 220.768 112.89 142.62 112.89C64.4717 112.89 1.12 176.242 1.12 254.39C1.12 332.538 64.4717 395.89 142.62 395.89Z" fill="url(#paint0_linear_0_1)"/>
<path d="M141.49 278.37C139.62 285.27 138.15 292.24 138.77 299.43C139.21 304.52 140.03 309.57 140.67 314.64C140.82 315.8 140.99 316.96 141.09 318.13C141.246 319.267 141.054 320.425 140.54 321.451C140.026 322.477 139.214 323.324 138.21 323.88C136.233 324.961 134.047 325.609 131.8 325.78C127.8 326.26 123.86 326.87 119.86 327.12C116.09 327.35 112.31 327.12 109.06 324.7C108.869 324.594 108.668 324.507 108.46 324.44C108.167 325.164 107.972 325.924 107.88 326.7C107.825 327.727 108.006 328.754 108.41 329.7C108.702 330.218 108.839 330.809 108.806 331.403C108.772 331.997 108.569 332.568 108.22 333.05C107.543 334.396 107.133 335.859 107.01 337.36C106.84 339.36 108.36 340.56 110.37 340.26C110.63 340.26 111.03 339.93 111.06 339.71C111.45 336.86 113.32 335.14 115.59 333.71C118.929 331.795 122.561 330.443 126.34 329.71C128.89 329.14 131.48 328.71 134.05 328.21L134.12 328.46C132.37 329.14 130.6 329.78 128.87 330.51C125.76 331.82 122.64 333.12 119.57 334.51C117.434 335.536 115.629 337.14 114.36 339.14C113.94 339.807 113.345 340.347 112.64 340.699C111.934 341.052 111.146 341.205 110.36 341.14C104.9 341.08 101.27 338.37 99.24 333.48C98.3323 331.14 97.584 328.741 97 326.3C96.566 324.597 95.8384 322.983 94.85 321.53C90.5931 315.621 86.0198 309.946 81.15 304.53C75.5 298 69.77 291.53 64.22 284.93C59.87 279.75 59.42 273.87 61.85 267.7C61.9623 267.476 61.9958 267.221 61.945 266.976C61.8942 266.731 61.762 266.511 61.57 266.35C59.4448 264.079 57.8859 261.338 57.02 258.35C57.02 258.15 56.92 257.95 56.88 257.74C56.8914 257.579 56.9115 257.419 56.94 257.26C57.5736 258.975 58.7544 260.433 60.3 261.41C58.3 256.28 58.89 251.73 62.36 247.76C65.83 243.79 70.25 242.68 75.46 243.46C71.92 240.76 71.62 237.12 72.29 233.15C71.0613 234.42 70.2607 236.042 70 237.79C68.7166 237.829 67.4371 237.952 66.17 238.16C64.8991 238.534 63.6532 238.988 62.44 239.52C63.21 221.27 68.5 204.75 79.87 190.31C79.61 190.58 79.34 190.85 79.09 191.13C70.09 201.28 64.58 213.22 61.45 226.32C60.2831 231.301 59.5769 236.379 59.34 241.49C59.1406 242.28 58.802 243.029 58.34 243.7L57.95 243.61C57.95 242.78 57.81 241.95 57.81 241.11C57.972 234.161 59.0685 227.266 61.07 220.61C64.31 209.1 69.16 198.36 76.53 188.86C80.9815 182.969 86.5638 178.026 92.95 174.32C93.5475 173.991 94.2096 173.797 94.89 173.75C101.801 173.194 108.656 175.353 114 179.77C118.655 183.359 122.619 187.764 125.7 192.77C127.83 196.39 128.51 200.53 129.37 204.59C129.85 206.89 130.367 209.18 130.92 211.46C131.97 215.8 134.43 219.46 136.61 223.26C138.874 226.932 140.93 230.728 142.77 234.63C145.67 241.32 146.39 248.49 146.16 255.74C146.06 259.05 145.83 262.37 145.47 265.66M120.08 323.11C120.588 323.359 121.113 323.573 121.65 323.75C124.446 324.455 127.374 324.455 130.17 323.75C131.714 323.278 133.202 322.641 134.61 321.85C135.269 321.521 135.815 321.005 136.182 320.366C136.548 319.727 136.718 318.995 136.67 318.26C136.713 316.436 136.589 314.612 136.3 312.81C134.245 302.721 134.365 292.31 136.65 282.27C138.29 274.68 139.81 267.06 141.34 259.44C143.14 250.44 142.34 241.73 138.03 233.55C136.65 230.91 134.67 228.55 133.03 226.07C129.606 220.855 127.228 215.023 126.03 208.9C123.65 196.57 116.98 187.19 106.64 180.31C103.167 177.78 98.9317 176.516 94.64 176.73C94.3036 176.766 93.9696 176.823 93.64 176.9C106.88 180.47 117.39 198.2 114.19 210.04C101.04 209.78 92.1 216.15 86.12 227.45C85.6929 227.091 85.2455 226.757 84.78 226.45C84.2717 226.185 83.7473 225.951 83.21 225.75C86.4 231.15 86.87 234.35 84.67 236.42C82.38 235.42 78.89 237.61 78.46 240.26C78.9648 239.797 79.4957 239.363 80.05 238.96C80.7473 238.464 81.5887 238.212 82.4438 238.243C83.2989 238.274 84.1201 238.585 84.78 239.13C84.9158 239.256 85.0206 239.412 85.0865 239.586C85.1524 239.759 85.1775 239.945 85.16 240.13C84.31 243.13 83.47 246.13 82.5 249.06C81.71 251.44 80.74 253.75 79.79 256.23C80.3457 256.185 80.9043 256.185 81.46 256.23C81.9748 256.334 82.5075 256.305 83.0079 256.146C83.5083 255.986 83.9599 255.702 84.32 255.32C86.91 252.83 92.69 253.54 93.76 258.32C94.2104 259.862 94.0713 261.515 93.37 262.96C93.318 263.132 93.2878 263.31 93.28 263.49C93.4406 263.402 93.5943 263.301 93.74 263.19C95.0438 262.028 95.8587 260.415 96.0201 258.676C96.1816 256.938 95.6777 255.202 94.61 253.82C93.1806 251.989 91.3639 250.497 89.29 249.45C88.9688 249.309 88.6998 249.072 88.5204 248.771C88.3411 248.469 88.2605 248.119 88.29 247.77C88.29 246.42 88.17 245.07 88.18 243.77C88.18 240.67 87.74 237.57 88.47 234.48C88.6151 233.765 88.5946 233.026 88.41 232.32C88.0846 230.786 88.3603 229.186 89.18 227.85C90.6492 225.202 92.8928 223.067 95.61 221.73C97.0245 220.878 98.6256 220.385 100.274 220.292C101.923 220.2 103.569 220.511 105.07 221.2C107.07 222.14 108.98 223.36 110.93 224.47C111.41 224.74 111.88 225.03 112.36 225.31L112.07 225.69C114.787 224.801 117.243 223.256 119.22 221.19C117.55 223.92 114.95 225.53 112.28 226.91C112.4 228.06 112.84 228.43 113.89 228.06C114.94 227.69 116.09 227.48 117.18 227.14C118.27 226.8 119.55 226.35 120.74 225.95L120.85 226.22L113.96 229.22C118.989 229.887 123.607 232.352 126.96 236.16C127.581 236.763 128.053 237.503 128.338 238.321C128.622 239.139 128.712 240.011 128.6 240.87C128.471 242.378 127.938 243.823 127.059 245.055C126.179 246.286 124.984 247.259 123.6 247.87C121.089 249.086 118.458 250.038 115.75 250.71C110.23 251.95 104.63 252.85 99.06 253.87C98.42 253.99 97.81 254.07 97.93 255.05C98.317 255.154 98.7115 255.228 99.11 255.27C101.79 255.45 104.49 255.56 107.17 255.8C111.59 256.19 115.84 257.2 119.54 259.8C124.19 263.07 126.61 267.8 127.67 273.19C129.254 281.452 130.353 289.8 130.96 298.19C130.985 298.762 130.842 299.328 130.55 299.82C129.138 302.004 127.26 303.848 125.05 305.22C124.451 305.634 123.761 305.897 123.039 305.988C122.316 306.078 121.583 305.993 120.9 305.74C119.813 305.29 118.948 304.43 118.491 303.346C118.034 302.262 118.023 301.042 118.46 299.95C119.65 297.35 120.75 294.71 121.87 292.07C122.101 291.492 122.298 290.901 122.46 290.3C122.62 289.75 122.74 289.19 122.88 288.64C122.816 288.651 122.756 288.677 122.705 288.717C122.654 288.758 122.615 288.81 122.59 288.87C118.7 299.02 111.26 305.94 102.08 311.23C100.597 312.144 98.8807 312.607 97.1394 312.565C95.3981 312.522 93.7066 311.975 92.27 310.99C92.04 310.85 91.8 310.74 91.56 310.61C92.7038 312.086 94.373 313.064 96.22 313.34C98 313.48 98.63 314.51 99.22 315.84C99.41 316.29 99.58 316.74 99.76 317.19C99.9739 317.642 100.071 318.141 100.043 318.64C100.015 319.14 99.863 319.624 99.6 320.05C99.1788 320.804 98.8817 321.621 98.72 322.47C97.9129 326.373 98.6668 330.436 100.82 333.79C101.731 335.431 102.95 336.881 104.41 338.06C104.197 337.638 103.946 337.236 103.66 336.86C101.324 333.77 100.168 329.947 100.4 326.08C100.402 324.885 100.729 323.714 101.345 322.69C101.962 321.667 102.845 320.83 103.9 320.27C109.06 317.27 113.9 313.79 118.9 310.52C119.234 310.245 119.657 310.099 120.09 310.11C121.629 310.474 123.13 310.986 124.57 311.64C127.29 313.05 127.85 315.34 125.93 317.71C124.473 319.311 122.906 320.808 121.24 322.19C121 322.52 120.62 322.74 120.09 323.15L120.08 323.11ZM111.68 292.72C112.58 290.95 113.61 289.29 114.3 287.51C116.22 282.51 118.02 277.51 119.82 272.44C120.038 271.723 120.462 271.087 121.04 270.61C121.35 270.35 121.4 269.79 121.57 269.36C121.143 269.294 120.708 269.294 120.28 269.36C118.92 269.87 117.64 270.62 116.28 270.99C111.58 272.24 106.84 273.34 102.13 274.55C98.42 275.55 94.73 276.55 91.04 277.55C90.8468 277.594 90.6643 277.676 90.503 277.791C90.3417 277.906 90.2046 278.052 90.1 278.22C89.5419 279.716 88.6545 281.067 87.5033 282.173C86.3521 283.279 84.9668 284.112 83.45 284.61C82.8737 284.812 82.3554 285.151 81.9406 285.599C81.5257 286.047 81.2268 286.59 81.07 287.18C80.3499 289.734 80.3257 292.434 81 295C81.28 296.37 81.72 297.71 82.09 299.07C82.01 297.77 81.66 296.54 81.46 295.29C80.98 292.4 80.76 289.5 82.1 286.76C82.3937 286.242 82.856 285.839 83.41 285.62C86.4321 284.635 88.9849 282.57 90.58 279.82C90.7503 279.419 91.013 279.064 91.3467 278.785C91.6804 278.505 92.0756 278.308 92.5 278.21C92.87 278.12 93.23 277.98 93.6 277.89C98.94 276.65 104.29 275.42 109.6 274.16C111.77 273.66 113.93 273.1 116.09 272.56C115.205 273.334 114.274 274.052 113.3 274.71C107.826 278.692 102.09 282.3 96.13 285.51C94.4423 286.449 92.8571 287.562 91.4 288.83C89.5 290.36 87.74 292.06 85.87 293.63C84.16 295.06 83.25 296.84 83.81 299.02C84.2405 300.389 84.8455 301.696 85.61 302.91C86.2677 304.057 87.2591 304.977 88.4525 305.547C89.6458 306.117 90.9843 306.31 92.29 306.1C92.71 306.03 93.13 305.92 93.51 305.84V308.55C94.288 306.128 95.7628 303.989 97.75 302.4C101.49 299.8 105.3 297.29 108.99 294.62C110.115 293.759 111.504 293.314 112.92 293.36H113.53V293.15L111.68 292.72ZM67.8 269.14C69.05 270.02 70.24 270.84 71.41 271.68C71.5849 271.826 71.7049 272.027 71.75 272.25C72.06 274.01 72.97 274.58 74.75 274.25C76.53 273.92 78.23 273.79 79.96 273.54C81.3 273.34 82.63 273.08 83.96 272.85L83.91 272.53L82.91 272.63C78.7081 273.104 74.4837 271.956 71.1 269.42C69.6896 268.463 68.5992 267.104 67.97 265.52C67.7239 265.073 67.6452 264.552 67.7478 264.052C67.8504 263.552 68.1277 263.104 68.53 262.79C71.53 260.69 73.24 257.7 74.73 254.51C76.4377 250.925 77.5748 247.096 78.1 243.16C77.9373 243.365 77.8089 243.594 77.72 243.84C76.42 246.84 75.21 249.9 73.79 252.84C72.5865 255.531 70.8907 257.973 68.79 260.04C68.4705 260.341 68.0828 260.561 67.66 260.68C66.3473 260.983 65.1499 261.659 64.2115 262.625C63.2732 263.592 62.6338 264.809 62.37 266.13L62.7 266.38L65.76 263.03C65.41 265.27 66.34 266.98 67.51 268.58C66.19 269.87 65.92 271 66.79 272.58C67.3947 273.445 68.0632 274.264 68.79 275.03C69.0823 275.326 69.2806 275.702 69.36 276.11C69.4268 279.88 70.0745 283.617 71.28 287.19C71.36 287.45 71.42 287.72 71.49 287.98C67.11 283.16 63.87 277.82 63.41 271.15C62.8161 273.443 62.7955 275.847 63.35 278.15C64.35 282.48 66.9 285.9 69.91 289.01C71.98 291.13 74.08 293.2 75.4 295.94C75.909 296.924 76.5518 297.833 77.31 298.64C78.87 300.4 80.51 302.09 82.12 303.81L82.43 303.58C75.43 294.88 72.04 285.5 76.81 274.49C75.94 274.49 75.15 274.58 74.37 274.6C73.59 274.62 72.71 274.6 71.88 274.6C70.8593 274.54 69.8802 274.174 69.0704 273.55C68.2606 272.926 67.6577 272.072 67.34 271.1C67.1995 270.767 67.1683 270.397 67.251 270.045C67.3336 269.693 67.5258 269.376 67.8 269.14ZM93.92 240.67C94.44 238.628 95.3872 236.719 96.6989 235.069C98.0107 233.42 99.6572 232.067 101.53 231.1C104.15 229.6 106.87 228.21 110.37 229.33C110.03 228.41 109.97 227.33 109.45 227C107.591 225.653 105.366 224.903 103.07 224.85C98.28 224.8 95.16 227.44 92.94 231.38C91.7182 233.412 91.2475 235.807 91.61 238.15C91.6708 238.763 91.9287 239.341 92.3452 239.795C92.7617 240.249 93.3142 240.556 93.92 240.67ZM62.82 261.08C62.99 260.81 63.09 260.68 63.17 260.53C63.8501 258.92 64.9525 257.524 66.3607 256.489C67.7688 255.454 69.4305 254.819 71.17 254.65C71.302 254.646 71.4319 254.615 71.552 254.56C71.6721 254.505 71.7802 254.427 71.87 254.33C72.7 252.92 73.48 251.47 74.31 249.98C71.48 248.44 68.71 248.21 66.02 249.81C63.33 251.41 61.32 253.86 61.32 257.33C61.2637 258.029 61.3698 258.73 61.63 259.381C61.8902 260.032 62.2976 260.613 62.82 261.08ZM85.9 262.26L85.83 262.47C85.28 262.47 84.72 262.47 84.18 262.6C82.7527 262.67 81.4036 263.273 80.4 264.29C80.1458 264.563 79.9545 264.888 79.8395 265.242C79.7245 265.597 79.6886 265.972 79.7344 266.342C79.7801 266.712 79.9064 267.067 80.1044 267.383C80.3023 267.699 80.5671 267.968 80.88 268.17C81.7205 268.639 82.6673 268.886 83.63 268.886C84.5927 268.886 85.5395 268.639 86.38 268.17C87.49 267.41 88.6 266.64 89.73 265.92C90.86 265.2 90.97 264.04 89.73 263.46C88.4815 262.975 87.202 262.574 85.9 262.26ZM117.51 293.74C112.42 300.97 105.51 306 98.08 310.62C104.12 309.36 115.92 300.27 117.51 293.74ZM112.92 232.34C106.06 231.5 96.63 237.64 95.83 243.51C97.7604 240.576 100.274 238.07 103.214 236.148C106.154 234.227 109.458 232.931 112.92 232.34ZM82.2 282.88L81 275C79.41 277.1 80.27 282.08 82.2 282.88ZM89.53 277.34C89.407 276.253 88.8761 275.253 88.0446 274.542C87.2131 273.832 86.1429 273.463 85.05 273.51L89.53 277.34Z" fill="url(#paint1_linear_0_1)"/>
<path d="M185.61 292.16C185.61 290.81 185.61 289.47 185.61 288.16C185.58 287.642 185.479 287.131 185.31 286.64C185.263 286.381 185.157 286.137 185 285.925C184.844 285.714 184.641 285.541 184.407 285.42C184.173 285.3 183.915 285.234 183.652 285.229C183.389 285.224 183.128 285.279 182.89 285.39C181.75 285.77 180.66 286.31 179.55 286.79C176.79 287.99 173.97 288.85 170.91 288.15C168.523 287.538 166.339 286.307 164.58 284.58C161.441 281.695 158.825 278.288 156.85 274.51C155.34 271.65 155.13 268.51 157.27 265.7C157.94 264.81 157.77 264.44 156.66 264.34C155.55 264.24 154.66 264.34 153.66 264.24C152.587 264.081 151.618 263.509 150.96 262.646C150.303 261.783 150.008 260.697 150.14 259.62C150.95 255.62 151.86 251.73 152.64 247.77C153.589 243.076 156.329 238.937 160.28 236.23C163.35 233.99 166.33 231.63 169.34 229.31C169.92 228.86 170.43 228.31 170.97 227.82L170.82 227.5C170.336 227.539 169.857 227.626 169.39 227.76C166.69 228.76 164.02 229.76 161.32 230.76C160.648 230.989 159.931 231.051 159.23 230.94C156.288 230.507 153.576 229.098 151.53 226.94C148.96 224.14 148.53 220.74 148.99 217.15C149.702 212.282 151.367 207.603 153.89 203.38C157.81 196.3 162.89 190.06 168.11 183.92C169.18 182.66 170.21 181.36 171.24 180.06C171.449 179.741 171.633 179.407 171.79 179.06L171.58 178.8C171.101 178.993 170.645 179.238 170.22 179.53C168.11 181.41 165.93 183.23 163.97 185.26C156.488 192.831 149.691 201.05 143.66 209.82C141.66 212.75 139.83 215.75 139.25 219.39C138.48 218.3 137.83 214.68 138.4 213.52C139.676 210.656 141.153 207.885 142.82 205.23C149.893 194.784 158.297 185.304 167.82 177.03C169.517 175.56 171.337 174.238 173.26 173.08C174.31 172.425 175.522 172.077 176.76 172.077C177.998 172.077 179.21 172.425 180.26 173.08C192.717 180.556 203.792 190.123 213 201.36C213.857 202.484 214.655 203.653 215.39 204.86C215.453 205.012 215.487 205.175 215.49 205.34C214.811 205.312 214.147 205.128 213.55 204.802C212.954 204.476 212.44 204.017 212.05 203.46C207.508 198.2 202.404 193.452 196.83 189.3C192.89 186.22 188.76 183.37 184.72 180.42C184.357 180.158 183.96 179.946 183.54 179.79C186.8 182.45 190.12 185.03 193.3 187.79C196.48 190.55 199.66 193.52 202.74 196.49C205.817 199.403 208.601 202.612 211.05 206.07C208.91 208.36 206.8 210.61 204.7 212.87L204.83 213.03C205.76 212.55 206.68 212.03 207.62 211.58C209.526 210.507 211.647 209.871 213.83 209.72C214.924 209.727 216.011 209.906 217.05 210.25C219.29 210.98 219.92 214.25 218.93 215.82C217.39 218.27 216.03 220.82 214.42 223.24C212.888 225.276 210.748 226.771 208.31 227.51C206.65 228.13 205.62 227.74 204.5 226.35C202.781 224.423 200.609 222.956 198.18 222.08L198.76 222.8C198.98 223.06 199.2 223.33 199.41 223.61C201.54 226.52 202.67 229.91 203.94 233.23C203.987 233.392 204.004 233.562 203.99 233.73C203.387 238.825 204.659 243.965 207.57 248.19C208.291 249.406 208.923 250.672 209.46 251.98C212.309 257.629 215.824 262.916 219.93 267.73C221.02 269.06 222.08 270.43 223.05 271.86C224.02 273.29 223.86 274.46 222.37 275.5C219.735 277.306 216.551 278.134 213.37 277.84C212.105 277.643 210.812 277.902 209.72 278.57C207.34 280.23 204.56 279.89 201.92 280.17C201.62 280.17 201.22 279.89 200.97 279.65C200.188 278.889 199.586 277.962 199.208 276.937C198.831 275.913 198.688 274.817 198.79 273.73L198.65 273.8C198.65 275.47 197.5 276.72 197.08 278.23C196.36 280.78 197.08 282.49 199.53 283.47C201.653 284.45 204.04 284.7 206.32 284.18C206.708 284.076 207.117 284.086 207.499 284.211C207.881 284.335 208.218 284.567 208.47 284.88C209.183 285.713 209.851 286.585 210.47 287.49C210.663 287.828 210.982 288.075 211.356 288.178C211.731 288.281 212.132 288.231 212.47 288.04C213.268 287.647 213.916 287.005 214.318 286.212C214.721 285.418 214.854 284.516 214.7 283.64C214.54 282.11 214.82 281.57 216.12 280.89C218.201 280.062 220.411 279.602 222.65 279.53L220.1 287.76C219.19 287.48 218.1 287.1 217.1 286.87C216.699 286.79 216.283 286.839 215.911 287.009C215.539 287.18 215.231 287.464 215.03 287.82C214.165 288.908 213.034 289.756 211.747 290.281C210.46 290.806 209.06 290.992 207.68 290.82C207.325 290.746 206.957 290.777 206.62 290.91C200.81 294.62 195.14 298.51 190.62 303.77C189.597 305.024 188.725 306.393 188.02 307.85C187.717 308.696 187.519 309.576 187.43 310.47L187.79 310.6L188.56 309.45C190.796 305.821 193.754 302.69 197.25 300.25C200.42 298.334 203.898 296.981 207.53 296.25C211.37 295.36 214.68 293.36 218.08 291.55C218.483 291.294 218.824 290.953 219.08 290.55C219.435 289.938 219.857 289.368 220.34 288.85V297.55C220.07 297.43 219.62 297.07 219.27 297.14C218.92 297.21 218.53 297.73 218.14 298.01C212.254 302.434 205.288 305.197 197.97 306.01C197.516 306.119 197.101 306.351 196.77 306.68C194.71 308.4 192.77 310.21 190.61 311.87C189.866 312.367 189.029 312.707 188.15 312.87C187.876 312.965 187.585 313.003 187.296 312.983C187.007 312.963 186.724 312.885 186.466 312.753C186.207 312.622 185.978 312.439 185.791 312.217C185.605 311.995 185.465 311.737 185.38 311.46C185.059 310.555 184.847 309.615 184.75 308.66C184.3 305.15 185.29 301.81 186.08 298.45C187.79 291.2 190.63 284.33 193.55 277.5C194.1 276.21 194.69 274.93 195.26 273.64L195.04 273.5C194.28 274.62 193.48 275.73 192.76 276.89C192.04 278.05 191.32 279.33 190.66 280.58C190 281.83 189.37 283.1 188.79 284.39C188.21 285.68 187.66 286.98 187.15 288.3C186.64 289.62 186.15 290.95 185.74 292.3L185.61 292.16ZM166.73 267.75C165.35 271.25 166.96 273.81 170.54 274.02C171.159 274.065 171.781 274.065 172.4 274.02C175.644 273.745 178.808 272.867 181.73 271.43C183.739 270.41 185.485 268.938 186.83 267.13C189.45 263.67 190.41 259.64 190.98 255.46C191.2 253.92 191.39 252.37 191.7 250.86C191.93 249.77 192.51 249.58 193.32 250.31C194.254 251.129 195.099 252.044 195.84 253.04C198.06 256.04 200.15 259.21 202.36 262.26C203.67 264.07 205.07 265.83 206.5 267.56C206.94 267.962 207.435 268.298 207.97 268.56L208.33 268.23C208.139 267.547 207.899 266.878 207.61 266.23C205.78 262.83 203.87 259.46 202.05 256.05C200.23 252.64 198.22 249 197.35 245.05C197.028 243.981 197.03 242.841 197.356 241.773C197.682 240.705 198.316 239.757 199.18 239.05C200.35 238.05 201.67 237.3 202.94 236.43C201.94 234.85 199.94 234.28 197.5 235.1C196.788 232.382 195.701 229.777 194.27 227.36C194.266 227.779 194.302 228.198 194.38 228.61C194.916 231.562 194.392 234.608 192.9 237.21C192.604 237.907 192.046 238.46 191.347 238.749C190.647 239.039 189.862 239.043 189.16 238.76C188.16 238.5 187.16 238.16 186.16 237.85C183.052 236.821 179.705 236.759 176.56 237.67C171.971 238.997 167.644 241.105 163.77 243.9C160.915 245.995 158.682 248.825 157.31 252.09C156.08 254.9 154.65 257.62 153.31 260.38C153.11 260.8 152.95 261.23 152.67 261.9C153.11 261.854 153.545 261.771 153.97 261.65C157.372 260.412 160.292 258.126 162.31 255.12C163.12 253.87 163.91 252.61 164.71 251.36C166.262 248.746 168.722 246.796 171.62 245.88C173.392 245.315 175.208 244.9 177.05 244.64C179.494 244.261 181.995 244.587 184.26 245.58C185.099 245.899 185.787 246.524 186.184 247.329C186.581 248.134 186.658 249.06 186.4 249.92L185.61 249.79C182.307 249.145 178.899 249.285 175.66 250.2C170.53 251.64 166.76 254.93 163.66 259.07C162.45 260.67 161.32 262.33 159.49 263.31C159.49 263.31 159.49 263.43 159.49 263.64C159.93 263.57 160.35 263.5 160.77 263.45C162.092 263.211 163.428 263.061 164.77 263C168.269 263.17 171.762 262.549 174.988 261.185C178.215 259.821 181.094 257.748 183.41 255.12C184 254.46 184.41 254.55 184.87 255.23C186.48 257.66 186.43 259.75 184.57 261.99C182.397 264.479 179.588 266.33 176.443 267.343C173.298 268.356 169.937 268.493 166.72 267.74L166.73 267.75Z" fill="url(#paint2_linear_0_1)"/>
<path d="M221.53 232.86C221.95 234.69 222.26 236.6 222.83 238.42C223.256 239.952 223.903 241.414 224.75 242.76C228.42 248.18 229 254 227.34 260.19C226.42 263.59 225.55 267 224.66 270.4C224.392 270.275 224.151 270.097 223.952 269.878C223.753 269.658 223.601 269.401 223.503 269.121C223.405 268.842 223.364 268.545 223.382 268.25C223.401 267.954 223.478 267.665 223.61 267.4C224.581 264.42 225.402 261.393 226.07 258.33C226.7 254.483 226.032 250.535 224.17 247.11C226.59 253.99 224.71 260.24 221.34 266.44C220.7 265.68 220.1 264.95 219.48 264.24C217.742 262.324 216.366 260.108 215.42 257.7C214.3 254.7 212.97 251.84 211.79 249.07C214.31 247.9 216.79 246.84 219.21 245.6C220.171 245.133 220.97 244.39 221.505 243.465C222.04 242.54 222.285 241.476 222.21 240.41C221.85 240.72 221.59 240.95 221.32 241.17C219.93 242.31 218.61 243.55 217.14 244.56C213.33 247.15 207.39 244.46 206.8 239.91C206.683 238.74 206.627 237.566 206.63 236.39C206.629 236.127 206.722 235.872 206.89 235.67C208.29 234.01 209.72 232.38 211.12 230.73C211.71 230.05 212.22 229.3 212.81 228.63C214.47 226.77 216.97 226.45 219.62 227.89C218.821 228.38 217.996 228.827 217.15 229.23C214.392 230.356 211.889 232.026 209.79 234.14C209.43 234.51 209.07 234.89 208.79 235.29C207.91 236.39 207.94 236.98 208.97 237.96C210.52 239.43 212.43 239.44 214.32 239.03C215.939 238.679 217.445 237.932 218.704 236.855C219.962 235.778 220.933 234.405 221.53 232.86Z" fill="url(#paint3_linear_0_1)"/>
<path d="M213.76 235.27C216.46 236.46 217.64 236.16 219.29 233.85C219.264 234.459 219.039 235.044 218.651 235.515C218.264 235.985 217.733 236.317 217.14 236.46C216.525 236.673 215.856 236.671 215.242 236.455C214.629 236.239 214.106 235.821 213.76 235.27Z" fill="white"/>
<path d="M120.09 323.15C120.62 322.74 120.95 322.52 121.25 322.24C122.916 320.858 124.483 319.361 125.94 317.76C127.86 315.39 127.3 313.1 124.58 311.69C123.14 311.036 121.639 310.524 120.1 310.16C119.667 310.149 119.244 310.295 118.91 310.57C113.91 313.84 109.05 317.34 103.91 320.32C102.855 320.88 101.972 321.717 101.355 322.74C100.739 323.764 100.412 324.935 100.41 326.13C100.178 329.997 101.334 333.82 103.67 336.91C103.956 337.286 104.207 337.688 104.42 338.11C102.96 336.931 101.741 335.481 100.83 333.84C98.6768 330.486 97.9229 326.423 98.73 322.52C98.8917 321.671 99.1889 320.854 99.61 320.1C99.873 319.674 100.025 319.19 100.053 318.69C100.081 318.191 99.9839 317.692 99.77 317.24C99.59 316.79 99.42 316.34 99.23 315.89C98.67 314.56 98.04 313.53 96.23 313.39C94.383 313.114 92.7138 312.136 91.57 310.66C91.81 310.79 92.05 310.9 92.28 311.04C93.7166 312.025 95.4081 312.572 97.1494 312.615C98.8907 312.657 100.607 312.194 102.09 311.28C111.27 305.99 118.71 299.07 122.6 288.92C122.625 288.86 122.664 288.808 122.715 288.767C122.766 288.727 122.826 288.7 122.89 288.69C122.75 289.24 122.63 289.8 122.47 290.35C122.308 290.951 122.111 291.542 121.88 292.12C120.76 294.76 119.66 297.4 118.47 300C118.033 301.092 118.044 302.312 118.501 303.396C118.958 304.48 119.823 305.34 120.91 305.79C121.593 306.043 122.326 306.128 123.049 306.038C123.771 305.947 124.461 305.684 125.06 305.27C127.27 303.898 129.148 302.054 130.56 299.87C130.852 299.378 130.995 298.812 130.97 298.24C130.363 289.85 129.264 281.502 127.68 273.24C126.62 267.82 124.2 263.12 119.55 259.85C115.85 257.24 111.6 256.23 107.18 255.85C104.5 255.61 101.8 255.5 99.12 255.32C98.7391 255.242 98.3647 255.135 98 255C97.88 254 98.49 253.94 99.13 253.82C104.7 252.82 110.3 251.9 115.82 250.66C118.528 249.988 121.159 249.036 123.67 247.82C125.054 247.209 126.249 246.236 127.129 245.005C128.008 243.773 128.541 242.328 128.67 240.82C128.782 239.961 128.692 239.089 128.408 238.271C128.123 237.453 127.651 236.713 127.03 236.11C123.677 232.302 119.059 229.837 114.03 229.17L120.92 226.17L120.81 225.9C119.62 226.3 118.44 226.73 117.25 227.09C116.06 227.45 115.03 227.63 113.96 228.01C112.89 228.39 112.47 228.01 112.35 226.86C115.02 225.48 117.62 223.86 119.29 221.14C117.313 223.206 114.857 224.751 112.14 225.64L112.43 225.26C111.95 224.98 111.48 224.69 111 224.42C109 223.31 107.16 222.09 105.14 221.15C103.639 220.461 101.993 220.15 100.344 220.242C98.6957 220.335 97.0945 220.828 95.68 221.68C92.9628 223.017 90.7192 225.152 89.25 227.8C88.4303 229.136 88.1546 230.736 88.48 232.27C88.6646 232.976 88.6851 233.715 88.54 234.43C87.81 237.52 88.28 240.62 88.25 243.72C88.25 245.06 88.39 246.41 88.36 247.72C88.3305 248.069 88.4111 248.419 88.5905 248.721C88.7698 249.022 89.0388 249.259 89.36 249.4C91.4339 250.447 93.2506 251.939 94.68 253.77C95.7477 255.152 96.2516 256.887 96.0901 258.626C95.9287 260.365 95.1139 261.978 93.81 263.14C93.6644 263.251 93.5106 263.352 93.35 263.44C93.3578 263.26 93.388 263.082 93.44 262.91C94.1413 261.465 94.2804 259.812 93.83 258.27C92.76 253.48 86.98 252.77 84.39 255.27C84.0299 255.652 83.5783 255.936 83.0779 256.096C82.5775 256.255 82.0448 256.284 81.53 256.18C80.9743 256.135 80.4157 256.135 79.86 256.18C80.86 253.7 81.78 251.39 82.57 249.01C83.57 246.01 84.38 243.07 85.23 240.08C85.2475 239.895 85.2224 239.709 85.1565 239.536C85.0906 239.362 84.9857 239.206 84.85 239.08C84.19 238.535 83.369 238.224 82.5139 238.193C81.6588 238.162 80.8173 238.414 80.12 238.91C79.5657 239.313 79.0349 239.747 78.53 240.21C78.96 237.56 82.45 235.4 84.74 236.37C86.94 234.3 86.47 231.1 83.28 225.7C83.8173 225.901 84.3416 226.135 84.85 226.4C85.3154 226.707 85.7629 227.041 86.19 227.4C92.19 216.1 101.11 209.73 114.26 209.99C117.46 198.15 106.95 180.42 93.71 176.85C94.0396 176.773 94.3736 176.716 94.71 176.68C99.0017 176.466 103.237 177.73 106.71 180.26C117.05 187.14 123.71 196.52 126.1 208.85C127.298 214.973 129.676 220.805 133.1 226.02C134.73 228.54 136.71 230.86 138.1 233.5C142.39 241.68 143.21 250.4 141.41 259.39C139.88 267.01 138.36 274.63 136.72 282.22C134.435 292.259 134.315 302.671 136.37 312.76C136.659 314.562 136.783 316.386 136.74 318.21C136.788 318.945 136.618 319.677 136.252 320.316C135.885 320.955 135.339 321.471 134.68 321.8C133.272 322.591 131.784 323.228 130.24 323.7C127.444 324.405 124.516 324.405 121.72 323.7C121.165 323.555 120.62 323.371 120.09 323.15Z" fill="black"/>
<path d="M111.69 292.76L113.53 293.19V293.4H112.92C111.504 293.354 110.115 293.799 108.99 294.66C105.3 297.33 101.49 299.84 97.75 302.44C95.7628 304.029 94.288 306.168 93.51 308.59V305.88C93.13 305.96 92.71 306.07 92.29 306.14C90.988 306.356 89.651 306.172 88.4562 305.611C87.2614 305.05 86.2653 304.14 85.6 303C84.8354 301.786 84.2305 300.478 83.8 299.11C83.24 296.93 84.15 295.11 85.86 293.72C87.73 292.15 89.49 290.45 91.39 288.92C92.8471 287.652 94.4323 286.539 96.12 285.6C102.08 282.39 107.816 278.782 113.29 274.8C114.264 274.142 115.195 273.424 116.08 272.65C113.92 273.19 111.76 273.75 109.59 274.25C104.25 275.51 98.9 276.74 93.59 277.98C93.22 278.07 92.86 278.21 92.49 278.3C92.0656 278.398 91.6705 278.595 91.3368 278.874C91.0031 279.154 90.7403 279.509 90.57 279.91C88.9749 282.659 86.4221 284.724 83.4 285.71C82.846 285.929 82.3837 286.331 82.09 286.85C80.75 289.59 80.97 292.49 81.45 295.38C81.65 296.63 82 297.86 82.08 299.16C81.71 297.8 81.27 296.46 80.99 295.09C80.3327 292.534 80.3672 289.848 81.09 287.31C81.2468 286.72 81.5456 286.177 81.9605 285.729C82.3754 285.281 82.8936 284.941 83.4699 284.74C84.9868 284.242 86.3721 283.409 87.5233 282.303C88.6745 281.197 89.5619 279.846 90.12 278.35C90.2246 278.182 90.3616 278.036 90.5229 277.921C90.6843 277.806 90.8668 277.724 91.06 277.68C94.75 276.68 98.44 275.62 102.15 274.68C106.86 273.47 111.6 272.37 116.3 271.12C117.68 270.75 118.96 270 120.3 269.49C120.727 269.424 121.163 269.424 121.59 269.49C121.42 269.92 121.37 270.49 121.06 270.74C120.482 271.217 120.058 271.853 119.84 272.57C118.04 277.57 116.24 282.65 114.32 287.64C113.62 289.33 112.59 291 111.69 292.76ZM99.39 286.46C98.67 285.3 98.66 285.28 97.6 285.82C96.54 286.36 95.37 286.92 94.32 287.58C93.27 288.24 92.48 288.95 91.57 289.65L91.63 290.02C92.27 290.24 93.14 290.83 93.5 290.6C95.53 289.33 97.44 287.86 99.39 286.46ZM91.18 290.12C89.83 291.39 88.61 292.59 87.33 293.72C86.55 294.41 86.68 294.95 87.44 295.56L92.36 291.56L91.18 290.12ZM101.08 285.6C102.67 284.49 104.22 283.46 105.72 282.35C106.01 282.14 106.11 281.66 106.3 281.35L106.02 281.16L100.02 284.72L101.08 285.6ZM85.78 294.9C84.06 296.48 83.88 297.06 84.7 298.29C87.23 296.27 86.82 296.92 85.78 294.9ZM108.78 279.29C111.1 279.47 111.36 279.29 111.85 277.29L108.78 279.29Z" fill="black"/>
<path d="M67.8 269.14C67.5257 269.385 67.3377 269.712 67.2638 270.072C67.1899 270.432 67.2342 270.807 67.39 271.14C67.7077 272.112 68.3106 272.966 69.1204 273.59C69.9302 274.214 70.9093 274.58 71.93 274.64C72.76 274.64 73.59 274.64 74.42 274.64C75.25 274.64 75.99 274.57 76.86 274.53C72.09 285.53 75.52 294.92 82.48 303.62L82.17 303.85C80.56 302.13 78.92 300.44 77.36 298.68C76.6018 297.872 75.959 296.964 75.45 295.98C74.13 293.24 72.03 291.17 69.96 289.05C66.96 285.94 64.41 282.52 63.4 278.19C62.8456 275.887 62.8662 273.483 63.46 271.19C63.92 277.86 67.16 283.19 71.54 288.02C71.47 287.76 71.41 287.49 71.33 287.23C70.1245 283.657 69.4768 279.92 69.41 276.15C69.3306 275.742 69.1323 275.366 68.84 275.07C68.1132 274.304 67.4447 273.485 66.84 272.62C65.97 271.09 66.24 269.96 67.56 268.62C66.39 267.02 65.46 265.31 65.81 263.07L62.75 266.42L62.42 266.17C62.6838 264.849 63.3233 263.632 64.2616 262.665C65.1999 261.698 66.3973 261.023 67.71 260.72C68.1328 260.601 68.5206 260.381 68.84 260.08C70.9408 258.012 72.6366 255.571 73.84 252.88C75.26 249.88 76.47 246.88 77.77 243.88C77.859 243.634 77.9873 243.405 78.15 243.2C77.6248 247.136 76.4878 250.965 74.78 254.55C73.29 257.74 71.54 260.73 68.58 262.83C68.1777 263.144 67.9004 263.592 67.7978 264.092C67.6952 264.592 67.774 265.113 68.02 265.56C68.6492 267.144 69.7397 268.503 71.15 269.46C74.5337 271.996 78.7581 273.144 82.96 272.67L83.96 272.57L84.01 272.89C82.67 273.12 81.34 273.38 80.01 273.58C78.28 273.83 76.53 273.99 74.8 274.29C73.07 274.59 72.12 274.02 71.8 272.29C71.7548 272.067 71.6349 271.866 71.46 271.72C70.24 270.84 69.05 270 67.8 269.14Z" fill="black"/>
<path d="M93.92 240.67C93.3142 240.556 92.7617 240.249 92.3452 239.795C91.9287 239.341 91.6708 238.763 91.61 238.15C91.2475 235.807 91.7182 233.412 92.94 231.38C95.16 227.44 98.28 224.8 103.07 224.85C105.366 224.903 107.591 225.653 109.45 227C109.97 227.37 110.03 228.41 110.37 229.33C106.87 228.21 104.15 229.6 101.53 231.1C99.6572 232.067 98.0107 233.42 96.6989 235.069C95.3872 236.719 94.44 238.628 93.92 240.67ZM97.56 230.84C97.16 230.59 96.91 230.3 96.71 230.34C96.5811 230.384 96.4656 230.461 96.3746 230.563C96.2836 230.664 96.2201 230.787 96.19 230.92C96.2303 231.051 96.3041 231.168 96.4042 231.261C96.5042 231.354 96.6269 231.419 96.76 231.45C97 231.46 97.19 231.14 97.56 230.84Z" fill="black"/>
<path d="M62.82 261.08C62.3048 260.609 61.905 260.026 61.6518 259.376C61.3986 258.725 61.2987 258.025 61.36 257.33C61.36 253.86 63.25 251.48 66.06 249.81C68.87 248.14 71.52 248.44 74.35 249.98C73.52 251.47 72.74 252.92 71.91 254.33C71.8202 254.427 71.7122 254.505 71.592 254.56C71.4719 254.615 71.3421 254.646 71.21 254.65C69.4705 254.819 67.8089 255.454 66.4007 256.489C64.9925 257.524 63.8901 258.92 63.21 260.53C63.09 260.68 63 260.81 62.82 261.08ZM65.27 253.24C64.97 253.61 64.66 253.83 64.67 254.04C64.68 254.25 64.99 254.46 65.17 254.67C65.38 254.49 65.72 254.33 65.76 254.11C65.8 253.89 65.52 253.65 65.27 253.24Z" fill="black"/>
<path d="M85.9 262.26C87.1943 262.562 88.4671 262.949 89.71 263.42C90.97 264 90.9 265.14 89.71 265.88C88.52 266.62 87.47 267.37 86.36 268.13C85.5194 268.599 84.5727 268.846 83.61 268.846C82.6472 268.846 81.7005 268.599 80.86 268.13C80.547 267.928 80.2823 267.659 80.0843 267.343C79.8864 267.027 79.7601 266.672 79.7144 266.302C79.6686 265.932 79.7045 265.557 79.8195 265.202C79.9345 264.848 80.1258 264.523 80.38 264.25C81.3836 263.233 82.7327 262.63 84.16 262.56C84.7 262.47 85.26 262.47 85.81 262.43L85.9 262.26Z" fill="black"/>
<path d="M117.51 293.74C115.92 300.27 104.12 309.36 98.08 310.62C105.51 306 112.42 301 117.51 293.74Z" fill="black"/>
<path d="M112.92 232.34C109.458 232.93 106.154 234.227 103.214 236.148C100.274 238.07 97.7604 240.576 95.83 243.51C96.63 237.64 106.06 231.5 112.92 232.34Z" fill="black"/>
<path d="M82.2 282.88C80.27 282.08 79.41 277.1 81.03 275.01L82.2 282.88Z" fill="black"/>
<path d="M89.53 277.34L85.05 273.51C86.1429 273.462 87.2131 273.831 88.0446 274.542C88.8761 275.253 89.407 276.253 89.53 277.34Z" fill="black"/>
<path d="M166.73 267.75C169.947 268.503 173.308 268.366 176.453 267.353C179.598 266.34 182.407 264.489 184.58 262C186.44 259.76 186.49 257.67 184.88 255.24C184.43 254.56 184.01 254.47 183.42 255.13C181.103 257.756 178.224 259.828 174.997 261.19C171.77 262.552 168.278 263.171 164.78 263C163.438 263.061 162.102 263.211 160.78 263.45C160.36 263.45 159.94 263.57 159.5 263.64C159.5 263.43 159.5 263.32 159.5 263.31C161.33 262.31 162.5 260.67 163.67 259.07C166.8 254.93 170.57 251.64 175.67 250.2C178.909 249.285 182.317 249.145 185.62 249.79L186.41 249.92C186.668 249.06 186.591 248.134 186.194 247.329C185.797 246.524 185.109 245.899 184.27 245.58C182.005 244.587 179.504 244.261 177.06 244.64C175.218 244.9 173.402 245.315 171.63 245.88C168.732 246.796 166.272 248.746 164.72 251.36C163.92 252.61 163.13 253.87 162.32 255.12C160.302 258.125 157.382 260.412 153.98 261.65C153.555 261.771 153.12 261.854 152.68 261.9C152.96 261.23 153.12 260.8 153.32 260.38C154.65 257.62 156.08 254.9 157.32 252.09C158.692 248.825 160.925 245.995 163.78 243.9C167.654 241.105 171.981 238.997 176.57 237.67C179.715 236.759 183.062 236.821 186.17 237.85C187.17 238.16 188.17 238.5 189.17 238.76C189.872 239.043 190.657 239.039 191.357 238.749C192.056 238.459 192.614 237.907 192.91 237.21C194.402 234.608 194.926 231.561 194.39 228.61C194.312 228.198 194.276 227.779 194.28 227.36C195.711 229.777 196.798 232.382 197.51 235.1C199.92 234.28 201.96 234.85 202.95 236.43C201.68 237.3 200.36 238.08 199.19 239.05C198.326 239.757 197.692 240.705 197.366 241.773C197.04 242.841 197.038 243.981 197.36 245.05C198.23 249.05 200.18 252.54 202.06 256.05C203.94 259.56 205.79 262.83 207.62 266.23C207.909 266.878 208.149 267.547 208.34 268.23L207.98 268.56C207.445 268.298 206.95 267.961 206.51 267.56C205.08 265.83 203.68 264.07 202.37 262.26C200.16 259.26 198.07 256.08 195.85 253.04C195.109 252.044 194.264 251.128 193.33 250.31C192.52 249.58 191.94 249.77 191.71 250.86C191.4 252.37 191.21 253.92 190.99 255.46C190.42 259.64 189.46 263.67 186.84 267.13C185.495 268.938 183.749 270.409 181.74 271.43C178.814 272.861 175.646 273.733 172.4 274C171.781 274.045 171.159 274.045 170.54 274C167 273.81 165.35 271.25 166.73 267.75ZM172 256.31C172.479 257.126 173.233 257.746 174.127 258.06C175.02 258.373 175.996 258.359 176.88 258.02C177.698 257.786 178.415 257.285 178.915 256.596C179.415 255.907 179.671 255.071 179.64 254.22C177.85 257.59 176 258.09 172 256.31Z" fill="url(#paint4_linear_0_1)"/>
<defs>
<linearGradient id="paint0_linear_0_1" x1="142.62" y1="378.89" x2="142.62" y2="117.93" gradientUnits="userSpaceOnUse">
<stop stop-color="#101111"/>
<stop offset="0.02" stop-color="#111212"/>
<stop offset="0.58" stop-color="#2A2A2A"/>
<stop offset="0.92" stop-color="#333333"/>
</linearGradient>
<linearGradient id="paint1_linear_0_1" x1="56.85" y1="257.44" x2="146.21" y2="257.44" gradientUnits="userSpaceOnUse">
<stop stop-color="#EC3593"/>
<stop offset="0.09" stop-color="#E4338E"/>
<stop offset="0.23" stop-color="#CF2F81"/>
<stop offset="0.4" stop-color="#AD276C"/>
<stop offset="0.59" stop-color="#7D1C4E"/>
<stop offset="0.8" stop-color="#410F28"/>
<stop offset="1"/>
</linearGradient>
<linearGradient id="paint2_linear_0_1" x1="246.72" y1="242.46" x2="161.27" y2="242.46" gradientUnits="userSpaceOnUse">
<stop offset="0.02"/>
<stop offset="0.05" stop-color="#03090B"/>
<stop offset="0.25" stop-color="#153E4E"/>
<stop offset="0.44" stop-color="#246B87"/>
<stop offset="0.62" stop-color="#308DB2"/>
<stop offset="0.77" stop-color="#38A6D2"/>
<stop offset="0.91" stop-color="#3DB6E5"/>
<stop offset="1" stop-color="#3FBBEC"/>
</linearGradient>
<linearGradient id="paint3_linear_0_1" x1="209.56" y1="255.32" x2="227.68" y2="243.67" gradientUnits="userSpaceOnUse">
<stop offset="0.02"/>
<stop offset="0.05" stop-color="#03090B"/>
<stop offset="0.25" stop-color="#153E4E"/>
<stop offset="0.44" stop-color="#246B87"/>
<stop offset="0.62" stop-color="#308DB2"/>
<stop offset="0.77" stop-color="#38A6D2"/>
<stop offset="0.91" stop-color="#3DB6E5"/>
<stop offset="1" stop-color="#3FBBEC"/>
</linearGradient>
<linearGradient id="paint4_linear_0_1" x1="152.71" y1="250.71" x2="208.33" y2="250.71" gradientUnits="userSpaceOnUse">
<stop stop-color="#101111"/>
<stop offset="0.02" stop-color="#111212"/>
<stop offset="0.58" stop-color="#2A2A2A"/>
<stop offset="0.92" stop-color="#333333"/>
</linearGradient>
</defs>
</svg>
