<svg width="289" height="521" viewBox="0 0 289 521" fill="none" xmlns="http://www.w3.org/2000/svg">
<path opacity="0.1" d="M251.93 0.890015H33.0699C14.8059 0.890015 0 15.6959 0 33.96V487.82C0 506.084 14.8059 520.89 33.0699 520.89H251.93C270.194 520.89 285 506.084 285 487.82V33.96C285 15.6959 270.194 0.890015 251.93 0.890015Z" fill="white"/>
<path d="M147.5 388C225.648 388 289 324.648 289 246.5C289 168.352 225.648 105 147.5 105C69.3517 105 6 168.352 6 246.5C6 324.648 69.3517 388 147.5 388Z" fill="url(#paint0_linear_0_1)"/>
<path d="M46.46 207.35C49.83 206.53 51.95 208.02 53.77 210.08C59.57 216.66 62.64 224.73 65.9 232.68C66.47 234.07 66.9 235.5 67.51 237.18C66.68 237.41 65.97 237.64 65.23 237.8C62.23 238.44 61.3899 240.42 62.4399 242.99C63.2556 245.179 64.4468 247.21 65.96 248.99C74.49 258.33 83.16 267.55 91.85 276.75C92.49 277.43 93.66 277.62 94.58 278.04L95.29 277.17C94.43 276.09 93.65 274.93 92.7 273.93C85.08 265.93 77.3799 258.06 69.8199 250.02C68.0342 248.033 66.4717 245.857 65.16 243.53C63.65 240.98 64.51 239.53 67.41 240.17C70.4578 240.83 73.3832 241.964 76.08 243.53C82.91 247.53 89.3699 252.1 96.3199 255.81C101.696 258.553 107.292 260.842 113.05 262.65C122.05 265.65 128.13 271.51 131.05 280.23C134.51 290.43 137.21 300.88 140.31 311.23C141.21 314.23 140.48 316.23 137.48 317.23C131.11 319.37 124.79 321.64 118.35 323.54C115.18 324.48 113.7 323.19 113.06 319.84C112.24 315.51 111.5 311.17 110.6 306.84C109.31 300.73 105.04 296.63 100.89 292.35C88.51 279.59 76.24 266.723 64.08 253.75C62.49 252.06 61.56 249.61 60.72 247.37C56.01 234.75 51.4299 222.09 46.8199 209.43C46.6482 208.747 46.5279 208.051 46.46 207.35Z" fill="url(#paint1_linear_0_1)"/>
<path d="M239.22 207.35C235.84 206.53 233.72 208.02 231.9 210.08C226.1 216.66 223.03 224.73 219.77 232.68C219.2 234.07 218.77 235.5 218.16 237.18C218.99 237.41 219.71 237.64 220.44 237.8C223.44 238.44 224.28 240.42 223.23 242.99C222.414 245.179 221.223 247.21 219.71 248.99C211.18 258.33 202.51 267.55 193.82 276.75C193.18 277.43 192.02 277.62 191.09 278.04L190.38 277.17C191.24 276.09 192.02 274.93 192.97 273.93C200.59 265.93 208.29 258.06 215.85 250.02C217.636 248.033 219.198 245.857 220.51 243.53C222.02 240.98 221.17 239.53 218.26 240.17C215.212 240.83 212.287 241.964 209.59 243.53C202.76 247.53 196.31 252.1 189.35 255.81C183.974 258.553 178.378 260.842 172.62 262.65C163.67 265.65 157.54 271.51 154.62 280.23C151.17 290.43 148.46 300.88 145.36 311.23C144.46 314.23 145.19 316.23 148.2 317.23C154.56 319.37 160.88 321.64 167.32 323.54C170.49 324.48 171.97 323.19 172.61 319.84C173.44 315.51 174.17 311.17 175.08 306.84C176.36 300.73 180.63 296.63 184.78 292.35C197.16 279.59 209.43 266.723 221.59 253.75C223.18 252.06 224.12 249.61 224.95 247.37C229.66 234.75 234.24 222.09 238.85 209.43C239.021 208.746 239.145 208.051 239.22 207.35Z" fill="url(#paint2_linear_0_1)"/>
<path d="M144.86 218.82C144.86 218.82 154.58 229.54 176.27 225.3C186.98 222.56 192.96 203.87 200.44 196.39C205.395 191.144 211.683 187.342 218.63 185.39C212.15 177.7 143.37 147.8 144.86 218.82Z" fill="url(#paint3_linear_0_1)"/>
<path d="M138.14 262.69C128.36 245.27 129.14 222.29 139.38 204.83C148.57 188.77 167.3 178.94 185.72 181.53C188.179 181.863 190.602 182.419 192.96 183.19C190.81 184.57 188.69 185.59 186.66 186.74C182.346 189.122 178.16 191.729 174.12 194.55C166.658 199.868 160.382 206.679 155.69 214.55C147.22 228.65 143.04 246.61 138.14 262.67V262.69Z" fill="#606060"/>
<path d="M129.66 220.32L104 190.66L134.41 214.09C134.41 214.09 136.9 181.44 91.0401 177.2C91.0001 177.2 86.0501 220.32 129.66 220.32Z" fill="url(#paint4_linear_0_1)"/>
<path d="M137.73 185.23L129.73 158.51L142.66 182.56C142.66 182.56 153.77 162.09 125.22 146C125.18 146 109.41 172.55 137.73 185.23Z" fill="url(#paint5_linear_0_1)"/>
<defs>
<linearGradient id="paint0_linear_0_1" x1="147.5" y1="479" x2="147.5" y2="-49.13" gradientUnits="userSpaceOnUse">
<stop offset="0.02"/>
<stop offset="0.05" stop-color="#03090B"/>
<stop offset="0.25" stop-color="#153E4E"/>
<stop offset="0.44" stop-color="#246B87"/>
<stop offset="0.62" stop-color="#308DB2"/>
<stop offset="0.77" stop-color="#38A6D2"/>
<stop offset="0.91" stop-color="#3DB6E5"/>
<stop offset="1" stop-color="#3FBBEC"/>
</linearGradient>
<linearGradient id="paint1_linear_0_1" x1="123.42" y1="228.88" x2="59.38" y2="298.02" gradientUnits="userSpaceOnUse">
<stop stop-color="#101111"/>
<stop offset="0.02" stop-color="#111212"/>
<stop offset="0.58" stop-color="#2A2A2A"/>
<stop offset="0.92" stop-color="#333333"/>
</linearGradient>
<linearGradient id="paint2_linear_0_1" x1="208.75" y1="279.39" x2="145.31" y2="209.7" gradientUnits="userSpaceOnUse">
<stop stop-color="#101111"/>
<stop offset="0.02" stop-color="#111212"/>
<stop offset="0.58" stop-color="#2A2A2A"/>
<stop offset="0.92" stop-color="#333333"/>
</linearGradient>
<linearGradient id="paint3_linear_0_1" x1="180.82" y1="201.12" x2="130.45" y2="147.18" gradientUnits="userSpaceOnUse">
<stop stop-color="#FD9D31"/>
<stop offset="0.08" stop-color="#F0952E"/>
<stop offset="0.24" stop-color="#CD7F28"/>
<stop offset="0.46" stop-color="#965D1D"/>
<stop offset="0.71" stop-color="#492D0E"/>
<stop offset="0.94"/>
</linearGradient>
<linearGradient id="paint4_linear_0_1" x1="117.28" y1="204.97" x2="56.0101" y2="139.35" gradientUnits="userSpaceOnUse">
<stop stop-color="#FD9D31"/>
<stop offset="0.08" stop-color="#F0952E"/>
<stop offset="0.24" stop-color="#CD7F28"/>
<stop offset="0.46" stop-color="#965D1D"/>
<stop offset="0.71" stop-color="#492D0E"/>
<stop offset="0.94"/>
</linearGradient>
<linearGradient id="paint5_linear_0_1" x1="134.293" y1="171.67" x2="113.58" y2="111.239" gradientUnits="userSpaceOnUse">
<stop stop-color="#FD9D31"/>
<stop offset="0.08" stop-color="#F0952E"/>
<stop offset="0.24" stop-color="#CD7F28"/>
<stop offset="0.46" stop-color="#965D1D"/>
<stop offset="0.71" stop-color="#492D0E"/>
<stop offset="0.94"/>
</linearGradient>
</defs>
</svg>
