<svg width="285" height="521" viewBox="0 0 285 521" fill="none" xmlns="http://www.w3.org/2000/svg">
<path d="M141.5 521C219.648 521 283 457.648 283 379.5C283 301.352 219.648 238 141.5 238C63.3517 238 0 301.352 0 379.5C0 457.648 63.3517 521 141.5 521Z" fill="url(#paint0_linear_0_1)"/>
<path d="M40.4609 340.35C43.8309 339.53 45.951 341.02 47.771 343.08C53.571 349.66 56.641 357.73 59.901 365.68C60.471 367.07 60.901 368.5 61.511 370.18C60.681 370.41 59.971 370.64 59.231 370.8C56.231 371.44 55.3909 373.42 56.4409 375.99C57.2566 378.18 58.4478 380.21 59.9609 381.99C68.4909 391.33 77.161 400.55 85.851 409.75C86.491 410.43 87.6609 410.62 88.5809 411.04L89.291 410.17C88.431 409.09 87.6509 407.93 86.7009 406.93C79.0809 398.93 71.3809 391.06 63.8209 383.02C62.0352 381.034 60.4727 378.857 59.161 376.53C57.651 373.98 58.511 372.53 61.411 373.17C64.4588 373.831 67.3842 374.964 70.0809 376.53C76.9109 380.53 83.3709 385.1 90.3209 388.81C95.6967 391.554 101.293 393.842 107.051 395.65C116.051 398.65 122.131 404.51 125.051 413.23C128.511 423.43 131.211 433.88 134.311 444.23C135.211 447.23 134.481 449.23 131.481 450.23C125.111 452.37 118.791 454.64 112.351 456.54C109.181 457.48 107.701 456.19 107.061 452.84C106.241 448.51 105.501 444.17 104.601 439.84C103.311 433.73 99.041 429.63 94.891 425.35C82.511 412.59 70.2409 399.724 58.0809 386.75C56.4909 385.06 55.5609 382.61 54.7209 380.37C50.0109 367.75 45.4309 355.09 40.8209 342.43C40.6492 341.747 40.5289 341.052 40.4609 340.35Z" fill="url(#paint1_linear_0_1)"/>
<path d="M46.2109 337.76C48.2109 337.76 50.0009 337.22 50.7209 337.86C53.7525 340.35 56.4903 343.179 58.881 346.29C64.651 354.42 66.821 364.16 70.881 373.83C66.691 372.59 64.151 371.36 62.681 367.46C59.8117 360.241 56.5364 353.189 52.871 346.34C51.491 343.62 49.1009 341.41 46.2109 337.76Z" fill="url(#paint2_linear_0_1)"/>
<path d="M80.0009 379.57C78.1228 378.854 76.4365 377.711 75.0744 376.233C73.7123 374.755 72.7116 372.981 72.1509 371.05C69.8309 364.15 66.9009 357.45 64.2509 350.66C63.932 349.885 63.932 349.015 64.2509 348.24C71.8544 357.324 77.2458 368.049 80.0009 379.57Z" fill="url(#paint3_linear_0_1)"/>
<path d="M90.6499 386.06C82.2999 384.06 82.4999 377.19 80.1699 371.14C86.5999 374.53 85.7499 381.91 90.6499 386.06Z" fill="url(#paint4_linear_0_1)"/>
<path d="M233.22 340.35C229.84 339.53 227.72 341.02 225.9 343.08C220.1 349.66 217.03 357.73 213.77 365.68C213.2 367.07 212.77 368.5 212.16 370.18C212.99 370.41 213.71 370.64 214.44 370.8C217.44 371.44 218.28 373.42 217.23 375.99C216.414 378.18 215.223 380.21 213.71 381.99C205.18 391.33 196.51 400.55 187.82 409.75C187.18 410.43 186.02 410.62 185.09 411.04L184.38 410.17C185.24 409.09 186.02 407.93 186.97 406.93C194.59 398.93 202.29 391.06 209.85 383.02C211.636 381.034 213.198 378.857 214.51 376.53C216.02 373.98 215.17 372.53 212.26 373.17C209.212 373.831 206.287 374.964 203.59 376.53C196.76 380.53 190.31 385.1 183.35 388.81C177.974 391.554 172.378 393.842 166.62 395.65C157.67 398.65 151.54 404.51 148.62 413.23C145.17 423.43 142.46 433.88 139.36 444.23C138.46 447.23 139.19 449.23 142.2 450.23C148.56 452.37 154.88 454.64 161.32 456.54C164.49 457.48 165.97 456.19 166.61 452.84C167.44 448.51 168.17 444.17 169.08 439.84C170.36 433.73 174.63 429.63 178.78 425.35C191.16 412.59 203.43 399.724 215.59 386.75C217.18 385.06 218.12 382.61 218.95 380.37C223.66 367.75 228.24 355.09 232.85 342.43C233.021 341.746 233.145 341.051 233.22 340.35Z" fill="url(#paint5_linear_0_1)"/>
<path d="M227.459 337.76C225.459 337.76 223.669 337.22 222.949 337.86C219.917 340.35 217.18 343.179 214.789 346.29C209.019 354.42 206.849 364.16 202.789 373.83C206.979 372.59 209.519 371.36 210.999 367.46C213.865 360.241 217.137 353.189 220.799 346.34C222.179 343.62 224.569 341.41 227.459 337.76Z" fill="url(#paint6_linear_0_1)"/>
<path d="M193.65 379.57C195.53 378.858 197.217 377.717 198.578 376.238C199.939 374.759 200.936 372.982 201.49 371.05C203.81 364.15 206.74 357.45 209.4 350.66C209.56 350.277 209.643 349.866 209.643 349.45C209.643 349.035 209.56 348.624 209.4 348.24C201.793 357.321 196.401 368.047 193.65 379.57Z" fill="url(#paint7_linear_0_1)"/>
<path d="M183 386.06C191.36 384.06 191.15 377.19 193.48 371.14C187.07 374.53 187.92 381.91 183 386.06Z" fill="url(#paint8_linear_0_1)"/>
<path d="M138.86 351.82C138.86 351.82 148.58 362.54 170.27 358.3C180.98 355.56 186.96 336.87 194.44 329.39C199.395 324.144 205.682 320.342 212.63 318.39C206.15 310.7 137.37 280.8 138.86 351.82Z" fill="url(#paint9_linear_0_1)"/>
<path d="M132.141 395.69C122.361 378.27 123.141 355.29 133.381 337.83C142.571 321.77 161.301 311.94 179.721 314.53C182.18 314.863 184.603 315.419 186.961 316.19C184.811 317.57 182.691 318.59 180.661 319.74C176.347 322.122 172.161 324.729 168.121 327.55C160.659 332.868 154.383 339.679 149.691 347.55C141.221 361.65 137.041 379.61 132.141 395.67V395.69Z" fill="#606060"/>
<path d="M123.659 353.32L97.9994 323.66L128.409 347.09C128.409 347.09 130.899 314.44 85.0395 310.2C84.9995 310.2 80.0494 353.32 123.659 353.32Z" fill="url(#paint10_linear_0_1)"/>
<path d="M131.73 318.23L123.73 291.51L136.661 315.56C136.661 315.56 147.77 295.09 119.22 279C119.18 279 103.41 305.55 131.73 318.23Z" fill="url(#paint11_linear_0_1)"/>
<path opacity="0.1" d="M251.93 0H33.0699C14.8059 0 0 14.8059 0 33.07V486.93C0 505.194 14.8059 520 33.0699 520H251.93C270.194 520 285 505.194 285 486.93V33.07C285 14.8059 270.194 0 251.93 0Z" fill="white"/>
<defs>
<linearGradient id="paint0_linear_0_1" x1="141.5" y1="612" x2="141.5" y2="83.87" gradientUnits="userSpaceOnUse">
<stop offset="0.02"/>
<stop offset="0.05" stop-color="#03090B"/>
<stop offset="0.25" stop-color="#153E4E"/>
<stop offset="0.44" stop-color="#246B87"/>
<stop offset="0.62" stop-color="#308DB2"/>
<stop offset="0.77" stop-color="#38A6D2"/>
<stop offset="0.91" stop-color="#3DB6E5"/>
<stop offset="1" stop-color="#3FBBEC"/>
</linearGradient>
<linearGradient id="paint1_linear_0_1" x1="117.421" y1="361.88" x2="53.381" y2="431.02" gradientUnits="userSpaceOnUse">
<stop stop-color="#101111"/>
<stop offset="0.02" stop-color="#111212"/>
<stop offset="0.58" stop-color="#2A2A2A"/>
<stop offset="0.92" stop-color="#333333"/>
</linearGradient>
<linearGradient id="paint2_linear_0_1" x1="50.9409" y1="359.74" x2="74.711" y2="347.44" gradientUnits="userSpaceOnUse">
<stop stop-color="#101111"/>
<stop offset="0.02" stop-color="#111212"/>
<stop offset="0.58" stop-color="#2A2A2A"/>
<stop offset="0.92" stop-color="#333333"/>
</linearGradient>
<linearGradient id="paint3_linear_0_1" x1="66.1009" y1="366.15" x2="81.1009" y2="360.57" gradientUnits="userSpaceOnUse">
<stop stop-color="#101111"/>
<stop offset="0.02" stop-color="#111212"/>
<stop offset="0.58" stop-color="#2A2A2A"/>
<stop offset="0.92" stop-color="#333333"/>
</linearGradient>
<linearGradient id="paint4_linear_0_1" x1="80.4599" y1="381.2" x2="89.7499" y2="376.33" gradientUnits="userSpaceOnUse">
<stop stop-color="#101111"/>
<stop offset="0.02" stop-color="#111212"/>
<stop offset="0.58" stop-color="#2A2A2A"/>
<stop offset="0.92" stop-color="#333333"/>
</linearGradient>
<linearGradient id="paint5_linear_0_1" x1="202.75" y1="412.39" x2="139.31" y2="342.7" gradientUnits="userSpaceOnUse">
<stop stop-color="#101111"/>
<stop offset="0.02" stop-color="#111212"/>
<stop offset="0.58" stop-color="#2A2A2A"/>
<stop offset="0.92" stop-color="#333333"/>
</linearGradient>
<linearGradient id="paint6_linear_0_1" x1="204.259" y1="351.05" x2="226.889" y2="360.95" gradientUnits="userSpaceOnUse">
<stop stop-color="#101111"/>
<stop offset="0.02" stop-color="#111212"/>
<stop offset="0.58" stop-color="#2A2A2A"/>
<stop offset="0.92" stop-color="#333333"/>
</linearGradient>
<linearGradient id="paint7_linear_0_1" x1="195.23" y1="361.23" x2="209.97" y2="367.49" gradientUnits="userSpaceOnUse">
<stop stop-color="#101111"/>
<stop offset="0.02" stop-color="#111212"/>
<stop offset="0.58" stop-color="#2A2A2A"/>
<stop offset="0.92" stop-color="#333333"/>
</linearGradient>
<linearGradient id="paint8_linear_0_1" x1="184.92" y1="377.05" x2="194.43" y2="381.46" gradientUnits="userSpaceOnUse">
<stop stop-color="#101111"/>
<stop offset="0.02" stop-color="#111212"/>
<stop offset="0.58" stop-color="#2A2A2A"/>
<stop offset="0.92" stop-color="#333333"/>
</linearGradient>
<linearGradient id="paint9_linear_0_1" x1="174.82" y1="334.12" x2="124.45" y2="280.18" gradientUnits="userSpaceOnUse">
<stop stop-color="#FD9D31"/>
<stop offset="0.08" stop-color="#F0952E"/>
<stop offset="0.24" stop-color="#CD7F28"/>
<stop offset="0.46" stop-color="#965D1D"/>
<stop offset="0.71" stop-color="#492D0E"/>
<stop offset="0.94"/>
</linearGradient>
<linearGradient id="paint10_linear_0_1" x1="111.279" y1="337.97" x2="50.0095" y2="272.35" gradientUnits="userSpaceOnUse">
<stop stop-color="#FD9D31"/>
<stop offset="0.08" stop-color="#F0952E"/>
<stop offset="0.24" stop-color="#CD7F28"/>
<stop offset="0.46" stop-color="#965D1D"/>
<stop offset="0.71" stop-color="#492D0E"/>
<stop offset="0.94"/>
</linearGradient>
<linearGradient id="paint11_linear_0_1" x1="128.294" y1="304.67" x2="107.58" y2="244.239" gradientUnits="userSpaceOnUse">
<stop stop-color="#FD9D31"/>
<stop offset="0.08" stop-color="#F0952E"/>
<stop offset="0.24" stop-color="#CD7F28"/>
<stop offset="0.46" stop-color="#965D1D"/>
<stop offset="0.71" stop-color="#492D0E"/>
<stop offset="0.94"/>
</linearGradient>
</defs>
</svg>
