<svg width="327" height="518" viewBox="0 0 327 518" fill="none" xmlns="http://www.w3.org/2000/svg">
<path d="M0 376.84C0 376.84 163.6 400.79 173.57 322.98C183.54 245.17 75.81 219.23 57.86 203.27C39.91 187.31 62.99 217.57 67.86 150C71.16 104.3 220.86 0 220.86 0H227.86C227.86 0 72.86 150.4 106.73 180.33C140.6 210.26 217.12 218.5 240.41 228.21C264.35 238.21 342.16 282.08 324.2 367.87C306.24 453.66 216.47 517.5 1 517.5C1 487.57 0 376.84 0 376.84Z" fill="url(#paint0_linear_0_1)"/>
<path d="M0 442.68C0 442.68 119.71 446.68 89.78 422.73C73.78 414.73 79.78 408.73 119.71 400.79C159.64 392.85 245.4 376.84 231.43 305.02C218.43 258.65 158.92 229.53 126.56 217.64C120.76 215.554 115.482 212.234 111.09 207.91C104.71 201.57 110.4 202.61 119.71 207.26C131.71 213.26 145.64 211.26 133.71 203.26C121.78 195.26 64.99 179.5 72.87 148C81.01 115.44 220.87 0 220.87 0H211.87C211.87 0 -2 125.5 37.91 183.32C51.91 211.25 103.75 223.22 131.68 245.17C159.61 267.12 181.55 301.03 171.58 330.96C161.61 360.89 129.68 378.84 51.87 378.84C5.98999 378.84 0 376.84 0 376.84V442.68Z" fill="url(#paint1_linear_0_1)"/>
<path d="M203.497 275.09C213.157 283.16 217.898 295.7 220.128 307.78C220.761 311.624 221.185 315.5 221.397 319.39C221.397 320.9 221.397 324.85 221.397 326.39C221.142 332.601 220.474 338.788 219.397 344.91C220.007 338.74 220.568 332.58 220.608 326.38C220.608 324.81 220.468 320.93 220.448 319.43C220.428 317.93 219.958 314.1 219.828 312.51C217.938 298.94 213.627 284.77 203.438 275.08L203.497 275.09Z" fill="white"/>
<path d="M167.59 366.87C155.33 379.61 138.15 387.32 120.59 388.99C111.93 389.52 102.83 389.2 94.1703 389.46C85.5103 389.72 76.5703 389.87 67.8203 390.81C76.5473 389.614 85.3344 388.906 94.1403 388.69C102.78 388.26 111.87 388.61 120.5 388C138.111 386.405 154.683 378.967 167.58 366.87H167.59Z" fill="white"/>
<path d="M123.697 233.2C104.797 225.8 59.7872 205.93 51.8672 187.31C60.1572 204.61 105.477 224.75 123.697 233.2Z" fill="white"/>
<path d="M67.8295 197.29C58.9395 193.14 53.2295 183.53 63.8295 177.29C54.6695 184.7 60.1895 191.74 67.8295 197.29Z" fill="white"/>
<path d="M255.367 450.66C273.657 438.41 290.697 422.98 301.207 403.41C302.005 402.041 302.713 400.621 303.327 399.16L305.287 394.8C297.287 418.59 276.677 438.18 255.407 450.66H255.367Z" fill="white"/>
<path d="M228.439 440.69L178.559 406.77L158.609 422.729L134.669 426.719L120.699 440.69H228.439Z" fill="#0B2F36"/>
<path d="M212.48 422.73H266.35L248.39 398.79L224.45 406.77L212.48 422.73Z" fill="#0B2F36"/>
<path d="M60.848 422.729L48.878 406.77L32.918 422.729H60.848Z" fill="#0B2F36"/>
<path opacity="0.1" d="M292.93 0H33.07C14.806 0 0 14.806 0 33.07V482.93C0 501.194 14.806 516 33.07 516H292.93C311.194 516 326 501.194 326 482.93V33.07C326 14.806 311.194 0 292.93 0Z" fill="white"/>
<defs>
<linearGradient id="paint0_linear_0_1" x1="17.15" y1="236.21" x2="322.9" y2="307.05" gradientUnits="userSpaceOnUse">
<stop offset="0.02"/>
<stop offset="0.05" stop-color="#03090B"/>
<stop offset="0.25" stop-color="#153E4E"/>
<stop offset="0.44" stop-color="#246B87"/>
<stop offset="0.62" stop-color="#308DB2"/>
<stop offset="0.77" stop-color="#38A6D2"/>
<stop offset="0.91" stop-color="#3DB6E5"/>
<stop offset="1" stop-color="#3FBBEC"/>
</linearGradient>
<linearGradient id="paint1_linear_0_1" x1="105.58" y1="217.14" x2="306.76" y2="391.09" gradientUnits="userSpaceOnUse">
<stop stop-color="#EC3593"/>
<stop offset="0.09" stop-color="#E4338E"/>
<stop offset="0.23" stop-color="#CF2F81"/>
<stop offset="0.4" stop-color="#AD276C"/>
<stop offset="0.59" stop-color="#7D1C4E"/>
<stop offset="0.8" stop-color="#410F28"/>
<stop offset="1"/>
</linearGradient>
</defs>
</svg>
