<svg width="326" height="516" viewBox="0 0 326 516" fill="none" xmlns="http://www.w3.org/2000/svg">
<path d="M146 317C220.558 317 281 256.558 281 182C281 107.442 220.558 47 146 47C71.4416 47 11 107.442 11 182C11 256.558 71.4416 317 146 317Z" fill="url(#paint0_linear_0_1)"/>
<path d="M205.303 292.29C176.868 292.29 149.16 283.312 126.128 266.637C103.097 249.961 85.9192 226.439 77.0446 199.424C68.1699 172.41 68.0516 143.284 76.7065 116.198C85.3615 89.1131 102.348 65.4522 125.243 48.5898C105.027 51.7386 85.7918 59.4408 68.99 71.1147C52.1881 82.7885 38.2593 98.1285 28.2561 115.976C18.2529 133.823 12.437 153.71 11.2478 174.134C10.0586 194.559 13.5271 214.987 21.3915 233.874C29.2558 252.762 41.3102 269.614 56.6437 283.159C71.9772 296.704 90.1888 306.587 109.902 312.06C129.616 317.534 150.315 318.455 170.437 314.755C190.559 311.054 209.576 302.829 226.053 290.7C219.187 291.762 212.25 292.294 205.303 292.29Z" fill="url(#paint1_linear_0_1)"/>
<path d="M75.2428 201.09C88.1442 201.09 98.6029 190.632 98.6029 177.73C98.6029 164.829 88.1442 154.37 75.2428 154.37C62.3414 154.37 51.8828 164.829 51.8828 177.73C51.8828 190.632 62.3414 201.09 75.2428 201.09Z" fill="url(#paint2_linear_0_1)"/>
<path d="M98.8326 107.65C103.174 107.65 106.693 104.131 106.693 99.7897C106.693 95.4487 103.174 91.9297 98.8326 91.9297C94.4917 91.9297 90.9727 95.4487 90.9727 99.7897C90.9727 104.131 94.4917 107.65 98.8326 107.65Z" fill="url(#paint3_linear_0_1)"/>
<path d="M161.502 83.3902C163.981 83.3902 165.992 81.3799 165.992 78.9001C165.992 76.4204 163.981 74.4102 161.502 74.4102C159.022 74.4102 157.012 76.4204 157.012 78.9001C157.012 81.3799 159.022 83.3902 161.502 83.3902Z" fill="url(#paint4_linear_0_1)"/>
<path d="M137.463 141.35C146.769 141.35 154.313 133.806 154.313 124.5C154.313 115.194 146.769 107.65 137.463 107.65C128.157 107.65 120.613 115.194 120.613 124.5C120.613 133.806 128.157 141.35 137.463 141.35Z" fill="url(#paint5_linear_0_1)"/>
<path d="M175.872 207.83C181.329 207.83 185.752 203.407 185.752 197.95C185.752 192.494 181.329 188.07 175.872 188.07C170.416 188.07 165.992 192.494 165.992 197.95C165.992 203.407 170.416 207.83 175.872 207.83Z" fill="url(#paint6_linear_0_1)"/>
<path d="M207.551 159.76C209.91 159.76 211.821 157.848 211.821 155.49C211.821 153.131 209.91 151.22 207.551 151.22C205.193 151.22 203.281 153.131 203.281 155.49C203.281 157.848 205.193 159.76 207.551 159.76Z" fill="url(#paint7_linear_0_1)"/>
<path d="M262.131 207.83C269.328 207.83 275.161 201.996 275.161 194.8C275.161 187.603 269.328 181.77 262.131 181.77C254.935 181.77 249.102 187.603 249.102 194.8C249.102 201.996 254.935 207.83 262.131 207.83Z" fill="url(#paint8_linear_0_1)"/>
<path d="M132.07 293.19C139.388 293.19 145.32 287.258 145.32 279.94C145.32 272.623 139.388 266.69 132.07 266.69C124.753 266.69 118.82 272.623 118.82 279.94C118.82 287.258 124.753 293.19 132.07 293.19Z" fill="url(#paint9_linear_0_1)"/>
<path d="M189.352 283.3C191.335 283.3 192.942 281.693 192.942 279.71C192.942 277.727 191.335 276.12 189.352 276.12C187.369 276.12 185.762 277.727 185.762 279.71C185.762 281.693 187.369 283.3 189.352 283.3Z" fill="url(#paint10_linear_0_1)"/>
<path d="M211.59 254.11C213.949 254.11 215.86 252.199 215.86 249.84C215.86 247.482 213.949 245.57 211.59 245.57C209.232 245.57 207.32 247.482 207.32 249.84C207.32 252.199 209.232 254.11 211.59 254.11Z" fill="url(#paint11_linear_0_1)"/>
<path d="M309.701 482H99.8613C99.3309 482 98.8222 481.79 98.4471 481.415C98.0721 481.04 97.8613 480.531 97.8613 480V478C97.8613 477.47 98.0721 476.961 98.4471 476.586C98.8222 476.211 99.3309 476 99.8613 476H243.111C243.441 475.999 243.768 475.932 244.071 475.803C244.375 475.674 244.65 475.486 244.88 475.249C245.11 475.013 245.291 474.733 245.411 474.426C245.531 474.118 245.589 473.79 245.581 473.461L245.481 469.271C245.437 468.873 245.247 468.506 244.948 468.24C244.649 467.974 244.262 467.828 243.861 467.831H174.711V463.25H213.611C214.044 463.25 214.458 463.079 214.764 462.773C215.07 462.467 215.241 462.053 215.241 461.62C215.243 461.406 215.202 461.193 215.12 460.994C215.039 460.795 214.919 460.614 214.768 460.461C214.616 460.309 214.436 460.188 214.237 460.106C214.039 460.023 213.826 459.98 213.611 459.98H151.181V454.1H241.721C241.936 454.1 242.149 454.058 242.348 453.975C242.546 453.893 242.726 453.772 242.878 453.62C243.029 453.467 243.149 453.286 243.23 453.087C243.312 452.888 243.353 452.675 243.351 452.461V451.16C243.353 450.946 243.312 450.733 243.23 450.534C243.149 450.335 243.029 450.154 242.878 450.001C242.726 449.849 242.546 449.728 242.348 449.646C242.149 449.563 241.936 449.521 241.721 449.521H53.1313C52.6009 449.521 52.0922 449.31 51.7172 448.935C51.3421 448.56 51.1313 448.051 51.1313 447.521V446.211C51.1313 445.68 51.3421 445.171 51.7172 444.796C52.0922 444.421 52.6009 444.211 53.1313 444.211H160.001C160.216 444.212 160.429 444.171 160.628 444.089C160.827 444.008 161.008 443.888 161.16 443.737C161.313 443.585 161.434 443.405 161.516 443.207C161.599 443.008 161.641 442.795 161.641 442.581V441.5C161.641 441.286 161.599 441.073 161.516 440.874C161.434 440.676 161.313 440.496 161.16 440.344C161.008 440.193 160.827 440.073 160.628 439.992C160.429 439.91 160.216 439.869 160.001 439.87H89.0814C88.551 439.87 88.0422 439.66 87.6671 439.285C87.292 438.91 87.0814 438.401 87.0814 437.87V436.56C87.0814 436.03 87.292 435.521 87.6671 435.146C88.0422 434.771 88.551 434.56 89.0814 434.56H184.191C184.626 434.56 185.044 434.388 185.351 434.08C185.659 433.773 185.831 433.355 185.831 432.92V430.92C185.829 430.487 185.655 430.073 185.348 429.767C185.04 429.462 184.625 429.29 184.191 429.29H49.1914C48.661 429.29 48.1523 429.08 47.7772 428.705C47.4021 428.33 47.1914 427.821 47.1914 427.29C47.1914 426.76 47.4021 426.251 47.7772 425.876C48.1523 425.501 48.661 425.29 49.1914 425.29H144.311C144.745 425.288 145.159 425.114 145.465 424.807C145.77 424.499 145.941 424.084 145.941 423.651V421.651C145.941 421.218 145.77 420.804 145.464 420.498C145.158 420.192 144.744 420.021 144.311 420.021H61.6113C61.0809 420.021 60.5722 419.81 60.1971 419.435C59.8221 419.06 59.6113 418.551 59.6113 418.021V416.72C59.6113 416.19 59.8221 415.681 60.1971 415.306C60.5722 414.931 61.0809 414.72 61.6113 414.72H158.691C159.125 414.718 159.539 414.544 159.845 414.237C160.15 413.929 160.321 413.514 160.321 413.081V412.43C160.321 411.997 160.15 411.582 159.845 411.274C159.539 410.967 159.125 410.793 158.691 410.79H91.6914C91.161 410.79 90.6523 410.58 90.2772 410.205C89.9021 409.83 89.6914 409.321 89.6914 408.79C89.6914 408.26 89.9021 407.751 90.2772 407.376C90.6523 407.001 91.161 406.79 91.6914 406.79H185.831C186.362 406.79 186.871 406.58 187.246 406.205C187.621 405.83 187.831 405.321 187.831 404.79C187.831 404.26 187.621 403.751 187.246 403.376C186.871 403.001 186.362 402.79 185.831 402.79H50.5114C49.9809 402.79 49.4722 402.58 49.0972 402.205C48.7221 401.83 48.5114 401.321 48.5114 400.79V399.48C48.5114 398.95 48.7221 398.441 49.0972 398.066C49.4722 397.691 49.9809 397.48 50.5114 397.48H309.421L309.701 482Z" fill="url(#paint12_linear_0_1)"/>
<path opacity="0.1" d="M292.93 0H33.0701C14.806 0 0 14.806 0 33.07V482.93C0 501.194 14.806 516 33.0701 516H292.93C311.194 516 326 501.194 326 482.93V33.07C326 14.806 311.194 0 292.93 0Z" fill="white"/>
<defs>
<linearGradient id="paint0_linear_0_1" x1="61.75" y1="225.34" x2="290.67" y2="107.57" gradientUnits="userSpaceOnUse">
<stop offset="0.02"/>
<stop offset="0.05" stop-color="#03090B"/>
<stop offset="0.25" stop-color="#153E4E"/>
<stop offset="0.44" stop-color="#246B87"/>
<stop offset="0.62" stop-color="#308DB2"/>
<stop offset="0.77" stop-color="#38A6D2"/>
<stop offset="0.91" stop-color="#3DB6E5"/>
<stop offset="1" stop-color="#3FBBEC"/>
</linearGradient>
<linearGradient id="paint1_linear_0_1" x1="40.3728" y1="254.3" x2="250.173" y2="110.68" gradientUnits="userSpaceOnUse">
<stop stop-color="#EC3593"/>
<stop offset="0.1" stop-color="#DE328B"/>
<stop offset="0.28" stop-color="#BB2A74"/>
<stop offset="0.52" stop-color="#811D50"/>
<stop offset="0.82" stop-color="#320B1F"/>
<stop offset="1"/>
</linearGradient>
<linearGradient id="paint2_linear_0_1" x1="59.6428" y1="188.41" x2="110.373" y2="153.69" gradientUnits="userSpaceOnUse">
<stop stop-color="#EC3593"/>
<stop offset="0.1" stop-color="#DE328B"/>
<stop offset="0.28" stop-color="#BB2A74"/>
<stop offset="0.52" stop-color="#811D50"/>
<stop offset="0.82" stop-color="#320B1F"/>
<stop offset="1"/>
</linearGradient>
<linearGradient id="paint3_linear_0_1" x1="93.5827" y1="103.38" x2="110.653" y2="91.6897" gradientUnits="userSpaceOnUse">
<stop stop-color="#EC3593"/>
<stop offset="0.1" stop-color="#DE328B"/>
<stop offset="0.28" stop-color="#BB2A74"/>
<stop offset="0.52" stop-color="#811D50"/>
<stop offset="0.82" stop-color="#320B1F"/>
<stop offset="1"/>
</linearGradient>
<linearGradient id="paint4_linear_0_1" x1="158.502" y1="80.9502" x2="168.252" y2="74.2702" gradientUnits="userSpaceOnUse">
<stop stop-color="#EC3593"/>
<stop offset="0.1" stop-color="#DE328B"/>
<stop offset="0.28" stop-color="#BB2A74"/>
<stop offset="0.52" stop-color="#811D50"/>
<stop offset="0.82" stop-color="#320B1F"/>
<stop offset="1"/>
</linearGradient>
<linearGradient id="paint5_linear_0_1" x1="126.213" y1="132.2" x2="162.803" y2="107.15" gradientUnits="userSpaceOnUse">
<stop stop-color="#EC3593"/>
<stop offset="0.1" stop-color="#DE328B"/>
<stop offset="0.28" stop-color="#BB2A74"/>
<stop offset="0.52" stop-color="#811D50"/>
<stop offset="0.82" stop-color="#320B1F"/>
<stop offset="1"/>
</linearGradient>
<linearGradient id="paint6_linear_0_1" x1="169.272" y1="202.47" x2="190.742" y2="187.78" gradientUnits="userSpaceOnUse">
<stop stop-color="#EC3593"/>
<stop offset="0.1" stop-color="#DE328B"/>
<stop offset="0.28" stop-color="#BB2A74"/>
<stop offset="0.52" stop-color="#811D50"/>
<stop offset="0.82" stop-color="#320B1F"/>
<stop offset="1"/>
</linearGradient>
<linearGradient id="paint7_linear_0_1" x1="204.701" y1="157.45" x2="213.961" y2="151.1" gradientUnits="userSpaceOnUse">
<stop stop-color="#EC3593"/>
<stop offset="0.1" stop-color="#DE328B"/>
<stop offset="0.28" stop-color="#BB2A74"/>
<stop offset="0.52" stop-color="#811D50"/>
<stop offset="0.82" stop-color="#320B1F"/>
<stop offset="1"/>
</linearGradient>
<linearGradient id="paint8_linear_0_1" x1="253.432" y1="200.76" x2="281.722" y2="181.39" gradientUnits="userSpaceOnUse">
<stop stop-color="#EC3593"/>
<stop offset="0.1" stop-color="#DE328B"/>
<stop offset="0.28" stop-color="#BB2A74"/>
<stop offset="0.52" stop-color="#811D50"/>
<stop offset="0.82" stop-color="#320B1F"/>
<stop offset="1"/>
</linearGradient>
<linearGradient id="paint9_linear_0_1" x1="123.22" y1="286" x2="152" y2="266.3" gradientUnits="userSpaceOnUse">
<stop stop-color="#EC3593"/>
<stop offset="0.1" stop-color="#DE328B"/>
<stop offset="0.28" stop-color="#BB2A74"/>
<stop offset="0.52" stop-color="#811D50"/>
<stop offset="0.82" stop-color="#320B1F"/>
<stop offset="1"/>
</linearGradient>
<linearGradient id="paint10_linear_0_1" x1="186.952" y1="281.36" x2="194.762" y2="276.01" gradientUnits="userSpaceOnUse">
<stop stop-color="#EC3593"/>
<stop offset="0.1" stop-color="#DE328B"/>
<stop offset="0.28" stop-color="#BB2A74"/>
<stop offset="0.52" stop-color="#811D50"/>
<stop offset="0.82" stop-color="#320B1F"/>
<stop offset="1"/>
</linearGradient>
<linearGradient id="paint11_linear_0_1" x1="208.74" y1="251.79" x2="218.01" y2="245.44" gradientUnits="userSpaceOnUse">
<stop stop-color="#EC3593"/>
<stop offset="0.1" stop-color="#DE328B"/>
<stop offset="0.28" stop-color="#BB2A74"/>
<stop offset="0.52" stop-color="#811D50"/>
<stop offset="0.82" stop-color="#320B1F"/>
<stop offset="1"/>
</linearGradient>
<linearGradient id="paint12_linear_0_1" x1="161.631" y1="440" x2="424.081" y2="440" gradientUnits="userSpaceOnUse">
<stop stop-color="#EC3593"/>
<stop offset="0.1" stop-color="#DE328B"/>
<stop offset="0.28" stop-color="#BB2A74"/>
<stop offset="0.52" stop-color="#811D50"/>
<stop offset="0.82" stop-color="#320B1F"/>
<stop offset="1"/>
</linearGradient>
</defs>
</svg>
