<svg width="285" height="520" viewBox="0 0 285 520" fill="none" xmlns="http://www.w3.org/2000/svg">
<path d="M210.8 382.84H81V401.29H210.8V382.84Z" fill="url(#paint0_linear_0_1)"/>
<path d="M210.8 407.438H81V425.888H210.8V407.438Z" fill="url(#paint1_linear_0_1)"/>
<path d="M210.8 432.051H81V450.501H210.8V432.051Z" fill="url(#paint2_linear_0_1)"/>
<path d="M81.6094 277.64H210.799V213.05L183.729 188.45V181.07H114.829V185.99L81.6094 213.05V277.64Z" fill="url(#paint3_linear_0_1)"/>
<path d="M183.119 146H114.219V174.3H183.119V146Z" fill="url(#paint4_linear_0_1)"/>
<path d="M198.5 286.5H93V301.5H198.5V286.5Z" fill="#E4266A"/>
<path d="M198.5 310.5H93V325.5H198.5V310.5Z" fill="#E4266A"/>
<path d="M198.5 335.5H93V350.5H198.5V335.5Z" fill="#E4266A"/>
<path d="M198.5 359.5H93V374.5H198.5V359.5Z" fill="#E4266A"/>
<path d="M198.5 384.5H93V399.5H198.5V384.5Z" fill="#E4266A"/>
<path d="M198.5 409.5H93V424.5H198.5V409.5Z" fill="#E4266A"/>
<path d="M198.5 433.5H93V448.5H198.5V433.5Z" fill="#E4266A"/>
<path d="M93.5 271H198.5V218.5L176.5 198.5V192.5H120.5V196.5L93.5 218.5V271Z" fill="#E4266A"/>
<path d="M176.949 151.109H120.949V174.109H176.949V151.109Z" fill="#E4266A"/>
<path opacity="0.1" d="M251.93 0H33.0699C14.8059 0 0 14.8059 0 33.07V486.93C0 505.194 14.8059 520 33.0699 520H251.93C270.194 520 285 505.194 285 486.93V33.07C285 14.8059 270.194 0 251.93 0Z" fill="white"/>
<defs>
<linearGradient id="paint0_linear_0_1" x1="81" y1="392.06" x2="210.79" y2="392.06" gradientUnits="userSpaceOnUse">
<stop stop-color="#101111"/>
<stop offset="0.31" stop-color="#141515"/>
<stop offset="0.63" stop-color="#212121"/>
<stop offset="0.92" stop-color="#333333"/>
</linearGradient>
<linearGradient id="paint1_linear_0_1" x1="81" y1="416.668" x2="210.79" y2="416.668" gradientUnits="userSpaceOnUse">
<stop stop-color="#101111"/>
<stop offset="0.31" stop-color="#141515"/>
<stop offset="0.63" stop-color="#212121"/>
<stop offset="0.92" stop-color="#333333"/>
</linearGradient>
<linearGradient id="paint2_linear_0_1" x1="81" y1="441.281" x2="210.79" y2="441.281" gradientUnits="userSpaceOnUse">
<stop stop-color="#101111"/>
<stop offset="0.31" stop-color="#141515"/>
<stop offset="0.63" stop-color="#212121"/>
<stop offset="0.92" stop-color="#333333"/>
</linearGradient>
<linearGradient id="paint3_linear_0_1" x1="81.6094" y1="229.36" x2="210.789" y2="229.36" gradientUnits="userSpaceOnUse">
<stop stop-color="#101111"/>
<stop offset="0.31" stop-color="#141515"/>
<stop offset="0.63" stop-color="#212121"/>
<stop offset="0.92" stop-color="#333333"/>
</linearGradient>
<linearGradient id="paint4_linear_0_1" x1="114.219" y1="160.15" x2="183.109" y2="160.15" gradientUnits="userSpaceOnUse">
<stop stop-color="#101111"/>
<stop offset="0.31" stop-color="#141515"/>
<stop offset="0.63" stop-color="#212121"/>
<stop offset="0.92" stop-color="#333333"/>
</linearGradient>
</defs>
</svg>
