<svg width="326" height="516" viewBox="0 0 326 516" fill="none" xmlns="http://www.w3.org/2000/svg">
<path d="M176.28 259.17C218.773 259.17 253.22 253.077 253.22 245.56C253.22 238.043 218.773 231.95 176.28 231.95C133.787 231.95 99.3398 238.043 99.3398 245.56C99.3398 253.077 133.787 259.17 176.28 259.17Z" fill="url(#paint0_linear_0_1)"/>
<path d="M133.719 161.26L137.719 149.66C138.575 147.182 138.896 144.552 138.664 141.941C138.431 139.33 137.649 136.798 136.369 134.51L132.539 127.58C130.319 123.58 122.779 119.96 118.429 118.66L120.949 122.3L121.579 123.22C121.509 127.98 123.329 126.72 124.099 135.62C124.304 137.647 124.341 139.687 124.209 141.72C124.116 142.846 123.671 143.915 122.937 144.775C122.203 145.634 121.217 146.241 120.119 146.51L115.619 147.64C114.444 147.932 113.332 148.437 112.339 149.13C112.02 149.351 111.648 149.486 111.261 149.522C110.875 149.558 110.485 149.495 110.129 149.337C109.774 149.179 109.465 148.933 109.232 148.622C109 148.311 108.85 147.945 108.799 147.56L106.589 130.01C105.789 123.69 104.949 120.01 108.019 114.41L107.809 111.18L102.689 117.42C96.7694 124.16 94.3594 133.49 93.0594 142.42L92.1094 148.91C91.8821 150.474 92.1077 152.07 92.7594 153.51C95.4261 159.393 100.009 164.198 105.759 167.14L110.079 169.37C112.47 170.594 114.457 172.483 115.799 174.81C119.799 181.75 127.999 197.23 128.419 208.13C128.979 222.56 143.059 202.03 143.059 202.03C143.059 202.03 130.699 182.21 133.719 161.26Z" fill="#2D2723"/>
<path d="M129.099 160.42L133.099 148.82C133.959 146.343 134.284 143.713 134.053 141.101C133.822 138.49 133.04 135.957 131.759 133.67L127.879 126.74C125.654 122.773 121.975 119.826 117.619 118.52C117.619 118.52 118.669 125.88 119.429 134.77C119.63 136.8 119.67 138.843 119.549 140.88C119.452 142.005 119.006 143.073 118.273 143.932C117.539 144.791 116.555 145.399 115.459 145.67L110.959 146.8C109.799 147.09 108.701 147.588 107.719 148.27C107.399 148.491 107.028 148.626 106.641 148.662C106.254 148.698 105.864 148.635 105.509 148.477C105.153 148.319 104.845 148.073 104.612 147.762C104.379 147.451 104.23 147.085 104.179 146.7L101.959 129.13C101.159 122.81 101.869 119.39 104.959 113.8L107.059 111L99.5387 117.57C93.6181 124.315 89.7768 132.63 88.4787 141.51L87.5287 147.99C87.2969 149.556 87.519 151.156 88.1687 152.6C90.8447 158.477 95.425 163.279 101.169 166.23L105.499 168.46C107.887 169.685 109.87 171.574 111.209 173.9C115.209 180.84 123.409 196.32 123.829 207.21C124.389 221.65 138.479 201.12 138.479 201.12C138.479 201.12 126.079 181.36 129.099 160.42Z" fill="url(#paint1_linear_0_1)"/>
<path d="M148.889 297.89L172.819 288.69L140.799 193L116.959 200.85L148.889 297.89Z" fill="url(#paint2_linear_0_1)"/>
<path d="M164.012 292.846L172.684 289.99L140.75 193.033L132.078 195.889L164.012 292.846Z" fill="url(#paint3_linear_0_1)"/>
<path d="M99.0888 210L95.2389 206.33C94.4168 205.544 93.77 204.594 93.3409 203.541C92.9118 202.488 92.71 201.356 92.7488 200.22L92.8688 196.77C92.9388 194.77 95.1189 191.9 96.5489 190.53L96.2989 192.43L96.2289 192.91C97.2289 194.73 96.2289 194.61 97.7289 198.19C98.05 199.015 98.4414 199.812 98.8988 200.57C99.1641 200.977 99.5489 201.291 100 201.47C100.451 201.649 100.947 201.684 101.419 201.57L103.419 201.11C103.926 200.989 104.452 200.962 104.969 201.03C105.135 201.047 105.303 201.022 105.456 200.957C105.61 200.893 105.746 200.791 105.85 200.661C105.954 200.53 106.025 200.376 106.054 200.212C106.084 200.047 106.071 199.878 106.019 199.72L103.389 192.51C102.439 189.92 102.029 188.32 99.7289 186.78L99.1789 185.49L102.389 186.88C106.009 188.31 108.789 191.43 111.059 194.59L112.719 196.91C113.121 197.465 113.351 198.126 113.379 198.81C113.518 201.606 112.711 204.368 111.089 206.65L109.859 208.36C109.178 209.308 108.789 210.434 108.739 211.6C108.569 215.07 108.489 222.67 110.489 226.96C113.139 232.63 103.629 227.52 103.629 227.52C103.629 227.52 104.419 217.48 99.0888 210Z" fill="#2D2723"/>
<path d="M100.708 208.76L96.8582 205.13C96.0356 204.345 95.3885 203.395 94.9593 202.341C94.5302 201.288 94.3287 200.157 94.3681 199.02L94.4882 195.58C94.5579 193.609 95.3896 191.741 96.8081 190.37C96.8081 190.37 97.8681 193.42 99.3381 197C99.6796 197.805 100.081 198.584 100.538 199.33C100.804 199.739 101.19 200.054 101.644 200.233C102.097 200.413 102.595 200.446 103.068 200.33L105.068 199.88C105.572 199.759 106.094 199.732 106.608 199.8C106.774 199.817 106.942 199.792 107.096 199.727C107.25 199.663 107.385 199.561 107.489 199.431C107.594 199.3 107.664 199.146 107.693 198.982C107.723 198.817 107.711 198.648 107.658 198.49L105.038 191.28C104.359 189.041 102.859 187.14 100.838 185.96L99.4681 185.3L103.678 186.3C107.288 187.721 110.413 190.151 112.678 193.3L114.328 195.61C114.728 196.171 114.96 196.833 114.998 197.52C115.137 200.315 114.326 203.074 112.698 205.35L111.438 207.13C110.761 208.077 110.368 209.198 110.308 210.36C110.148 213.84 110.058 221.44 112.068 225.72C114.718 231.4 105.208 226.28 105.208 226.28C105.208 226.28 106.038 216.24 100.708 208.76Z" fill="url(#paint4_linear_0_1)"/>
<path d="M120.39 265.72L109.33 266.93L102.67 223.65L113.43 221.94L120.39 265.72Z" fill="url(#paint5_linear_0_1)"/>
<path d="M106.622 222.999L102.711 223.621L109.662 267.362L113.573 266.74L106.622 222.999Z" fill="url(#paint6_linear_0_1)"/>
<path d="M225.888 166.34C227.469 167.468 228.698 169.022 229.433 170.82C230.167 172.618 230.377 174.587 230.038 176.5C229.619 178.479 228.791 180.349 227.608 181.99C222.238 188.84 216.658 195.53 211.158 202.28C202.718 212.62 194.278 222.953 185.838 233.28C176.938 244.28 168.028 255.17 159.208 266.18C153.948 272.75 147.408 276.12 138.878 274.78C135.025 274.151 131.438 272.413 128.557 269.777C125.676 267.141 123.626 263.723 122.658 259.94C120.658 251.1 123.548 243.21 130.658 238.3C132.931 236.68 135.516 235.551 138.25 234.986C140.983 234.421 143.804 234.432 146.533 235.018C149.261 235.604 151.838 236.753 154.098 238.391C156.358 240.028 158.252 242.119 159.658 244.53C159.988 245.06 160.328 245.59 160.788 246.34L225.888 166.34ZM156.348 249.92C155.81 247.912 154.859 246.038 153.558 244.417C152.256 242.796 150.632 241.463 148.788 240.503C146.944 239.543 144.92 238.977 142.846 238.84C140.771 238.704 138.691 239 136.737 239.71C134.783 240.42 132.998 241.529 131.495 242.966C129.993 244.402 128.805 246.136 128.008 248.056C127.211 249.976 126.821 252.041 126.864 254.119C126.907 256.198 127.382 258.245 128.258 260.13C129.832 263.554 132.637 266.26 136.115 267.71C139.593 269.16 143.489 269.248 147.029 267.956C150.569 266.665 153.493 264.088 155.22 260.739C156.947 257.389 157.35 253.513 156.348 249.88V249.92ZM179.938 235.32C180.448 235.145 180.894 234.822 181.219 234.393C181.545 233.963 181.735 233.446 181.765 232.908C181.795 232.37 181.664 231.835 181.389 231.372C181.113 230.909 180.706 230.538 180.219 230.308C179.732 230.077 179.187 229.997 178.655 230.077C178.122 230.157 177.625 230.395 177.228 230.759C176.83 231.123 176.551 231.597 176.424 232.121C176.298 232.645 176.331 233.195 176.518 233.7C176.76 234.366 177.255 234.91 177.895 235.213C178.536 235.516 179.27 235.555 179.938 235.32Z" fill="url(#paint7_linear_0_1)"/>
<path d="M183.62 238.9C182.62 244.74 181.78 250.04 180.87 255.56C184.764 254.568 188.849 254.612 192.72 255.69C203.14 258.69 209.43 271.31 205.85 281.53C204.939 284.111 203.521 286.485 201.68 288.511C199.84 290.537 197.613 292.175 195.13 293.329C192.648 294.483 189.96 295.13 187.225 295.231C184.489 295.333 181.761 294.887 179.2 293.92C171.37 291 165.42 281.83 166.47 273.53C167.17 267.98 168.25 262.53 169.23 256.98C169.399 256.243 169.742 255.557 170.23 254.98C174.35 249.89 178.52 244.84 182.68 239.79C182.975 239.475 183.289 239.178 183.62 238.9ZM181.05 261.13C177.404 262.595 174.481 265.437 172.914 269.041C171.347 272.645 171.263 276.721 172.678 280.387C174.094 284.053 176.896 287.014 180.478 288.63C184.061 290.246 188.135 290.386 191.82 289.02C193.677 288.332 195.379 287.281 196.826 285.93C198.274 284.579 199.439 282.953 200.253 281.148C201.067 279.343 201.514 277.394 201.569 275.414C201.623 273.434 201.284 271.464 200.571 269.616C199.857 267.769 198.784 266.082 197.413 264.653C196.042 263.223 194.401 262.081 192.585 261.291C190.769 260.502 188.814 260.081 186.834 260.053C184.853 260.026 182.888 260.392 181.05 261.13Z" fill="url(#paint8_linear_0_1)"/>
<path d="M198.239 153.75C197.429 158.75 196.629 163.75 195.769 168.75C193.855 179.95 191.925 191.153 189.979 202.36C189.619 204.49 189.268 206.62 188.868 208.74C188.783 209.234 188.581 209.7 188.279 210.1C183.899 215.553 179.505 220.99 175.099 226.41C175.039 226.49 174.889 226.5 174.479 226.65C174.999 223.36 175.479 220.2 175.989 217.06C177.989 205.61 179.989 194.15 181.919 182.69C183.069 176 184.159 169.29 185.349 162.6C186.419 156.61 192.839 152.19 198.239 153.75Z" fill="url(#paint9_linear_0_1)"/>
<path d="M179.939 235.32C179.271 235.555 178.536 235.516 177.896 235.213C177.256 234.91 176.761 234.366 176.519 233.7C176.332 233.195 176.299 232.645 176.425 232.121C176.551 231.597 176.831 231.123 177.228 230.759C177.626 230.395 178.122 230.157 178.655 230.077C179.188 229.997 179.733 230.077 180.22 230.308C180.707 230.538 181.114 230.909 181.389 231.372C181.665 231.835 181.795 232.37 181.765 232.908C181.735 233.446 181.545 233.963 181.22 234.393C180.895 234.822 180.449 235.145 179.939 235.32Z" fill="url(#paint10_linear_0_1)"/>
<path d="M198.879 146.76L202.639 114.89L217.819 116.69L217.079 122.95C218.479 123.11 219.619 123.26 220.769 123.38C232.019 124.6 243.249 126 254.509 126.98C263.509 127.76 270.669 136.04 270.589 149.27C270.505 155.079 269.689 160.855 268.159 166.46C267.249 163.82 266.569 161.51 265.679 159.36C262.679 152.25 258.249 148 251.579 147.36C239.939 146.36 228.339 144.97 216.719 143.76C216.109 143.69 215.499 143.71 214.719 143.69C214.459 145.35 214.219 146.88 213.969 148.5L198.879 146.76Z" fill="url(#paint11_linear_0_1)"/>
<path d="M229.129 116.96C234.699 117.62 240.019 118.16 245.309 118.96C247.479 119.27 245.909 121.31 246.069 122.85L228.689 120.8L229.129 116.96Z" fill="url(#paint12_linear_0_1)"/>
<path d="M229.13 116.98C231.97 117.31 234.69 117.54 237.38 117.98C238.48 118.17 237.56 120.29 237.55 121.81L228.68 120.76L229.13 116.98Z" fill="url(#paint13_linear_0_1)"/>
<path d="M233.618 289.63L208.738 286.93L227.218 147.93L245.468 149.92L233.618 289.63Z" fill="url(#paint14_linear_0_1)"/>
<path d="M218.208 287.96L208.738 286.93L225.168 147.71L232.108 148.47L218.208 287.96Z" fill="url(#paint15_linear_0_1)"/>
<path d="M176.28 259.13C133.78 259.13 99.3398 253.04 99.3398 245.53V386.53C99.3391 389.551 100.403 392.476 102.346 394.789C104.288 397.103 106.984 398.658 109.96 399.18C154.176 406.952 199.413 406.898 243.61 399.02C246.295 398.543 248.726 397.137 250.478 395.047C252.229 392.957 253.19 390.317 253.19 387.59V245.56C253.21 253.07 218.77 259.13 176.28 259.13Z" fill="url(#paint16_linear_0_1)"/>
<path d="M39.3783 406.04L34.3783 416.04L31.7383 414.93C31.9183 414.557 32.0983 414.197 32.2783 413.85C33.6116 411.117 34.9683 408.39 36.3483 405.67C36.3483 405.57 36.4283 405.52 36.5483 405.54L39.3783 406.04Z" fill="url(#paint17_linear_0_1)"/>
<path d="M39.17 424.75L36.47 423.22C36.4078 423.18 36.3564 423.125 36.32 423.06C34.7933 420.393 33.27 417.727 31.75 415.06V414.96L33.89 415.84C34.1048 415.921 34.2826 416.077 34.39 416.28L39.11 424.58L39.17 424.75Z" fill="url(#paint18_linear_0_1)"/>
<path d="M49.5197 404.76L39.4097 406.09L36.4297 405.52L45.8997 404.21L49.5197 404.76Z" fill="url(#paint19_linear_0_1)"/>
<path d="M49.2397 404.83C49.3797 404.76 49.4497 404.83 49.5197 405.01C51.1597 407.91 52.8064 410.803 54.4597 413.69C54.4888 413.738 54.5042 413.794 54.5042 413.85C54.5042 413.906 54.4888 413.962 54.4597 414.01C52.8064 417.263 51.1597 420.513 49.5197 423.76C49.4941 423.818 49.4519 423.867 49.3985 423.9C49.3451 423.934 49.2829 423.952 49.2197 423.95L46.3397 424.23L43.8897 424.47L41.4397 424.71L39.3797 424.92C39.327 424.929 39.2727 424.92 39.2256 424.895C39.1785 424.869 39.1412 424.829 39.1197 424.78L35.5397 418.52C35.0597 417.69 34.5397 416.86 34.1197 416.03C34.0926 415.99 34.0781 415.943 34.0781 415.895C34.0781 415.847 34.0926 415.8 34.1197 415.76C35.7664 412.513 37.4097 409.263 39.0497 406.01C39.0718 405.954 39.1104 405.906 39.1604 405.872C39.2103 405.838 39.2693 405.82 39.3297 405.82L42.0897 405.55L44.8697 405.27L47.2697 405.03L49.2397 404.83ZM49.5197 414.48C49.565 413.209 49.2157 411.955 48.5197 410.89C48.147 410.302 47.6454 409.806 47.0529 409.441C46.4604 409.075 45.7925 408.849 45.0997 408.78C43.7694 408.642 42.4379 409.029 41.3897 409.86C40.5205 410.496 39.8164 411.331 39.3362 412.294C38.856 413.258 38.6137 414.323 38.6297 415.4C38.5983 416.533 38.9121 417.649 39.5297 418.6C39.9109 419.228 40.4382 419.756 41.0666 420.137C41.6951 420.518 42.4062 420.742 43.1397 420.79C44.3296 420.885 45.5143 420.552 46.4797 419.85C47.3811 419.264 48.1292 418.471 48.6615 417.536C49.1939 416.602 49.495 415.554 49.5397 414.48H49.5197Z" fill="url(#paint20_linear_0_1)"/>
<path d="M48.5386 410.89C48.1659 410.302 47.6643 409.806 47.0718 409.441C46.4793 409.075 45.8114 408.849 45.1186 408.78C43.7884 408.642 42.4568 409.029 41.4086 409.86C40.5395 410.496 39.8353 411.331 39.3551 412.294C38.8749 413.258 38.6326 414.323 38.6486 415.4C38.6172 416.533 38.9311 417.649 39.5487 418.6C39.9299 419.228 40.4571 419.756 41.0856 420.137C41.714 420.518 42.4251 420.742 43.1586 420.79C44.3485 420.885 45.5332 420.552 46.4986 419.85C47.3906 419.259 48.1283 418.463 48.6502 417.529C49.1721 416.595 49.463 415.549 49.4986 414.48C49.5558 413.213 49.2206 411.959 48.5386 410.89ZM40.0686 418.99C39.4525 418.235 39.0548 417.325 38.9187 416.36C38.8687 416.04 38.8486 415.71 38.8186 415.36C38.8233 414.186 39.1384 413.033 39.732 412.02C40.3256 411.007 41.1766 410.168 42.1987 409.59C42.7433 409.285 43.3403 409.085 43.9587 409C44.0085 408.988 44.0607 408.991 44.1087 409.009C44.1568 409.027 44.1985 409.059 44.2287 409.1C44.8353 409.809 45.2365 410.67 45.3887 411.59C45.5651 412.538 45.5312 413.513 45.2892 414.446C45.0473 415.379 44.6033 416.247 43.9887 416.99C43.1212 418.123 41.8559 418.884 40.4487 419.12C40.384 419.134 40.3168 419.129 40.2549 419.106C40.1929 419.083 40.1388 419.043 40.0986 418.99H40.0686Z" fill="url(#paint21_linear_0_1)"/>
<path d="M79.7891 427.13L85.7891 439.05L88.9491 437.73L88.3091 436.43L83.4491 426.67C83.3891 426.56 83.3491 426.49 83.2091 426.52L79.7891 427.13Z" fill="url(#paint22_linear_0_1)"/>
<path d="M80.0391 449.4L83.2591 447.57C83.333 447.526 83.3949 447.464 83.4391 447.39L88.8891 437.8C88.9127 437.758 88.9328 437.715 88.9491 437.67C88.0691 438.03 87.239 438.39 86.399 438.72C86.1378 438.817 85.9234 439.01 85.7991 439.26C83.9257 442.56 82.0491 445.86 80.1691 449.16L80.0391 449.4Z" fill="url(#paint23_linear_0_1)"/>
<path d="M67.6895 425.55L79.7495 427.14L83.3094 426.46L72.0195 424.9L67.6895 425.55Z" fill="url(#paint24_linear_0_1)"/>
<path d="M70.3282 425.88L73.2083 426.16L76.5182 426.49L79.8082 426.82C79.8809 426.817 79.9527 426.837 80.0123 426.879C80.072 426.92 80.1163 426.981 80.1382 427.05L86.0282 438.68C86.0573 438.728 86.0727 438.784 86.0727 438.84C86.0727 438.896 86.0573 438.952 86.0282 439C85.4582 440 84.8982 441 84.3382 442C82.9182 444.48 81.5049 446.97 80.0982 449.47C80.0719 449.53 80.0256 449.579 79.9671 449.608C79.9087 449.637 79.8419 449.645 79.7782 449.63L77.3282 449.39L74.4082 449.1L71.4883 448.82L68.0382 448.48C67.9635 448.481 67.8901 448.46 67.8276 448.419C67.7651 448.378 67.7165 448.319 67.6882 448.25L61.7982 436.62C61.7617 436.563 61.7422 436.497 61.7422 436.43C61.7422 436.363 61.7617 436.297 61.7982 436.24C63.7982 432.787 65.7616 429.337 67.6882 425.89C67.7782 425.73 67.8482 425.58 68.0282 425.67L70.3282 425.88ZM71.2482 443.56C72.4057 444.398 73.8241 444.795 75.2482 444.68C76.1217 444.622 76.9683 444.354 77.7167 443.9C78.4651 443.445 79.0932 442.818 79.5482 442.07C80.2896 440.933 80.6663 439.597 80.6282 438.24C80.6442 436.955 80.3531 435.685 79.7791 434.535C79.2051 433.385 78.3648 432.389 77.3282 431.63C76.0735 430.645 74.485 430.186 72.8982 430.35C72.0714 430.433 71.2743 430.702 70.5674 431.139C69.8604 431.576 69.2622 432.168 68.8182 432.87C68.0125 434.147 67.6181 435.641 67.6882 437.15C67.7277 438.425 68.0714 439.672 68.6906 440.787C69.3099 441.902 70.1868 442.853 71.2482 443.56Z" fill="url(#paint25_linear_0_1)"/>
<path d="M67.6892 437.13C67.7298 438.406 68.075 439.653 68.696 440.768C69.3171 441.884 70.1959 442.834 71.2592 443.54C72.4167 444.378 73.8351 444.775 75.2592 444.66C76.1327 444.602 76.9793 444.334 77.7277 443.88C78.476 443.425 79.1042 442.798 79.5592 442.05C80.3005 440.913 80.6773 439.577 80.6392 438.22C80.6552 436.935 80.364 435.665 79.79 434.515C79.216 433.366 78.3758 432.369 77.3392 431.61C76.0844 430.625 74.496 430.166 72.9092 430.33C72.0824 430.413 71.2853 430.682 70.5783 431.119C69.8714 431.556 69.2732 432.148 68.8292 432.85C68.0188 434.126 67.6207 435.62 67.6892 437.13ZM78.4692 442.67C76.7917 442.389 75.2854 441.476 74.2592 440.12C73.5247 439.237 72.9935 438.203 72.7032 437.092C72.4128 435.981 72.3705 434.819 72.5792 433.69C72.7565 432.581 73.2376 431.542 73.9692 430.69C74.0049 430.641 74.0543 430.603 74.1112 430.582C74.1681 430.561 74.23 430.556 74.2892 430.57C75.0228 430.674 75.7311 430.911 76.3792 431.27C77.5945 431.963 78.6047 432.966 79.3073 434.176C80.0098 435.386 80.3796 436.761 80.3792 438.16C80.3792 438.58 80.3192 438.97 80.2592 439.35C80.1008 440.503 79.6267 441.59 78.8892 442.49C78.8449 442.559 78.782 442.615 78.7078 442.65C78.6336 442.685 78.5509 442.699 78.4692 442.69V442.67Z" fill="url(#paint26_linear_0_1)"/>
<path d="M68.9684 482.26L68.8585 487.58L64.4384 490.84L55.4585 491.05L50.8984 488L50.9984 482.26H68.9684Z" fill="url(#paint27_linear_0_1)"/>
<path d="M64.4395 490.84L68.8595 487.58L68.9695 482.26H64.4895L64.4395 490.84Z" fill="url(#paint28_linear_0_1)"/>
<path d="M64.3691 479.17L68.8292 482.36L64.3091 485.48L55.3292 485.39L50.8691 482.2L55.3892 479.09L64.3691 479.17Z" fill="url(#paint29_linear_0_1)"/>
<path d="M59.8491 482.84C62.0913 482.84 63.9091 482.321 63.9091 481.68C63.9091 481.039 62.0913 480.52 59.8491 480.52C57.6068 480.52 55.7891 481.039 55.7891 481.68C55.7891 482.321 57.6068 482.84 59.8491 482.84Z" fill="url(#paint30_linear_0_1)"/>
<path d="M37.1595 351.83L37.0895 355.1L34.3595 357.11L28.8295 357.24L26.0195 355.36L26.0795 351.83H37.1595Z" fill="url(#paint31_linear_0_1)"/>
<path d="M34.3594 357.11L37.0894 355.1L37.1594 351.83H34.3894L34.3594 357.11Z" fill="url(#paint32_linear_0_1)"/>
<path d="M34.32 349.92L37.07 351.89L34.29 353.8L28.75 353.76L26 351.79L28.79 349.87L34.32 349.92Z" fill="url(#paint33_linear_0_1)"/>
<path d="M31.5391 352.18C32.9198 352.18 34.0391 351.862 34.0391 351.47C34.0391 351.078 32.9198 350.76 31.5391 350.76C30.1584 350.76 29.0391 351.078 29.0391 351.47C29.0391 351.862 30.1584 352.18 31.5391 352.18Z" fill="url(#paint34_linear_0_1)"/>
<path opacity="0.1" d="M292.93 0H33.07C14.806 0 0 14.806 0 33.07V482.93C0 501.194 14.806 516 33.07 516H292.93C311.194 516 326 501.194 326 482.93V33.07C326 14.806 311.194 0 292.93 0Z" fill="white"/>
<defs>
<linearGradient id="paint0_linear_0_1" x1="58.4498" y1="245.56" x2="355.47" y2="245.56" gradientUnits="userSpaceOnUse">
<stop/>
<stop offset="0.02" stop-color="#0C0C0C"/>
<stop offset="0.14" stop-color="#444444"/>
<stop offset="0.25" stop-color="#767676"/>
<stop offset="0.37" stop-color="#A0A0A0"/>
<stop offset="0.49" stop-color="#C2C2C2"/>
<stop offset="0.61" stop-color="#DDDDDD"/>
<stop offset="0.73" stop-color="#F0F0F0"/>
<stop offset="0.86" stop-color="#FBFBFB"/>
<stop offset="1" stop-color="white"/>
</linearGradient>
<linearGradient id="paint1_linear_0_1" x1="84.863" y1="193.133" x2="173.494" y2="158.183" gradientUnits="userSpaceOnUse">
<stop offset="0.02"/>
<stop offset="0.1" stop-color="#1E1E1E"/>
<stop offset="0.29" stop-color="#616161"/>
<stop offset="0.47" stop-color="#9A9A9A"/>
<stop offset="0.64" stop-color="#C5C5C5"/>
<stop offset="0.79" stop-color="#E5E5E5"/>
<stop offset="0.91" stop-color="#F8F8F8"/>
<stop offset="1" stop-color="white"/>
</linearGradient>
<linearGradient id="paint2_linear_0_1" x1="136.952" y1="265.618" x2="194.264" y2="246.954" gradientUnits="userSpaceOnUse">
<stop stop-color="#FD9D31"/>
<stop offset="0.09" stop-color="#F0952F"/>
<stop offset="0.25" stop-color="#CF8028"/>
<stop offset="0.47" stop-color="#995F1E"/>
<stop offset="0.74" stop-color="#4F310F"/>
<stop offset="1"/>
</linearGradient>
<linearGradient id="paint3_linear_0_1" x1="170.101" y1="210.174" x2="131.597" y2="220.406" gradientUnits="userSpaceOnUse">
<stop stop-color="#FD9D31"/>
<stop offset="0.09" stop-color="#F0952F"/>
<stop offset="0.25" stop-color="#CF8028"/>
<stop offset="0.47" stop-color="#995F1E"/>
<stop offset="0.74" stop-color="#4F310F"/>
<stop offset="1"/>
</linearGradient>
<linearGradient id="paint4_linear_0_1" x1="127.531" y1="204.649" x2="86.3498" y2="208.869" gradientUnits="userSpaceOnUse">
<stop offset="0.02"/>
<stop offset="0.1" stop-color="#1E1E1E"/>
<stop offset="0.29" stop-color="#616161"/>
<stop offset="0.47" stop-color="#9A9A9A"/>
<stop offset="0.64" stop-color="#C5C5C5"/>
<stop offset="0.79" stop-color="#E5E5E5"/>
<stop offset="0.91" stop-color="#F8F8F8"/>
<stop offset="1" stop-color="white"/>
</linearGradient>
<linearGradient id="paint5_linear_0_1" x1="121.913" y1="243.024" x2="96.0676" y2="247.268" gradientUnits="userSpaceOnUse">
<stop stop-color="#FD9D31"/>
<stop offset="0.09" stop-color="#F0952F"/>
<stop offset="0.25" stop-color="#CF8028"/>
<stop offset="0.47" stop-color="#995F1E"/>
<stop offset="0.74" stop-color="#4F310F"/>
<stop offset="1"/>
</linearGradient>
<linearGradient id="paint6_linear_0_1" x1="96.8471" y1="247.488" x2="113.74" y2="243.842" gradientUnits="userSpaceOnUse">
<stop stop-color="#FD9D31"/>
<stop offset="0.09" stop-color="#F0952F"/>
<stop offset="0.25" stop-color="#CF8028"/>
<stop offset="0.47" stop-color="#995F1E"/>
<stop offset="0.74" stop-color="#4F310F"/>
<stop offset="1"/>
</linearGradient>
<linearGradient id="paint7_linear_0_1" x1="191.031" y1="235.188" x2="127.541" y2="155.926" gradientUnits="userSpaceOnUse">
<stop stop-color="#EC3593"/>
<stop offset="0.15" stop-color="#91215A"/>
<stop offset="0.28" stop-color="#430F2A"/>
<stop offset="0.38" stop-color="#13040C"/>
<stop offset="0.43"/>
</linearGradient>
<linearGradient id="paint8_linear_0_1" x1="149.257" y1="256.219" x2="215.535" y2="277.221" gradientUnits="userSpaceOnUse">
<stop offset="0.02"/>
<stop offset="0.05" stop-color="#03090B"/>
<stop offset="0.25" stop-color="#153E4E"/>
<stop offset="0.44" stop-color="#246B87"/>
<stop offset="0.62" stop-color="#308DB2"/>
<stop offset="0.77" stop-color="#38A6D2"/>
<stop offset="0.91" stop-color="#3DB6E5"/>
<stop offset="1" stop-color="#3FBBEC"/>
</linearGradient>
<linearGradient id="paint9_linear_0_1" x1="204.797" y1="192.217" x2="157.256" y2="186.797" gradientUnits="userSpaceOnUse">
<stop offset="0.02"/>
<stop offset="0.05" stop-color="#03090B"/>
<stop offset="0.25" stop-color="#153E4E"/>
<stop offset="0.44" stop-color="#246B87"/>
<stop offset="0.62" stop-color="#308DB2"/>
<stop offset="0.77" stop-color="#38A6D2"/>
<stop offset="0.91" stop-color="#3DB6E5"/>
<stop offset="1" stop-color="#3FBBEC"/>
</linearGradient>
<linearGradient id="paint10_linear_0_1" x1="176.499" y1="233.686" x2="181.573" y2="231.783" gradientUnits="userSpaceOnUse">
<stop stop-color="#101111"/>
<stop offset="0.31" stop-color="#141515"/>
<stop offset="0.63" stop-color="#212121"/>
<stop offset="0.92" stop-color="#333333"/>
</linearGradient>
<linearGradient id="paint11_linear_0_1" x1="167.829" y1="126.098" x2="280.512" y2="139.467" gradientUnits="userSpaceOnUse">
<stop offset="0.02"/>
<stop offset="0.1" stop-color="#1E1E1E"/>
<stop offset="0.29" stop-color="#616161"/>
<stop offset="0.47" stop-color="#9A9A9A"/>
<stop offset="0.64" stop-color="#C5C5C5"/>
<stop offset="0.79" stop-color="#E5E5E5"/>
<stop offset="0.91" stop-color="#F8F8F8"/>
<stop offset="1" stop-color="white"/>
</linearGradient>
<linearGradient id="paint12_linear_0_1" x1="254.872" y1="114.29" x2="198.365" y2="107.585" gradientUnits="userSpaceOnUse">
<stop stop-color="#FD9D31"/>
<stop offset="0.09" stop-color="#F0952F"/>
<stop offset="0.25" stop-color="#CF8028"/>
<stop offset="0.47" stop-color="#995F1E"/>
<stop offset="0.74" stop-color="#4F310F"/>
<stop offset="1"/>
</linearGradient>
<linearGradient id="paint13_linear_0_1" x1="246.682" y1="143.674" x2="275.205" y2="147.058" gradientUnits="userSpaceOnUse">
<stop stop-color="#FD9D31"/>
<stop offset="0.09" stop-color="#F4972F"/>
<stop offset="0.23" stop-color="#DB882A"/>
<stop offset="0.4" stop-color="#B26F23"/>
<stop offset="0.61" stop-color="#7A4C18"/>
<stop offset="0.85" stop-color="#33200A"/>
<stop offset="1"/>
</linearGradient>
<linearGradient id="paint14_linear_0_1" x1="251.434" y1="221.772" x2="149.454" y2="207.739" gradientUnits="userSpaceOnUse">
<stop stop-color="#FD9D31"/>
<stop offset="0.09" stop-color="#F0952F"/>
<stop offset="0.25" stop-color="#CF8028"/>
<stop offset="0.47" stop-color="#995F1E"/>
<stop offset="0.74" stop-color="#4F310F"/>
<stop offset="1"/>
</linearGradient>
<linearGradient id="paint15_linear_0_1" x1="175.762" y1="220.737" x2="214.837" y2="225.216" gradientUnits="userSpaceOnUse">
<stop stop-color="#FD9D31"/>
<stop offset="0.09" stop-color="#F0952F"/>
<stop offset="0.25" stop-color="#CF8028"/>
<stop offset="0.47" stop-color="#995F1E"/>
<stop offset="0.74" stop-color="#4F310F"/>
<stop offset="1"/>
</linearGradient>
<linearGradient id="paint16_linear_0_1" x1="29.5898" y1="325.27" x2="346.69" y2="325.27" gradientUnits="userSpaceOnUse">
<stop/>
<stop offset="0.08" stop-color="#333333"/>
<stop offset="0.17" stop-color="#626262"/>
<stop offset="0.26" stop-color="#8C8C8C"/>
<stop offset="0.36" stop-color="#B0B0B0"/>
<stop offset="0.46" stop-color="#CDCDCD"/>
<stop offset="0.56" stop-color="#E3E3E3"/>
<stop offset="0.68" stop-color="#F3F3F3"/>
<stop offset="0.81" stop-color="#FCFCFC"/>
<stop offset="1" stop-color="white"/>
</linearGradient>
<linearGradient id="paint17_linear_0_1" x1="38.9083" y1="412.37" x2="32.1483" y2="408.57" gradientUnits="userSpaceOnUse">
<stop offset="0.02"/>
<stop offset="0.05" stop-color="#03090B"/>
<stop offset="0.25" stop-color="#153E4E"/>
<stop offset="0.44" stop-color="#246B87"/>
<stop offset="0.62" stop-color="#308DB2"/>
<stop offset="0.77" stop-color="#38A6D2"/>
<stop offset="0.91" stop-color="#3DB6E5"/>
<stop offset="1" stop-color="#3FBBEC"/>
</linearGradient>
<linearGradient id="paint18_linear_0_1" x1="37.56" y1="418.93" x2="30.68" y2="421.84" gradientUnits="userSpaceOnUse">
<stop offset="0.02"/>
<stop offset="0.05" stop-color="#03090B"/>
<stop offset="0.25" stop-color="#153E4E"/>
<stop offset="0.44" stop-color="#246B87"/>
<stop offset="0.62" stop-color="#308DB2"/>
<stop offset="0.77" stop-color="#38A6D2"/>
<stop offset="0.91" stop-color="#3DB6E5"/>
<stop offset="1" stop-color="#3FBBEC"/>
</linearGradient>
<linearGradient id="paint19_linear_0_1" x1="44.1941" y1="412.469" x2="42.3831" y2="396.17" gradientUnits="userSpaceOnUse">
<stop offset="0.34"/>
<stop offset="0.37" stop-color="#0A1E26"/>
<stop offset="0.4" stop-color="#153F4F"/>
<stop offset="0.43" stop-color="#1F5D75"/>
<stop offset="0.46" stop-color="#287695"/>
<stop offset="0.5" stop-color="#2F8CB1"/>
<stop offset="0.55" stop-color="#359DC7"/>
<stop offset="0.6" stop-color="#3AABD8"/>
<stop offset="0.66" stop-color="#3DB4E3"/>
<stop offset="0.75" stop-color="#3EBAEA"/>
<stop offset="1" stop-color="#3FBBEC"/>
</linearGradient>
<linearGradient id="paint20_linear_0_1" x1="28.4097" y1="414.86" x2="58.1697" y2="414.86" gradientUnits="userSpaceOnUse">
<stop offset="0.02"/>
<stop offset="0.17" stop-color="#0D2630"/>
<stop offset="0.39" stop-color="#1E5A72"/>
<stop offset="0.6" stop-color="#2C84A7"/>
<stop offset="0.77" stop-color="#37A2CC"/>
<stop offset="0.91" stop-color="#3DB4E4"/>
<stop offset="1" stop-color="#3FBBEC"/>
</linearGradient>
<linearGradient id="paint21_linear_0_1" x1="38.6786" y1="414.78" x2="49.5186" y2="414.78" gradientUnits="userSpaceOnUse">
<stop stop-color="#101111"/>
<stop offset="0.31" stop-color="#141515"/>
<stop offset="0.63" stop-color="#212121"/>
<stop offset="0.92" stop-color="#333333"/>
</linearGradient>
<linearGradient id="paint22_linear_0_1" x1="87.5991" y1="430.91" x2="79.1691" y2="434.73" gradientUnits="userSpaceOnUse">
<stop stop-color="#EC3593"/>
<stop offset="0.09" stop-color="#E4338E"/>
<stop offset="0.23" stop-color="#CF2F81"/>
<stop offset="0.4" stop-color="#AD276C"/>
<stop offset="0.59" stop-color="#7D1C4E"/>
<stop offset="0.8" stop-color="#410F28"/>
<stop offset="1"/>
</linearGradient>
<linearGradient id="paint23_linear_0_1" x1="88.1991" y1="445.9" x2="80.699" y2="441.11" gradientUnits="userSpaceOnUse">
<stop stop-color="#EC3593"/>
<stop offset="0.09" stop-color="#E4338E"/>
<stop offset="0.23" stop-color="#CF2F81"/>
<stop offset="0.4" stop-color="#AD276C"/>
<stop offset="0.59" stop-color="#7D1C4E"/>
<stop offset="0.8" stop-color="#410F28"/>
<stop offset="1"/>
</linearGradient>
<linearGradient id="paint24_linear_0_1" x1="73.6315" y1="398.799" x2="72.3682" y2="418.331" gradientUnits="userSpaceOnUse">
<stop stop-color="#EC3593"/>
<stop offset="0.09" stop-color="#E4338E"/>
<stop offset="0.23" stop-color="#CF2F81"/>
<stop offset="0.4" stop-color="#AD276C"/>
<stop offset="0.59" stop-color="#7D1C4E"/>
<stop offset="0.8" stop-color="#410F28"/>
<stop offset="1"/>
</linearGradient>
<linearGradient id="paint25_linear_0_1" x1="57.4083" y1="437.61" x2="92.9182" y2="437.61" gradientUnits="userSpaceOnUse">
<stop stop-color="#EC3593"/>
<stop offset="0.09" stop-color="#E4338E"/>
<stop offset="0.23" stop-color="#CF2F81"/>
<stop offset="0.4" stop-color="#AD276C"/>
<stop offset="0.59" stop-color="#7D1C4E"/>
<stop offset="0.8" stop-color="#410F28"/>
<stop offset="1"/>
</linearGradient>
<linearGradient id="paint26_linear_0_1" x1="80.6292" y1="437.51" x2="67.6892" y2="437.51" gradientUnits="userSpaceOnUse">
<stop stop-color="#101111"/>
<stop offset="0.31" stop-color="#141515"/>
<stop offset="0.63" stop-color="#212121"/>
<stop offset="0.92" stop-color="#333333"/>
</linearGradient>
<linearGradient id="paint27_linear_0_1" x1="48.8109" y1="486.825" x2="67.0514" y2="486.235" gradientUnits="userSpaceOnUse">
<stop stop-color="#FD9D31"/>
<stop offset="0.11" stop-color="#F89A30"/>
<stop offset="0.22" stop-color="#EB922E"/>
<stop offset="0.35" stop-color="#D58429"/>
<stop offset="0.48" stop-color="#B57023"/>
<stop offset="0.61" stop-color="#8D571B"/>
<stop offset="0.74" stop-color="#5B3912"/>
<stop offset="0.88" stop-color="#221507"/>
<stop offset="0.95"/>
</linearGradient>
<linearGradient id="paint28_linear_0_1" x1="74.7194" y1="486.55" x2="57.6395" y2="486.55" gradientUnits="userSpaceOnUse">
<stop stop-color="#FD9D31"/>
<stop offset="0.09" stop-color="#F0952F"/>
<stop offset="0.25" stop-color="#CF8028"/>
<stop offset="0.47" stop-color="#995F1E"/>
<stop offset="0.74" stop-color="#4F310F"/>
<stop offset="1"/>
</linearGradient>
<linearGradient id="paint29_linear_0_1" x1="50.8691" y1="482.28" x2="68.8292" y2="482.28" gradientUnits="userSpaceOnUse">
<stop stop-color="#634425"/>
<stop offset="0.12" stop-color="#956129"/>
<stop offset="0.24" stop-color="#C17B2C"/>
<stop offset="0.34" stop-color="#E28D2F"/>
<stop offset="0.43" stop-color="#F69930"/>
<stop offset="0.49" stop-color="#FD9D31"/>
<stop offset="0.54" stop-color="#F0952F"/>
<stop offset="0.62" stop-color="#CF8028"/>
<stop offset="0.73" stop-color="#995F1E"/>
<stop offset="0.87" stop-color="#4F310F"/>
<stop offset="1"/>
</linearGradient>
<linearGradient id="paint30_linear_0_1" x1="55.7991" y1="481.68" x2="63.9091" y2="481.68" gradientUnits="userSpaceOnUse">
<stop stop-color="#101111"/>
<stop offset="0.31" stop-color="#141515"/>
<stop offset="0.63" stop-color="#212121"/>
<stop offset="0.92" stop-color="#333333"/>
</linearGradient>
<linearGradient id="paint31_linear_0_1" x1="24.7419" y1="354.633" x2="35.976" y2="354.27" gradientUnits="userSpaceOnUse">
<stop stop-color="#FD9D31"/>
<stop offset="0.11" stop-color="#F89A30"/>
<stop offset="0.22" stop-color="#EB922E"/>
<stop offset="0.35" stop-color="#D58429"/>
<stop offset="0.48" stop-color="#B57023"/>
<stop offset="0.61" stop-color="#8D571B"/>
<stop offset="0.74" stop-color="#5B3912"/>
<stop offset="0.88" stop-color="#221507"/>
<stop offset="0.95"/>
</linearGradient>
<linearGradient id="paint32_linear_0_1" x1="40.6993" y1="354.47" x2="30.1694" y2="354.47" gradientUnits="userSpaceOnUse">
<stop stop-color="#FD9D31"/>
<stop offset="0.09" stop-color="#F0952F"/>
<stop offset="0.25" stop-color="#CF8028"/>
<stop offset="0.47" stop-color="#995F1E"/>
<stop offset="0.74" stop-color="#4F310F"/>
<stop offset="1"/>
</linearGradient>
<linearGradient id="paint33_linear_0_1" x1="26" y1="351.84" x2="37.07" y2="351.84" gradientUnits="userSpaceOnUse">
<stop stop-color="#634425"/>
<stop offset="0.12" stop-color="#956129"/>
<stop offset="0.24" stop-color="#C17B2C"/>
<stop offset="0.34" stop-color="#E28D2F"/>
<stop offset="0.43" stop-color="#F69930"/>
<stop offset="0.49" stop-color="#FD9D31"/>
<stop offset="0.54" stop-color="#F0952F"/>
<stop offset="0.62" stop-color="#CF8028"/>
<stop offset="0.73" stop-color="#995F1E"/>
<stop offset="0.87" stop-color="#4F310F"/>
<stop offset="1"/>
</linearGradient>
<linearGradient id="paint34_linear_0_1" x1="29.0391" y1="351.47" x2="34.0391" y2="351.47" gradientUnits="userSpaceOnUse">
<stop stop-color="#101111"/>
<stop offset="0.31" stop-color="#141515"/>
<stop offset="0.63" stop-color="#212121"/>
<stop offset="0.92" stop-color="#333333"/>
</linearGradient>
</defs>
</svg>
