<svg width="326" height="516" viewBox="0 0 326 516" fill="none" xmlns="http://www.w3.org/2000/svg">
<path opacity="0.1" d="M292.93 0H33.07C14.806 0 0 14.806 0 33.07V482.93C0 501.194 14.806 516 33.07 516H292.93C311.194 516 326 501.194 326 482.93V33.07C326 14.806 311.194 0 292.93 0Z" fill="white"/>
<path d="M131.56 117.29L135.56 105.69C136.42 103.213 136.745 100.583 136.514 97.9713C136.283 95.36 135.501 92.8272 134.22 90.54L130.34 83.61C128.115 79.6434 124.436 76.6962 120.08 75.39C120.08 75.39 121.13 82.75 121.89 91.64C122.092 93.6703 122.132 95.7134 122.01 97.75C121.914 98.8755 121.468 99.9425 120.734 100.802C120.001 101.661 119.017 102.269 117.92 102.54L113.42 103.67C112.26 103.96 111.162 104.458 110.18 105.14C109.86 105.361 109.489 105.496 109.102 105.532C108.715 105.568 108.325 105.505 107.97 105.347C107.615 105.189 107.306 104.943 107.073 104.632C106.84 104.321 106.691 103.955 106.64 103.57L104.42 86C103.62 79.68 104.33 76.26 107.42 70.67L109.52 67.87L102 74.44C96.0795 81.1849 92.2382 89.4996 90.9401 98.38L89.9901 104.86C89.7583 106.426 89.9804 108.026 90.6301 109.47C93.3061 115.347 97.8864 120.149 103.63 123.1L107.96 125.33C110.348 126.555 112.331 128.444 113.67 130.77C117.67 137.71 125.87 153.19 126.29 164.08C126.85 178.52 140.94 157.99 140.94 157.99C140.94 157.99 128.54 138.23 131.56 117.29Z" fill="url(#paint0_linear_0_1)"/>
<path d="M151.35 254.76L175.28 245.56L143.26 149.87L119.42 157.72L151.35 254.76Z" fill="url(#paint1_linear_0_1)"/>
<path d="M166.473 249.716L175.145 246.86L143.211 149.903L134.539 152.759L166.473 249.716Z" fill="url(#paint2_linear_0_1)"/>
<path d="M103.17 165.63L99.3201 162C98.4975 161.215 97.8504 160.265 97.4212 159.211C96.9921 158.158 96.7906 157.026 96.83 155.89L96.9501 152.45C97.0198 150.479 97.8515 148.611 99.2701 147.24C99.2701 147.24 100.33 150.29 101.8 153.87C102.142 154.675 102.543 155.454 103 156.2C103.266 156.608 103.652 156.924 104.106 157.103C104.559 157.282 105.057 157.316 105.53 157.2L107.53 156.75C108.034 156.629 108.556 156.602 109.07 156.67C109.236 156.687 109.404 156.662 109.558 156.597C109.712 156.533 109.847 156.431 109.951 156.301C110.056 156.17 110.126 156.016 110.155 155.852C110.185 155.687 110.173 155.518 110.12 155.36L107.5 148.15C106.821 145.911 105.321 144.01 103.3 142.83L101.93 142.17L106.14 143.17C109.75 144.591 112.874 147.021 115.14 150.17L116.79 152.48C117.189 153.041 117.422 153.703 117.46 154.39C117.599 157.185 116.788 159.944 115.16 162.22L113.9 164C113.222 164.947 112.83 166.067 112.77 167.23C112.61 170.71 112.52 178.31 114.53 182.59C117.18 188.27 107.67 183.15 107.67 183.15C107.67 183.15 108.5 173.11 103.17 165.63Z" fill="url(#paint3_linear_0_1)"/>
<path d="M109.083 179.869L105.172 180.491L112.123 224.232L116.034 223.61L109.083 179.869Z" fill="url(#paint4_linear_0_1)"/>
<path d="M228.35 123.21C229.931 124.338 231.16 125.892 231.894 127.69C232.629 129.488 232.839 131.457 232.5 133.37C232.081 135.349 231.253 137.219 230.07 138.86C224.7 145.71 219.12 152.4 213.62 159.15C205.18 169.49 196.74 179.823 188.3 190.15C179.4 201.15 170.49 212.04 161.67 223.05C156.41 229.62 149.87 232.99 141.34 231.65C137.486 231.021 133.9 229.283 131.019 226.647C128.138 224.011 126.088 220.593 125.12 216.81C123.12 207.97 126.01 200.08 133.12 195.17C135.393 193.55 137.978 192.421 140.711 191.856C143.445 191.291 146.266 191.302 148.994 191.888C151.723 192.474 154.3 193.623 156.56 195.261C158.82 196.898 160.713 198.989 162.12 201.4C162.45 201.93 162.79 202.46 163.25 203.21L228.35 123.21ZM158.81 206.79C158.271 204.782 157.321 202.908 156.019 201.287C154.718 199.666 153.093 198.333 151.249 197.373C149.405 196.413 147.382 195.847 145.307 195.71C143.233 195.574 141.152 195.87 139.199 196.58C137.245 197.29 135.46 198.399 133.957 199.836C132.454 201.272 131.267 203.006 130.469 204.926C129.672 206.846 129.283 208.911 129.326 210.989C129.369 213.068 129.844 215.115 130.72 217C132.294 220.424 135.099 223.13 138.577 224.58C142.055 226.03 145.951 226.118 149.491 224.826C153.031 223.535 155.955 220.958 157.682 217.609C159.408 214.259 159.811 210.383 158.81 206.75V206.79ZM182.4 192.19C182.91 192.015 183.356 191.692 183.681 191.263C184.006 190.833 184.196 190.316 184.226 189.778C184.257 189.24 184.126 188.705 183.85 188.242C183.575 187.779 183.168 187.408 182.681 187.178C182.194 186.947 181.649 186.867 181.116 186.947C180.583 187.027 180.087 187.265 179.689 187.629C179.292 187.993 179.012 188.467 178.886 188.991C178.76 189.515 178.793 190.065 178.98 190.57C179.222 191.236 179.717 191.78 180.357 192.083C180.997 192.386 181.732 192.425 182.4 192.19Z" fill="url(#paint5_linear_0_1)"/>
<path d="M186.08 195.77C185.08 201.61 184.24 206.91 183.33 212.43C187.223 211.437 191.309 211.482 195.18 212.56C205.6 215.56 211.89 228.18 208.31 238.4C207.399 240.981 205.981 243.355 204.14 245.381C202.3 247.407 200.073 249.045 197.59 250.199C195.108 251.353 192.42 252 189.685 252.101C186.949 252.203 184.221 251.757 181.66 250.79C173.83 247.87 167.88 238.7 168.93 230.4C169.63 224.85 170.71 219.4 171.69 213.85C171.859 213.113 172.202 212.427 172.69 211.85C176.81 206.76 180.98 201.71 185.14 196.66C185.435 196.345 185.749 196.048 186.08 195.77ZM183.51 218C179.864 219.465 176.941 222.307 175.374 225.911C173.807 229.515 173.722 233.591 175.138 237.257C176.554 240.923 179.356 243.884 182.938 245.5C186.521 247.116 190.595 247.256 194.28 245.89C196.137 245.202 197.839 244.151 199.286 242.8C200.734 241.449 201.898 239.823 202.713 238.018C203.527 236.213 203.974 234.264 204.029 232.284C204.083 230.304 203.744 228.334 203.031 226.486C202.317 224.639 201.244 222.952 199.873 221.523C198.502 220.093 196.861 218.951 195.045 218.161C193.229 217.372 191.274 216.951 189.294 216.923C187.313 216.896 185.347 217.262 183.51 218Z" fill="url(#paint6_linear_0_1)"/>
<path d="M200.7 110.62C199.89 115.62 199.09 120.62 198.23 125.62C196.317 136.82 194.387 148.023 192.44 159.23C192.08 161.36 191.73 163.49 191.33 165.61C191.245 166.104 191.042 166.57 190.74 166.97C186.36 172.423 181.967 177.86 177.56 183.28C177.5 183.36 177.35 183.37 176.94 183.52C177.46 180.23 177.94 177.07 178.45 173.93C180.45 162.48 182.45 151.02 184.38 139.56C185.53 132.87 186.62 126.16 187.81 119.47C188.88 113.48 195.3 109.06 200.7 110.62Z" fill="url(#paint7_linear_0_1)"/>
<path d="M201.34 103.63L205.1 71.76L220.28 73.56L219.54 79.82C220.94 79.98 222.08 80.13 223.23 80.25C234.48 81.47 245.71 82.87 256.97 83.85C265.97 84.63 273.13 92.91 273.05 106.14C272.966 111.949 272.15 117.725 270.62 123.33C269.71 120.69 269.03 118.38 268.14 116.23C265.14 109.12 260.71 104.87 254.04 104.23C242.4 103.23 230.8 101.84 219.18 100.63C218.57 100.56 217.96 100.58 217.18 100.56C216.92 102.22 216.68 103.75 216.43 105.37L201.34 103.63Z" fill="url(#paint8_linear_0_1)"/>
<path d="M231.59 73.85C234.43 74.18 237.15 74.41 239.84 74.85C240.94 75.04 240.02 77.16 240.01 78.68L231.14 77.63L231.59 73.85Z" fill="url(#paint9_linear_0_1)"/>
<path d="M220.67 244.83L211.2 243.8L227.63 104.58L234.57 105.34L220.67 244.83Z" fill="url(#paint10_linear_0_1)"/>
<path d="M178.74 216C136.24 216 101.8 209.91 101.8 202.4V343.4C101.799 346.421 102.864 349.346 104.806 351.659C106.749 353.973 109.445 355.528 112.42 356.05C156.636 363.822 201.873 363.768 246.07 355.89C248.755 355.413 251.186 354.007 252.938 351.917C254.69 349.827 255.65 347.187 255.65 344.46V202.43C255.67 209.94 221.23 216 178.74 216Z" fill="url(#paint11_linear_0_1)"/>
<path d="M51.6999 361.7C51.8399 361.63 51.9099 361.7 51.9799 361.88C53.6199 364.78 55.2666 367.673 56.9199 370.56C56.949 370.608 56.9644 370.664 56.9644 370.72C56.9644 370.776 56.949 370.832 56.9199 370.88C55.2666 374.133 53.6199 377.383 51.9799 380.63C51.9543 380.688 51.9121 380.737 51.8587 380.77C51.8053 380.804 51.7431 380.822 51.6799 380.82L48.7999 381.1L46.3499 381.34L43.8999 381.58L41.8399 381.79C41.7872 381.799 41.7329 381.79 41.6858 381.765C41.6387 381.739 41.6014 381.699 41.5799 381.65L37.9999 375.39C37.5199 374.56 36.9999 373.73 36.5799 372.9C36.5528 372.86 36.5383 372.813 36.5383 372.765C36.5383 372.717 36.5528 372.67 36.5799 372.63C38.2266 369.383 39.8699 366.133 41.5099 362.88C41.5321 362.824 41.5706 362.776 41.6206 362.742C41.6705 362.708 41.7295 362.69 41.7899 362.69L44.5499 362.42L47.3299 362.14L49.7299 361.9L51.6999 361.7ZM51.9799 371.35C52.0252 370.079 51.6759 368.825 50.9799 367.76C50.6072 367.172 50.1056 366.676 49.5131 366.311C48.9206 365.945 48.2527 365.719 47.5599 365.65C46.2296 365.512 44.8981 365.899 43.8499 366.73C42.9808 367.366 42.2766 368.201 41.7964 369.164C41.3162 370.128 41.0739 371.193 41.0899 372.27C41.0585 373.403 41.3723 374.519 41.9899 375.47C42.3711 376.098 42.8984 376.626 43.5268 377.007C44.1553 377.388 44.8664 377.612 45.5999 377.66C46.7898 377.755 47.9745 377.422 48.9399 376.72C49.8413 376.134 50.5894 375.341 51.1217 374.406C51.6541 373.472 51.9552 372.424 51.9999 371.35H51.9799Z" fill="url(#paint12_linear_0_1)"/>
<path d="M51.0001 367.76C50.6274 367.172 50.1258 366.676 49.5332 366.311C48.9407 365.945 48.2728 365.719 47.5801 365.65C46.2498 365.512 44.9182 365.899 43.8701 366.73C43.0009 367.366 42.2967 368.201 41.8165 369.164C41.3363 370.128 41.0941 371.193 41.1101 372.27C41.0786 373.403 41.3925 374.519 42.0101 375.47C42.3913 376.098 42.9185 376.626 43.547 377.007C44.1754 377.388 44.8866 377.612 45.6201 377.66C46.8099 377.755 47.9946 377.422 48.9601 376.72C49.8521 376.129 50.5898 375.333 51.1116 374.399C51.6335 373.465 51.9244 372.419 51.9601 371.35C52.0173 370.083 51.682 368.829 51.0001 367.76ZM42.5301 375.86C41.9139 375.105 41.5162 374.195 41.3801 373.23C41.3301 372.91 41.3101 372.58 41.2801 372.23C41.2847 371.056 41.5998 369.903 42.1934 368.89C42.787 367.877 43.638 367.038 44.6601 366.46C45.2048 366.155 45.8017 365.955 46.4201 365.87C46.4699 365.858 46.5221 365.861 46.5702 365.879C46.6182 365.897 46.6599 365.929 46.6901 365.97C47.2968 366.679 47.6979 367.54 47.8501 368.46C48.0265 369.408 47.9926 370.383 47.7507 371.316C47.5087 372.249 47.0648 373.117 46.4501 373.86C45.5826 374.993 44.3174 375.754 42.9101 375.99C42.8454 376.004 42.7782 375.999 42.7163 375.976C42.6544 375.953 42.6002 375.913 42.5601 375.86H42.5301Z" fill="url(#paint13_linear_0_1)"/>
<path d="M72.7899 382.75L75.6699 383.03L78.9799 383.36L82.2699 383.69C82.3426 383.687 82.4143 383.707 82.474 383.749C82.5337 383.79 82.5779 383.851 82.5999 383.92L88.4899 395.55C88.519 395.598 88.5344 395.654 88.5344 395.71C88.5344 395.766 88.519 395.822 88.4899 395.87C87.9199 396.87 87.3599 397.87 86.7999 398.87C85.3799 401.35 83.9666 403.84 82.5599 406.34C82.5336 406.4 82.4872 406.449 82.4288 406.478C82.3704 406.507 82.3035 406.515 82.2399 406.5L79.7899 406.26L76.8699 405.97L73.9499 405.69L70.4999 405.35C70.4252 405.351 70.3517 405.33 70.2892 405.289C70.2268 405.248 70.1782 405.189 70.1499 405.12L64.2599 393.49C64.2233 393.433 64.2039 393.367 64.2039 393.3C64.2039 393.233 64.2233 393.167 64.2599 393.11C66.2599 389.657 68.2232 386.207 70.1499 382.76C70.2399 382.6 70.3099 382.45 70.4899 382.54L72.7899 382.75ZM73.7099 400.43C74.8674 401.268 76.2857 401.665 77.7099 401.55C78.5834 401.492 79.43 401.224 80.1784 400.77C80.9267 400.315 81.5549 399.688 82.0099 398.94C82.7512 397.803 83.128 396.467 83.0899 395.11C83.1059 393.825 82.8147 392.555 82.2408 391.405C81.6668 390.255 80.8265 389.259 79.7899 388.5C78.5351 387.515 76.9467 387.056 75.3599 387.22C74.5331 387.303 73.736 387.572 73.029 388.009C72.3221 388.446 71.7239 389.038 71.2799 389.74C70.4742 391.017 70.0797 392.511 70.1499 394.02C70.1893 395.295 70.533 396.542 71.1523 397.657C71.7716 398.772 72.6485 399.723 73.7099 400.43Z" fill="url(#paint14_linear_0_1)"/>
<path d="M70.1499 394C70.1904 395.276 70.5357 396.523 71.1567 397.638C71.7778 398.754 72.6566 399.704 73.7199 400.41C74.8774 401.248 76.2957 401.645 77.7199 401.53C78.5934 401.472 79.44 401.204 80.1884 400.75C80.9367 400.295 81.5649 399.668 82.0199 398.92C82.7612 397.783 83.138 396.447 83.0999 395.09C83.1159 393.805 82.8247 392.535 82.2507 391.385C81.6767 390.236 80.8365 389.239 79.7999 388.48C78.5451 387.495 76.9567 387.036 75.3699 387.2C74.5431 387.283 73.746 387.552 73.039 387.989C72.3321 388.426 71.7339 389.018 71.2899 389.72C70.4795 390.996 70.0814 392.49 70.1499 394ZM80.9299 399.54C79.2524 399.259 77.7461 398.346 76.7199 396.99C75.9854 396.107 75.4542 395.073 75.1639 393.962C74.8735 392.851 74.8312 391.689 75.0399 390.56C75.2172 389.451 75.6983 388.412 76.4299 387.56C76.4656 387.511 76.515 387.473 76.5719 387.452C76.6288 387.431 76.6907 387.426 76.7499 387.44C77.4834 387.544 78.1918 387.781 78.8399 388.14C80.0552 388.833 81.0654 389.836 81.768 391.046C82.4705 392.256 82.8403 393.631 82.8399 395.03C82.8399 395.45 82.7799 395.84 82.7199 396.22C82.5615 397.373 82.0874 398.46 81.3499 399.36C81.3056 399.429 81.2427 399.485 81.1685 399.52C81.0942 399.555 81.0116 399.569 80.9299 399.56V399.54Z" fill="url(#paint15_linear_0_1)"/>
<path d="M71.4299 439.13L71.3199 444.45L66.8999 447.71L57.9199 447.92L53.3599 444.87L53.4599 439.13H71.4299Z" fill="url(#paint16_linear_0_1)"/>
<path d="M66.8301 436.04L71.2901 439.23L66.7701 442.35L57.7901 442.26L53.3301 439.07L57.8501 435.96L66.8301 436.04Z" fill="url(#paint17_linear_0_1)"/>
<path d="M62.31 439.71C64.5523 439.71 66.37 439.191 66.37 438.55C66.37 437.909 64.5523 437.39 62.31 437.39C60.0677 437.39 58.25 437.909 58.25 438.55C58.25 439.191 60.0677 439.71 62.31 439.71Z" fill="url(#paint18_linear_0_1)"/>
<defs>
<linearGradient id="paint0_linear_0_1" x1="87.3244" y1="150.003" x2="175.956" y2="115.053" gradientUnits="userSpaceOnUse">
<stop offset="0.02"/>
<stop offset="0.1" stop-color="#1E1E1E"/>
<stop offset="0.29" stop-color="#616161"/>
<stop offset="0.47" stop-color="#9A9A9A"/>
<stop offset="0.64" stop-color="#C5C5C5"/>
<stop offset="0.79" stop-color="#E5E5E5"/>
<stop offset="0.91" stop-color="#F8F8F8"/>
<stop offset="1" stop-color="white"/>
</linearGradient>
<linearGradient id="paint1_linear_0_1" x1="139.413" y1="222.488" x2="196.725" y2="203.824" gradientUnits="userSpaceOnUse">
<stop stop-color="#FD9D31"/>
<stop offset="0.09" stop-color="#F0952F"/>
<stop offset="0.25" stop-color="#CF8028"/>
<stop offset="0.47" stop-color="#995F1E"/>
<stop offset="0.74" stop-color="#4F310F"/>
<stop offset="1"/>
</linearGradient>
<linearGradient id="paint2_linear_0_1" x1="172.562" y1="167.044" x2="134.058" y2="177.276" gradientUnits="userSpaceOnUse">
<stop stop-color="#FD9D31"/>
<stop offset="0.09" stop-color="#F0952F"/>
<stop offset="0.25" stop-color="#CF8028"/>
<stop offset="0.47" stop-color="#995F1E"/>
<stop offset="0.74" stop-color="#4F310F"/>
<stop offset="1"/>
</linearGradient>
<linearGradient id="paint3_linear_0_1" x1="129.993" y1="161.519" x2="88.8117" y2="165.739" gradientUnits="userSpaceOnUse">
<stop offset="0.02"/>
<stop offset="0.1" stop-color="#1E1E1E"/>
<stop offset="0.29" stop-color="#616161"/>
<stop offset="0.47" stop-color="#9A9A9A"/>
<stop offset="0.64" stop-color="#C5C5C5"/>
<stop offset="0.79" stop-color="#E5E5E5"/>
<stop offset="0.91" stop-color="#F8F8F8"/>
<stop offset="1" stop-color="white"/>
</linearGradient>
<linearGradient id="paint4_linear_0_1" x1="99.308" y1="204.358" x2="116.201" y2="200.712" gradientUnits="userSpaceOnUse">
<stop stop-color="#FD9D31"/>
<stop offset="0.09" stop-color="#F0952F"/>
<stop offset="0.25" stop-color="#CF8028"/>
<stop offset="0.47" stop-color="#995F1E"/>
<stop offset="0.74" stop-color="#4F310F"/>
<stop offset="1"/>
</linearGradient>
<linearGradient id="paint5_linear_0_1" x1="193.493" y1="192.058" x2="130.003" y2="112.796" gradientUnits="userSpaceOnUse">
<stop stop-color="#EC3593"/>
<stop offset="0.15" stop-color="#91215A"/>
<stop offset="0.28" stop-color="#430F2A"/>
<stop offset="0.38" stop-color="#13040C"/>
<stop offset="0.43"/>
</linearGradient>
<linearGradient id="paint6_linear_0_1" x1="151.717" y1="213.089" x2="217.994" y2="234.091" gradientUnits="userSpaceOnUse">
<stop offset="0.02"/>
<stop offset="0.05" stop-color="#03090B"/>
<stop offset="0.25" stop-color="#153E4E"/>
<stop offset="0.44" stop-color="#246B87"/>
<stop offset="0.62" stop-color="#308DB2"/>
<stop offset="0.77" stop-color="#38A6D2"/>
<stop offset="0.91" stop-color="#3DB6E5"/>
<stop offset="1" stop-color="#3FBBEC"/>
</linearGradient>
<linearGradient id="paint7_linear_0_1" x1="207.258" y1="149.087" x2="159.717" y2="143.667" gradientUnits="userSpaceOnUse">
<stop offset="0.02"/>
<stop offset="0.05" stop-color="#03090B"/>
<stop offset="0.25" stop-color="#153E4E"/>
<stop offset="0.44" stop-color="#246B87"/>
<stop offset="0.62" stop-color="#308DB2"/>
<stop offset="0.77" stop-color="#38A6D2"/>
<stop offset="0.91" stop-color="#3DB6E5"/>
<stop offset="1" stop-color="#3FBBEC"/>
</linearGradient>
<linearGradient id="paint8_linear_0_1" x1="170.29" y1="82.9675" x2="282.973" y2="96.3367" gradientUnits="userSpaceOnUse">
<stop offset="0.02"/>
<stop offset="0.1" stop-color="#1E1E1E"/>
<stop offset="0.29" stop-color="#616161"/>
<stop offset="0.47" stop-color="#9A9A9A"/>
<stop offset="0.64" stop-color="#C5C5C5"/>
<stop offset="0.79" stop-color="#E5E5E5"/>
<stop offset="0.91" stop-color="#F8F8F8"/>
<stop offset="1" stop-color="white"/>
</linearGradient>
<linearGradient id="paint9_linear_0_1" x1="249.142" y1="100.544" x2="277.666" y2="103.928" gradientUnits="userSpaceOnUse">
<stop stop-color="#FD9D31"/>
<stop offset="0.09" stop-color="#F4972F"/>
<stop offset="0.23" stop-color="#DB882A"/>
<stop offset="0.4" stop-color="#B26F23"/>
<stop offset="0.61" stop-color="#7A4C18"/>
<stop offset="0.85" stop-color="#33200A"/>
<stop offset="1"/>
</linearGradient>
<linearGradient id="paint10_linear_0_1" x1="178.224" y1="177.607" x2="217.299" y2="182.086" gradientUnits="userSpaceOnUse">
<stop stop-color="#FD9D31"/>
<stop offset="0.09" stop-color="#F0952F"/>
<stop offset="0.25" stop-color="#CF8028"/>
<stop offset="0.47" stop-color="#995F1E"/>
<stop offset="0.74" stop-color="#4F310F"/>
<stop offset="1"/>
</linearGradient>
<linearGradient id="paint11_linear_0_1" x1="32.05" y1="282.14" x2="349.15" y2="282.14" gradientUnits="userSpaceOnUse">
<stop/>
<stop offset="0.08" stop-color="#333333"/>
<stop offset="0.17" stop-color="#626262"/>
<stop offset="0.26" stop-color="#8C8C8C"/>
<stop offset="0.36" stop-color="#B0B0B0"/>
<stop offset="0.46" stop-color="#CDCDCD"/>
<stop offset="0.56" stop-color="#E3E3E3"/>
<stop offset="0.68" stop-color="#F3F3F3"/>
<stop offset="0.81" stop-color="#FCFCFC"/>
<stop offset="1" stop-color="white"/>
</linearGradient>
<linearGradient id="paint12_linear_0_1" x1="30.8699" y1="371.73" x2="60.6299" y2="371.73" gradientUnits="userSpaceOnUse">
<stop offset="0.02"/>
<stop offset="0.17" stop-color="#0D2630"/>
<stop offset="0.39" stop-color="#1E5A72"/>
<stop offset="0.6" stop-color="#2C84A7"/>
<stop offset="0.77" stop-color="#37A2CC"/>
<stop offset="0.91" stop-color="#3DB4E4"/>
<stop offset="1" stop-color="#3FBBEC"/>
</linearGradient>
<linearGradient id="paint13_linear_0_1" x1="41.1401" y1="371.65" x2="51.9801" y2="371.65" gradientUnits="userSpaceOnUse">
<stop stop-color="#101111"/>
<stop offset="0.31" stop-color="#141515"/>
<stop offset="0.63" stop-color="#212121"/>
<stop offset="0.92" stop-color="#333333"/>
</linearGradient>
<linearGradient id="paint14_linear_0_1" x1="59.8699" y1="394.48" x2="95.3799" y2="394.48" gradientUnits="userSpaceOnUse">
<stop stop-color="#EC3593"/>
<stop offset="0.09" stop-color="#E4338E"/>
<stop offset="0.23" stop-color="#CF2F81"/>
<stop offset="0.4" stop-color="#AD276C"/>
<stop offset="0.59" stop-color="#7D1C4E"/>
<stop offset="0.8" stop-color="#410F28"/>
<stop offset="1"/>
</linearGradient>
<linearGradient id="paint15_linear_0_1" x1="83.0899" y1="394.38" x2="70.1499" y2="394.38" gradientUnits="userSpaceOnUse">
<stop stop-color="#101111"/>
<stop offset="0.31" stop-color="#141515"/>
<stop offset="0.63" stop-color="#212121"/>
<stop offset="0.92" stop-color="#333333"/>
</linearGradient>
<linearGradient id="paint16_linear_0_1" x1="51.2723" y1="443.695" x2="69.5128" y2="443.105" gradientUnits="userSpaceOnUse">
<stop stop-color="#FD9D31"/>
<stop offset="0.11" stop-color="#F89A30"/>
<stop offset="0.22" stop-color="#EB922E"/>
<stop offset="0.35" stop-color="#D58429"/>
<stop offset="0.48" stop-color="#B57023"/>
<stop offset="0.61" stop-color="#8D571B"/>
<stop offset="0.74" stop-color="#5B3912"/>
<stop offset="0.88" stop-color="#221507"/>
<stop offset="0.95"/>
</linearGradient>
<linearGradient id="paint17_linear_0_1" x1="53.3301" y1="439.15" x2="71.2901" y2="439.15" gradientUnits="userSpaceOnUse">
<stop stop-color="#634425"/>
<stop offset="0.12" stop-color="#956129"/>
<stop offset="0.24" stop-color="#C17B2C"/>
<stop offset="0.34" stop-color="#E28D2F"/>
<stop offset="0.43" stop-color="#F69930"/>
<stop offset="0.49" stop-color="#FD9D31"/>
<stop offset="0.54" stop-color="#F0952F"/>
<stop offset="0.62" stop-color="#CF8028"/>
<stop offset="0.73" stop-color="#995F1E"/>
<stop offset="0.87" stop-color="#4F310F"/>
<stop offset="1"/>
</linearGradient>
<linearGradient id="paint18_linear_0_1" x1="58.26" y1="438.55" x2="66.37" y2="438.55" gradientUnits="userSpaceOnUse">
<stop stop-color="#101111"/>
<stop offset="0.31" stop-color="#141515"/>
<stop offset="0.63" stop-color="#212121"/>
<stop offset="0.92" stop-color="#333333"/>
</linearGradient>
</defs>
</svg>
