<svg width="326" height="516" viewBox="0 0 326 516" fill="none" xmlns="http://www.w3.org/2000/svg">
<path opacity="0.1" d="M292.93 0H33.07C14.806 0 0 14.806 0 33.07V482.93C0 501.194 14.806 516 33.07 516H292.93C311.194 516 326 501.194 326 482.93V33.07C326 14.806 311.194 0 292.93 0Z" fill="white"/>
<path d="M173.09 202.55C219.598 202.55 257.3 195.883 257.3 187.66C257.3 179.436 219.598 172.77 173.09 172.77C126.582 172.77 88.8799 179.436 88.8799 187.66C88.8799 195.883 126.582 202.55 173.09 202.55Z" fill="url(#paint0_linear_0_1)"/>
<path d="M250.37 168.18L247 177.28L255 179.13C255.49 176.79 256 174.52 256.45 172.26C256.45 172.21 256.35 172.13 256.36 172.08C256.48 171.27 256.96 169.93 256.69 169.76C255.557 169.077 254.321 168.58 253.03 168.29C252.15 168.153 251.258 168.116 250.37 168.18Z" fill="url(#paint1_linear_0_1)"/>
<path d="M249.19 144.22C248.819 147.642 248.852 151.096 249.29 154.51C249.69 158.79 250.48 163.04 251.13 167.4C251.28 167.21 251.54 166.92 251.79 166.62L252.62 168.11C253.33 165.68 253.86 163.79 254.39 161.91C254.14 163.75 253.89 165.59 253.61 167.63C254.1 167.28 254.61 166.93 255.04 166.57L254.58 167.82L256.19 167.55C255.48 169.11 256.75 168.44 257.32 168.55C257.15 170.02 257.89 169.35 258.48 169.04C261.088 167.74 263.217 165.647 264.563 163.062C265.908 160.477 266.401 157.532 265.97 154.65C265.44 150.84 264.29 147.11 263.42 143.34C262.6 139.79 261.77 136.24 260.98 132.85L260.47 134.21C260.47 133.64 260.41 133.06 260.36 132.15L259.54 134.35C259.45 133.92 259.35 133.48 259.25 133.05C258.85 134.43 258.44 135.87 258.03 137.29C258.19 135.89 258.35 134.51 258.49 133.16C257.306 134.35 256.434 135.813 255.95 137.42C255.55 139.01 255.15 140.6 254.76 142.19C255.13 140.59 255.43 138.96 255.95 137.42C256.14 136.64 256.34 135.87 256.53 135.09C256.63 134.7 256.78 134.33 256.89 133.96C257.35 133.08 257.81 132.19 258.38 131.12C253.26 134.2 250 138.52 249.19 144.22ZM259.83 166.47C262.471 163.287 263.939 159.295 263.99 155.16C264.345 157.244 264.148 159.385 263.418 161.37C262.688 163.354 261.451 165.113 259.83 166.47ZM255.33 135.05L251.33 144.77C251.688 141.21 253.079 137.831 255.33 135.05Z" fill="url(#paint2_linear_0_1)"/>
<path d="M243.68 191.16C238.75 210.85 233.13 230.48 226.9 249.8C231.84 230.11 237.46 210.48 243.68 191.16Z" fill="#3FBBEC"/>
<path d="M82.55 120.57L85.6 129.77L77.6 131.35C77.19 129 76.78 126.71 76.39 124.43C76.39 124.38 76.48 124.31 76.48 124.26C76.38 123.45 75.96 122.09 76.24 121.93C77.3903 121.281 78.6408 120.828 79.94 120.59C80.8064 120.484 81.6821 120.477 82.55 120.57Z" fill="url(#paint3_linear_0_1)"/>
<path d="M75.8199 83.26C76.3499 84.35 76.8199 85.26 77.2099 86.15C77.3099 86.53 77.4499 86.9 77.5299 87.29C77.6999 88.08 77.8699 88.85 78.0299 89.64C78.4999 91.2 78.7399 92.84 79.0299 94.45C78.6899 92.85 78.3499 91.24 78.0299 89.64C77.604 88.0181 76.7828 86.527 75.6399 85.3C75.7399 86.65 75.8499 88.04 75.9599 89.44C75.5899 88 75.2299 86.55 74.8799 85.16C74.7699 85.58 74.6599 86.02 74.5499 86.45L73.8099 84.22C73.7299 85.13 73.6699 85.71 73.6199 86.28L73.1599 84.9L70.3599 95.3C69.3599 99.04 68.0899 102.73 67.4299 106.52C66.9014 109.385 67.2942 112.345 68.5518 114.973C69.8093 117.601 71.8671 119.764 74.4299 121.15C75.0199 121.49 75.7299 122.15 75.6099 120.7C76.1799 120.61 77.4299 121.32 76.7799 119.7L78.3799 120.02L77.9599 118.76C78.4099 119.13 78.8699 119.5 79.3599 119.87C79.1499 117.81 78.9599 115.97 78.7699 114.12C79.2399 116.02 79.6999 117.93 80.3199 120.38L81.1999 118.92C81.4499 119.22 81.6899 119.53 81.8399 119.72C82.6399 115.39 83.5699 111.17 84.1199 106.9C84.6712 103.503 84.8256 100.053 84.5799 96.62C83.9099 90.93 80.8299 86.51 75.8199 83.26ZM69.3899 107.09C69.2955 111.223 70.6267 115.263 73.1599 118.53C71.5872 117.118 70.4117 115.32 69.7502 113.312C69.0888 111.305 68.9646 109.16 69.3899 107.09ZM82.4399 97.14L78.7399 87.29C80.9067 90.1426 82.1928 93.5663 82.4399 97.14Z" fill="url(#paint4_linear_0_1)"/>
<path d="M90.3401 143.17C92.1001 148.98 93.8401 154.79 95.4601 160.62C96.7001 165.08 97.8368 169.563 98.8701 174.07C100.02 179.07 100.98 184.19 102.07 189.23C102.87 192.95 103.75 196.64 104.6 200.36L107.78 214.26C108.98 219.49 110.21 224.71 111.37 229.95C112.57 235.47 113.66 240.95 114.86 246.51C115.47 249.28 116.2 252.02 116.86 254.8L112.7 255.8C112.7 255.99 112.77 256.19 112.81 256.37L117.05 255.69C118.977 264.73 120.91 273.783 122.85 282.85C122.695 283.027 122.513 283.179 122.31 283.3C122.056 283.38 121.795 283.437 121.53 283.47C119.07 276.02 116.66 268.72 114.22 261.47C113.36 258.89 112.28 256.39 111.51 253.8C107.51 240.62 103.66 227.41 99.6701 214.24C95.5701 200.74 91.1401 187.33 87.2601 173.77C84.1601 162.96 81.6701 151.97 78.8901 140.99C83.6701 138.99 88.0302 138.6 88.7802 139.94C85.8702 140.63 82.6201 140.15 80.0901 141.94C80.1501 142.15 80.2202 142.35 80.2802 142.56C82.5902 142.16 84.9301 141.9 87.1801 141.31C89.0701 140.82 89.9001 141.7 90.3401 143.17Z" fill="url(#paint5_linear_0_1)"/>
<path d="M88.4399 143.76C93.9999 163.28 98.9399 183.1 103.19 202.95C97.6299 183.42 92.6999 163.61 88.4399 143.76Z" fill="#EC3593"/>
<path d="M176.14 88.52C176.3 89.73 176.43 90.72 176.55 91.71C176.55 92.1 176.55 92.5 176.55 92.89L176.28 95.28C176.185 96.915 176.004 98.5438 175.74 100.16C175.93 98.54 176.11 96.91 176.28 95.28C176.388 93.604 176.079 91.9273 175.38 90.4C175.05 91.72 174.71 93.07 174.38 94.4C174.48 92.93 174.6 91.4 174.7 90.01C174.46 90.37 174.22 90.75 173.98 91.13V88.78C173.61 89.62 173.38 90.14 173.16 90.67V89.21C171.23 92.12 169.23 95.16 167.22 98.21C165.1 101.44 162.73 104.54 160.91 107.94C159.499 110.487 158.933 113.416 159.292 116.306C159.651 119.195 160.918 121.896 162.91 124.02C163.35 124.53 163.81 125.41 164.17 123.96C164.74 124.06 165.7 125.12 165.58 123.41L167 124.23V122.9C167.31 123.39 167.63 123.9 168 124.39C168.45 122.39 168.85 120.56 169.25 118.75C169.1 120.75 168.94 122.66 168.76 125.18L170 124.1C170.14 124.46 170.28 124.83 170.36 125.1C172.48 121.24 174.69 117.53 176.55 113.65C178.144 110.597 179.375 107.369 180.22 104.03C181.41 98.35 179.88 93.19 176.14 88.52ZM162.54 109.12C161.167 113.002 161.167 117.238 162.54 121.12C161.495 119.293 160.946 117.225 160.946 115.12C160.946 113.015 161.495 110.947 162.54 109.12ZM178.05 103.78L177.64 93.27C178.804 96.6574 178.946 100.312 178.05 103.78Z" fill="url(#paint6_linear_0_1)"/>
<path d="M171.08 150C170.92 156.06 170.75 162.12 170.45 168.17C170.217 172.79 169.883 177.403 169.45 182.01C168.96 187.15 168.27 192.27 167.72 197.41C167.31 201.19 166.99 204.97 166.62 208.76L165.27 222.96C164.76 228.31 164.27 233.64 163.73 238.96C163.14 244.58 162.44 250.17 161.84 255.78C161.55 258.6 161.39 261.43 161.16 264.28L156.88 263.95C156.88 264.15 156.82 264.34 156.8 264.52L161.04 265.21C160.033 274.397 159.033 283.6 158.04 292.82C157.835 292.941 157.612 293.029 157.38 293.08C157.115 293.075 156.851 293.048 156.59 293C156.59 285.15 156.59 277.46 156.59 269.78C156.59 267.07 156.35 264.35 156.43 261.65C156.8 247.89 157.28 234.13 157.63 220.37C157.99 206.27 158 192.15 158.58 178.06C159.04 166.82 160.14 155.6 160.96 144.31C166.11 143.94 170.38 144.91 170.67 146.43C167.67 146.16 164.76 144.68 161.79 145.6C161.79 145.82 161.79 146.02 161.79 146.24C164.1 146.59 166.41 147.08 168.73 147.24C170.61 147.33 171.12 148.43 171.08 150Z" fill="url(#paint7_linear_0_1)"/>
<path d="M169.09 149.93C168.22 170.2 166.68 190.57 164.47 210.75C165.34 190.46 166.88 170.1 169.09 149.93Z" fill="#FD9D31"/>
<path d="M199.44 153.56V163.25L191.35 162.25C191.69 159.89 192.03 157.59 192.35 155.25C192.35 155.25 192.48 155.17 192.49 155.12C192.66 154.32 192.68 152.9 192.99 152.83C194.289 152.583 195.619 152.546 196.93 152.72C197.796 152.904 198.638 153.186 199.44 153.56Z" fill="url(#paint8_linear_0_1)"/>
<path d="M204.78 116C204.94 117.2 205.07 118.2 205.2 119.18C205.2 119.57 205.2 119.98 205.14 120.36C205.05 121.17 204.97 121.96 204.88 122.76C204.88 124.39 204.54 126.01 204.34 127.64L204.88 122.76C204.98 121.083 204.668 119.408 203.97 117.88C203.64 119.2 203.31 120.55 202.97 121.88C203.08 120.4 203.19 118.88 203.29 117.48L202.57 118.6V116.26L201.75 118.15V116.69C199.82 119.6 197.82 122.64 195.81 125.69C193.69 128.92 191.32 132.02 189.5 135.41C188.091 137.959 187.526 140.89 187.886 143.78C188.245 146.67 189.51 149.373 191.5 151.5C191.95 152 192.4 152.88 192.76 151.44C193.33 151.53 194.29 152.6 194.17 150.89L195.59 151.7V150.38C195.9 150.87 196.22 151.38 196.59 151.86C197.04 149.86 197.44 148.04 197.84 146.23C197.69 148.23 197.53 150.13 197.35 152.66L198.64 151.54C198.78 151.91 198.92 152.28 199 152.54C201.12 148.68 203.33 144.96 205.2 141.09C206.786 138.035 208.014 134.807 208.86 131.47C210.05 125.85 208.52 120.68 204.78 116ZM191.18 136.6C189.815 140.483 189.815 144.717 191.18 148.6C190.139 146.775 189.592 144.711 189.592 142.61C189.592 140.509 190.139 138.445 191.18 136.62V136.6ZM206.7 131.26L206.28 120.74C207.446 124.137 207.592 127.801 206.7 131.28V131.26Z" fill="url(#paint9_linear_0_1)"/>
<path d="M199.72 177.46C199.56 183.52 199.39 189.59 199.09 195.63C198.857 200.25 198.523 204.867 198.09 209.48C197.6 214.62 196.91 219.74 196.36 224.87C195.95 228.65 195.63 232.44 195.26 236.23C194.82 240.96 194.36 245.69 193.91 250.42C193.41 255.77 192.91 261.11 192.38 266.42C191.78 272.03 191.08 277.63 190.49 283.24C190.19 286.06 190.03 288.89 189.8 291.74L185.53 291.41C185.53 291.6 185.47 291.8 185.45 291.98L189.68 292.67C188.68 301.857 187.68 311.06 186.68 320.28C186.476 320.401 186.253 320.485 186.02 320.53C185.755 320.524 185.491 320.497 185.23 320.45C185.23 312.6 185.23 304.92 185.23 297.24C185.23 294.52 184.99 291.81 185.07 289.11C185.44 275.35 185.92 261.59 186.27 247.83C186.63 233.72 186.64 219.61 187.27 205.52C187.72 194.28 188.82 183.06 189.64 171.76C194.79 171.4 199.07 172.37 199.35 173.88C196.35 173.62 193.44 172.14 190.47 173.06C190.47 173.27 190.47 173.48 190.47 173.7C192.79 174.04 195.09 174.54 197.47 174.7C199.25 174.83 199.77 175.93 199.72 177.46Z" fill="url(#paint10_linear_0_1)"/>
<path d="M197.73 177.43C197.55 182.51 197.26 187.59 196.96 192.66C196.66 197.73 196.26 202.8 195.96 207.87C195.66 212.94 195.16 218.01 194.69 223.07L193.98 230.66C193.7 233.19 193.46 235.72 193.16 238.24C193.24 235.7 193.38 233.16 193.49 230.62L193.93 223.01C194.23 217.94 194.62 212.87 194.93 207.8C195.24 202.73 195.73 197.66 196.2 192.6C196.67 187.54 197.14 182.48 197.73 177.43Z" fill="url(#paint11_linear_0_1)"/>
<path d="M135.28 145.54V155.23L127.19 154.23C127.53 151.87 127.87 149.57 128.19 147.28C128.19 147.23 128.32 147.2 128.33 147.15C128.5 146.35 128.52 144.93 128.83 144.86C130.129 144.613 131.459 144.576 132.77 144.75C133.634 144.918 134.476 145.183 135.28 145.54Z" fill="url(#paint12_linear_0_1)"/>
<path d="M140.62 108C140.78 109.2 140.91 110.2 141.04 111.18C141.04 111.57 141.04 111.98 140.98 112.36C140.89 113.17 140.81 113.96 140.72 114.76C140.67 116.39 140.38 118.01 140.18 119.64L140.72 114.76C140.82 113.083 140.508 111.408 139.81 109.88C139.48 111.2 139.15 112.55 138.81 113.88C138.92 112.4 139.03 110.88 139.14 109.48C138.89 109.85 138.65 110.23 138.41 110.6V108.26L137.59 110.15V108.69C135.66 111.6 133.66 114.64 131.65 117.69C129.53 120.92 127.16 124.02 125.34 127.41C123.931 129.959 123.366 132.89 123.725 135.78C124.085 138.67 125.35 141.373 127.34 143.5C127.79 144 128.24 144.88 128.6 143.44C129.17 143.53 130.13 144.6 130.01 142.89L131.43 143.7V142.38C131.74 142.87 132.06 143.38 132.43 143.86C132.88 141.86 133.28 140.04 133.68 138.23C133.53 140.18 133.37 142.13 133.19 144.66L134.48 143.54C134.62 143.91 134.76 144.28 134.84 144.54C136.96 140.68 139.17 136.96 141.04 133.09C142.63 130.037 143.859 126.808 144.7 123.47C145.89 117.83 144.36 112.66 140.62 108ZM127 128.6C125.627 132.482 125.627 136.718 127 140.6C125.954 138.773 125.403 136.705 125.403 134.6C125.403 132.495 125.954 130.427 127 128.6ZM142.51 123.26L142.1 112.74C143.264 116.13 143.417 119.785 142.54 123.26H142.51Z" fill="url(#paint13_linear_0_1)"/>
<path d="M133.57 169.41C133.39 174.49 133.1 179.57 132.8 184.64C132.5 189.71 132.1 194.78 131.8 199.85C131.5 204.92 131 209.99 130.53 215.05L129.82 222.64C129.54 225.17 129.3 227.7 129 230.22C129.08 227.68 129.22 225.14 129.33 222.6L129.77 214.99C130.07 209.92 130.46 204.85 130.77 199.78C131.08 194.71 131.57 189.64 132.04 184.58C132.51 179.52 133 174.46 133.57 169.41Z" fill="url(#paint14_linear_0_1)"/>
<path d="M111.33 99.38L111.65 109.07L119.7 107.79C119.28 105.43 118.87 103.15 118.45 100.88C118.45 100.82 118.32 100.8 118.31 100.74C118.12 99.9499 118.05 98.53 117.73 98.47C116.428 98.26 115.102 98.26 113.8 98.47C112.946 98.6809 112.117 98.9861 111.33 99.38Z" fill="url(#paint15_linear_0_1)"/>
<path d="M101.19 77.63C102.149 80.9416 103.491 84.1299 105.19 87.13C107.19 90.94 109.52 94.58 111.76 98.37C111.83 98.14 111.96 97.76 112.08 97.37L113.41 98.44C113.15 95.93 112.92 93.98 112.71 92.03L114.14 97.63C114.47 97.11 114.78 96.63 115.07 96.11V97.44L116.47 96.58C116.39 98.29 117.32 97.19 117.89 97.08C118.29 98.51 118.72 97.61 119.15 97.08C121.061 94.8995 122.236 92.1731 122.511 89.287C122.786 86.401 122.145 83.5017 120.68 81C118.74 77.67 116.27 74.65 114.05 71.49L107.82 62.69V64.15C107.57 63.63 107.33 63.15 106.93 62.28L107.01 64.63C106.76 64.26 106.51 63.89 106.25 63.53C106.4 64.96 106.57 66.44 106.72 67.92L105.59 63.92C104.943 65.4709 104.685 67.1566 104.84 68.83C105.07 70.45 105.31 72.07 105.54 73.69C105.28 72.07 104.94 70.45 104.84 68.83C104.73 68.03 104.62 67.24 104.5 66.44C104.44 66.06 104.44 65.65 104.41 65.27C104.5 64.27 104.59 63.27 104.72 62.07C101.18 66.82 99.82 72 101.19 77.63ZM119.45 94.22C120.688 90.2898 120.539 86.054 119.03 82.22C120.138 84.0107 120.76 86.0596 120.833 88.1642C120.907 90.2688 120.43 92.3562 119.45 94.22ZM103.45 66.83L103.38 77.35C102.368 73.9143 102.382 70.2579 103.42 66.83H103.45Z" fill="url(#paint16_linear_0_1)"/>
<path d="M113.82 123.18C114.57 128.18 115.22 133.26 115.82 138.3C116.42 143.34 116.99 148.4 117.58 153.45C118.17 158.5 118.65 163.56 119.12 168.62L119.8 176.21C120 178.75 120.22 181.28 120.38 183.82C120 181.3 119.67 178.82 119.32 176.26L118.32 168.7C117.69 163.7 117.15 158.6 116.56 153.55C115.97 148.5 115.49 143.44 115.03 138.38C114.57 133.32 114.16 128.26 113.82 123.18Z" fill="url(#paint17_linear_0_1)"/>
<path d="M173.56 294C172.186 295.294 170.881 296.659 169.65 298.09C168.794 299.11 168.217 300.334 167.975 301.643C167.733 302.952 167.835 304.302 168.27 305.56C168.498 306.316 168.948 306.987 169.561 307.484C170.174 307.982 170.923 308.283 171.71 308.35C172.579 308.42 173.451 308.42 174.32 308.35C175.18 308.35 176.04 308.18 176.89 308.19C177.462 308.162 178.034 308.249 178.571 308.447C179.108 308.644 179.6 308.948 180.017 309.34C180.435 309.732 180.769 310.204 180.999 310.728C181.23 311.252 181.353 311.818 181.36 312.39C181.448 313.474 181.282 314.563 180.876 315.571C180.47 316.58 179.835 317.48 179.02 318.2C177.487 319.568 175.783 320.732 173.95 321.66C172.102 322.594 170.401 323.794 168.9 325.22C168.036 326.006 167.377 326.99 166.98 328.088C166.583 329.186 166.459 330.364 166.62 331.52C166.858 332.972 167.445 334.345 168.33 335.52C170.09 337.86 172.47 339.662 175.2 340.72C177.43 341.66 179.69 342.51 181.91 343.47C184.286 344.373 186.392 345.866 188.03 347.81C189.008 349.034 189.708 350.457 190.08 351.98C190.494 353.369 190.412 354.859 189.848 356.194C189.284 357.53 188.274 358.627 186.99 359.3C185.66 360.08 184.27 360.75 182.99 361.54C181.847 362.146 180.926 363.099 180.358 364.261C179.79 365.424 179.605 366.736 179.83 368.01C180.093 369.793 180.587 371.535 181.3 373.19C182.337 375.602 183.033 378.146 183.37 380.75C184.043 386.491 182.529 392.275 179.13 396.95C177.753 398.903 175.824 400.4 173.59 401.25C172.117 401.926 170.435 401.99 168.915 401.428C167.394 400.865 166.159 399.722 165.48 398.25C164.57 396.54 163.93 394.7 163.19 392.91C161.618 388.901 158.967 385.405 155.53 382.81C154.331 381.924 152.973 381.276 151.53 380.9C150.362 380.597 149.138 380.573 147.959 380.83C146.779 381.088 145.677 381.618 144.74 382.38C142.996 383.767 141.422 385.355 140.05 387.11C138.123 389.35 136.183 391.58 134.23 393.8C132.277 396.02 130.337 398.21 128.41 400.37C127.383 401.569 126.192 402.616 124.87 403.48C121.64 405.48 118.23 404.61 116.45 401.21C115.283 398.891 114.837 396.275 115.17 393.7C115.41 391.42 115.76 389.15 115.96 386.87C116.218 384.815 115.871 382.73 114.96 380.87C113.828 378.795 111.98 377.203 109.76 376.39C107.205 375.417 104.494 374.916 101.76 374.91C99.3001 374.81 96.8301 374.74 94.3801 374.52C91.8355 374.366 89.3963 373.45 87.3801 371.89C86.2161 370.996 85.2607 369.86 84.5801 368.56C83.9587 367.363 83.7213 366.004 83.9003 364.667C84.0792 363.33 84.6658 362.081 85.5801 361.09C86.9161 359.725 88.4178 358.532 90.0501 357.54C91.4701 356.54 92.9301 355.61 94.2601 354.54C95.5407 353.509 96.5123 352.145 97.0681 350.598C97.6238 349.051 97.7421 347.38 97.41 345.77C97.0086 343.248 95.9767 340.867 94.41 338.85C92.4883 336.473 90.3637 334.269 88.0601 332.26C85.5751 330.115 83.4573 327.578 81.79 324.75C80.7748 322.992 80.2114 321.009 80.1501 318.98C80.0867 317.426 80.4526 315.884 81.2076 314.524C81.9626 313.164 83.0775 312.038 84.4301 311.27C85.4676 310.616 86.6871 310.31 87.9105 310.399C89.1339 310.487 90.2971 310.964 91.2301 311.76C92.4901 312.69 93.5901 313.83 94.8001 314.83C95.7309 315.677 96.7348 316.44 97.8001 317.11C98.8479 317.742 100.07 318.021 101.289 317.908C102.507 317.794 103.657 317.294 104.57 316.48C106.707 314.764 108.132 312.316 108.57 309.61C108.915 307.293 109.055 304.951 108.99 302.61C108.948 300.685 109.112 298.76 109.48 296.87C109.738 295.472 110.283 294.143 111.082 292.967C111.881 291.791 112.915 290.794 114.12 290.04C115.253 289.276 116.627 288.955 117.981 289.14C119.335 289.324 120.573 290.001 121.46 291.04C122.63 292.319 123.713 293.675 124.7 295.1C127.93 299.69 132.32 300.18 136.43 299.1C139.583 298.233 142.404 296.443 144.53 293.96C146.974 291.004 149.112 287.808 150.91 284.42C152.369 281.739 154.091 279.21 156.05 276.87C158.128 274.279 160.904 272.336 164.05 271.27C166.162 270.582 168.423 270.493 170.583 271.014C172.742 271.535 174.714 272.645 176.28 274.22C181.04 278.59 181.1 286.58 176.74 291.22C175.74 292.22 174.74 293.22 173.74 294.22L173.56 294Z" fill="url(#paint18_linear_0_1)"/>
<path d="M127.88 342.79C125.99 342.839 124.104 342.989 122.23 343.24C120.913 343.429 119.667 343.957 118.615 344.772C117.564 345.587 116.742 346.662 116.23 347.89C115.896 348.605 115.784 349.403 115.908 350.183C116.033 350.962 116.389 351.685 116.93 352.26C117.548 352.893 118.217 353.475 118.93 354C119.59 354.55 120.32 355 120.93 355.59C121.375 355.95 121.743 356.397 122.011 356.902C122.28 357.408 122.444 357.962 122.493 358.532C122.543 359.103 122.477 359.677 122.299 360.221C122.122 360.766 121.836 361.269 121.46 361.7C120.804 362.568 119.954 363.272 118.979 363.754C118.003 364.237 116.928 364.485 115.84 364.48C113.787 364.474 111.744 364.206 109.76 363.68C107.759 363.146 105.691 362.904 103.62 362.96C102.452 362.974 101.304 363.271 100.276 363.827C99.2487 364.383 98.3713 365.18 97.72 366.15C96.9269 367.389 96.4497 368.804 96.33 370.27C96.0817 373.187 96.6568 376.114 97.99 378.72C98.99 380.91 100.14 383.05 101.16 385.25C102.329 387.505 102.904 390.021 102.83 392.56C102.744 394.123 102.318 395.649 101.58 397.03C100.963 398.341 99.9095 399.397 98.5997 400.018C97.29 400.638 95.8054 400.784 94.4 400.43C92.89 400.13 91.4 399.7 89.89 399.43C88.6324 399.121 87.3091 399.218 86.1105 399.709C84.912 400.2 83.8999 401.058 83.22 402.16C82.2277 403.661 81.4344 405.285 80.86 406.99C80.0296 409.477 78.8512 411.834 77.36 413.99C74.0265 418.73 69.0266 422.037 63.36 423.25C61.03 423.788 58.5924 423.617 56.36 422.76C54.8116 422.287 53.5139 421.219 52.751 419.791C51.9882 418.363 51.8224 416.69 52.29 415.14C52.75 413.26 53.5 411.46 54.14 409.63C55.6269 405.592 55.9729 401.222 55.14 397C54.8408 395.548 54.2672 394.167 53.45 392.93C52.7847 391.933 51.8959 391.104 50.8544 390.511C49.8128 389.917 48.6472 389.574 47.45 389.51C45.2253 389.383 42.9934 389.517 40.8 389.91C37.87 390.29 34.94 390.67 32 391.02C29.06 391.37 26.19 391.72 23.28 392.02C21.7177 392.24 20.1323 392.24 18.57 392.02C14.81 391.37 12.87 388.42 13.81 384.71C14.4721 382.21 15.8648 379.964 17.81 378.26C19.51 376.72 21.28 375.26 22.95 373.69C24.5027 372.325 25.6278 370.54 26.19 368.55C26.7229 366.25 26.4068 363.835 25.3 361.75C24.0372 359.324 22.3428 357.149 20.3 355.33C18.53 353.61 16.74 351.91 15.06 350.11C13.2827 348.305 12.0849 346.01 11.62 343.52C11.3467 342.077 11.3946 340.592 11.76 339.17C12.0875 337.863 12.8126 336.689 13.8354 335.812C14.8582 334.934 16.1281 334.395 17.47 334.27C19.3763 334.14 21.2914 334.251 23.17 334.6C24.88 334.82 26.61 335.08 28.33 335.14C29.972 335.219 31.6043 334.848 33.0499 334.065C34.4954 333.282 35.6991 332.118 36.53 330.7C37.9036 328.546 38.7118 326.08 38.88 323.53C39.0319 320.476 38.9181 317.414 38.54 314.38C38.1192 311.127 38.2307 307.827 38.87 304.61C39.2832 302.621 40.1835 300.766 41.49 299.21C42.4782 298.008 43.7783 297.102 45.2478 296.59C46.7172 296.079 48.2991 295.982 49.82 296.31C51.0294 296.514 52.1417 297.1 52.9945 297.982C53.8473 298.863 54.3958 299.995 54.56 301.21C54.89 302.74 54.94 304.33 55.18 305.88C55.317 307.143 55.568 308.392 55.93 309.61C56.2979 310.772 57.0267 311.786 58.0103 312.505C58.994 313.225 60.1814 313.612 61.4 313.61C64.1331 313.741 66.8183 312.858 68.94 311.13C70.7532 309.639 72.4268 307.985 73.94 306.19C75.1928 304.71 76.6009 303.369 78.14 302.19C79.262 301.32 80.5526 300.693 81.9298 300.349C83.307 300.005 84.7408 299.951 86.14 300.19C87.4943 300.371 88.7346 301.044 89.6252 302.08C90.5157 303.116 90.9943 304.444 90.97 305.81C90.9847 307.541 90.8845 309.272 90.67 310.99C90.03 316.57 92.97 319.86 96.76 321.79C99.6862 323.245 102.982 323.788 106.22 323.35C110.011 322.78 113.734 321.821 117.33 320.49C120.207 319.468 123.178 318.731 126.2 318.29C129.515 317.734 132.92 318.155 136 319.5C138.033 320.395 139.778 321.836 141.04 323.663C142.302 325.49 143.033 327.632 143.15 329.85C143.79 336.28 138.51 342.27 132.15 342.85C130.74 342.97 129.32 342.97 127.91 343.02L127.88 342.79Z" fill="url(#paint19_linear_0_1)"/>
<path d="M279 363.15C277.113 363.191 275.23 363.338 273.36 363.59C272.043 363.78 270.798 364.308 269.746 365.123C268.694 365.938 267.872 367.012 267.36 368.24C267.024 368.954 266.911 369.753 267.036 370.533C267.161 371.312 267.518 372.036 268.06 372.61C268.68 373.241 269.349 373.823 270.06 374.35C270.72 374.9 271.45 375.35 272.06 375.95C272.507 376.308 272.877 376.752 273.147 377.257C273.417 377.762 273.581 378.316 273.631 378.887C273.681 379.457 273.614 380.031 273.435 380.575C273.256 381.119 272.968 381.621 272.59 382.05C271.935 382.917 271.087 383.62 270.113 384.102C269.139 384.585 268.067 384.834 266.98 384.83C264.927 384.825 262.884 384.556 260.9 384.03C258.898 383.497 256.831 383.255 254.76 383.31C253.592 383.326 252.446 383.625 251.418 384.181C250.391 384.736 249.513 385.532 248.86 386.5C248.067 387.739 247.59 389.154 247.47 390.62C247.218 393.54 247.793 396.472 249.13 399.08C250.13 401.26 251.28 403.4 252.29 405.6C253.467 407.852 254.046 410.37 253.97 412.91C253.88 414.473 253.453 415.997 252.72 417.38C252.106 418.694 251.053 419.752 249.742 420.373C248.431 420.994 246.945 421.138 245.54 420.78C244.02 420.48 242.54 420.05 241.03 419.78C239.772 419.474 238.45 419.573 237.252 420.063C236.054 420.554 235.042 421.41 234.36 422.51C233.368 424.011 232.574 425.635 232 427.34C231.17 429.827 229.991 432.184 228.5 434.34C225.166 439.08 220.166 442.387 214.5 443.6C212.17 444.134 209.733 443.964 207.5 443.11C205.951 442.637 204.654 441.569 203.891 440.141C203.128 438.712 202.962 437.04 203.43 435.49C203.9 433.62 204.65 431.81 205.28 429.98C206.777 425.944 207.123 421.571 206.28 417.35C205.982 415.899 205.412 414.518 204.6 413.28C203.935 412.283 203.046 411.454 202.004 410.861C200.963 410.267 199.797 409.924 198.6 409.86C196.375 409.733 194.143 409.867 191.95 410.26C189.02 410.64 186.08 411.02 183.15 411.37C180.22 411.72 177.34 412.07 174.43 412.37C172.868 412.595 171.282 412.595 169.72 412.37C168.885 412.291 168.079 412.025 167.361 411.591C166.643 411.157 166.033 410.567 165.575 409.864C165.118 409.161 164.825 408.364 164.718 407.532C164.612 406.701 164.694 405.855 164.96 405.06C165.631 402.552 167.042 400.304 169.01 398.61C170.7 397.07 172.48 395.61 174.15 394.05C175.697 392.676 176.821 390.89 177.39 388.9C177.924 386.599 177.605 384.183 176.49 382.1C175.228 379.674 173.533 377.498 171.49 375.68C169.72 373.96 167.93 372.27 166.25 370.46C164.469 368.658 163.27 366.362 162.81 363.87C162.538 362.428 162.582 360.943 162.94 359.52C163.272 358.213 164 357.041 165.024 356.164C166.048 355.287 167.318 354.748 168.66 354.62C170.566 354.49 172.481 354.601 174.36 354.95C176.07 355.17 177.79 355.43 179.52 355.49C181.16 355.568 182.79 355.195 184.234 354.412C185.678 353.63 186.88 352.467 187.71 351.05C189.091 348.898 189.903 346.431 190.07 343.88C190.223 340.829 190.106 337.77 189.72 334.74C189.307 331.483 189.422 328.181 190.06 324.96C190.471 322.97 191.372 321.114 192.68 319.56C193.668 318.358 194.968 317.452 196.438 316.94C197.907 316.429 199.489 316.332 201.01 316.66C202.219 316.866 203.33 317.452 204.183 318.333C205.035 319.215 205.584 320.345 205.75 321.56C206.07 323.09 206.13 324.68 206.37 326.24C206.508 327.5 206.759 328.745 207.12 329.96C207.488 331.122 208.217 332.136 209.2 332.855C210.184 333.575 211.371 333.962 212.59 333.96C215.323 334.09 218.008 333.207 220.13 331.48C221.943 329.989 223.617 328.335 225.13 326.54C226.384 325.08 227.789 323.756 229.32 322.59C230.443 321.723 231.734 321.097 233.111 320.753C234.487 320.408 235.921 320.353 237.32 320.59C238.674 320.769 239.915 321.442 240.804 322.479C241.693 323.516 242.169 324.844 242.14 326.21C242.163 327.941 242.066 329.672 241.85 331.39C241.21 336.97 244.15 340.26 247.94 342.19C250.865 343.65 254.161 344.193 257.4 343.75C261.191 343.178 264.914 342.22 268.51 340.89C271.387 339.868 274.358 339.131 277.38 338.69C280.649 338.136 284.009 338.532 287.06 339.83C289.093 340.725 290.837 342.166 292.1 343.993C293.362 345.82 294.093 347.962 294.21 350.18C294.85 356.61 289.57 362.6 283.21 363.18C281.81 363.3 280.39 363.3 278.97 363.35L279 363.15Z" fill="url(#paint20_linear_0_1)"/>
<path d="M173.09 202.55C126.59 202.55 88.8799 195.89 88.8799 187.66V342C88.8819 345.306 90.0488 348.506 92.1757 351.037C94.3027 353.568 97.2535 355.269 100.51 355.84C148.908 364.339 198.422 364.281 246.8 355.67C249.738 355.144 252.398 353.602 254.314 351.313C256.23 349.025 257.28 346.135 257.28 343.15V187.66C257.3 195.89 219.6 202.55 173.09 202.55Z" fill="url(#paint21_linear_0_1)"/>
<defs>
<linearGradient id="paint0_linear_0_1" x1="44.1299" y1="187.66" x2="369.23" y2="187.66" gradientUnits="userSpaceOnUse">
<stop/>
<stop offset="0.02" stop-color="#0C0C0C"/>
<stop offset="0.14" stop-color="#444444"/>
<stop offset="0.25" stop-color="#767676"/>
<stop offset="0.37" stop-color="#A0A0A0"/>
<stop offset="0.49" stop-color="#C2C2C2"/>
<stop offset="0.61" stop-color="#DDDDDD"/>
<stop offset="0.73" stop-color="#F0F0F0"/>
<stop offset="0.86" stop-color="#FBFBFB"/>
<stop offset="1" stop-color="white"/>
</linearGradient>
<linearGradient id="paint1_linear_0_1" x1="214.979" y1="138.521" x2="207.127" y2="136.443" gradientUnits="userSpaceOnUse">
<stop stop-color="#101111"/>
<stop offset="0.31" stop-color="#141515"/>
<stop offset="0.63" stop-color="#212121"/>
<stop offset="0.92" stop-color="#333333"/>
</linearGradient>
<linearGradient id="paint2_linear_0_1" x1="216.842" y1="83.8473" x2="220.659" y2="150.547" gradientUnits="userSpaceOnUse">
<stop offset="0.02"/>
<stop offset="0.25" stop-color="#123442"/>
<stop offset="0.52" stop-color="#256E8A"/>
<stop offset="0.74" stop-color="#3397BF"/>
<stop offset="0.91" stop-color="#3CB1E0"/>
<stop offset="1" stop-color="#3FBBEC"/>
</linearGradient>
<linearGradient id="paint3_linear_0_1" x1="78.8033" y1="125.919" x2="86.6993" y2="124.123" gradientUnits="userSpaceOnUse">
<stop stop-color="#101111"/>
<stop offset="0.31" stop-color="#141515"/>
<stop offset="0.63" stop-color="#212121"/>
<stop offset="0.92" stop-color="#333333"/>
</linearGradient>
<linearGradient id="paint4_linear_0_1" x1="75.5933" y1="120.303" x2="76.9677" y2="14.1701" gradientUnits="userSpaceOnUse">
<stop stop-color="#EC3593"/>
<stop offset="0.15" stop-color="#91215A"/>
<stop offset="0.28" stop-color="#430F2A"/>
<stop offset="0.38" stop-color="#13040C"/>
<stop offset="0.43"/>
</linearGradient>
<linearGradient id="paint5_linear_0_1" x1="97.8481" y1="212.862" x2="111.801" y2="208.237" gradientUnits="userSpaceOnUse">
<stop stop-color="#101111"/>
<stop offset="0.31" stop-color="#141515"/>
<stop offset="0.63" stop-color="#212121"/>
<stop offset="0.92" stop-color="#333333"/>
</linearGradient>
<linearGradient id="paint6_linear_0_1" x1="162.56" y1="129.02" x2="179.18" y2="81" gradientUnits="userSpaceOnUse">
<stop stop-color="#FD9D31"/>
<stop offset="0.09" stop-color="#F0952F"/>
<stop offset="0.25" stop-color="#CF8028"/>
<stop offset="0.47" stop-color="#995F1E"/>
<stop offset="0.74" stop-color="#4F310F"/>
<stop offset="1"/>
</linearGradient>
<linearGradient id="paint7_linear_0_1" x1="156.37" y1="218.64" x2="171.08" y2="218.64" gradientUnits="userSpaceOnUse">
<stop stop-color="#101111"/>
<stop offset="0.31" stop-color="#141515"/>
<stop offset="0.63" stop-color="#212121"/>
<stop offset="0.92" stop-color="#333333"/>
</linearGradient>
<linearGradient id="paint8_linear_0_1" x1="190.54" y1="157.25" x2="217.4" y2="159.88" gradientUnits="userSpaceOnUse">
<stop stop-color="#EC3593"/>
<stop offset="0.15" stop-color="#91215A"/>
<stop offset="0.28" stop-color="#430F2A"/>
<stop offset="0.38" stop-color="#13040C"/>
<stop offset="0.43"/>
</linearGradient>
<linearGradient id="paint9_linear_0_1" x1="231.59" y1="-9.96001" x2="189.46" y2="174.91" gradientUnits="userSpaceOnUse">
<stop offset="0.21" stop-color="#101111"/>
<stop offset="0.45" stop-color="#141515"/>
<stop offset="0.7" stop-color="#212121"/>
<stop offset="0.92" stop-color="#333333"/>
</linearGradient>
<linearGradient id="paint10_linear_0_1" x1="182.53" y1="245.65" x2="228.84" y2="249.01" gradientUnits="userSpaceOnUse">
<stop stop-color="#EC3593"/>
<stop offset="0.15" stop-color="#91215A"/>
<stop offset="0.28" stop-color="#430F2A"/>
<stop offset="0.38" stop-color="#13040C"/>
<stop offset="0.43"/>
</linearGradient>
<linearGradient id="paint11_linear_0_1" x1="192.62" y1="207.83" x2="198.23" y2="207.83" gradientUnits="userSpaceOnUse">
<stop stop-color="#101111"/>
<stop offset="0.31" stop-color="#141515"/>
<stop offset="0.63" stop-color="#212121"/>
<stop offset="0.92" stop-color="#333333"/>
</linearGradient>
<linearGradient id="paint12_linear_0_1" x1="126.38" y1="149.23" x2="138.71" y2="150.44" gradientUnits="userSpaceOnUse">
<stop stop-color="#FD9D31"/>
<stop offset="0.08" stop-color="#F0952F"/>
<stop offset="0.24" stop-color="#CF8028"/>
<stop offset="0.45" stop-color="#995F1E"/>
<stop offset="0.7" stop-color="#4F310F"/>
<stop offset="0.94"/>
</linearGradient>
<linearGradient id="paint13_linear_0_1" x1="167.43" y1="-17.98" x2="125.31" y2="166.89" gradientUnits="userSpaceOnUse">
<stop offset="0.21" stop-color="#101111"/>
<stop offset="0.45" stop-color="#141515"/>
<stop offset="0.7" stop-color="#212121"/>
<stop offset="0.92" stop-color="#333333"/>
</linearGradient>
<linearGradient id="paint14_linear_0_1" x1="128.46" y1="199.81" x2="134.07" y2="199.81" gradientUnits="userSpaceOnUse">
<stop stop-color="#101111"/>
<stop offset="0.31" stop-color="#141515"/>
<stop offset="0.63" stop-color="#212121"/>
<stop offset="0.92" stop-color="#333333"/>
</linearGradient>
<linearGradient id="paint15_linear_0_1" x1="96.4124" y1="70.4831" x2="123.193" y2="67.0373" gradientUnits="userSpaceOnUse">
<stop offset="0.02"/>
<stop offset="0.16" stop-color="#0E2934"/>
<stop offset="0.32" stop-color="#1D556B"/>
<stop offset="0.48" stop-color="#297999"/>
<stop offset="0.63" stop-color="#3396BD"/>
<stop offset="0.77" stop-color="#39AAD7"/>
<stop offset="0.9" stop-color="#3EB7E7"/>
<stop offset="1" stop-color="#3FBBEC"/>
</linearGradient>
<linearGradient id="paint16_linear_0_1" x1="66.6677" y1="-97.5964" x2="114.334" y2="86.02" gradientUnits="userSpaceOnUse">
<stop offset="0.21" stop-color="#101111"/>
<stop offset="0.45" stop-color="#141515"/>
<stop offset="0.7" stop-color="#212121"/>
<stop offset="0.92" stop-color="#333333"/>
</linearGradient>
<linearGradient id="paint17_linear_0_1" x1="119.92" y1="153.41" x2="114.31" y2="153.59" gradientUnits="userSpaceOnUse">
<stop stop-color="#101111"/>
<stop offset="0.31" stop-color="#141515"/>
<stop offset="0.63" stop-color="#212121"/>
<stop offset="0.92" stop-color="#333333"/>
</linearGradient>
<linearGradient id="paint18_linear_0_1" x1="125.148" y1="389.587" x2="160.231" y2="211.75" gradientUnits="userSpaceOnUse">
<stop stop-color="#EC3593"/>
<stop offset="0.09" stop-color="#E4338E"/>
<stop offset="0.23" stop-color="#CF2F81"/>
<stop offset="0.4" stop-color="#AD276C"/>
<stop offset="0.59" stop-color="#7D1C4E"/>
<stop offset="0.8" stop-color="#410F28"/>
<stop offset="1"/>
</linearGradient>
<linearGradient id="paint19_linear_0_1" x1="249.17" y1="280.39" x2="-39.46" y2="398.48" gradientUnits="userSpaceOnUse">
<stop offset="0.02"/>
<stop offset="0.05" stop-color="#03090B"/>
<stop offset="0.26" stop-color="#153E4E"/>
<stop offset="0.45" stop-color="#246B87"/>
<stop offset="0.62" stop-color="#308DB2"/>
<stop offset="0.78" stop-color="#38A6D2"/>
<stop offset="0.91" stop-color="#3DB6E5"/>
<stop offset="1" stop-color="#3FBBEC"/>
</linearGradient>
<linearGradient id="paint20_linear_0_1" x1="311.37" y1="255.71" x2="164.51" y2="442.56" gradientUnits="userSpaceOnUse">
<stop offset="0.02"/>
<stop offset="0.12" stop-color="#2C1B09"/>
<stop offset="0.25" stop-color="#633D13"/>
<stop offset="0.38" stop-color="#925B1C"/>
<stop offset="0.51" stop-color="#B97324"/>
<stop offset="0.64" stop-color="#D6852A"/>
<stop offset="0.76" stop-color="#EC922E"/>
<stop offset="0.89" stop-color="#F99A30"/>
<stop offset="1" stop-color="#FD9D31"/>
</linearGradient>
<linearGradient id="paint21_linear_0_1" x1="12.5399" y1="274.91" x2="359.61" y2="274.91" gradientUnits="userSpaceOnUse">
<stop/>
<stop offset="0.08" stop-color="#333333"/>
<stop offset="0.17" stop-color="#626262"/>
<stop offset="0.26" stop-color="#8C8C8C"/>
<stop offset="0.36" stop-color="#B0B0B0"/>
<stop offset="0.46" stop-color="#CDCDCD"/>
<stop offset="0.56" stop-color="#E3E3E3"/>
<stop offset="0.68" stop-color="#F3F3F3"/>
<stop offset="0.81" stop-color="#FCFCFC"/>
<stop offset="1" stop-color="white"/>
</linearGradient>
</defs>
</svg>
