<svg width="326" height="516" viewBox="0 0 326 516" fill="none" xmlns="http://www.w3.org/2000/svg">
<path d="M171.646 246.71C218.153 246.71 255.856 240.043 255.856 231.82C255.856 223.596 218.153 216.93 171.646 216.93C125.138 216.93 87.4355 223.596 87.4355 231.82C87.4355 240.043 125.138 246.71 171.646 246.71Z" fill="url(#paint0_linear_0_1)"/>
<path d="M240.365 234.67C238.365 240.41 236.465 246.15 234.645 251.93C233.258 256.343 231.968 260.783 230.775 265.25C229.455 270.25 228.325 275.25 227.055 280.25C226.125 283.93 225.115 287.59 224.145 291.25L220.485 305.16C219.105 310.35 217.705 315.52 216.365 320.72C214.975 326.19 213.685 331.72 212.295 337.15C211.605 339.9 210.765 342.61 209.995 345.36L214.115 346.53L213.995 347.1L209.775 346.27C207.535 355.243 205.292 364.243 203.045 373.27C203.275 373.49 203.405 373.68 203.565 373.74C203.816 373.825 204.073 373.889 204.335 373.93C207.065 366.57 209.715 359.36 212.405 352.17C213.355 349.63 214.515 347.17 215.405 344.6C219.835 331.6 224.165 318.49 228.605 305.46C233.165 292.11 238.055 278.87 242.395 265.46C245.875 254.76 248.735 243.86 251.885 232.99C247.185 230.85 242.885 230.28 242.045 231.6C244.925 232.39 248.195 232.02 250.655 233.91C250.595 234.12 250.515 234.31 250.445 234.52C248.155 234.04 245.825 233.7 243.595 233.03C241.715 232.36 240.855 233.21 240.365 234.67Z" fill="url(#paint1_linear_0_1)"/>
<path d="M262.695 171.16C262.027 172.353 261.471 173.605 261.035 174.9C260.035 178.84 261.475 182.55 262.395 186.3C263.587 190.553 264.555 194.865 265.295 199.22C265.975 204.22 264.415 208.83 260.175 211.78C258.852 212.606 257.718 213.7 256.844 214.992C255.971 216.284 255.379 217.745 255.105 219.28C254.475 222.45 253.105 225.49 252.185 228.61C251.915 229.5 251.805 230.43 251.535 231.74C251.045 229.34 244.595 227.74 242.715 229.37C243.075 228.37 243.425 227.64 243.625 226.86C244.315 224.23 244.725 221.51 245.625 218.96C247.535 213.6 249.565 208.33 247.715 202.49C247.303 200.909 247.022 199.297 246.875 197.67C246.2 193.781 246.38 189.792 247.405 185.98C248.985 180.64 252.635 177.05 257.085 174.1C258.815 172.95 260.595 171.87 262.345 170.76L262.695 171.16ZM257.035 213.16C259.643 211.86 261.772 209.767 263.118 207.182C264.463 204.597 264.956 201.652 264.525 198.77C263.985 194.96 262.845 191.23 261.975 187.46C261.155 183.91 260.325 180.36 259.535 176.97L259.035 178.33L258.915 176.27L258.095 178.48L257.815 177.17L256.555 181.46C256.705 180.07 256.865 178.68 257.025 177.33C254.145 180.12 253.965 183.97 253.025 187.53C253.715 184.77 254.395 182.01 255.095 179.26C255.185 178.87 255.325 178.5 255.445 178.13C255.905 177.24 256.375 176.36 256.935 175.29C251.815 178.36 248.575 182.68 247.745 188.38C247.373 191.805 247.407 195.263 247.845 198.68C248.245 202.96 249.035 207.2 249.675 211.56L250.345 210.78L251.185 212.27C251.875 209.84 252.415 207.96 252.955 206.07C252.695 207.91 252.445 209.75 252.165 211.8L253.595 210.74L253.135 211.98L254.745 211.71C254.035 213.27 255.305 212.6 255.875 212.71C255.705 214.16 256.445 213.53 257.035 213.21V213.16ZM245.555 221.44L253.555 223.29C254.045 220.95 254.555 218.68 255.005 216.42C255.005 216.37 254.905 216.29 254.915 216.24C255.035 215.43 255.515 214.09 255.245 213.92C254.112 213.237 252.876 212.74 251.585 212.45C250.722 212.317 249.846 212.28 248.975 212.34L245.555 221.44Z" fill="black"/>
<path d="M248.925 212.34L245.555 221.44L253.555 223.29C254.045 220.95 254.555 218.68 255.005 216.42C255.005 216.37 254.905 216.29 254.915 216.24C255.035 215.43 255.515 214.09 255.245 213.92C254.111 213.237 252.876 212.741 251.585 212.45C250.705 212.313 249.813 212.276 248.925 212.34Z" fill="url(#paint2_linear_0_1)"/>
<path d="M258.385 210.62C260.005 209.266 261.242 207.511 261.972 205.53C262.702 203.549 262.899 201.411 262.545 199.33C262.494 203.459 261.025 207.445 258.385 210.62Z" fill="black"/>
<path d="M247.744 188.38C247.372 191.802 247.406 195.256 247.844 198.67C248.244 202.95 249.034 207.2 249.684 211.56C249.834 211.37 250.094 211.08 250.344 210.78L251.174 212.27C251.884 209.84 252.414 207.95 252.944 206.07C252.694 207.91 252.444 209.75 252.164 211.79C252.654 211.44 253.164 211.09 253.594 210.73L253.134 211.98L254.744 211.71C254.034 213.27 255.304 212.6 255.874 212.71C255.704 214.18 256.444 213.51 257.034 213.2C259.642 211.9 261.771 209.807 263.117 207.222C264.462 204.637 264.955 201.692 264.524 198.81C263.994 195 262.844 191.27 261.974 187.5C261.154 183.95 260.324 180.4 259.534 177.01L259.024 178.37C259.024 177.8 258.964 177.22 258.914 176.31L258.094 178.51C258.004 178.08 257.904 177.64 257.804 177.21C257.404 178.59 256.994 180.03 256.584 181.45C256.744 180.05 256.904 178.67 257.044 177.32C255.86 178.51 254.987 179.973 254.504 181.58C254.104 183.17 253.704 184.76 253.314 186.35C253.684 184.75 253.984 183.12 254.504 181.58C254.694 180.8 254.894 180.03 255.084 179.25C255.184 178.86 255.334 178.49 255.444 178.12C255.904 177.24 256.364 176.35 256.934 175.28C251.814 178.36 248.554 182.68 247.744 188.38ZM258.384 210.63C261.025 207.448 262.493 203.455 262.544 199.32C262.899 201.404 262.702 203.545 261.972 205.53C261.242 207.514 260.005 209.273 258.384 210.63ZM253.884 179.21L249.884 188.93C250.242 185.37 251.632 181.991 253.884 179.21Z" fill="url(#paint3_linear_0_1)"/>
<path d="M242.235 235.32C237.305 255.01 231.685 274.64 225.455 293.96C230.395 274.27 236.015 254.64 242.235 235.32Z" fill="#3FBBEC"/>
<path d="M69.1139 122.72C70.8239 123.89 72.5739 125.02 74.2639 126.23C78.6039 129.34 82.1238 133.05 83.5238 138.44C84.4131 142.285 84.4541 146.278 83.6439 150.14C83.4447 151.762 83.1102 153.364 82.6439 154.93C80.5939 160.71 82.4439 166.04 84.1639 171.46C84.9839 174.04 85.3038 176.78 85.9038 179.46C86.0738 180.25 86.3939 181 86.7239 182C84.9039 180.31 78.4039 181.69 77.8239 184.07C77.6039 182.75 77.5339 181.81 77.2839 180.91C76.4239 177.77 75.2139 174.68 74.6939 171.49C74.4708 169.944 73.9267 168.463 73.0966 167.14C72.2665 165.817 71.1687 164.683 69.8739 163.81C65.7539 160.72 64.3439 156.05 65.1939 151.09C66.0904 146.755 67.2119 142.469 68.5539 138.25C69.5539 134.53 71.1439 130.88 70.3139 126.9C69.915 125.591 69.4031 124.32 68.7839 123.1L69.1139 122.72ZM74.1139 164.86C74.6939 164.77 75.9439 165.48 75.2839 163.86L76.8839 164.19L76.4638 162.93L77.8639 164.04C77.6439 161.99 77.4539 160.14 77.2639 158.29C77.7439 160.2 78.2639 162.1 78.8239 164.55L79.7138 163.09L80.3539 163.89C81.1439 159.56 82.0839 155.34 82.6239 151.08C83.1802 147.68 83.3346 144.226 83.0839 140.79C82.4439 135.06 79.3539 130.64 74.3439 127.39C74.8739 128.48 75.3439 129.39 75.7339 130.28C75.8439 130.66 75.9739 131.03 76.0539 131.42C76.6539 134.2 77.2472 136.98 77.8339 139.76C76.9839 136.17 76.9338 132.31 74.1538 129.42C74.2638 130.78 74.3739 132.17 74.4839 133.57L73.4038 129.29L73.0739 130.59L72.3339 128.35L72.1439 130.41L71.6839 129.03C70.7839 132.39 69.8339 135.91 68.8939 139.43C67.8939 143.17 66.6139 146.86 65.9539 150.65C65.4255 153.515 65.8182 156.474 67.0758 159.103C68.3334 161.731 70.3911 163.894 72.9539 165.28C73.5539 165.65 74.2639 166.34 74.1439 164.86H74.1139ZM81.1139 164.73C80.2467 164.63 79.371 164.63 78.5039 164.73C77.2046 164.968 75.9541 165.421 74.8039 166.07C74.5239 166.23 74.9439 167.59 75.0439 168.4C75.0439 168.45 74.9439 168.52 74.9539 168.57C75.3439 170.85 75.7539 173.14 76.1639 175.49L84.1639 173.91L81.1139 164.73Z" fill="black"/>
<path d="M81.104 164.73L84.154 173.93L76.154 175.51C75.744 173.16 75.334 170.87 74.944 168.59C74.944 168.54 75.034 168.47 75.034 168.42C74.934 167.61 74.514 166.25 74.794 166.09C75.9442 165.441 77.1947 164.988 78.494 164.75C79.3604 164.644 80.2361 164.637 81.104 164.73Z" fill="url(#paint4_linear_0_1)"/>
<path d="M71.7057 162.68C70.1356 161.269 68.9624 159.471 68.3027 157.466C67.643 155.461 67.5199 153.318 67.9456 151.25C67.8507 155.379 69.1783 159.414 71.7057 162.68Z" fill="black"/>
<path d="M74.3746 127.42C74.9046 128.51 75.3746 129.42 75.7646 130.31C75.8646 130.69 76.0046 131.06 76.0846 131.45C76.2546 132.24 76.4246 133.01 76.5846 133.8C77.0546 135.36 77.2946 137 77.5846 138.61C77.2446 137.01 76.9046 135.4 76.5846 133.8C76.1587 132.178 75.3375 130.687 74.1946 129.46C74.2946 130.81 74.4046 132.2 74.5146 133.6C74.1446 132.16 73.7846 130.71 73.4346 129.32C73.3246 129.74 73.2146 130.18 73.1046 130.61L72.3646 128.38C72.2846 129.29 72.2246 129.87 72.1746 130.44L71.7145 129.06L68.9146 139.46C67.9146 143.2 66.6446 146.89 65.9846 150.68C65.4561 153.545 65.8489 156.505 67.1064 159.133C68.364 161.761 70.4218 163.924 72.9846 165.31C73.5746 165.65 74.2846 166.31 74.1646 164.86C74.7346 164.77 75.9846 165.48 75.3346 163.86L76.9346 164.18L76.5146 162.92C76.9646 163.29 77.4246 163.66 77.9146 164.03C77.7046 161.97 77.5146 160.13 77.3246 158.28C77.7946 160.18 78.2546 162.09 78.8746 164.54L79.7546 163.08C80.0046 163.38 80.2446 163.69 80.3946 163.88C81.1946 159.55 82.1246 155.33 82.6746 151.06C83.2259 147.663 83.3803 144.213 83.1346 140.78C82.4646 135.09 79.3846 130.67 74.3746 127.42ZM67.9446 151.25C67.8502 155.383 69.1814 159.423 71.7145 162.69C70.1419 161.278 68.9664 159.48 68.3049 157.472C67.6435 155.465 67.5193 153.32 67.9446 151.25ZM80.9946 141.3L77.2946 131.45C79.4614 134.303 80.7475 137.726 80.9946 141.3Z" fill="url(#paint5_linear_0_1)"/>
<path d="M88.8953 187.33C90.6553 193.14 92.3953 198.95 94.0153 204.78C95.2553 209.24 96.392 213.723 97.4253 218.23C98.5753 223.23 99.5353 228.35 100.625 233.39C101.425 237.11 102.305 240.8 103.155 244.52L106.335 258.42C107.535 263.65 108.765 268.87 109.925 274.11C111.125 279.63 112.215 285.11 113.415 290.67C114.025 293.44 114.755 296.18 115.415 298.96L111.255 299.96C111.255 300.15 111.325 300.35 111.365 300.53L115.605 299.85C117.532 308.89 119.465 317.943 121.405 327.01C121.25 327.187 121.068 327.339 120.865 327.46C120.611 327.54 120.35 327.597 120.085 327.63C117.625 320.18 115.215 312.88 112.775 305.63C111.915 303.05 110.835 300.55 110.065 297.96C106.065 284.78 102.215 271.57 98.2253 258.4C94.1253 244.9 89.6953 231.49 85.8153 217.93C82.7153 207.12 80.2253 196.13 77.4453 185.15C82.2253 183.15 86.5853 182.76 87.3353 184.1C84.4253 184.79 81.1753 184.31 78.6453 186.1C78.7053 186.31 78.7753 186.51 78.8353 186.72C81.1453 186.32 83.4853 186.06 85.7353 185.47C87.6253 184.98 88.4553 185.86 88.8953 187.33Z" fill="url(#paint6_linear_0_1)"/>
<path d="M86.9941 187.92C92.5541 207.44 97.4941 227.26 101.744 247.11C96.1841 227.58 91.2541 207.77 86.9941 187.92Z" fill="#EC3593"/>
<path d="M161.076 165.32C160.029 163.494 159.479 161.425 159.479 159.32C159.479 157.215 160.029 155.147 161.076 153.32C159.703 157.202 159.703 161.438 161.076 165.32Z" fill="black"/>
<path d="M171.174 126.57C172.444 128.22 173.734 129.84 174.964 131.52C178.104 135.84 180.284 140.47 179.964 146.02C179.587 149.954 178.352 153.756 176.344 157.16C175.646 158.635 174.827 160.05 173.894 161.39C170.124 166.23 170.204 171.87 170.134 177.56C170.134 180.27 169.544 182.96 169.274 185.67C169.194 186.47 169.274 187.29 169.274 188.34C168.074 186.16 161.464 185.43 160.174 187.5C160.374 186.18 160.604 185.27 160.644 184.34C160.824 181.08 160.644 177.77 161.154 174.58C161.43 173.044 161.38 171.467 161.008 169.951C160.635 168.435 159.95 167.014 158.994 165.78C156.054 161.55 156.194 156.67 158.554 152.22C160.762 148.399 163.165 144.694 165.754 141.12C167.924 137.92 170.534 134.93 170.994 130.9C171.031 129.532 170.944 128.163 170.734 126.81L171.174 126.57ZM162.694 168.16C163.274 168.25 164.234 169.33 164.114 167.61L165.524 168.43V167.1L166.524 168.59C166.964 166.59 167.364 164.76 167.764 162.95C167.614 164.95 167.464 166.86 167.274 169.38L168.574 168.27L168.934 169.27C171.044 165.41 173.264 161.7 175.124 157.83C176.716 154.773 177.948 151.541 178.794 148.2C179.994 142.57 178.444 137.39 174.714 132.73C174.874 133.94 175.004 134.93 175.124 135.92C175.124 136.314 175.104 136.708 175.064 137.1C174.764 139.92 174.444 142.75 174.134 145.57C174.464 141.9 175.624 138.22 173.894 134.57C173.574 135.89 173.244 137.25 172.894 138.57L173.214 134.16L172.494 135.29V132.94L171.664 134.83V133.37L165.744 142.37C163.614 145.6 161.244 148.7 159.424 152.1C158.018 154.648 157.454 157.576 157.813 160.465C158.173 163.353 159.437 166.054 161.424 168.18C161.884 168.72 162.344 169.59 162.694 168.16ZM169.354 170.23C168.554 169.867 167.715 169.595 166.854 169.42C165.547 169.246 164.22 169.283 162.924 169.53C162.604 169.6 162.584 171.02 162.424 171.82C162.424 171.87 162.284 171.9 162.284 171.96C161.934 174.25 161.604 176.54 161.284 178.91L169.384 179.91L169.354 170.23Z" fill="black"/>
<path d="M169.354 170.22V179.91L161.254 178.91C161.604 176.54 161.934 174.25 162.254 171.96C162.254 171.9 162.384 171.87 162.394 171.82C162.554 171.02 162.574 169.6 162.894 169.53C164.19 169.283 165.516 169.246 166.824 169.42C167.695 169.589 168.544 169.858 169.354 170.22Z" fill="url(#paint7_linear_0_1)"/>
<path d="M174.695 132.68C174.855 133.89 174.985 134.88 175.105 135.87C175.105 136.26 175.105 136.66 175.105 137.05L174.835 139.44C174.74 141.075 174.56 142.704 174.295 144.32C174.485 142.7 174.665 141.07 174.835 139.44C174.943 137.764 174.634 136.087 173.935 134.56C173.605 135.88 173.265 137.23 172.935 138.56C173.035 137.09 173.155 135.56 173.255 134.17C173.015 134.53 172.775 134.91 172.535 135.29V132.94C172.165 133.78 171.935 134.3 171.715 134.83V133.37C169.785 136.28 167.785 139.32 165.775 142.37C163.655 145.6 161.285 148.7 159.465 152.1C158.054 154.647 157.488 157.576 157.847 160.466C158.207 163.355 159.474 166.056 161.465 168.18C161.905 168.69 162.365 169.57 162.725 168.12C163.295 168.22 164.255 169.28 164.135 167.57L165.555 168.39V167.06C165.865 167.55 166.185 168.06 166.555 168.55C167.005 166.55 167.405 164.72 167.805 162.91C167.655 164.91 167.495 166.82 167.315 169.34L168.555 168.26C168.695 168.62 168.835 168.99 168.915 169.26C171.035 165.4 173.245 161.69 175.105 157.81C176.699 154.757 177.931 151.529 178.775 148.19C179.965 142.51 178.435 137.35 174.695 132.68ZM161.095 153.28C159.723 157.162 159.723 161.398 161.095 165.28C160.051 163.453 159.501 161.385 159.501 159.28C159.501 157.175 160.051 155.107 161.095 153.28ZM176.605 147.94L176.195 137.43C177.359 140.817 177.502 144.472 176.605 147.94Z" fill="url(#paint8_linear_0_1)"/>
<path d="M169.635 194.16C169.475 200.22 169.305 206.28 169.005 212.33C168.772 216.95 168.438 221.563 168.005 226.17C167.515 231.31 166.825 236.43 166.275 241.57C165.865 245.35 165.545 249.13 165.175 252.92L163.825 267.12C163.315 272.47 162.825 277.8 162.285 283.12C161.695 288.74 160.995 294.33 160.395 299.94C160.105 302.76 159.945 305.59 159.715 308.44L155.435 308.11C155.435 308.31 155.375 308.5 155.355 308.68L159.595 309.37C158.588 318.557 157.588 327.76 156.595 336.98C156.39 337.101 156.168 337.189 155.935 337.24C155.67 337.235 155.406 337.208 155.145 337.16C155.145 329.31 155.145 321.62 155.145 313.94C155.145 311.23 154.905 308.51 154.985 305.81C155.355 292.05 155.835 278.29 156.185 264.53C156.545 250.43 156.555 236.31 157.135 222.22C157.595 210.98 158.695 199.76 159.515 188.47C164.665 188.1 168.935 189.07 169.225 190.59C166.225 190.32 163.315 188.84 160.345 189.76C160.345 189.98 160.345 190.18 160.345 190.4C162.655 190.75 164.965 191.24 167.285 191.4C169.165 191.49 169.675 192.59 169.635 194.16Z" fill="url(#paint9_linear_0_1)"/>
<path d="M167.645 194.09C166.775 214.36 165.235 234.73 163.025 254.91C163.895 234.62 165.435 214.26 167.645 194.09Z" fill="#FD9D31"/>
<path d="M199.825 154.06C201.085 155.71 202.385 157.34 203.605 159.06C206.745 163.38 208.925 168.01 208.605 173.56C208.243 177.491 207.028 181.296 205.045 184.71C204.337 186.182 203.515 187.597 202.585 188.94C198.815 193.77 198.895 199.42 198.825 205.11C198.825 207.81 198.245 210.51 197.965 213.22C197.885 214.02 197.965 214.84 197.965 215.89C196.765 213.71 190.155 212.97 188.865 215.05C189.075 213.73 189.295 212.81 189.345 211.89C189.515 208.63 189.345 205.32 189.845 202.12C190.122 200.586 190.073 199.011 189.703 197.497C189.333 195.983 188.649 194.563 187.695 193.33C184.695 189.09 184.885 184.22 187.245 179.77C189.456 175.949 191.863 172.244 194.455 168.67C196.615 165.47 199.225 162.48 199.685 158.45C199.726 157.082 199.642 155.713 199.435 154.36L199.825 154.06ZM191.345 195.65C191.915 195.74 192.885 196.81 192.755 195.1L194.165 195.92V194.59L195.165 196.08C195.615 194.08 196.015 192.25 196.415 190.43C196.265 192.43 196.115 194.35 195.925 196.87L197.225 195.75L197.575 196.75C199.695 192.88 201.905 189.18 203.765 185.3C205.359 182.247 206.59 179.019 207.435 175.68C208.635 170.05 207.095 164.87 203.365 160.21C203.515 161.41 203.645 162.4 203.775 163.39C203.775 163.79 203.775 164.18 203.715 164.57C203.405 167.4 203.095 170.22 202.775 173.05C203.105 169.38 204.265 165.7 202.545 162.05C202.215 163.37 201.885 164.73 201.545 166.05L201.855 161.65L201.135 162.78V160.46L200.315 162.36V160.9C198.395 163.81 196.385 166.85 194.385 169.9C192.255 173.13 189.885 176.23 188.065 179.62C186.658 182.17 186.094 185.1 186.453 187.99C186.812 190.88 188.077 193.582 190.065 195.71C190.555 196.22 190.985 197.09 191.345 195.65ZM197.995 197.72C197.198 197.358 196.363 197.086 195.505 196.91C194.194 196.736 192.864 196.773 191.565 197.02C191.255 197.09 191.235 198.51 191.065 199.31C191.065 199.36 190.935 199.39 190.925 199.44C190.585 201.73 190.245 204.03 189.925 206.44L198.015 207.44L197.995 197.72Z" fill="black"/>
<path d="M197.994 197.72V207.41L189.904 206.41C190.244 204.05 190.584 201.75 190.904 199.41C190.904 199.41 191.034 199.33 191.044 199.28C191.214 198.48 191.234 197.06 191.544 196.99C192.843 196.743 194.174 196.706 195.484 196.88C196.35 197.064 197.192 197.346 197.994 197.72Z" fill="url(#paint10_linear_0_1)"/>
<path d="M189.714 192.82C188.668 190.994 188.117 188.925 188.117 186.82C188.117 184.715 188.668 182.647 189.714 180.82C188.342 184.702 188.342 188.938 189.714 192.82Z" fill="black"/>
<path d="M203.334 160.16C203.494 161.36 203.624 162.36 203.754 163.34C203.754 163.73 203.754 164.14 203.694 164.52C203.604 165.33 203.524 166.12 203.434 166.92C203.434 168.55 203.094 170.17 202.894 171.8L203.434 166.92C203.534 165.243 203.222 163.568 202.524 162.04C202.194 163.36 201.864 164.71 201.524 166.04C201.634 164.56 201.744 163.04 201.844 161.64L201.124 162.76V160.42L200.304 162.31V160.85C198.374 163.76 196.374 166.8 194.364 169.85C192.244 173.08 189.874 176.18 188.054 179.57C186.645 182.12 186.08 185.05 186.439 187.94C186.799 190.831 188.064 193.533 190.054 195.66C190.504 196.16 190.954 197.04 191.314 195.6C191.884 195.69 192.844 196.76 192.724 195.05L194.144 195.86V194.54C194.454 195.03 194.774 195.54 195.144 196.02C195.594 194.02 195.994 192.2 196.394 190.39C196.244 192.39 196.084 194.29 195.904 196.82L197.194 195.7C197.334 196.07 197.474 196.44 197.554 196.7C199.674 192.84 201.884 189.12 203.754 185.25C205.34 182.195 206.568 178.967 207.414 175.63C208.604 170.01 207.074 164.84 203.334 160.16ZM189.734 180.76C188.368 184.644 188.368 188.877 189.734 192.76C188.693 190.935 188.146 188.871 188.146 186.77C188.146 184.669 188.693 182.605 189.734 180.78V180.76ZM205.254 175.42L204.834 164.9C206 168.297 206.146 171.961 205.254 175.44V175.42Z" fill="url(#paint11_linear_0_1)"/>
<path d="M198.274 221.62C198.114 227.68 197.944 233.75 197.644 239.79C197.41 244.41 197.077 249.027 196.644 253.64C196.154 258.78 195.464 263.9 194.914 269.03C194.504 272.81 194.184 276.6 193.814 280.39C193.374 285.12 192.914 289.85 192.464 294.58C191.964 299.93 191.464 305.27 190.934 310.58C190.334 316.19 189.634 321.79 189.044 327.4C188.744 330.22 188.584 333.05 188.354 335.9L184.084 335.57C184.084 335.76 184.024 335.96 184.004 336.14L188.234 336.83C187.234 346.017 186.234 355.22 185.234 364.44C185.03 364.561 184.807 364.645 184.574 364.69C184.309 364.684 184.045 364.657 183.784 364.61C183.784 356.76 183.784 349.08 183.784 341.4C183.784 338.68 183.544 335.97 183.624 333.27C183.994 319.51 184.474 305.75 184.824 291.99C185.184 277.88 185.194 263.77 185.824 249.68C186.274 238.44 187.374 227.22 188.194 215.92C193.344 215.56 197.624 216.53 197.904 218.04C194.904 217.78 191.994 216.3 189.024 217.22C189.024 217.43 189.024 217.64 189.024 217.86C191.344 218.2 193.644 218.7 196.024 218.86C197.804 218.99 198.324 220.09 198.274 221.62Z" fill="url(#paint12_linear_0_1)"/>
<path d="M196.285 221.59C196.105 226.67 195.815 231.75 195.515 236.82C195.215 241.89 194.815 246.96 194.515 252.03C194.215 257.1 193.715 262.17 193.245 267.23L192.535 274.82C192.255 277.35 192.015 279.88 191.715 282.4C191.795 279.86 191.935 277.32 192.045 274.78L192.485 267.17C192.785 262.1 193.175 257.03 193.485 251.96C193.795 246.89 194.285 241.82 194.755 236.76C195.225 231.7 195.695 226.64 196.285 221.59Z" fill="url(#paint13_linear_0_1)"/>
<path d="M135.664 146.04C136.924 147.69 138.224 149.32 139.444 151.04C142.584 155.36 144.764 160.04 144.444 165.54C144.082 169.471 142.867 173.276 140.884 176.69C140.177 178.162 139.354 179.577 138.424 180.92C134.654 185.75 134.734 191.4 134.664 197.09C134.664 199.79 134.084 202.49 133.804 205.2C133.724 206 133.804 206.82 133.804 207.87C132.604 205.69 125.994 204.95 124.704 207.03C124.914 205.71 125.134 204.79 125.184 203.87C125.354 200.61 125.184 197.3 125.684 194.1C125.961 192.566 125.912 190.991 125.542 189.477C125.172 187.963 124.488 186.543 123.534 185.31C120.584 181.08 120.724 176.2 123.084 171.75C125.295 167.928 127.702 164.224 130.294 160.65C132.454 157.45 135.064 154.46 135.524 150.43C135.565 149.062 135.481 147.693 135.274 146.34L135.664 146.04ZM127.184 187.63C127.754 187.72 128.724 188.79 128.594 187.08L130.004 187.9V186.57L131.004 188.06C131.454 186.06 131.854 184.23 132.254 182.41C132.104 184.41 131.954 186.33 131.764 188.85L133.064 187.73L133.414 188.73C135.534 184.86 137.744 181.16 139.604 177.28C141.202 174.229 142.434 171 143.274 167.66C144.474 162.03 142.934 156.85 139.204 152.19C139.354 153.39 139.484 154.38 139.614 155.37C139.614 155.77 139.614 156.16 139.554 156.55C139.244 159.38 138.934 162.2 138.614 165.03C138.944 161.36 140.104 157.68 138.384 154.03C138.054 155.35 137.724 156.71 137.384 158.03L137.694 153.63L136.974 154.76V152.4L136.154 154.3V152.84C134.234 155.75 132.224 158.79 130.224 161.84C128.094 165.07 125.734 168.17 123.904 171.56C122.497 174.11 121.933 177.04 122.292 179.93C122.651 182.82 123.916 185.522 125.904 187.65C126.364 188.16 126.824 189.07 127.184 187.63ZM133.834 189.7C133.037 189.338 132.202 189.066 131.344 188.89C130.034 188.716 128.703 188.753 127.404 189C127.094 189.07 127.074 190.49 126.904 191.29C126.904 191.34 126.774 191.37 126.764 191.42C126.424 193.71 126.084 196.01 125.764 198.37L133.854 199.37L133.834 189.7Z" fill="black"/>
<path d="M133.834 189.7V199.39L125.744 198.39C126.084 196.03 126.424 193.73 126.744 191.44C126.744 191.39 126.874 191.36 126.884 191.31C127.054 190.51 127.074 189.09 127.384 189.02C128.683 188.773 130.013 188.736 131.324 188.91C132.188 189.078 133.03 189.343 133.834 189.7Z" fill="url(#paint14_linear_0_1)"/>
<path d="M125.555 184.8C124.51 182.973 123.961 180.905 123.961 178.8C123.961 176.695 124.51 174.627 125.555 172.8C124.182 176.682 124.182 180.918 125.555 184.8Z" fill="black"/>
<path d="M139.176 152.16C139.336 153.36 139.466 154.36 139.596 155.34C139.596 155.73 139.596 156.14 139.536 156.52C139.446 157.33 139.366 158.12 139.276 158.92C139.226 160.55 138.936 162.17 138.736 163.8L139.276 158.92C139.376 157.243 139.063 155.568 138.366 154.04C138.036 155.36 137.706 156.71 137.366 158.04C137.476 156.56 137.586 155.04 137.696 153.64C137.446 154.01 137.206 154.39 136.966 154.76V152.42L136.146 154.31V152.85C134.216 155.76 132.216 158.8 130.206 161.85C128.086 165.08 125.716 168.18 123.896 171.57C122.487 174.12 121.922 177.05 122.281 179.94C122.64 182.831 123.906 185.533 125.896 187.66C126.346 188.16 126.796 189.04 127.156 187.6C127.726 187.69 128.686 188.76 128.566 187.05L129.986 187.86V186.54C130.296 187.03 130.616 187.54 130.986 188.02C131.436 186.02 131.836 184.2 132.236 182.39C132.086 184.34 131.926 186.29 131.746 188.82L133.036 187.7C133.176 188.07 133.316 188.44 133.396 188.7C135.516 184.84 137.726 181.12 139.596 177.25C141.186 174.197 142.414 170.968 143.256 167.63C144.446 161.99 142.916 156.82 139.176 152.16ZM125.556 172.76C124.183 176.642 124.183 180.878 125.556 184.76C124.509 182.934 123.959 180.865 123.959 178.76C123.959 176.655 124.509 174.587 125.556 172.76ZM141.066 167.42L140.656 156.9C141.819 160.29 141.972 163.945 141.096 167.42H141.066Z" fill="url(#paint15_linear_0_1)"/>
<path d="M134.116 213.6C133.956 219.66 133.786 225.73 133.486 231.77C133.259 236.39 132.926 241.007 132.486 245.62C131.996 250.76 131.306 255.88 130.756 261.01C130.346 264.79 130.026 268.58 129.656 272.37C129.216 277.1 128.756 281.83 128.306 286.56C127.806 291.91 127.306 297.25 126.776 302.56C126.176 308.17 125.476 313.77 124.886 319.38C124.586 322.2 124.426 325.03 124.196 327.88L119.926 327.55C119.926 327.74 119.866 327.94 119.846 328.12L124.076 328.81C123.076 338.003 122.076 347.207 121.076 356.42C120.872 356.541 120.648 356.625 120.416 356.67C120.151 356.664 119.886 356.637 119.626 356.59C119.626 348.74 119.626 341.06 119.626 333.38C119.626 330.67 119.386 327.95 119.466 325.25C119.836 311.49 120.316 297.73 120.676 283.97C121.026 269.86 121.036 255.75 121.626 241.66C122.086 230.42 123.176 219.2 123.996 207.9C129.146 207.54 133.426 208.51 133.706 210.02C130.706 209.76 127.796 208.28 124.826 209.2C124.826 209.41 124.826 209.62 124.826 209.84C127.146 210.18 129.446 210.68 131.776 210.84C133.646 210.97 134.166 212.07 134.116 213.6Z" fill="url(#paint16_linear_0_1)"/>
<path d="M132.125 213.57C131.945 218.65 131.655 223.73 131.355 228.8C131.055 233.87 130.655 238.94 130.355 244.01C130.055 249.08 129.555 254.15 129.085 259.21L128.375 266.8C128.095 269.33 127.855 271.86 127.555 274.38C127.635 271.84 127.775 269.3 127.885 266.76L128.325 259.15C128.625 254.08 129.015 249.01 129.325 243.94C129.635 238.87 130.125 233.8 130.595 228.74C131.065 223.68 131.555 218.62 132.125 213.57Z" fill="url(#paint17_linear_0_1)"/>
<path d="M107.095 100.21C106.931 101.57 106.891 102.943 106.975 104.31C107.565 108.31 110.275 111.22 112.535 114.31C115.246 117.794 117.769 121.419 120.095 125.17C122.605 129.54 122.905 134.41 120.095 138.74C119.184 140.005 118.548 141.447 118.228 142.973C117.907 144.499 117.91 146.075 118.235 147.6C118.845 150.78 118.775 154.09 119.055 157.34C119.135 158.26 119.385 159.17 119.635 160.49C118.275 158.49 111.695 159.41 110.565 161.62C110.577 160.729 110.544 159.838 110.465 158.95C110.105 156.26 109.465 153.58 109.345 150.87C109.085 145.19 108.985 139.55 105.065 134.87C104.083 133.566 103.213 132.181 102.465 130.73C100.378 127.39 99.0403 123.637 98.5454 119.73C97.9954 114.19 100.015 109.5 103.015 105.08C104.185 103.36 105.425 101.69 106.635 100L107.095 100.21ZM117.725 141.28C119.642 139.094 120.819 136.359 121.091 133.465C121.362 130.57 120.712 127.664 119.235 125.16C117.295 121.83 114.825 118.81 112.595 115.65L106.385 106.85V108.31L105.505 106.44L105.575 108.79L104.825 107.69L105.285 112.08L104.155 108.08C102.555 111.76 103.835 115.4 104.275 119.08C103.875 116.27 103.465 113.46 103.065 110.64C103.065 110.25 103.005 109.86 102.975 109.46C103.065 108.46 103.165 107.46 103.275 106.27C99.7054 111.05 98.2754 116.27 99.7154 121.86C100.666 125.175 102.008 128.364 103.715 131.36C105.715 135.17 108.035 138.8 110.275 142.6L110.595 141.6L111.935 142.67C111.655 140.16 111.445 138.21 111.235 136.26C111.695 138.06 112.145 139.86 112.665 141.86L113.585 140.34L113.635 141.67L115.015 140.8C114.945 142.52 115.875 141.42 116.445 141.31C116.865 142.69 117.305 141.8 117.725 141.28ZM110.205 153.23L118.255 151.95C117.835 149.59 117.425 147.31 117.005 145.04C117.005 144.98 116.875 144.96 116.865 144.9C116.675 144.11 116.605 142.69 116.285 142.63C114.984 142.42 113.657 142.42 112.355 142.63C111.502 142.835 110.673 143.133 109.885 143.52L110.205 153.23Z" fill="black"/>
<path d="M109.885 143.54L110.205 153.23L118.255 151.95C117.835 149.59 117.425 147.31 117.005 145.04C117.005 144.98 116.875 144.96 116.865 144.9C116.675 144.11 116.605 142.69 116.285 142.63C114.983 142.42 113.656 142.42 112.355 142.63C111.5 142.841 110.672 143.146 109.885 143.54Z" fill="url(#paint18_linear_0_1)"/>
<path d="M118.004 138.37C118.988 136.507 119.467 134.419 119.394 132.314C119.32 130.209 118.696 128.159 117.584 126.37C119.093 130.204 119.242 134.44 118.004 138.37Z" fill="black"/>
<path d="M99.7454 121.79C100.704 125.102 102.047 128.29 103.745 131.29C105.745 135.1 108.075 138.74 110.315 142.53C110.385 142.3 110.515 141.92 110.635 141.53L111.965 142.6C111.705 140.09 111.475 138.14 111.265 136.19L112.695 141.79C113.025 141.27 113.335 140.79 113.625 140.27V141.6L115.025 140.74C114.945 142.45 115.875 141.35 116.445 141.24C116.845 142.67 117.275 141.77 117.705 141.24C119.616 139.059 120.792 136.333 121.066 133.447C121.341 130.561 120.7 127.662 119.235 125.16C117.295 121.83 114.825 118.81 112.605 115.65L106.375 106.85V108.31C106.125 107.79 105.885 107.31 105.485 106.44L105.565 108.79C105.315 108.42 105.065 108.05 104.805 107.69C104.955 109.12 105.125 110.6 105.275 112.08L104.145 108.08C103.498 109.631 103.241 111.317 103.395 112.99C103.625 114.61 103.865 116.23 104.095 117.85C103.835 116.23 103.495 114.61 103.395 112.99C103.285 112.19 103.175 111.4 103.055 110.6C102.995 110.22 102.995 109.81 102.965 109.43C103.055 108.43 103.145 107.43 103.275 106.23C99.7353 110.98 98.3754 116.16 99.7454 121.79ZM118.005 138.38C119.243 134.45 119.095 130.214 117.585 126.38C118.694 128.171 119.315 130.22 119.389 132.324C119.463 134.429 118.986 136.516 118.005 138.38ZM102.005 110.99L101.935 121.51C100.923 118.074 100.937 114.418 101.975 110.99H102.005Z" fill="url(#paint19_linear_0_1)"/>
<path d="M110.385 167.45C110.745 173.45 111.115 179.55 111.605 185.59C111.985 190.19 112.475 194.8 113.055 199.39C113.715 204.51 114.575 209.61 115.285 214.72C115.825 218.48 116.285 222.25 116.755 226.03C117.355 230.783 117.955 235.493 118.555 240.16C119.225 245.49 119.885 250.81 120.605 256.16C121.385 261.75 122.265 267.31 123.045 272.9C123.435 275.71 123.685 278.53 124.045 281.38C125.575 281.21 126.935 281.05 128.305 280.91C128.305 281.1 128.375 281.29 128.395 281.48C127.115 281.74 125.825 281.98 124.185 282.3C125.495 291.45 126.815 300.64 128.125 309.8C128.33 309.916 128.553 309.994 128.785 310.03C129.048 310.018 129.31 309.981 129.565 309.92C129.315 302.08 129.055 294.4 128.825 286.72C128.745 284.01 128.885 281.29 128.715 278.59C127.905 264.85 126.975 251.11 126.165 237.37C125.355 223.29 124.885 209.18 123.835 195.11C123.015 183.89 121.545 172.72 120.365 161.46C115.205 161.26 110.965 162.37 110.725 163.89C113.725 163.53 116.575 161.96 119.575 162.78C119.575 162.99 119.575 163.2 119.575 163.42C117.275 163.84 114.985 164.42 112.665 164.63C110.765 164.8 110.285 165.91 110.385 167.45Z" fill="url(#paint20_linear_0_1)"/>
<path d="M112.375 167.34C113.125 172.34 113.775 177.42 114.375 182.46C114.975 187.5 115.545 192.56 116.135 197.61C116.725 202.66 117.205 207.72 117.675 212.78L118.355 220.37C118.555 222.91 118.775 225.44 118.935 227.98C118.555 225.46 118.225 222.98 117.875 220.42L116.875 212.86C116.245 207.86 115.705 202.76 115.115 197.71C114.525 192.66 114.045 187.6 113.585 182.54C113.125 177.48 112.715 172.42 112.375 167.34Z" fill="url(#paint21_linear_0_1)"/>
<path d="M172.114 338.16C170.74 339.454 169.435 340.819 168.204 342.25C167.348 343.27 166.771 344.494 166.529 345.803C166.287 347.112 166.389 348.462 166.824 349.72C167.052 350.476 167.502 351.147 168.115 351.644C168.729 352.142 169.477 352.443 170.264 352.51C171.133 352.58 172.006 352.58 172.874 352.51C173.734 352.51 174.594 352.34 175.444 352.35C176.016 352.322 176.588 352.409 177.125 352.607C177.662 352.804 178.154 353.108 178.572 353.5C178.989 353.892 179.323 354.364 179.554 354.888C179.784 355.412 179.907 355.978 179.914 356.55C180.002 357.634 179.837 358.723 179.43 359.731C179.024 360.74 178.389 361.64 177.574 362.36C176.042 363.728 174.337 364.891 172.504 365.82C170.656 366.754 168.955 367.954 167.454 369.38C166.591 370.166 165.932 371.15 165.534 372.248C165.137 373.346 165.013 374.524 165.174 375.68C165.412 377.132 165.999 378.505 166.884 379.68C168.644 382.02 171.024 383.822 173.754 384.88C175.984 385.82 178.244 386.67 180.464 387.63C182.84 388.533 184.947 390.026 186.584 391.97C187.563 393.194 188.262 394.617 188.634 396.14C189.048 397.529 188.966 399.019 188.402 400.354C187.838 401.69 186.828 402.787 185.544 403.46C184.214 404.24 182.824 404.91 181.544 405.7C180.401 406.306 179.48 407.259 178.912 408.421C178.344 409.584 178.16 410.896 178.384 412.17C178.647 413.953 179.141 415.695 179.854 417.35C180.891 419.762 181.587 422.306 181.924 424.91C182.597 430.651 181.083 436.435 177.684 441.11C176.307 443.063 174.378 444.56 172.144 445.41C170.671 446.086 168.989 446.15 167.469 445.587C165.948 445.025 164.713 443.882 164.034 442.41C163.124 440.7 162.484 438.86 161.744 437.07C160.172 433.061 157.521 429.565 154.084 426.97C152.885 426.084 151.527 425.436 150.084 425.06C148.916 424.757 147.692 424.733 146.513 424.99C145.333 425.248 144.231 425.778 143.294 426.54C141.551 427.927 139.976 429.515 138.604 431.27C136.678 433.51 134.738 435.74 132.784 437.96C130.831 440.18 128.891 442.37 126.964 444.53C125.938 445.729 124.746 446.776 123.424 447.64C120.194 449.64 116.784 448.77 115.004 445.37C113.837 443.051 113.391 440.435 113.724 437.86C113.964 435.58 114.314 433.31 114.514 431.03C114.773 428.975 114.425 426.89 113.514 425.03C112.382 422.955 110.534 421.363 108.314 420.55C105.759 419.577 103.048 419.076 100.314 419.07C97.8543 418.97 95.3843 418.9 92.9343 418.68C90.3897 418.526 87.9505 417.61 85.9343 416.05C84.7703 415.156 83.8149 414.02 83.1343 412.72C82.5129 411.523 82.2755 410.164 82.4545 408.827C82.6334 407.49 83.22 406.241 84.1343 405.25C85.4703 403.885 86.972 402.692 88.6043 401.7C90.0243 400.7 91.4843 399.77 92.8143 398.7C94.0949 397.669 95.0665 396.305 95.6223 394.758C96.178 393.211 96.2963 391.54 95.9642 389.93C95.5628 387.408 94.5309 385.027 92.9642 383.01C91.0425 380.633 88.9179 378.429 86.6143 376.42C84.1293 374.275 82.0115 371.738 80.3442 368.91C79.329 367.152 78.7656 365.169 78.7043 363.14C78.6409 361.586 79.0068 360.044 79.7618 358.684C80.5168 357.324 81.6317 356.198 82.9843 355.43C84.0218 354.776 85.2413 354.47 86.4647 354.558C87.6881 354.647 88.8513 355.124 89.7843 355.92C91.0443 356.85 92.1443 357.99 93.3543 358.99C94.2851 359.837 95.289 360.6 96.3543 361.27C97.4021 361.901 98.6246 362.181 99.8428 362.068C101.061 361.954 102.211 361.454 103.124 360.64C105.262 358.924 106.687 356.476 107.124 353.77C107.469 351.453 107.609 349.111 107.544 346.77C107.502 344.845 107.667 342.92 108.034 341.03C108.292 339.632 108.837 338.303 109.636 337.127C110.435 335.951 111.47 334.954 112.674 334.2C113.807 333.436 115.181 333.115 116.535 333.3C117.889 333.484 119.127 334.161 120.014 335.2C121.185 336.479 122.267 337.835 123.254 339.26C126.484 343.85 130.874 344.34 134.984 343.26C138.137 342.393 140.958 340.603 143.084 338.12C145.528 335.164 147.666 331.968 149.464 328.58C150.923 325.899 152.645 323.37 154.604 321.03C156.682 318.439 159.458 316.496 162.604 315.43C164.716 314.742 166.978 314.653 169.137 315.174C171.296 315.695 173.268 316.805 174.834 318.38C179.594 322.75 179.654 330.74 175.294 335.38C174.294 336.38 173.294 337.38 172.294 338.38L172.114 338.16Z" fill="url(#paint22_linear_0_1)"/>
<path d="M126.435 386.95C124.545 386.999 122.659 387.149 120.785 387.4C119.467 387.589 118.222 388.117 117.17 388.932C116.118 389.747 115.296 390.822 114.785 392.05C114.45 392.765 114.338 393.563 114.463 394.343C114.588 395.122 114.944 395.846 115.485 396.42C116.103 397.053 116.772 397.635 117.485 398.16C118.145 398.71 118.875 399.16 119.485 399.75C119.93 400.11 120.297 400.557 120.566 401.062C120.834 401.568 120.998 402.122 121.048 402.692C121.097 403.263 121.031 403.837 120.854 404.381C120.676 404.926 120.391 405.429 120.015 405.86C119.359 406.728 118.509 407.432 117.533 407.914C116.558 408.397 115.483 408.645 114.395 408.64C112.342 408.634 110.299 408.366 108.315 407.84C106.313 407.306 104.245 407.064 102.175 407.12C101.006 407.134 99.859 407.431 98.8312 407.987C97.8034 408.543 96.926 409.34 96.2747 410.31C95.4816 411.549 95.0043 412.964 94.8847 414.43C94.6364 417.347 95.2115 420.274 96.5447 422.88C97.5447 425.07 98.6947 427.21 99.7147 429.41C100.884 431.665 101.459 434.181 101.385 436.72C101.299 438.283 100.873 439.809 100.135 441.19C99.5177 442.501 98.4642 443.557 97.1544 444.178C95.8447 444.798 94.3601 444.944 92.9547 444.59C91.4447 444.29 89.9547 443.86 88.4447 443.59C87.1871 443.281 85.8638 443.379 84.6652 443.869C83.4667 444.36 82.4546 445.218 81.7747 446.32C80.7824 447.821 79.9891 449.445 79.4147 451.15C78.5843 453.637 77.4059 455.994 75.9147 458.15C72.5812 462.89 67.5813 466.197 61.9147 467.41C59.5846 467.948 57.1471 467.777 54.9147 466.92C53.3663 466.447 52.0686 465.379 51.3057 463.951C50.5429 462.523 50.3771 460.85 50.8447 459.3C51.3047 457.42 52.0547 455.62 52.6947 453.79C54.1816 449.752 54.5276 445.382 53.6947 441.16C53.3954 439.708 52.8218 438.327 52.0047 437.09C51.3394 436.093 50.4506 435.264 49.4091 434.671C48.3675 434.077 47.2019 433.734 46.0047 433.67C43.78 433.543 41.5481 433.677 39.3547 434.07C36.4247 434.45 33.4947 434.83 30.5547 435.18C27.6147 435.53 24.7447 435.88 21.8347 436.18C20.2724 436.4 18.687 436.4 17.1247 436.18C13.3647 435.53 11.4247 432.58 12.3647 428.87C13.0268 426.37 14.4195 424.124 16.3647 422.42C18.0647 420.88 19.8347 419.42 21.5047 417.85C23.0574 416.485 24.1825 414.7 24.7447 412.71C25.2776 410.41 24.9615 407.995 23.8547 405.91C22.5919 403.484 20.8975 401.309 18.8547 399.49C17.0847 397.77 15.2947 396.07 13.6147 394.27C11.8374 392.465 10.6396 390.17 10.1747 387.68C9.90143 386.237 9.94924 384.752 10.3147 383.33C10.6422 382.023 11.3673 380.849 12.3901 379.972C13.4128 379.094 14.6828 378.555 16.0247 378.43C17.931 378.3 19.8461 378.411 21.7247 378.76C23.4347 378.98 25.1647 379.24 26.8847 379.3C28.5267 379.379 30.159 379.008 31.6046 378.225C33.0501 377.442 34.2537 376.278 35.0847 374.86C36.4582 372.706 37.2664 370.24 37.4347 367.69C37.5866 364.636 37.4728 361.574 37.0947 358.54C36.6739 355.287 36.7854 351.987 37.4247 348.77C37.8379 346.781 38.7381 344.926 40.0447 343.37C41.0329 342.168 42.333 341.262 43.8024 340.75C45.2719 340.239 46.8538 340.142 48.3747 340.47C49.5841 340.674 50.6964 341.26 51.5492 342.142C52.402 343.023 52.9505 344.155 53.1147 345.37C53.4447 346.9 53.4947 348.49 53.7347 350.04C53.8717 351.303 54.1227 352.552 54.4847 353.77C54.8526 354.932 55.5813 355.946 56.565 356.665C57.5487 357.385 58.7361 357.772 59.9547 357.77C62.6878 357.901 65.3729 357.018 67.4947 355.29C69.3079 353.799 70.9815 352.145 72.4947 350.35C73.7475 348.87 75.1555 347.529 76.6947 346.35C77.8167 345.48 79.1073 344.853 80.4845 344.509C81.8617 344.165 83.2954 344.111 84.6947 344.35C86.049 344.531 87.2893 345.204 88.1799 346.24C89.0704 347.277 89.549 348.604 89.5247 349.97C89.5394 351.701 89.4392 353.432 89.2247 355.15C88.5847 360.73 91.5247 364.02 95.3147 365.95C98.2409 367.405 101.536 367.948 104.775 367.51C108.566 366.94 112.289 365.981 115.885 364.65C118.762 363.628 121.733 362.891 124.755 362.45C128.07 361.894 131.474 362.315 134.555 363.66C136.588 364.555 138.332 365.996 139.595 367.823C140.857 369.65 141.587 371.792 141.705 374.01C142.345 380.44 137.065 386.43 130.705 387.01C129.295 387.13 127.875 387.13 126.465 387.18L126.435 386.95Z" fill="url(#paint23_linear_0_1)"/>
<path d="M277.555 407.31C275.669 407.351 273.786 407.498 271.915 407.75C270.598 407.94 269.353 408.468 268.302 409.283C267.25 410.098 266.428 411.172 265.915 412.4C265.58 413.114 265.467 413.913 265.592 414.693C265.717 415.472 266.073 416.196 266.615 416.77C267.236 417.401 267.904 417.983 268.615 418.51C269.275 419.06 270.005 419.51 270.615 420.11C271.062 420.468 271.432 420.912 271.702 421.417C271.972 421.922 272.137 422.476 272.186 423.047C272.236 423.617 272.169 424.191 271.99 424.735C271.811 425.279 271.524 425.781 271.145 426.21C270.49 427.077 269.642 427.78 268.668 428.262C267.695 428.745 266.622 428.994 265.535 428.99C263.483 428.985 261.439 428.716 259.455 428.19C257.454 427.657 255.386 427.415 253.315 427.47C252.148 427.486 251.001 427.785 249.974 428.341C248.946 428.896 248.069 429.692 247.415 430.66C246.622 431.899 246.145 433.314 246.025 434.78C245.773 437.7 246.348 440.632 247.685 443.24C248.685 445.42 249.835 447.56 250.845 449.76C252.022 452.012 252.601 454.53 252.525 457.07C252.435 458.633 252.009 460.157 251.275 461.54C250.661 462.854 249.608 463.912 248.298 464.533C246.987 465.154 245.501 465.298 244.095 464.94C242.575 464.64 241.095 464.21 239.585 463.94C238.328 463.634 237.006 463.733 235.808 464.223C234.61 464.714 233.597 465.57 232.915 466.67C231.923 468.171 231.13 469.795 230.555 471.5C229.725 473.987 228.547 476.344 227.055 478.5C223.722 483.24 218.722 486.547 213.055 487.76C210.725 488.294 208.289 488.124 206.055 487.27C204.507 486.797 203.209 485.729 202.446 484.301C201.683 482.873 201.518 481.2 201.985 479.65C202.455 477.78 203.205 475.97 203.835 474.14C205.332 470.104 205.678 465.731 204.835 461.51C204.538 460.059 203.968 458.678 203.155 457.44C202.49 456.443 201.601 455.614 200.56 455.021C199.518 454.427 198.352 454.084 197.155 454.02C194.931 453.893 192.699 454.027 190.505 454.42C187.575 454.8 184.635 455.18 181.705 455.53C178.775 455.88 175.895 456.23 172.985 456.53C171.423 456.755 169.837 456.755 168.275 456.53C167.44 456.451 166.634 456.185 165.916 455.751C165.199 455.317 164.588 454.727 164.131 454.024C163.673 453.321 163.38 452.524 163.274 451.692C163.167 450.861 163.25 450.015 163.515 449.22C164.186 446.712 165.597 444.464 167.565 442.77C169.255 441.23 171.035 439.77 172.705 438.21C174.253 436.836 175.377 435.05 175.945 433.06C176.48 430.759 176.16 428.343 175.045 426.26C173.783 423.834 172.089 421.658 170.045 419.84C168.275 418.12 166.485 416.43 164.805 414.62C163.024 412.818 161.826 410.522 161.365 408.03C161.093 406.588 161.137 405.104 161.495 403.68C161.827 402.373 162.555 401.201 163.579 400.324C164.603 399.447 165.873 398.908 167.215 398.78C169.122 398.65 171.037 398.761 172.915 399.11C174.625 399.33 176.345 399.59 178.075 399.65C179.716 399.728 181.346 399.355 182.79 398.572C184.233 397.79 185.435 396.627 186.265 395.21C187.646 393.058 188.458 390.591 188.625 388.04C188.779 384.989 188.662 381.93 188.275 378.9C187.863 375.643 187.978 372.341 188.615 369.12C189.027 367.13 189.927 365.274 191.235 363.72C192.223 362.518 193.524 361.612 194.993 361.1C196.463 360.589 198.044 360.492 199.565 360.82C200.774 361.026 201.886 361.612 202.738 362.493C203.591 363.375 204.14 364.505 204.305 365.72C204.625 367.25 204.685 368.84 204.925 370.4C205.063 371.66 205.314 372.905 205.675 374.12C206.043 375.282 206.772 376.296 207.756 377.015C208.739 377.735 209.927 378.122 211.145 378.12C213.878 378.25 216.563 377.367 218.685 375.64C220.499 374.149 222.172 372.495 223.685 370.7C224.94 369.24 226.344 367.916 227.875 366.75C228.998 365.883 230.289 365.257 231.666 364.913C233.043 364.569 234.476 364.513 235.875 364.75C237.23 364.929 238.47 365.602 239.359 366.639C240.249 367.676 240.724 369.004 240.695 370.37C240.718 372.101 240.621 373.832 240.405 375.55C239.765 381.13 242.705 384.42 246.495 386.35C249.42 387.81 252.717 388.353 255.955 387.91C259.747 387.339 263.469 386.38 267.065 385.05C269.943 384.028 272.914 383.291 275.935 382.85C279.205 382.296 282.564 382.692 285.615 383.99C287.648 384.885 289.393 386.326 290.655 388.153C291.918 389.98 292.648 392.122 292.765 394.34C293.405 400.77 288.125 406.76 281.765 407.34C280.365 407.46 278.945 407.46 277.525 407.51L277.555 407.31Z" fill="url(#paint24_linear_0_1)"/>
<path d="M171.646 246.71C125.146 246.71 87.4355 240.05 87.4355 231.82V386.16C87.4375 389.466 88.6045 392.666 90.7314 395.197C92.8583 397.728 95.8092 399.429 99.0656 400C147.464 408.499 196.977 408.441 245.356 399.83C248.294 399.304 250.953 397.762 252.869 395.473C254.785 393.185 255.835 390.295 255.836 387.31V231.82C255.856 240.05 218.156 246.71 171.646 246.71Z" fill="url(#paint25_linear_0_1)"/>
<path opacity="0.1" d="M292.93 0H33.07C14.806 0 0 14.806 0 33.07V482.93C0 501.194 14.806 516 33.07 516H292.93C311.194 516 326 501.194 326 482.93V33.07C326 14.806 311.194 0 292.93 0Z" fill="white"/>
<defs>
<linearGradient id="paint0_linear_0_1" x1="42.6855" y1="231.82" x2="367.786" y2="231.82" gradientUnits="userSpaceOnUse">
<stop/>
<stop offset="0.02" stop-color="#0C0C0C"/>
<stop offset="0.14" stop-color="#444444"/>
<stop offset="0.25" stop-color="#767676"/>
<stop offset="0.37" stop-color="#A0A0A0"/>
<stop offset="0.49" stop-color="#C2C2C2"/>
<stop offset="0.61" stop-color="#DDDDDD"/>
<stop offset="0.73" stop-color="#F0F0F0"/>
<stop offset="0.86" stop-color="#FBFBFB"/>
<stop offset="1" stop-color="white"/>
</linearGradient>
<linearGradient id="paint1_linear_0_1" x1="191.275" y1="269.138" x2="177.457" y2="263.993" gradientUnits="userSpaceOnUse">
<stop stop-color="#101111"/>
<stop offset="0.31" stop-color="#141515"/>
<stop offset="0.63" stop-color="#212121"/>
<stop offset="0.92" stop-color="#333333"/>
</linearGradient>
<linearGradient id="paint2_linear_0_1" x1="213.534" y1="182.682" x2="205.681" y2="180.603" gradientUnits="userSpaceOnUse">
<stop stop-color="#101111"/>
<stop offset="0.31" stop-color="#141515"/>
<stop offset="0.63" stop-color="#212121"/>
<stop offset="0.92" stop-color="#333333"/>
</linearGradient>
<linearGradient id="paint3_linear_0_1" x1="215.395" y1="128.007" x2="219.213" y2="194.707" gradientUnits="userSpaceOnUse">
<stop offset="0.02"/>
<stop offset="0.25" stop-color="#123442"/>
<stop offset="0.52" stop-color="#256E8A"/>
<stop offset="0.74" stop-color="#3397BF"/>
<stop offset="0.91" stop-color="#3CB1E0"/>
<stop offset="1" stop-color="#3FBBEC"/>
</linearGradient>
<linearGradient id="paint4_linear_0_1" x1="77.3573" y1="170.079" x2="85.2533" y2="168.283" gradientUnits="userSpaceOnUse">
<stop stop-color="#101111"/>
<stop offset="0.31" stop-color="#141515"/>
<stop offset="0.63" stop-color="#212121"/>
<stop offset="0.92" stop-color="#333333"/>
</linearGradient>
<linearGradient id="paint5_linear_0_1" x1="74.148" y1="164.463" x2="75.5224" y2="58.3301" gradientUnits="userSpaceOnUse">
<stop stop-color="#EC3593"/>
<stop offset="0.15" stop-color="#91215A"/>
<stop offset="0.28" stop-color="#430F2A"/>
<stop offset="0.38" stop-color="#13040C"/>
<stop offset="0.43"/>
</linearGradient>
<linearGradient id="paint6_linear_0_1" x1="96.4032" y1="257.022" x2="110.357" y2="252.397" gradientUnits="userSpaceOnUse">
<stop stop-color="#101111"/>
<stop offset="0.31" stop-color="#141515"/>
<stop offset="0.63" stop-color="#212121"/>
<stop offset="0.92" stop-color="#333333"/>
</linearGradient>
<linearGradient id="paint7_linear_0_1" x1="164.214" y1="174.28" x2="172.264" y2="175.07" gradientUnits="userSpaceOnUse">
<stop stop-color="#101111"/>
<stop offset="0.31" stop-color="#141515"/>
<stop offset="0.63" stop-color="#212121"/>
<stop offset="0.92" stop-color="#333333"/>
</linearGradient>
<linearGradient id="paint8_linear_0_1" x1="161.115" y1="173.18" x2="177.735" y2="125.16" gradientUnits="userSpaceOnUse">
<stop stop-color="#FD9D31"/>
<stop offset="0.09" stop-color="#F0952F"/>
<stop offset="0.25" stop-color="#CF8028"/>
<stop offset="0.47" stop-color="#995F1E"/>
<stop offset="0.74" stop-color="#4F310F"/>
<stop offset="1"/>
</linearGradient>
<linearGradient id="paint9_linear_0_1" x1="154.925" y1="262.8" x2="169.635" y2="262.8" gradientUnits="userSpaceOnUse">
<stop stop-color="#101111"/>
<stop offset="0.31" stop-color="#141515"/>
<stop offset="0.63" stop-color="#212121"/>
<stop offset="0.92" stop-color="#333333"/>
</linearGradient>
<linearGradient id="paint10_linear_0_1" x1="189.094" y1="201.41" x2="215.954" y2="204.04" gradientUnits="userSpaceOnUse">
<stop stop-color="#EC3593"/>
<stop offset="0.15" stop-color="#91215A"/>
<stop offset="0.28" stop-color="#430F2A"/>
<stop offset="0.38" stop-color="#13040C"/>
<stop offset="0.43"/>
</linearGradient>
<linearGradient id="paint11_linear_0_1" x1="230.144" y1="34.2" x2="188.014" y2="219.07" gradientUnits="userSpaceOnUse">
<stop offset="0.21" stop-color="#101111"/>
<stop offset="0.45" stop-color="#141515"/>
<stop offset="0.7" stop-color="#212121"/>
<stop offset="0.92" stop-color="#333333"/>
</linearGradient>
<linearGradient id="paint12_linear_0_1" x1="181.084" y1="289.81" x2="227.394" y2="293.17" gradientUnits="userSpaceOnUse">
<stop stop-color="#EC3593"/>
<stop offset="0.15" stop-color="#91215A"/>
<stop offset="0.28" stop-color="#430F2A"/>
<stop offset="0.38" stop-color="#13040C"/>
<stop offset="0.43"/>
</linearGradient>
<linearGradient id="paint13_linear_0_1" x1="191.175" y1="251.99" x2="196.785" y2="251.99" gradientUnits="userSpaceOnUse">
<stop stop-color="#101111"/>
<stop offset="0.31" stop-color="#141515"/>
<stop offset="0.63" stop-color="#212121"/>
<stop offset="0.92" stop-color="#333333"/>
</linearGradient>
<linearGradient id="paint14_linear_0_1" x1="124.934" y1="193.39" x2="137.264" y2="194.6" gradientUnits="userSpaceOnUse">
<stop stop-color="#FD9D31"/>
<stop offset="0.08" stop-color="#F0952F"/>
<stop offset="0.24" stop-color="#CF8028"/>
<stop offset="0.45" stop-color="#995F1E"/>
<stop offset="0.7" stop-color="#4F310F"/>
<stop offset="0.94"/>
</linearGradient>
<linearGradient id="paint15_linear_0_1" x1="165.986" y1="26.18" x2="123.866" y2="211.05" gradientUnits="userSpaceOnUse">
<stop offset="0.21" stop-color="#101111"/>
<stop offset="0.45" stop-color="#141515"/>
<stop offset="0.7" stop-color="#212121"/>
<stop offset="0.92" stop-color="#333333"/>
</linearGradient>
<linearGradient id="paint16_linear_0_1" x1="111.626" y1="282.1" x2="140.956" y2="282.54" gradientUnits="userSpaceOnUse">
<stop stop-color="#FD9D31"/>
<stop offset="0.08" stop-color="#F0952F"/>
<stop offset="0.24" stop-color="#CF8028"/>
<stop offset="0.45" stop-color="#995F1E"/>
<stop offset="0.7" stop-color="#4F310F"/>
<stop offset="0.94"/>
</linearGradient>
<linearGradient id="paint17_linear_0_1" x1="127.015" y1="243.97" x2="132.625" y2="243.97" gradientUnits="userSpaceOnUse">
<stop stop-color="#101111"/>
<stop offset="0.31" stop-color="#141515"/>
<stop offset="0.63" stop-color="#212121"/>
<stop offset="0.92" stop-color="#333333"/>
</linearGradient>
<linearGradient id="paint18_linear_0_1" x1="94.9671" y1="114.643" x2="121.748" y2="111.197" gradientUnits="userSpaceOnUse">
<stop offset="0.02"/>
<stop offset="0.16" stop-color="#0E2934"/>
<stop offset="0.32" stop-color="#1D556B"/>
<stop offset="0.48" stop-color="#297999"/>
<stop offset="0.63" stop-color="#3396BD"/>
<stop offset="0.77" stop-color="#39AAD7"/>
<stop offset="0.9" stop-color="#3EB7E7"/>
<stop offset="1" stop-color="#3FBBEC"/>
</linearGradient>
<linearGradient id="paint19_linear_0_1" x1="65.2231" y1="-53.4364" x2="112.89" y2="130.18" gradientUnits="userSpaceOnUse">
<stop offset="0.21" stop-color="#101111"/>
<stop offset="0.45" stop-color="#141515"/>
<stop offset="0.7" stop-color="#212121"/>
<stop offset="0.92" stop-color="#333333"/>
</linearGradient>
<linearGradient id="paint20_linear_0_1" x1="93.4597" y1="202.497" x2="139.861" y2="200.164" gradientUnits="userSpaceOnUse">
<stop offset="0.02"/>
<stop offset="0.16" stop-color="#0E2934"/>
<stop offset="0.32" stop-color="#1D556B"/>
<stop offset="0.48" stop-color="#297999"/>
<stop offset="0.63" stop-color="#3396BD"/>
<stop offset="0.77" stop-color="#39AAD7"/>
<stop offset="0.9" stop-color="#3EB7E7"/>
<stop offset="1" stop-color="#3FBBEC"/>
</linearGradient>
<linearGradient id="paint21_linear_0_1" x1="118.475" y1="197.57" x2="112.865" y2="197.75" gradientUnits="userSpaceOnUse">
<stop stop-color="#101111"/>
<stop offset="0.31" stop-color="#141515"/>
<stop offset="0.63" stop-color="#212121"/>
<stop offset="0.92" stop-color="#333333"/>
</linearGradient>
<linearGradient id="paint22_linear_0_1" x1="123.702" y1="433.747" x2="158.785" y2="255.91" gradientUnits="userSpaceOnUse">
<stop stop-color="#EC3593"/>
<stop offset="0.09" stop-color="#E4338E"/>
<stop offset="0.23" stop-color="#CF2F81"/>
<stop offset="0.4" stop-color="#AD276C"/>
<stop offset="0.59" stop-color="#7D1C4E"/>
<stop offset="0.8" stop-color="#410F28"/>
<stop offset="1"/>
</linearGradient>
<linearGradient id="paint23_linear_0_1" x1="247.725" y1="324.55" x2="-40.9053" y2="442.64" gradientUnits="userSpaceOnUse">
<stop offset="0.02"/>
<stop offset="0.05" stop-color="#03090B"/>
<stop offset="0.26" stop-color="#153E4E"/>
<stop offset="0.45" stop-color="#246B87"/>
<stop offset="0.62" stop-color="#308DB2"/>
<stop offset="0.78" stop-color="#38A6D2"/>
<stop offset="0.91" stop-color="#3DB6E5"/>
<stop offset="1" stop-color="#3FBBEC"/>
</linearGradient>
<linearGradient id="paint24_linear_0_1" x1="309.925" y1="299.87" x2="163.065" y2="486.72" gradientUnits="userSpaceOnUse">
<stop offset="0.02"/>
<stop offset="0.12" stop-color="#2C1B09"/>
<stop offset="0.25" stop-color="#633D13"/>
<stop offset="0.38" stop-color="#925B1C"/>
<stop offset="0.51" stop-color="#B97324"/>
<stop offset="0.64" stop-color="#D6852A"/>
<stop offset="0.76" stop-color="#EC922E"/>
<stop offset="0.89" stop-color="#F99A30"/>
<stop offset="1" stop-color="#FD9D31"/>
</linearGradient>
<linearGradient id="paint25_linear_0_1" x1="11.0955" y1="319.07" x2="358.166" y2="319.07" gradientUnits="userSpaceOnUse">
<stop/>
<stop offset="0.08" stop-color="#333333"/>
<stop offset="0.17" stop-color="#626262"/>
<stop offset="0.26" stop-color="#8C8C8C"/>
<stop offset="0.36" stop-color="#B0B0B0"/>
<stop offset="0.46" stop-color="#CDCDCD"/>
<stop offset="0.56" stop-color="#E3E3E3"/>
<stop offset="0.68" stop-color="#F3F3F3"/>
<stop offset="0.81" stop-color="#FCFCFC"/>
<stop offset="1" stop-color="white"/>
</linearGradient>
</defs>
</svg>
