<svg width="326" height="516" viewBox="0 0 326 516" fill="none" xmlns="http://www.w3.org/2000/svg">
<path d="M292.399 286.74C292.149 287.55 291.889 287.58 291.159 287.63C290.207 287.67 289.259 287.489 288.389 287.1C286.389 286.27 284.459 285.41 282.469 284.63C277.929 282.87 273.329 281.26 268.699 279.75C267.059 279.21 265.399 278.75 263.699 278.29C263.549 278.228 263.384 278.207 263.223 278.231C263.062 278.254 262.911 278.32 262.785 278.423C262.659 278.525 262.563 278.66 262.507 278.813C262.451 278.966 262.438 279.131 262.469 279.29C262.441 279.764 262.547 280.236 262.773 280.653C262.999 281.069 263.337 281.415 263.749 281.65C264.529 282.13 265.359 282.55 266.179 282.97C267.689 283.74 269.179 284.49 270.739 285.25C272.299 286.01 273.669 286.66 275.109 287.41C276.549 288.16 277.729 288.88 279.039 289.63C279.119 289.63 279.189 289.74 279.269 289.79C279.334 289.832 279.38 289.897 279.396 289.972C279.413 290.047 279.4 290.125 279.359 290.19C279.283 290.31 279.165 290.396 279.029 290.43C278.8 290.43 278.573 290.39 278.359 290.31C277.509 289.97 276.659 289.64 275.839 289.25C273.379 288.07 270.949 286.85 268.479 285.68C266.729 284.85 264.939 284.07 263.159 283.3C262.581 283.014 261.944 282.867 261.299 282.87C261.156 282.881 261.015 282.908 260.879 282.95C260.797 282.97 260.72 283.007 260.654 283.059C260.588 283.111 260.534 283.177 260.495 283.253C260.457 283.328 260.436 283.41 260.433 283.495C260.43 283.579 260.446 283.663 260.479 283.74C260.617 284.188 260.898 284.578 261.279 284.85C261.959 285.35 262.669 285.85 263.379 286.27C264.239 286.83 265.109 287.37 265.959 287.93C266.154 288.068 266.335 288.225 266.499 288.4C266.639 288.54 266.739 288.73 266.629 288.9C266.573 288.963 266.506 289.014 266.43 289.05C266.355 289.087 266.272 289.107 266.189 289.11C265.661 289.087 265.148 288.928 264.699 288.65C263.189 287.87 261.699 287.07 260.169 286.3C259.599 286 259.009 285.75 258.419 285.5C258.262 285.424 258.09 285.382 257.915 285.379C257.74 285.376 257.567 285.412 257.408 285.484C257.248 285.555 257.107 285.661 256.993 285.794C256.879 285.926 256.795 286.082 256.749 286.25C256.52 286.845 256.447 287.489 256.539 288.12C256.621 288.953 256.816 289.77 257.119 290.55C257.194 290.754 257.313 290.938 257.469 291.088C257.625 291.239 257.813 291.352 258.019 291.42C258.469 291.58 258.929 291.69 259.379 291.83C260.725 292.319 261.964 293.063 263.029 294.02C264.499 295.22 266.029 296.4 267.499 297.57C268.222 298.082 268.892 298.665 269.499 299.31C269.587 299.395 269.655 299.497 269.699 299.61C269.739 299.73 269.739 299.86 269.699 299.98C269.658 300.019 269.608 300.047 269.554 300.061C269.5 300.075 269.443 300.074 269.389 300.06C269.062 299.948 268.747 299.804 268.449 299.63C267.449 299.01 266.529 298.34 265.539 297.73C264.549 297.12 263.779 296.73 262.879 296.25C262.579 296.1 262.199 296.13 261.879 295.99C260.949 295.59 260.039 295.15 259.119 294.74C258.739 294.57 258.359 294.4 257.969 294.26C257.11 293.925 256.157 293.925 255.299 294.26C254.179 294.7 253.079 295.19 251.949 295.58C250.819 295.97 249.559 296.3 248.369 296.66C248.026 296.76 247.691 296.887 247.369 297.04C246.969 297.219 246.631 297.514 246.401 297.886C246.171 298.259 246.059 298.693 246.079 299.13C246.103 300.253 246.204 301.372 246.379 302.48C246.459 303.19 246.479 303.9 246.519 304.61C246.579 305.48 246.488 306.353 246.249 307.19C246.127 307.573 245.959 307.939 245.749 308.28C245.648 308.473 245.481 308.622 245.279 308.701C245.077 308.78 244.853 308.783 244.649 308.71C244.194 308.602 243.782 308.362 243.464 308.021C243.145 307.679 242.935 307.251 242.859 306.79C242.819 306.301 242.819 305.81 242.859 305.32C242.969 303.9 243.139 302.48 243.249 301.06C243.409 299.732 243.409 298.389 243.249 297.06C243.16 296.436 242.908 295.846 242.519 295.35C242.424 295.219 242.294 295.116 242.143 295.056C241.993 294.996 241.828 294.98 241.669 295.01C241.371 295.064 241.071 295.097 240.769 295.11C240.609 295.11 240.389 295.06 240.389 294.86C240.389 294.66 240.549 294.59 240.639 294.46C240.666 294.429 240.7 294.405 240.739 294.39C241.209 294.23 241.099 293.96 240.849 293.73C240.512 293.423 240.147 293.149 239.759 292.91C238.775 292.292 237.676 291.877 236.529 291.69C236.055 291.662 235.581 291.737 235.139 291.91C232.837 292.575 230.571 293.356 228.349 294.25C226.629 294.93 224.939 295.68 223.239 296.4C223.073 296.463 222.926 296.567 222.811 296.701C222.695 296.836 222.616 296.997 222.579 297.17C222.229 298.44 221.869 299.71 221.459 300.96C221.213 301.705 220.919 302.434 220.579 303.14C220.478 303.354 220.31 303.529 220.101 303.639C219.891 303.749 219.652 303.788 219.419 303.75C218.929 303.68 218.779 303.37 218.809 302.89C218.921 302.036 219.189 301.209 219.599 300.45C220.069 299.45 220.599 298.45 221.059 297.45C221.086 297.414 221.106 297.372 221.117 297.327C221.127 297.282 221.128 297.236 221.12 297.19C221.111 297.145 221.094 297.102 221.068 297.065C221.041 297.027 221.008 296.995 220.969 296.97C220.389 296.48 219.849 295.97 219.259 295.46C218.747 295.011 218.132 294.695 217.469 294.54C217.114 294.454 216.744 294.46 216.393 294.56C216.042 294.66 215.724 294.85 215.469 295.11C214.982 295.628 214.537 296.183 214.139 296.77C213.049 298.33 211.999 299.92 210.909 301.48C210.651 301.838 210.363 302.172 210.049 302.48C209.927 302.585 209.783 302.66 209.629 302.7C209.309 302.8 209.099 302.7 209.159 302.33C209.203 302.021 209.312 301.725 209.479 301.46C209.909 300.84 210.399 300.25 210.859 299.65C212.083 298.136 213.205 296.543 214.219 294.88C214.463 294.44 214.657 293.974 214.799 293.49C214.883 293.239 214.876 292.966 214.776 292.721C214.677 292.475 214.494 292.273 214.259 292.15C213.749 291.871 213.221 291.627 212.679 291.42C212.503 291.351 212.31 291.342 212.129 291.394C211.948 291.447 211.79 291.558 211.679 291.71C211.109 292.32 210.549 292.95 209.969 293.55C209.812 293.706 209.642 293.847 209.459 293.97C209.367 294.019 209.269 294.056 209.169 294.08L209.089 294.02C209.141 293.823 209.215 293.632 209.309 293.45C209.599 293.02 209.939 292.61 210.219 292.17C210.432 291.856 210.613 291.521 210.759 291.17C210.841 290.959 210.857 290.728 210.803 290.508C210.75 290.288 210.629 290.09 210.459 289.94C210.1 289.574 209.643 289.319 209.143 289.206C208.643 289.092 208.121 289.125 207.639 289.3C206.582 289.669 205.574 290.166 204.639 290.78C203.349 291.56 202.089 292.38 200.799 293.16C200.448 293.361 200.08 293.529 199.699 293.66C199.399 293.76 199.259 293.66 199.239 293.41C199.239 293.363 199.249 293.317 199.267 293.274C199.286 293.231 199.314 293.192 199.349 293.16C199.839 292.79 200.349 292.39 200.819 292.08C202.519 291.08 204.239 290.08 205.939 289.01C206.519 288.65 207.049 288.22 207.599 287.8C207.759 287.68 207.939 287.5 207.859 287.27C207.808 287.169 207.727 287.087 207.625 287.037C207.524 286.986 207.41 286.97 207.299 286.99C206.769 286.99 206.229 287.08 205.699 287.16C205.379 287.22 205.069 287.35 204.749 287.44L204.509 287.5L204.449 287.43C204.554 287.262 204.671 287.102 204.799 286.95C205.309 286.46 205.799 285.95 206.349 285.48C206.899 285.01 206.919 284.7 206.229 284.22C205.857 283.921 205.411 283.727 204.939 283.66C204.818 283.635 204.708 283.573 204.625 283.481C204.542 283.389 204.491 283.273 204.479 283.15C204.474 283.077 204.474 283.004 204.479 282.93C204.379 282.53 204.069 282.35 203.719 282.53C202.929 282.91 202.149 283.29 201.399 283.73C199.879 284.61 198.399 285.53 196.879 286.45C196.639 286.59 196.439 286.81 196.199 286.94C195.964 287.084 195.707 287.189 195.439 287.25C195.319 287.28 195.192 287.269 195.078 287.221C194.965 287.172 194.87 287.088 194.809 286.98V286.83C195.243 286.353 195.762 285.96 196.339 285.67C197.92 284.881 199.447 283.985 200.909 282.99C201.749 282.39 202.549 281.74 203.339 281.08C203.789 280.7 203.729 280.31 203.239 279.97C203.129 279.9 203.009 279.85 202.909 279.78C202.769 279.696 202.636 279.603 202.509 279.5C202.611 279.386 202.721 279.279 202.839 279.18C203.229 278.91 203.269 278.75 202.979 278.37C202.689 277.99 202.559 277.87 202.359 277.61C202.268 277.47 202.188 277.323 202.119 277.17H202.479C202.757 277.164 203.034 277.137 203.309 277.09C203.389 277.09 203.519 276.89 203.489 276.83C203.349 276.5 203.549 276.29 203.759 276.11C204.54 275.489 205.501 275.138 206.499 275.11C206.859 275.088 207.215 275.021 207.559 274.91C207.622 274.891 207.681 274.859 207.73 274.814C207.78 274.77 207.819 274.715 207.845 274.654C207.87 274.593 207.882 274.527 207.88 274.46C207.877 274.394 207.859 274.329 207.829 274.27C207.755 274.046 207.643 273.837 207.499 273.65C207.069 273.15 206.619 272.65 206.179 272.18L205.519 271.48C205.819 271.48 206.089 271.59 206.369 271.64C206.649 271.69 206.989 271.76 207.299 271.79C207.609 271.82 207.639 271.79 207.669 271.57C207.699 271.35 207.889 271.24 208.109 271.25C208.293 271.261 208.476 271.281 208.659 271.31C209.157 271.41 209.67 271.41 210.168 271.308C210.666 271.207 211.139 271.007 211.559 270.72C211.849 270.53 212.079 270.26 211.899 269.86C211.885 269.829 211.878 269.795 211.878 269.76C211.878 269.726 211.885 269.692 211.899 269.66C211.899 269.66 212.029 269.66 212.089 269.66C212.46 269.792 212.859 269.826 213.248 269.759C213.637 269.693 214.002 269.528 214.309 269.28C214.353 269.258 214.392 269.226 214.423 269.187C214.454 269.148 214.477 269.103 214.489 269.055C214.501 269.007 214.503 268.956 214.495 268.907C214.486 268.858 214.467 268.811 214.439 268.77C214.189 268.38 213.949 267.98 213.679 267.6C213.409 267.22 213.309 267.14 213.119 266.91H213.169C213.211 266.939 213.254 266.966 213.299 266.99C213.586 267.167 213.887 267.321 214.199 267.45C214.619 267.59 214.919 267.31 214.869 266.87C214.826 266.424 214.64 266.003 214.339 265.67C214.019 265.34 213.669 265.04 213.339 264.73C213.422 264.739 213.502 264.77 213.569 264.82C214.331 265.392 215.239 265.738 216.189 265.82C216.548 265.859 216.912 265.822 217.256 265.712C217.601 265.602 217.918 265.421 218.189 265.18C218.324 265.089 218.421 264.95 218.461 264.792C218.502 264.634 218.483 264.466 218.409 264.32C218.309 264.13 218.409 264.03 218.589 263.99C218.688 263.975 218.789 263.975 218.889 263.99C219.299 263.99 219.459 263.85 219.469 263.43C219.515 262.967 219.448 262.499 219.274 262.067C219.1 261.635 218.823 261.252 218.469 260.95C218.349 260.85 218.169 260.74 218.389 260.55C218.389 260.55 218.389 260.43 218.389 260.38C218.314 259.986 218.102 259.631 217.789 259.38C217.719 259.311 217.629 259.266 217.532 259.252C217.435 259.237 217.335 259.254 217.249 259.3C217.189 259.3 217.079 259.3 217.049 259.3C217.033 259.268 217.026 259.232 217.026 259.195C217.026 259.159 217.033 259.123 217.049 259.09C217.088 258.929 217.118 258.765 217.139 258.6C217.135 258.434 217.094 258.271 217.02 258.122C216.945 257.974 216.839 257.843 216.709 257.74C216.369 257.45 216.329 257.16 216.529 256.88C216.658 256.706 216.757 256.509 216.819 256.3C216.999 255.473 216.999 254.617 216.819 253.79C216.781 253.263 216.574 252.761 216.229 252.36C215.798 251.908 215.344 251.477 214.869 251.07C214.009 250.35 213.089 249.69 212.219 248.99C211.854 248.69 211.519 248.355 211.219 247.99C211.009 247.73 211.119 247.53 211.449 247.44C211.606 247.407 211.769 247.413 211.924 247.456C212.079 247.5 212.221 247.58 212.339 247.69C213.227 248.309 214.039 249.031 214.759 249.84C215.422 250.554 216.152 251.204 216.939 251.78C217.295 252.01 217.713 252.125 218.136 252.111C218.56 252.097 218.969 251.954 219.309 251.7C219.377 251.669 219.438 251.624 219.487 251.567C219.537 251.51 219.573 251.443 219.594 251.371C219.615 251.299 219.62 251.223 219.609 251.149C219.597 251.074 219.57 251.003 219.529 250.94C219.529 250.87 219.529 250.8 219.469 250.7H219.729C219.988 250.73 220.25 250.73 220.509 250.7C221.158 250.585 221.799 250.428 222.429 250.23C224.075 249.679 225.803 249.412 227.539 249.44C228.729 249.44 229.929 249.51 231.119 249.44C231.672 249.415 232.221 249.335 232.759 249.2C232.858 249.185 232.953 249.148 233.037 249.092C233.122 249.037 233.193 248.964 233.247 248.879C233.301 248.794 233.336 248.698 233.35 248.599C233.364 248.499 233.357 248.397 233.329 248.3C233.324 248.224 233.324 248.147 233.329 248.07C233.45 247.471 233.742 246.919 234.169 246.48C234.786 245.803 235.253 245.002 235.539 244.13C235.669 243.7 235.739 243.26 235.849 242.82C235.887 242.391 236.086 241.992 236.408 241.704C236.729 241.416 237.147 241.261 237.579 241.27C238.243 241.209 238.912 241.192 239.579 241.22C240.174 241.192 240.765 241.338 241.279 241.64C241.591 241.871 241.888 242.122 242.169 242.39C242.894 242.942 243.777 243.247 244.689 243.26C245.359 243.32 246.019 243.37 246.689 243.45C246.835 243.455 246.977 243.503 247.097 243.588C247.216 243.674 247.307 243.793 247.359 243.93C247.437 244.186 247.47 244.453 247.459 244.72C247.414 245.299 247.162 245.843 246.749 246.25C246.593 246.38 246.492 246.563 246.468 246.764C246.444 246.965 246.498 247.168 246.619 247.33C246.919 247.8 247.239 248.26 247.519 248.74C247.833 249.201 248.092 249.698 248.289 250.22C248.429 250.724 248.682 251.189 249.029 251.58C249.539 252.14 250.029 252.69 250.599 253.2C251.463 254.023 252.483 254.666 253.599 255.09C254.697 255.484 255.838 255.746 256.999 255.87C257.729 255.974 258.471 255.799 259.079 255.38C259.639 255 260.199 254.62 260.769 254.25C261.053 254.069 261.351 253.908 261.659 253.77C261.889 253.67 262.019 253.77 262.049 254.03C262.072 254.179 262.054 254.33 261.998 254.47C261.941 254.609 261.848 254.73 261.729 254.82C261.289 255.19 260.829 255.53 260.379 255.89C260.141 256.066 259.914 256.257 259.699 256.46C259.389 256.77 259.469 257.05 259.899 257.11C260.277 257.16 260.66 257.16 261.039 257.11C262.277 256.928 263.491 256.61 264.659 256.16C265.329 255.93 266.009 255.73 266.659 255.54C266.785 255.489 266.924 255.475 267.059 255.5C267.194 255.525 267.318 255.587 267.419 255.68C267.491 255.751 267.545 255.838 267.575 255.934C267.605 256.03 267.611 256.132 267.593 256.231C267.574 256.331 267.531 256.423 267.467 256.502C267.404 256.58 267.322 256.642 267.229 256.68C266.965 256.847 266.679 256.975 266.379 257.06C265.146 257.395 263.948 257.843 262.799 258.4C262.302 258.651 261.821 258.932 261.359 259.24C261.169 259.37 261.199 259.54 261.409 259.64C261.486 259.679 261.572 259.7 261.659 259.7C262.311 259.719 262.961 259.621 263.579 259.41C264.709 259.1 265.829 258.73 266.959 258.41C267.43 258.289 267.913 258.212 268.399 258.18C268.562 258.159 268.727 258.197 268.864 258.287C269.001 258.377 269.102 258.513 269.149 258.67C269.204 258.819 269.205 258.983 269.15 259.131C269.094 259.28 268.988 259.404 268.849 259.48C268.579 259.696 268.275 259.865 267.949 259.98C266.949 260.3 265.839 260.57 264.779 260.86C263.719 261.15 262.779 261.36 261.879 261.68C261.561 261.765 261.285 261.961 261.102 262.233C260.918 262.505 260.839 262.835 260.879 263.16C260.879 263.31 260.879 263.45 260.879 263.59C260.848 263.963 260.917 264.338 261.079 264.675C261.24 265.012 261.489 265.301 261.799 265.51L262.459 265.9C263.494 266.562 264.7 266.909 265.929 266.9C266.589 266.9 267.239 266.79 267.929 266.76C269.195 266.685 270.465 266.745 271.719 266.94C273.949 267.3 276.159 267.71 278.369 268.14C278.978 268.283 279.576 268.47 280.159 268.7C280.264 268.724 280.356 268.787 280.417 268.876C280.478 268.965 280.504 269.074 280.489 269.18C280.481 269.306 280.43 269.426 280.344 269.519C280.259 269.612 280.144 269.672 280.019 269.69C279.686 269.725 279.351 269.725 279.019 269.69C277.829 269.59 276.649 269.43 275.459 269.36C274.269 269.29 272.999 269.24 271.769 269.22C270.229 269.22 268.699 269.22 267.169 269.22C266.619 269.235 266.071 269.285 265.529 269.37C265.329 269.387 265.137 269.457 264.973 269.572C264.809 269.687 264.679 269.844 264.596 270.026C264.512 270.208 264.479 270.409 264.499 270.608C264.518 270.808 264.591 270.998 264.709 271.16C265.002 271.614 265.383 272.005 265.829 272.31C266.08 272.5 266.311 272.714 266.519 272.95C266.57 272.994 266.609 273.051 266.631 273.114C266.652 273.178 266.656 273.247 266.642 273.313C266.628 273.379 266.595 273.439 266.549 273.488C266.503 273.537 266.444 273.573 266.379 273.59C266.049 273.74 265.679 273.83 265.379 273.95C265.069 274.049 264.768 274.172 264.479 274.32C264.334 274.411 264.225 274.55 264.172 274.713C264.119 274.875 264.125 275.052 264.189 275.21C264.333 275.584 264.583 275.907 264.909 276.14C265.586 276.653 266.348 277.046 267.159 277.3C270.539 278.54 273.909 279.8 277.319 280.96C280.319 281.96 283.409 282.9 286.459 283.85C287.087 284.051 287.733 284.188 288.389 284.26C289.217 284.293 290.033 284.472 290.799 284.79C291.174 284.91 291.515 285.12 291.792 285.4C292.068 285.68 292.273 286.024 292.389 286.4L292.399 286.74ZM212.929 248.41C212.696 248.162 212.385 248 212.049 247.95C212.049 247.95 211.919 248.06 211.929 248.1C211.971 248.189 212.031 248.269 212.105 248.333C212.179 248.398 212.266 248.446 212.36 248.475C212.455 248.505 212.554 248.514 212.651 248.503C212.749 248.491 212.844 248.46 212.929 248.41Z" fill="url(#paint0_linear_0_1)"/>
<path d="M219.02 307.819C218.991 307.965 218.951 308.109 218.9 308.249C218.882 308.29 218.852 308.324 218.815 308.348C218.778 308.372 218.734 308.385 218.69 308.385C218.646 308.385 218.602 308.372 218.565 308.348C218.528 308.324 218.498 308.29 218.48 308.249C218.338 308.066 218.241 307.852 218.198 307.624C218.154 307.396 218.165 307.162 218.23 306.939C218.23 306.839 218.36 306.709 218.45 306.699C218.505 306.699 218.559 306.714 218.607 306.742C218.654 306.771 218.693 306.811 218.72 306.859C218.846 307.146 218.957 307.44 219.05 307.739L219.02 307.819Z" fill="url(#paint1_linear_0_1)"/>
<path d="M232.629 312.739C232.699 312.619 232.759 312.419 232.869 312.389C232.943 312.386 233.016 312.399 233.084 312.429C233.151 312.458 233.211 312.503 233.259 312.559C233.372 312.702 233.448 312.87 233.479 313.049C233.479 313.239 233.379 313.359 233.199 313.409C233.123 313.434 233.04 313.431 232.967 313.399C232.893 313.368 232.834 313.311 232.799 313.239C232.729 313.078 232.672 312.91 232.629 312.739Z" fill="url(#paint2_linear_0_1)"/>
<path d="M216.539 299.531C216.539 299.531 216.419 299.671 216.329 299.691C216.19 299.689 216.055 299.643 215.945 299.558C215.835 299.473 215.756 299.355 215.719 299.221C215.718 299.136 215.75 299.053 215.807 298.99C215.865 298.927 215.944 298.888 216.029 298.881C216.174 298.917 216.303 299 216.396 299.118C216.488 299.236 216.539 299.381 216.539 299.531Z" fill="url(#paint3_linear_0_1)"/>
<path d="M234.338 294.51C234.338 294.73 234.208 294.83 234.008 294.73C233.858 294.638 233.721 294.527 233.598 294.4C233.478 294.28 233.528 294.18 233.678 294.12C233.988 293.97 234.338 294.16 234.338 294.51Z" fill="url(#paint4_linear_0_1)"/>
<path d="M237.988 294.92C237.874 294.888 237.764 294.844 237.658 294.79C237.584 294.732 237.534 294.65 237.515 294.559C237.497 294.467 237.512 294.371 237.558 294.29C237.698 294.12 237.848 294.23 237.978 294.29C238.042 294.319 238.097 294.363 238.138 294.42C238.204 294.516 238.264 294.617 238.318 294.72L237.988 294.92Z" fill="url(#paint5_linear_0_1)"/>
<path d="M203.471 256.421C203.872 256.418 204.265 256.535 204.598 256.758C204.932 256.981 205.191 257.299 205.341 257.671C205.442 257.984 205.449 258.32 205.36 258.636C205.271 258.953 205.09 259.236 204.841 259.451C204.733 259.57 204.612 259.678 204.481 259.771C204.35 259.905 204.192 260.011 204.017 260.081C203.843 260.152 203.656 260.185 203.468 260.179C203.28 260.174 203.095 260.129 202.925 260.049C202.756 259.968 202.604 259.853 202.481 259.711C202.107 259.421 201.771 259.085 201.481 258.711C201.387 258.603 201.316 258.477 201.272 258.341C201.227 258.205 201.21 258.061 201.223 257.918C201.235 257.776 201.275 257.637 201.342 257.51C201.409 257.384 201.5 257.272 201.611 257.181C201.851 256.932 202.141 256.736 202.461 256.605C202.781 256.474 203.125 256.411 203.471 256.421Z" fill="url(#paint6_linear_0_1)"/>
<path d="M204.338 253.6C203.811 253.526 203.332 253.254 202.998 252.84C202.768 252.55 202.998 252.23 203.378 252.18C203.675 252.199 203.961 252.304 204.2 252.481C204.44 252.658 204.623 252.901 204.728 253.18C204.738 253.49 204.628 253.61 204.338 253.6Z" fill="url(#paint7_linear_0_1)"/>
<path d="M214.191 259.85C214.094 259.818 214.001 259.777 213.911 259.73C213.501 259.509 213.177 259.157 212.991 258.73C212.974 258.694 212.965 258.655 212.965 258.615C212.965 258.576 212.974 258.536 212.991 258.5C212.991 258.45 213.141 258.45 213.211 258.5C213.752 258.657 214.214 259.015 214.501 259.5C214.641 259.67 214.521 259.86 214.191 259.85Z" fill="url(#paint8_linear_0_1)"/>
<path d="M209.339 255.01C209.134 254.97 208.946 254.866 208.802 254.714C208.659 254.561 208.567 254.368 208.539 254.16C208.539 253.95 208.629 253.89 208.809 253.98C209.136 254.134 209.393 254.405 209.529 254.74C209.609 254.92 209.539 255.02 209.339 255.01Z" fill="url(#paint9_linear_0_1)"/>
<path d="M213.339 262.67C213.135 262.636 212.945 262.538 212.798 262.391C212.652 262.244 212.554 262.055 212.52 261.85C212.52 261.65 212.639 261.56 212.809 261.64C213.134 261.812 213.388 262.091 213.529 262.43C213.649 262.59 213.549 262.67 213.339 262.67Z" fill="url(#paint10_linear_0_1)"/>
<path d="M215.77 244.5C215.77 244.28 215.899 244.2 216.109 244.29C216.231 244.351 216.336 244.44 216.416 244.549C216.496 244.659 216.549 244.786 216.569 244.92C216.578 244.964 216.575 245.009 216.561 245.051C216.547 245.093 216.522 245.13 216.49 245.16C216.399 245.195 216.3 245.195 216.209 245.16C216.085 245.098 215.979 245.004 215.902 244.889C215.825 244.773 215.779 244.639 215.77 244.5Z" fill="url(#paint11_linear_0_1)"/>
<path d="M220.661 244.671C220.601 244.871 220.661 245.081 220.411 245.141C220.335 245.144 220.258 245.127 220.19 245.092C220.122 245.056 220.064 245.003 220.023 244.939C219.981 244.874 219.957 244.799 219.954 244.723C219.95 244.646 219.966 244.569 220.001 244.501C220.121 244.36 220.259 244.235 220.411 244.131L220.661 244.671Z" fill="url(#paint12_linear_0_1)"/>
<path d="M198.689 257.41C198.764 257.418 198.837 257.44 198.903 257.476C198.97 257.512 199.028 257.56 199.076 257.619C199.123 257.677 199.158 257.745 199.18 257.817C199.201 257.889 199.208 257.965 199.199 258.04C199.18 258.078 199.154 258.112 199.121 258.14C199.088 258.168 199.05 258.188 199.009 258.2C198.886 258.193 198.767 258.155 198.664 258.088C198.561 258.022 198.476 257.929 198.419 257.82C198.404 257.775 198.399 257.728 198.405 257.68C198.411 257.633 198.427 257.588 198.453 257.549C198.48 257.509 198.514 257.476 198.555 257.452C198.596 257.428 198.642 257.414 198.689 257.41Z" fill="url(#paint13_linear_0_1)"/>
<path d="M193.79 420.67C192.15 421.53 191.701 421.18 190.521 420.14C189.019 418.756 187.856 417.045 187.121 415.14C185.381 410.87 183.71 406.57 181.85 402.35C177.61 392.74 173.07 383.28 168.31 373.92C166.62 370.61 164.8 367.37 162.97 364.13C162.17 362.71 160.831 362.58 159.631 363.7C158.868 364.381 158.312 365.262 158.024 366.243C157.736 367.223 157.728 368.265 158.001 369.25C158.461 371.17 159.08 373.07 159.69 374.96C160.82 378.44 162 381.96 163.16 385.39C164.32 388.82 165.481 392 166.521 395.39C167.521 398.49 168.281 401.63 169.141 404.76C169.181 404.955 169.211 405.152 169.231 405.35C169.251 405.43 169.256 405.514 169.244 405.596C169.232 405.678 169.204 405.756 169.161 405.827C169.118 405.898 169.061 405.96 168.994 406.008C168.927 406.057 168.851 406.091 168.771 406.11C168.623 406.147 168.468 406.152 168.318 406.124C168.168 406.097 168.026 406.037 167.901 405.95C167.545 405.611 167.262 405.203 167.07 404.75C166.29 402.95 165.49 401.14 164.84 399.29C162.84 393.76 161.04 388.18 159.06 382.65C157.65 378.71 156.12 374.81 154.59 370.91C154.137 369.592 153.384 368.397 152.391 367.42C152.161 367.214 151.905 367.04 151.631 366.9C151.477 366.807 151.304 366.749 151.126 366.728C150.947 366.708 150.766 366.727 150.595 366.783C150.424 366.839 150.268 366.931 150.136 367.053C150.004 367.175 149.9 367.324 149.83 367.49C149.355 368.385 149.19 369.412 149.361 370.41C149.641 372.21 150.021 374 150.361 375.78C150.811 377.94 151.361 380.09 151.771 382.24C151.851 382.746 151.881 383.258 151.861 383.77C151.861 384.19 151.73 384.65 151.3 384.77C151.119 384.782 150.937 384.757 150.765 384.697C150.593 384.636 150.435 384.542 150.3 384.42C149.539 383.567 149.006 382.535 148.751 381.42C147.621 377.93 146.56 374.42 145.43 370.94C145.01 369.62 144.491 368.34 143.981 367.05C143.856 366.696 143.655 366.373 143.393 366.103C143.131 365.834 142.813 365.625 142.462 365.491C142.111 365.357 141.735 365.301 141.36 365.326C140.985 365.352 140.62 365.459 140.29 365.64C139.033 366.196 137.944 367.072 137.131 368.18C135.997 369.541 135.058 371.052 134.34 372.67C134.138 373.091 134.033 373.553 134.033 374.02C134.033 374.487 134.138 374.949 134.34 375.37C134.79 376.28 135.34 377.16 135.78 378.06C137.092 380.859 137.852 383.884 138.021 386.97C138.431 391.04 138.91 395.11 139.41 399.18C139.743 401.064 139.877 402.978 139.81 404.89C139.819 405.145 139.768 405.399 139.66 405.63C139.519 405.873 139.296 406.057 139.03 406.15C138.911 406.146 138.794 406.112 138.69 406.051C138.587 405.99 138.501 405.904 138.44 405.8C138.116 405.13 137.858 404.43 137.67 403.71C137.13 401.27 136.671 398.81 136.121 396.38C135.621 394.26 135 392.16 134.33 390.08C134.1 389.39 133.47 388.84 133.2 388.16C132.39 386.16 131.671 384.07 130.901 382.03C130.591 381.19 130.251 380.36 129.901 379.55C129.079 377.739 127.599 376.309 125.761 375.55C123.391 374.55 120.971 373.55 118.641 372.45C116.311 371.35 113.93 369.91 111.56 368.65C110.914 368.307 110.246 368.007 109.56 367.75C108.676 367.417 107.712 367.357 106.792 367.576C105.873 367.795 105.04 368.284 104.401 368.98C102.733 370.732 101.183 372.593 99.7605 374.55C98.7605 375.74 97.7605 376.86 96.7605 377.99C95.529 379.406 94.0603 380.597 92.4204 381.51C91.6498 381.918 90.8297 382.223 89.9805 382.42C89.5378 382.546 89.0652 382.515 88.6426 382.333C88.22 382.151 87.873 381.828 87.6604 381.42C86.8004 379.78 86.4405 377.42 87.8605 375.75C88.5234 374.926 89.2488 374.153 90.0304 373.44C92.3604 371.44 94.7805 369.55 97.1105 367.55C99.367 365.759 101.401 363.704 103.17 361.43C103.971 360.336 104.48 359.056 104.651 357.71C104.708 357.368 104.666 357.016 104.53 356.697C104.393 356.378 104.168 356.105 103.881 355.91C103.341 355.531 102.826 355.117 102.34 354.67C102.08 354.42 101.821 354.01 102.141 353.67C102.461 353.33 102.781 353.5 103.141 353.44C103.23 353.432 103.32 353.449 103.401 353.49C104.401 353.96 104.61 353.37 104.57 352.65C104.535 351.669 104.398 350.693 104.16 349.74C103.604 347.298 102.563 344.993 101.1 342.96C100.423 342.194 99.5868 341.583 98.6505 341.17C94.1348 338.68 89.4954 336.42 84.7505 334.4C81.0905 332.82 77.3604 331.4 73.6604 329.89C73.3144 329.734 72.9353 329.666 72.5567 329.692C72.178 329.719 71.8118 329.838 71.4905 330.04C69.0205 331.45 66.5405 332.84 64.0105 334.13C62.498 334.896 60.9382 335.564 59.3405 336.13C58.8614 336.298 58.3409 336.307 57.8564 336.156C57.3718 336.004 56.9489 335.701 56.6505 335.29C56.0105 334.43 56.2604 333.73 57.0304 333.06C58.5075 331.923 60.1825 331.068 61.9705 330.54C64.2005 329.74 66.4505 328.99 68.7005 328.24C69.1605 328.09 69.3404 327.92 69.2904 327.37C69.1504 325.74 69.1605 324.09 69.0005 322.46C68.899 320.999 68.4424 319.585 67.6704 318.34C67.2627 317.646 66.677 317.073 65.9738 316.681C65.2706 316.289 64.4754 316.092 63.6704 316.11C62.1427 316.153 60.6211 316.32 59.1205 316.61C55.1205 317.33 51.0604 318.14 47.0304 318.87C46.1095 318.997 45.1795 319.044 44.2505 319.01C43.8977 318.993 43.5543 318.89 43.2505 318.71C42.6105 318.37 42.5205 317.84 43.1005 317.42C43.6383 317.018 44.2551 316.736 44.9104 316.59C46.5204 316.3 48.1504 316.15 49.7804 315.93C53.9506 315.501 58.0868 314.79 62.1604 313.8C63.2044 313.498 64.2108 313.079 65.1604 312.55C65.6716 312.293 66.0726 311.86 66.2895 311.331C66.5063 310.802 66.5245 310.212 66.3405 309.67C65.9985 308.466 65.5673 307.29 65.0505 306.15C64.8802 305.802 64.603 305.517 64.2594 305.337C63.9159 305.157 63.5239 305.092 63.1405 305.15C61.3405 305.15 59.5405 305.3 57.7305 305.35C57.2569 305.344 56.7848 305.294 56.3205 305.2C56.1077 305.142 55.9054 305.051 55.7205 304.93V304.71C56.0968 304.493 56.4958 304.319 56.9104 304.19C58.0204 303.96 59.1505 303.86 60.2505 303.62C61.067 303.451 61.8644 303.199 62.6305 302.87C63.083 302.682 63.4642 302.355 63.7193 301.936C63.9744 301.517 64.0903 301.029 64.0505 300.54C64.0672 299.437 63.7646 298.353 63.1791 297.418C62.5936 296.483 61.7502 295.737 60.7505 295.27C58.588 294.251 56.312 293.492 53.9705 293.01C50.8205 292.25 47.6505 291.56 44.5005 290.78C43.655 290.557 42.8341 290.248 42.0505 289.86C41.4505 289.58 41.3805 289.21 41.7505 288.79C41.821 288.717 41.9069 288.66 42.002 288.624C42.0971 288.587 42.199 288.572 42.3005 288.58C43.6036 288.706 44.8988 288.903 46.1805 289.17C50.3505 290.17 54.4805 291.28 58.6505 292.28C60.0805 292.62 61.5605 292.78 63.0205 292.98C63.4605 293.04 64.0205 293.05 64.2305 292.56C64.3071 292.331 64.3065 292.082 64.2289 291.853C64.1513 291.624 64.0008 291.426 63.8005 291.29C62.9374 290.515 62.0328 289.787 61.0905 289.11C60.4911 288.74 59.87 288.406 59.2305 288.11C59.0705 288.03 58.9304 287.93 58.7804 287.84V287.67C59.1989 287.578 59.6232 287.514 60.0505 287.48C61.5805 287.48 63.1105 287.58 64.6405 287.59C66.4505 287.59 66.7205 287.28 66.4005 285.48C66.2812 284.463 65.8985 283.494 65.2904 282.67C65.1383 282.45 65.062 282.187 65.0728 281.92C65.0836 281.653 65.1811 281.397 65.3505 281.19C65.4405 281.06 65.5605 280.94 65.6405 280.8C65.7599 280.66 65.8418 280.492 65.8786 280.311C65.9154 280.131 65.9058 279.944 65.8509 279.768C65.7959 279.593 65.6975 279.434 65.5645 279.306C65.4315 279.179 65.2684 279.087 65.0905 279.04C63.3205 278.43 61.5405 277.8 59.7305 277.33C56.0605 276.33 52.3805 275.48 48.7305 274.59C48.1505 274.44 47.5305 274.47 46.9505 274.32C46.3829 274.161 45.8383 273.929 45.3305 273.63C45.1013 273.489 44.924 273.277 44.8249 273.026C44.7258 272.776 44.7101 272.5 44.7804 272.24L45.0105 272.01C46.4004 271.989 47.7825 272.22 49.0905 272.69C52.6912 273.886 56.3656 274.848 60.0905 275.57C62.2805 275.94 64.4905 276.18 66.7005 276.36C67.9705 276.47 68.4705 275.78 68.2405 274.51C68.1905 274.24 68.0705 273.99 68.0205 273.72C67.9705 273.45 67.9005 273.04 67.8405 272.72C68.1733 272.695 68.5076 272.695 68.8405 272.72C69.8405 272.9 70.1504 272.72 70.2804 271.72C70.3704 271.02 70.4005 270.31 70.4905 269.6C70.571 269.259 70.678 268.925 70.8105 268.6C70.961 268.813 71.1246 269.017 71.3005 269.21C71.7255 269.626 72.18 270.01 72.6604 270.36C72.8104 270.46 73.2905 270.36 73.3405 270.24C73.6505 269.52 74.2605 269.49 74.8605 269.56C76.998 269.79 79.0025 270.709 80.5705 272.18C81.1454 272.701 81.7879 273.141 82.4805 273.49C82.607 273.556 82.746 273.593 82.8882 273.6C83.0304 273.608 83.1727 273.585 83.3052 273.532C83.4378 273.48 83.5576 273.401 83.6568 273.298C83.756 273.196 83.8323 273.074 83.8805 272.94C84.1065 272.482 84.2518 271.988 84.3105 271.48C84.4305 270.07 84.4804 268.64 84.5404 267.23C84.5404 266.54 84.5405 265.85 84.6005 265.16C84.9798 265.659 85.3335 266.176 85.6604 266.71C86.0304 267.27 86.4105 267.82 86.8305 268.34C86.8739 268.418 86.9326 268.485 87.0028 268.54C87.0731 268.594 87.1535 268.633 87.2394 268.656C87.3253 268.678 87.4149 268.683 87.5027 268.67C87.5905 268.657 87.6748 268.626 87.7505 268.58C87.8335 268.507 87.9315 268.452 88.0376 268.421C88.1438 268.389 88.2555 268.381 88.365 268.398C88.4746 268.414 88.5793 268.454 88.6718 268.515C88.7643 268.576 88.8424 268.656 88.9005 268.75C89.1698 269.044 89.4202 269.355 89.6505 269.68C90.2565 270.596 91.0406 271.381 91.9563 271.987C92.8721 272.594 93.9006 273.01 94.9805 273.21C95.1518 273.278 95.3349 273.312 95.5192 273.309C95.7035 273.306 95.8855 273.267 96.0546 273.193C96.2237 273.12 96.3767 273.014 96.5047 272.881C96.6327 272.748 96.7331 272.592 96.8004 272.42C96.8385 272.353 96.8919 272.295 96.9561 272.252C97.0203 272.208 97.0936 272.18 97.1704 272.17C97.2504 272.17 97.3805 272.35 97.4305 272.47C97.8058 273.239 98.3692 273.901 99.0685 274.394C99.7678 274.887 100.58 275.195 101.43 275.29C101.535 275.327 101.646 275.34 101.756 275.329C101.866 275.318 101.972 275.283 102.067 275.227C102.163 275.171 102.244 275.095 102.307 275.004C102.37 274.913 102.412 274.809 102.43 274.7C102.66 273.7 102.89 272.75 103.07 271.77C103.18 271.14 103.211 270.5 103.271 269.86H103.41C103.424 269.975 103.448 270.089 103.481 270.2C103.646 270.904 103.87 271.593 104.151 272.26C104.221 272.448 104.344 272.611 104.504 272.731C104.665 272.851 104.856 272.922 105.056 272.937C105.256 272.952 105.455 272.909 105.632 272.814C105.808 272.719 105.953 272.575 106.05 272.4C106.628 271.613 106.927 270.656 106.901 269.68C106.901 268.68 106.9 267.68 106.82 266.68C106.935 266.824 107.008 266.997 107.03 267.18C107.316 269.214 108.161 271.128 109.47 272.71C109.963 273.336 110.584 273.85 111.291 274.217C111.998 274.584 112.775 274.797 113.57 274.84C113.919 274.909 114.282 274.845 114.585 274.66C114.889 274.474 115.112 274.182 115.21 273.84C115.36 273.4 115.671 273.41 116.001 273.61C116.181 273.729 116.343 273.874 116.481 274.04C117.081 274.68 117.56 274.68 118.21 274.04C118.968 273.38 119.557 272.548 119.927 271.614C120.298 270.68 120.44 269.67 120.34 268.67C120.34 268.34 120.2 267.9 120.82 267.93C120.9 267.93 121.02 267.78 121.08 267.68C121.568 266.966 121.784 266.1 121.69 265.24C121.685 265.03 121.613 264.827 121.486 264.66C121.358 264.494 121.182 264.371 120.981 264.31C120.851 264.31 120.66 264.11 120.66 264.01C120.66 263.91 120.82 263.74 120.95 263.65C121.264 263.476 121.561 263.275 121.84 263.05C122.092 262.787 122.282 262.471 122.396 262.125C122.511 261.779 122.546 261.412 122.501 261.05C122.421 260.05 122.801 259.58 123.501 259.45C123.963 259.382 124.412 259.24 124.83 259.03C126.382 258.071 127.709 256.789 128.72 255.27C129.466 254.408 129.912 253.327 129.991 252.19C129.991 250.84 129.99 249.49 129.91 248.19C129.68 245.78 129.29 243.38 129.04 240.97C128.936 239.993 128.936 239.007 129.04 238.03C129.11 237.31 129.58 237.18 130.22 237.53C130.511 237.722 130.753 237.98 130.926 238.282C131.1 238.584 131.201 238.922 131.22 239.27C131.628 241.58 131.766 243.929 131.631 246.27C131.55 248.363 131.671 250.46 131.991 252.53C132.181 253.426 132.642 254.242 133.311 254.867C133.98 255.493 134.824 255.899 135.731 256.03C136.551 256.2 136.901 255.96 137.231 255.2C137.307 255.046 137.398 254.899 137.501 254.76L137.891 255.15C138.243 255.589 138.638 255.991 139.07 256.35C140.237 257.158 141.453 257.892 142.71 258.55C146.063 260.223 149.107 262.455 151.71 265.15C153.5 266.99 155.25 268.88 157.09 270.67C157.974 271.479 158.939 272.193 159.97 272.8C160.145 272.928 160.346 273.018 160.558 273.062C160.77 273.107 160.989 273.106 161.201 273.06C161.413 273.014 161.612 272.923 161.786 272.794C161.96 272.664 162.105 272.5 162.21 272.31C162.319 272.188 162.444 272.08 162.58 271.99C163.682 271.261 164.969 270.862 166.29 270.84C168.263 270.753 170.194 270.241 171.95 269.34C172.8 268.89 173.59 268.34 174.42 267.82C176.42 266.63 177.65 266.66 179.42 268.1C180.527 269.032 181.573 270.034 182.55 271.1C183.505 271.959 184.181 273.084 184.491 274.33C184.612 275.159 184.689 275.993 184.72 276.83C184.98 278.775 185.86 280.585 187.23 281.99C188.15 283.1 189.08 284.19 189.96 285.32C190.179 285.547 190.323 285.835 190.375 286.145C190.427 286.456 190.383 286.775 190.251 287.06C189.991 287.566 189.654 288.029 189.251 288.43C188.297 289.242 187.083 289.682 185.83 289.67C185.396 289.637 184.966 289.769 184.625 290.04C184.284 290.311 184.057 290.7 183.991 291.13C183.741 292.3 183.52 293.49 183.22 294.65C182.989 295.828 182.623 296.976 182.131 298.07C181.583 299.057 181.262 300.154 181.19 301.28C181.11 302.9 181.061 304.52 181.111 306.14C181.173 308.7 181.744 311.223 182.79 313.56C183.86 315.835 185.203 317.971 186.79 319.92C187.742 321.186 189.133 322.05 190.69 322.34C192.13 322.62 193.561 322.89 194.991 323.2C195.701 323.358 196.399 323.565 197.08 323.82C197.59 324.02 197.61 324.38 197.28 324.82C197.086 325.078 196.828 325.28 196.532 325.406C196.235 325.532 195.911 325.579 195.59 325.54C194.36 325.44 193.131 325.25 191.901 325.11C191.271 325.015 190.637 324.955 190.001 324.93C189.061 324.93 188.74 325.48 189.31 326.23C189.799 326.887 190.375 327.476 191.021 327.98C193.196 329.592 195.543 330.957 198.021 332.05C199.391 332.71 200.741 333.44 202.021 334.2C202.302 334.31 202.547 334.498 202.724 334.743C202.901 334.987 203.004 335.278 203.021 335.58C203.016 335.788 202.962 335.992 202.863 336.175C202.763 336.358 202.621 336.515 202.449 336.631C202.276 336.748 202.078 336.821 201.872 336.846C201.665 336.87 201.455 336.844 201.261 336.77C200.602 336.623 199.969 336.381 199.381 336.05C196.993 334.678 194.482 333.533 191.881 332.63C190.72 332.242 189.538 331.922 188.34 331.67C187.85 331.57 187.65 331.88 187.82 332.36C187.882 332.528 187.974 332.684 188.09 332.82C189.059 333.838 190.195 334.68 191.45 335.31C193.66 336.55 195.921 337.7 198.121 338.95C199.023 339.493 199.879 340.108 200.68 340.79C200.954 341.011 201.144 341.32 201.216 341.664C201.289 342.008 201.241 342.367 201.08 342.68C200.935 342.99 200.685 343.24 200.374 343.384C200.063 343.528 199.712 343.559 199.381 343.47C198.641 343.372 197.92 343.167 197.241 342.86C195.161 341.74 193.13 340.52 191.07 339.36C189.19 338.29 187.331 337.16 185.401 336.2C184.79 335.847 184.073 335.728 183.382 335.864C182.69 336 182.071 336.382 181.641 336.94C181.431 337.18 181.19 337.38 180.98 337.61C179.84 338.82 178.98 340.16 179.46 341.93C179.587 342.463 179.727 342.993 179.881 343.52C180.48 346.092 181.81 348.436 183.71 350.27C184.71 351.27 185.87 352.1 186.92 353.06C188.959 354.881 190.802 356.908 192.42 359.11C195.25 363.06 198 367.06 200.72 371.11C201.426 372.255 202.051 373.448 202.59 374.68C202.703 374.883 202.742 375.118 202.7 375.346C202.658 375.574 202.538 375.781 202.361 375.93C202.15 376.097 201.889 376.188 201.621 376.188C201.352 376.188 201.091 376.097 200.881 375.93C200.29 375.506 199.747 375.02 199.261 374.48C197.611 372.48 196.051 370.48 194.361 368.55C192.671 366.62 190.79 364.62 188.93 362.72C186.62 360.35 184.26 358.04 181.93 355.72C181.074 354.906 180.169 354.145 179.22 353.44C178.89 353.157 178.49 352.967 178.062 352.89C177.634 352.814 177.193 352.853 176.785 353.004C176.377 353.155 176.017 353.412 175.742 353.749C175.467 354.086 175.287 354.49 175.22 354.92C174.984 356.063 174.967 357.241 175.17 358.39C175.258 359.053 175.282 359.723 175.241 360.39C175.253 360.535 175.227 360.68 175.164 360.811C175.102 360.942 175.005 361.054 174.884 361.134C174.764 361.215 174.624 361.262 174.479 361.27C174.334 361.278 174.189 361.247 174.06 361.18C173.32 360.9 172.63 360.46 171.91 360.12C171.29 359.789 170.64 359.515 169.97 359.3C169.609 359.222 169.232 359.272 168.903 359.441C168.575 359.611 168.316 359.89 168.17 360.23C167.819 361.017 167.711 361.891 167.861 362.74C168.107 364.549 168.665 366.302 169.511 367.92C172.781 374.92 176 382.03 179.42 388.99C182.42 395.17 185.74 401.23 188.95 407.33C189.595 408.596 190.373 409.789 191.271 410.89C192.477 412.206 193.445 413.722 194.131 415.37C194.721 416.99 195.131 418.63 194.131 420.25L193.79 420.67ZM131.08 241.18C131.107 240.441 130.881 239.714 130.44 239.12C130.373 239.097 130.301 239.089 130.23 239.098C130.159 239.106 130.09 239.131 130.03 239.17C129.963 239.369 129.937 239.579 129.954 239.789C129.97 239.998 130.03 240.201 130.128 240.387C130.227 240.572 130.362 240.736 130.526 240.867C130.689 240.998 130.878 241.094 131.08 241.15V241.18Z" fill="url(#paint14_linear_0_1)"/>
<path d="M49.4301 415.561C49.0946 414.981 48.8935 414.333 48.8416 413.665C48.7897 412.997 48.8883 412.326 49.1302 411.701C49.2127 411.368 49.3914 411.068 49.644 410.836C49.8966 410.605 50.2117 410.453 50.5501 410.401C50.882 410.383 51.2111 410.47 51.4909 410.65C51.7707 410.829 51.9873 411.092 52.1101 411.401C52.4371 411.988 52.6325 412.639 52.6825 413.309C52.7326 413.979 52.6363 414.652 52.4002 415.281C52.3074 415.588 52.1064 415.852 51.8344 416.023C51.5623 416.194 51.2375 416.26 50.9201 416.211C50.5827 416.171 50.2486 416.107 49.9201 416.021L49.4301 415.561Z" fill="url(#paint15_linear_0_1)"/>
<path d="M139.788 227.171C139.788 227.671 139.908 228.171 139.918 228.651C139.928 229.131 139.668 229.211 139.308 229.031C138.788 228.791 138.308 228.441 138.408 227.801C138.408 227.536 138.513 227.281 138.701 227.094C138.888 226.906 139.143 226.801 139.408 226.801L139.788 227.171Z" fill="url(#paint16_linear_0_1)"/>
<path d="M6.5312 317.929C7.02185 317.739 7.53141 317.602 8.05122 317.519C11.7068 317.207 15.3889 317.473 18.9613 318.309C19.3121 318.394 19.6489 318.529 19.9613 318.709C20.1113 318.789 20.3012 318.999 20.2912 319.139C20.2812 319.279 20.0712 319.479 19.9112 319.529C19.2359 319.722 18.5474 319.866 17.8513 319.959C14.4428 320.291 11.0077 320.238 7.61128 319.799C7.30776 319.752 7.00962 319.675 6.72126 319.569C5.81126 319.269 5.6912 318.769 6.5312 317.929Z" fill="url(#paint17_linear_0_1)"/>
<path d="M71.3382 395.25C71.5391 395.454 71.6755 395.713 71.7307 395.993C71.7858 396.274 71.7572 396.565 71.6483 396.83C71.5581 397.103 71.3766 397.337 71.1343 397.492C70.8921 397.646 70.6038 397.713 70.3182 397.68C69.9462 397.685 69.5745 397.655 69.2082 397.59C67.9582 397.36 67.5983 396.39 68.3983 395.38C68.5812 395.176 68.803 395.011 69.0507 394.893C69.2985 394.776 69.5671 394.709 69.8409 394.697C70.1147 394.685 70.3881 394.728 70.6452 394.823C70.9023 394.918 71.1379 395.063 71.3382 395.25Z" fill="url(#paint18_linear_0_1)"/>
<path d="M3.95161 356.101C4.70161 355.331 5.48164 355.501 5.86164 356.521C6.44164 358.111 5.54167 359.431 4.01167 359.231C3.36167 359.141 2.92167 358.721 3.01167 358.081C3.20849 357.396 3.45583 356.728 3.75166 356.081L3.95161 356.101Z" fill="url(#paint19_linear_0_1)"/>
<path d="M108.34 421.67C108.739 422.063 109.035 422.55 109.199 423.086C109.363 423.622 109.391 424.191 109.28 424.74C109.07 425.74 108.38 425.92 107.69 425.18C107.323 424.813 107.056 424.359 106.913 423.861C106.769 423.362 106.754 422.836 106.87 422.33C106.98 421.944 107.234 421.615 107.58 421.41C107.75 421.34 108.15 421.67 108.34 421.67Z" fill="url(#paint20_linear_0_1)"/>
<path d="M36.6287 369.269C36.3114 369.492 35.977 369.689 35.6287 369.859C35.526 369.913 35.4097 369.936 35.2942 369.925C35.1787 369.915 35.0688 369.871 34.9778 369.799C34.8868 369.727 34.8187 369.63 34.7815 369.52C34.7444 369.41 34.74 369.292 34.7687 369.179C34.8433 368.581 35.059 368.008 35.398 367.509C35.737 367.01 36.1896 366.599 36.7187 366.309C36.8503 366.248 36.9937 366.217 37.1387 366.217C37.2838 366.217 37.427 366.248 37.5586 366.309C37.6564 366.413 37.7268 366.54 37.7635 366.678C37.8001 366.816 37.802 366.96 37.7687 367.099C37.4887 367.859 37.0987 368.589 36.7687 369.329L36.6287 369.269Z" fill="url(#paint21_linear_0_1)"/>
<path d="M52.5781 403.31C52.9281 403.23 53.4081 402.96 53.6681 403.1C53.8063 403.226 53.9149 403.381 53.9858 403.554C54.0567 403.727 54.0882 403.913 54.0781 404.1C54.0195 404.565 53.8478 405.008 53.5781 405.39C53.2981 405.83 52.828 405.77 52.408 405.55C52.2173 405.459 52.0676 405.299 51.9881 405.103C51.9086 404.907 51.905 404.689 51.9781 404.49C52.1529 404.084 52.3532 403.69 52.5781 403.31Z" fill="url(#paint22_linear_0_1)"/>
<path d="M47.3391 349.509C47.2091 349.509 46.8691 349.509 46.6791 349.409C46.4237 349.15 46.2601 348.814 46.2132 348.453C46.1662 348.092 46.2385 347.725 46.4191 347.409C46.5803 347.258 46.7932 347.174 47.0142 347.174C47.2352 347.174 47.4479 347.258 47.6092 347.409C47.8065 347.739 47.8873 348.125 47.8383 348.506C47.7893 348.887 47.6135 349.24 47.3391 349.509Z" fill="url(#paint23_linear_0_1)"/>
<path d="M89.111 372.88C88.711 373.28 88.281 373.22 88.111 372.68C87.9926 372.241 87.9387 371.786 87.9509 371.33C87.9509 370.87 88.241 370.79 88.631 370.95C88.8284 371.001 89.0085 371.104 89.1521 371.249C89.2957 371.394 89.3974 371.574 89.4466 371.772C89.4958 371.97 89.4906 372.177 89.4315 372.373C89.3724 372.568 89.2617 372.743 89.111 372.88Z" fill="url(#paint24_linear_0_1)"/>
<path d="M95.1586 380.43C94.9993 380.163 94.8718 379.878 94.7786 379.58C94.7459 379.34 94.802 379.095 94.9364 378.893C95.0707 378.69 95.2742 378.544 95.5087 378.48C96.0787 378.48 96.1487 378.9 96.2587 379.3C96.2983 379.468 96.2983 379.643 96.2587 379.81C96.2587 380.11 96.1086 380.401 96.0286 380.701L95.1586 380.43Z" fill="url(#paint25_linear_0_1)"/>
<path d="M102.449 246.349C103.216 247.084 103.733 248.041 103.927 249.085C104.12 250.129 103.981 251.208 103.529 252.169C103.143 252.929 102.542 253.559 101.8 253.978C101.059 254.398 100.209 254.59 99.3592 254.529C98.9443 254.537 98.5295 254.511 98.1192 254.449C95.8292 254.129 94.8592 253.179 94.5892 250.739C94.477 249.54 94.5004 248.333 94.6591 247.139C94.6869 246.773 94.7867 246.416 94.9526 246.089C95.1185 245.762 95.3474 245.47 95.626 245.232C95.9047 244.993 96.2277 244.812 96.5766 244.698C96.9255 244.584 97.2933 244.54 97.6591 244.569C98.5361 244.529 99.4122 244.666 100.235 244.972C101.058 245.278 101.811 245.746 102.449 246.349Z" fill="url(#paint26_linear_0_1)"/>
<path d="M109.162 242.721C108.36 241.607 108.004 240.234 108.162 238.871C108.272 237.871 109.162 237.661 110.062 238.341C110.581 238.938 110.911 239.676 111.011 240.461C111.11 241.246 110.975 242.043 110.622 242.751C110.172 243.291 109.742 243.321 109.162 242.721Z" fill="url(#paint27_linear_0_1)"/>
<path d="M115.839 272.34C115.72 272.102 115.619 271.854 115.539 271.6C115.192 270.44 115.245 269.197 115.689 268.07C115.759 267.88 115.939 267.65 116.099 267.63C116.259 267.61 116.469 267.83 116.559 267.99C117.273 269.238 117.494 270.708 117.179 272.11C117.009 272.84 116.439 272.96 115.839 272.34Z" fill="url(#paint28_linear_0_1)"/>
<path d="M115.84 254.57C115.537 254.123 115.384 253.592 115.404 253.052C115.424 252.513 115.615 251.994 115.95 251.57C116.35 251.2 116.61 251.24 116.78 251.74C117.073 252.623 117.037 253.582 116.68 254.44C116.49 254.89 116.19 254.93 115.84 254.57Z" fill="url(#paint29_linear_0_1)"/>
<path d="M109.22 276C108.914 275.559 108.75 275.036 108.75 274.5C108.75 273.964 108.914 273.44 109.22 273C109.58 272.64 109.98 272.69 110.13 273.16C110.421 274.068 110.379 275.05 110.01 275.93C109.81 276.37 109.51 276.32 109.22 276Z" fill="url(#paint30_linear_0_1)"/>
<path d="M146.941 247.06C147.351 246.65 147.711 246.74 147.941 247.29C148.056 247.622 148.091 247.977 148.04 248.325C147.99 248.673 147.856 249.004 147.651 249.29C147.583 249.383 147.494 249.458 147.392 249.51C147.289 249.562 147.176 249.59 147.061 249.59C146.824 249.491 146.634 249.305 146.531 249.07C146.411 248.729 146.386 248.362 146.458 248.008C146.531 247.654 146.697 247.326 146.941 247.06Z" fill="url(#paint31_linear_0_1)"/>
<path d="M155.568 256.38C155.068 256.64 154.718 257.05 154.228 256.79C154.114 256.688 154.022 256.563 153.959 256.424C153.895 256.285 153.861 256.134 153.858 255.98C153.82 255.724 153.884 255.462 154.035 255.251C154.186 255.041 154.413 254.897 154.668 254.85C155.143 254.823 155.62 254.85 156.088 254.93L155.568 256.38Z" fill="url(#paint32_linear_0_1)"/>
<path d="M91.8602 239.4C91.9845 239.552 92.0772 239.726 92.133 239.914C92.1888 240.102 92.2064 240.299 92.185 240.494C92.1636 240.688 92.1036 240.877 92.0083 241.048C91.913 241.219 91.7844 241.369 91.6302 241.49C91.5265 241.525 91.4163 241.537 91.3075 241.525C91.1986 241.513 91.0937 241.477 91.0002 241.42C90.7904 241.182 90.6437 240.896 90.5738 240.586C90.5039 240.277 90.513 239.955 90.6002 239.65C90.6552 239.539 90.7351 239.442 90.8337 239.366C90.9323 239.291 91.0468 239.239 91.1685 239.215C91.2903 239.191 91.4161 239.195 91.536 239.227C91.6559 239.259 91.7668 239.318 91.8602 239.4Z" fill="url(#paint33_linear_0_1)"/>
<path d="M189.17 332.06C189.51 330.98 189.86 330.94 190.82 330.88C192.078 330.827 193.331 331.066 194.48 331.58C197.09 332.67 199.68 333.81 202.32 334.84C208.32 337.174 214.394 339.327 220.54 341.3C222.71 342.01 224.91 342.62 227.1 343.23C227.294 343.309 227.505 343.335 227.712 343.307C227.919 343.278 228.115 343.196 228.281 343.069C228.446 342.942 228.576 342.774 228.656 342.581C228.737 342.388 228.766 342.178 228.74 341.97C228.776 341.344 228.635 340.719 228.335 340.168C228.035 339.617 227.586 339.161 227.04 338.85C226.04 338.22 224.91 337.66 223.83 337.11C221.83 336.11 219.83 335.11 217.83 334.11C215.83 333.11 213.96 332.25 212.06 331.25C210.16 330.25 208.58 329.3 206.85 328.32C206.746 328.253 206.646 328.179 206.55 328.1C206.464 328.047 206.401 327.961 206.377 327.862C206.353 327.763 206.368 327.658 206.42 327.57C206.527 327.415 206.687 327.304 206.87 327.26C207.171 327.258 207.47 327.313 207.75 327.42C208.87 327.87 210 328.3 211.09 328.82C214.34 330.38 217.56 332 220.82 333.54C223.14 334.64 225.5 335.67 227.82 336.69C228.588 337.07 229.434 337.262 230.29 337.25C230.481 337.242 230.669 337.209 230.85 337.15C230.952 337.122 231.047 337.073 231.129 337.007C231.212 336.94 231.279 336.857 231.328 336.764C231.377 336.67 231.406 336.567 231.413 336.461C231.42 336.356 231.406 336.25 231.37 336.15C231.2 335.557 230.838 335.036 230.34 334.67C229.44 334.01 228.51 333.4 227.57 332.78C226.44 332.04 225.28 331.33 224.15 330.59C223.896 330.408 223.662 330.201 223.45 329.97C223.26 329.79 223.12 329.53 223.28 329.31C223.352 329.226 223.441 329.157 223.541 329.109C223.64 329.06 223.749 329.034 223.86 329.03C224.568 329.059 225.257 329.269 225.86 329.64C227.86 330.64 229.86 331.73 231.86 332.75C232.62 333.14 233.4 333.47 234.18 333.81C234.39 333.909 234.618 333.962 234.849 333.964C235.081 333.966 235.31 333.918 235.521 333.823C235.732 333.728 235.92 333.588 236.072 333.413C236.224 333.238 236.336 333.033 236.4 332.81C236.698 332.02 236.791 331.167 236.67 330.33C236.56 329.231 236.301 328.151 235.9 327.12C235.801 326.851 235.642 326.607 235.437 326.406C235.231 326.205 234.983 326.053 234.71 325.96C234.12 325.76 233.51 325.6 232.92 325.41C231.135 324.77 229.491 323.788 228.08 322.52C226.08 320.93 224.15 319.38 222.17 317.83C221.21 317.153 220.322 316.379 219.52 315.52C219.407 315.41 219.318 315.278 219.26 315.13C219.221 314.966 219.239 314.793 219.31 314.64C219.365 314.591 219.43 314.554 219.502 314.535C219.573 314.516 219.648 314.515 219.72 314.53C220.15 314.684 220.565 314.874 220.96 315.1C222.26 315.93 223.51 316.82 224.82 317.62C225.96 318.32 227.14 318.96 228.33 319.62C228.73 319.82 229.24 319.79 229.65 319.96C230.88 320.49 232.09 321.07 233.31 321.63C233.81 321.85 234.31 322.07 234.83 322.26C235.975 322.691 237.241 322.67 238.37 322.2C239.84 321.61 241.3 320.97 242.8 320.45C244.3 319.93 245.95 319.51 247.52 319.03C247.957 318.891 248.384 318.724 248.8 318.53C249.331 318.292 249.779 317.9 250.083 317.404C250.388 316.908 250.537 316.332 250.51 315.75C250.474 314.266 250.337 312.786 250.1 311.32C250.01 310.39 249.98 309.45 249.92 308.51C249.844 307.362 249.966 306.208 250.28 305.1C250.438 304.589 250.663 304.102 250.95 303.65C251.083 303.399 251.301 303.204 251.565 303.099C251.829 302.995 252.122 302.988 252.39 303.08C252.991 303.227 253.536 303.545 253.959 303.996C254.381 304.447 254.664 305.012 254.77 305.62C254.84 306.268 254.86 306.92 254.83 307.57C254.68 309.45 254.46 311.32 254.31 313.2C254.1 314.958 254.1 316.733 254.31 318.49C254.441 319.315 254.786 320.091 255.31 320.74C255.434 320.916 255.605 321.051 255.804 321.131C256.003 321.211 256.22 321.232 256.43 321.19C256.824 321.125 257.222 321.085 257.62 321.07C257.84 321.07 258.13 321.13 258.12 321.4C258.11 321.67 257.92 321.75 257.8 321.92C257.762 321.962 257.714 321.993 257.66 322.01C257.04 322.23 257.19 322.59 257.52 322.89C257.965 323.295 258.447 323.657 258.96 323.97C260.262 324.786 261.714 325.333 263.23 325.58C263.857 325.62 264.484 325.524 265.07 325.3C268.07 324.43 271.07 323.36 274.07 322.2C276.34 321.3 278.58 320.3 280.84 319.34C281.057 319.259 281.249 319.124 281.401 318.95C281.553 318.775 281.659 318.566 281.71 318.34C282.17 316.66 282.65 314.98 283.19 313.34C283.515 312.355 283.906 311.393 284.36 310.46C284.496 310.18 284.717 309.95 284.992 309.804C285.268 309.659 285.582 309.605 285.89 309.65C286.54 309.75 286.73 310.16 286.69 310.79C286.564 311.924 286.224 313.023 285.69 314.03C285.07 315.34 284.42 316.65 283.77 317.95C283.732 317.998 283.704 318.053 283.689 318.112C283.675 318.172 283.673 318.233 283.684 318.293C283.696 318.353 283.72 318.41 283.756 318.46C283.791 318.509 283.837 318.55 283.89 318.58C284.66 319.23 285.37 319.95 286.15 320.58C286.792 321.099 287.539 321.471 288.34 321.67C288.816 321.794 289.316 321.788 289.788 321.655C290.261 321.521 290.69 321.264 291.03 320.91C291.679 320.233 292.268 319.5 292.79 318.72C294.23 316.65 295.62 314.56 297.06 312.49C297.4 312.033 297.782 311.607 298.2 311.22C298.363 311.08 298.554 310.978 298.76 310.92C299.19 310.8 299.45 310.99 299.38 311.42C299.33 311.828 299.186 312.218 298.96 312.56C298.39 313.39 297.74 314.17 297.14 314.97C295.512 316.966 294.021 319.071 292.68 321.27C292.36 321.857 292.105 322.478 291.92 323.12C291.807 323.45 291.817 323.81 291.947 324.133C292.078 324.456 292.32 324.721 292.63 324.88C293.304 325.26 294.002 325.594 294.72 325.88C294.946 325.96 295.191 325.964 295.419 325.894C295.648 325.824 295.848 325.682 295.99 325.49C296.75 324.69 297.49 323.86 298.25 323.06C298.459 322.856 298.686 322.672 298.93 322.51C299.05 322.444 299.178 322.394 299.31 322.36L299.42 322.45C299.346 322.705 299.249 322.953 299.13 323.19C298.74 323.77 298.3 324.3 297.92 324.89C297.642 325.318 297.405 325.77 297.21 326.24C297.096 326.52 297.075 326.829 297.148 327.123C297.222 327.416 297.387 327.678 297.62 327.87C298.09 328.357 298.69 328.697 299.348 328.849C300.006 329.002 300.695 328.961 301.33 328.73C302.714 328.219 304.032 327.547 305.26 326.73C306.96 325.73 308.63 324.61 310.34 323.58C310.802 323.308 311.291 323.087 311.8 322.92C312.18 322.78 312.37 322.92 312.39 323.25C312.392 323.312 312.38 323.373 312.355 323.43C312.331 323.487 312.296 323.538 312.25 323.58C311.61 324.093 310.942 324.57 310.25 325.01C308.01 326.38 305.73 327.7 303.49 329.07C302.73 329.565 301.995 330.099 301.29 330.67C301.08 330.83 300.83 331.06 300.95 331.37C301.017 331.502 301.123 331.609 301.255 331.675C301.386 331.742 301.535 331.765 301.68 331.74C302.39 331.74 303.1 331.62 303.81 331.51C304.235 331.415 304.652 331.291 305.06 331.14L305.37 331.07L305.46 331.15C305.317 331.37 305.16 331.581 304.99 331.78C304.32 332.44 303.62 333.07 302.99 333.78C302.36 334.49 302.22 334.78 303.14 335.46C303.632 335.853 304.218 336.108 304.84 336.2C305.003 336.228 305.152 336.309 305.264 336.43C305.376 336.551 305.445 336.706 305.46 336.87C305.46 336.97 305.46 337.07 305.46 337.16C305.472 337.272 305.51 337.379 305.573 337.472C305.635 337.565 305.72 337.641 305.818 337.693C305.917 337.746 306.028 337.773 306.14 337.772C306.252 337.772 306.362 337.744 306.46 337.69C307.46 337.18 308.53 336.69 309.53 336.1C311.53 334.93 313.53 333.71 315.53 332.5C315.84 332.31 316.1 332.03 316.42 331.85C316.734 331.669 317.07 331.531 317.42 331.44C317.58 331.4 317.75 331.413 317.901 331.478C318.053 331.543 318.18 331.656 318.26 331.8V332C317.67 332.615 316.971 333.117 316.2 333.48C314.105 334.525 312.084 335.711 310.15 337.03C309.04 337.81 307.98 338.67 306.94 339.55C306.34 340.06 306.42 340.55 307.07 341.02C307.21 341.12 307.37 341.18 307.51 341.27C307.65 341.36 307.86 341.52 308.03 341.64C307.896 341.796 307.749 341.94 307.59 342.07C307.08 342.42 307.03 342.64 307.41 343.13C307.79 343.62 307.97 343.8 308.24 344.13C308.36 344.318 308.464 344.515 308.55 344.72C308.39 344.71 308.23 344.71 308.07 344.72C307.705 344.726 307.341 344.756 306.98 344.81C306.88 344.81 306.71 345.08 306.74 345.16C306.92 345.61 306.66 345.88 306.38 346.16C305.354 346.994 304.082 347.465 302.76 347.5C302.283 347.526 301.812 347.616 301.36 347.77C301.275 347.793 301.197 347.835 301.13 347.893C301.063 347.95 301.01 348.022 300.975 348.102C300.939 348.183 300.922 348.27 300.925 348.358C300.928 348.446 300.95 348.532 300.99 348.61C301.092 348.908 301.244 349.185 301.44 349.43C302 350.1 302.6 350.74 303.19 351.43C303.47 351.74 303.77 352.04 304.06 352.35C303.66 352.35 303.3 352.21 302.93 352.14C302.56 352.07 302.12 351.98 301.71 351.94C301.49 351.94 301.25 351.94 301.21 352.24C301.17 352.54 300.93 352.67 300.63 352.66C300.385 352.654 300.141 352.627 299.9 352.58C299.241 352.449 298.561 352.45 297.902 352.584C297.242 352.718 296.616 352.982 296.06 353.36C295.67 353.62 295.38 353.96 295.61 354.5C295.631 354.542 295.642 354.589 295.642 354.635C295.642 354.682 295.631 354.729 295.61 354.77C295.61 354.77 295.44 354.77 295.36 354.77C294.868 354.598 294.34 354.553 293.826 354.641C293.312 354.728 292.828 354.945 292.42 355.27C292.363 355.302 292.312 355.346 292.272 355.398C292.232 355.451 292.204 355.511 292.189 355.575C292.174 355.639 292.172 355.706 292.185 355.77C292.197 355.835 292.223 355.896 292.26 355.95C292.58 356.47 292.9 356.95 293.26 357.49C293.49 357.81 293.76 358.1 294.01 358.41L293.95 358.47L293.77 358.35C293.39 358.119 292.992 357.918 292.58 357.75C292.02 357.56 291.58 357.94 291.7 358.52C291.789 359.111 292.074 359.653 292.51 360.06C292.93 360.5 293.38 360.9 293.82 361.31C293.711 361.298 293.608 361.256 293.52 361.19C292.515 360.429 291.316 359.965 290.06 359.85C289.576 359.791 289.084 359.835 288.618 359.982C288.152 360.129 287.723 360.374 287.36 360.7C287.181 360.819 287.051 361 286.996 361.208C286.94 361.417 286.963 361.638 287.06 361.83C287.19 362.09 287.06 362.22 286.82 362.28C286.687 362.296 286.553 362.296 286.42 362.28C285.89 362.28 285.68 362.47 285.67 363.02C285.612 363.636 285.704 364.257 285.937 364.83C286.17 365.403 286.539 365.911 287.01 366.31C287.16 366.44 287.4 366.58 287.12 366.83C287.12 366.83 287.12 366.99 287.12 367.06C287.215 367.582 287.496 368.051 287.91 368.38C288.004 368.471 288.125 368.529 288.254 368.547C288.383 368.565 288.515 368.542 288.63 368.48C288.7 368.48 288.85 368.42 288.9 368.48C288.95 368.54 288.9 368.66 288.9 368.76C288.841 368.973 288.801 369.191 288.78 369.41C288.786 369.628 288.839 369.842 288.936 370.037C289.032 370.232 289.171 370.404 289.34 370.54C289.79 370.92 289.85 371.31 289.59 371.68C289.417 371.913 289.285 372.173 289.2 372.451C288.94 373.54 288.92 374.672 289.14 375.77C289.191 376.465 289.464 377.124 289.92 377.65C290.487 378.254 291.085 378.828 291.71 379.37C292.86 380.37 294.07 381.19 295.23 382.12C295.69 382.51 296.112 382.942 296.49 383.41C296.77 383.76 296.62 384.02 296.19 384.15C295.981 384.189 295.767 384.18 295.562 384.122C295.357 384.065 295.169 383.962 295.01 383.82C293.837 382.998 292.763 382.041 291.81 380.97C290.938 380.021 289.973 379.16 288.93 378.4C288.458 378.097 287.904 377.945 287.343 377.965C286.782 377.985 286.24 378.175 285.79 378.51C285.701 378.552 285.621 378.612 285.557 378.687C285.493 378.762 285.445 378.85 285.418 378.944C285.39 379.039 285.383 379.139 285.398 379.236C285.412 379.334 285.447 379.428 285.5 379.51C285.529 379.613 285.552 379.716 285.57 379.82H285.23C284.898 379.788 284.563 379.788 284.23 379.82C283.372 379.977 282.524 380.185 281.69 380.44C279.51 381.156 277.224 381.494 274.93 381.44C273.35 381.44 271.78 381.35 270.2 381.38C269.464 381.416 268.734 381.527 268.02 381.71C267.4 381.85 267.2 382.26 267.27 382.89C267.285 382.99 267.285 383.091 267.27 383.19C267.11 383.986 266.724 384.718 266.16 385.3C265.348 386.199 264.735 387.259 264.36 388.41C264.18 388.97 264.09 389.56 263.95 390.14C263.888 390.7 263.618 391.216 263.194 391.586C262.77 391.956 262.223 392.154 261.66 392.14C260.779 392.219 259.894 392.242 259.01 392.21C258.221 392.254 257.437 392.059 256.76 391.65C256.349 391.34 255.955 391.006 255.58 390.65C254.622 389.921 253.454 389.521 252.25 389.51C251.37 389.42 250.49 389.35 249.62 389.24C249.426 389.242 249.236 389.182 249.078 389.069C248.92 388.955 248.802 388.795 248.74 388.61C248.634 388.271 248.586 387.916 248.6 387.56C248.667 386.804 249 386.095 249.54 385.56C249.647 385.479 249.737 385.377 249.804 385.261C249.871 385.144 249.913 385.015 249.929 384.882C249.945 384.748 249.934 384.613 249.896 384.484C249.859 384.355 249.795 384.235 249.71 384.13C249.31 383.51 248.89 382.9 248.51 382.27C248.102 381.644 247.767 380.973 247.51 380.27C247.316 379.603 246.974 378.988 246.51 378.47C245.84 377.73 245.16 377 244.43 376.33C243.278 375.24 241.917 374.394 240.43 373.84C238.979 373.329 237.472 372.993 235.94 372.84C234.975 372.71 233.995 372.941 233.19 373.49C232.45 373.99 231.71 374.49 230.96 374.98C230.583 375.223 230.189 375.437 229.78 375.62C229.47 375.75 229.3 375.62 229.26 375.27C229.241 375.082 229.269 374.892 229.343 374.717C229.416 374.542 229.532 374.389 229.68 374.27C230.26 373.79 230.87 373.34 231.47 372.87C231.77 372.62 232.09 372.39 232.37 372.12C232.65 371.85 232.68 371.33 232.11 371.25C231.609 371.185 231.102 371.185 230.6 371.25C228.963 371.492 227.357 371.911 225.81 372.5C224.93 372.81 224.03 373.08 223.12 373.32C222.954 373.391 222.771 373.411 222.594 373.379C222.416 373.347 222.252 373.264 222.12 373.14C221.977 373.063 221.862 372.944 221.789 372.799C221.716 372.653 221.69 372.489 221.714 372.328C221.738 372.167 221.811 372.018 221.923 371.9C222.035 371.783 222.181 371.702 222.34 371.67C222.69 371.446 223.071 371.274 223.47 371.16C225.103 370.721 226.69 370.129 228.21 369.39C228.864 369.056 229.498 368.685 230.11 368.28C230.37 368.11 230.32 367.89 230.04 367.75C229.94 367.704 229.831 367.677 229.72 367.67C228.858 367.652 227.999 367.78 227.18 368.05C225.68 368.47 224.18 368.95 222.71 369.36C222.083 369.517 221.444 369.624 220.8 369.68C220.584 369.705 220.366 369.653 220.184 369.534C220.002 369.416 219.866 369.238 219.8 369.03C219.727 368.833 219.726 368.617 219.798 368.419C219.869 368.222 220.008 368.055 220.19 367.951C220.551 367.666 220.957 367.442 221.39 367.29C222.77 366.86 224.18 366.51 225.58 366.13C226.98 365.75 228.16 365.46 229.41 365.04C229.837 364.927 230.206 364.66 230.448 364.291C230.69 363.922 230.787 363.477 230.72 363.04C230.72 362.85 230.72 362.66 230.72 362.47C230.764 361.977 230.674 361.48 230.459 361.033C230.244 360.586 229.913 360.205 229.5 359.93C229.22 359.75 228.92 359.59 228.63 359.42C227.254 358.566 225.66 358.126 224.04 358.15C223.17 358.2 222.3 358.3 221.43 358.34C219.76 358.43 218.085 358.35 216.43 358.1C213.49 357.61 210.56 357.1 207.63 356.51C206.828 356.317 206.04 356.07 205.27 355.77C205.131 355.737 205.009 355.653 204.927 355.535C204.846 355.417 204.812 355.273 204.83 355.13C204.84 354.964 204.908 354.807 205.021 354.685C205.134 354.562 205.285 354.483 205.45 354.46C205.89 354.392 206.336 354.369 206.78 354.39C208.35 354.52 209.91 354.73 211.48 354.83C213.05 354.93 214.74 354.99 216.37 355.01C218.37 355.01 220.43 355.01 222.45 355.01C223.177 354.997 223.902 354.934 224.62 354.82C224.885 354.798 225.138 354.706 225.355 354.553C225.572 354.401 225.744 354.194 225.855 353.953C225.966 353.712 226.011 353.446 225.985 353.182C225.96 352.918 225.865 352.666 225.71 352.45C225.312 351.854 224.807 351.335 224.22 350.92C223.891 350.673 223.587 350.395 223.31 350.09C223.242 350.032 223.19 349.957 223.161 349.871C223.132 349.786 223.126 349.695 223.145 349.607C223.163 349.519 223.205 349.437 223.266 349.371C223.327 349.305 223.404 349.256 223.49 349.23C223.93 349.03 224.42 348.92 224.88 348.76C225.295 348.635 225.696 348.471 226.08 348.27C226.267 348.145 226.406 347.961 226.475 347.746C226.544 347.532 226.539 347.301 226.46 347.09C226.257 346.59 225.909 346.162 225.46 345.86C224.555 345.182 223.541 344.665 222.46 344.33C217.99 342.69 213.53 341.02 209.02 339.49C205.02 338.13 200.96 336.92 196.92 335.67C196.093 335.397 195.238 335.216 194.37 335.13C193.274 335.081 192.194 334.841 191.18 334.42C190.683 334.262 190.231 333.986 189.863 333.615C189.496 333.244 189.224 332.79 189.07 332.29L189.17 332.06ZM294.34 382.74C294.65 383.07 295.063 383.285 295.51 383.35C295.51 383.35 295.68 383.21 295.66 383.15C295.606 383.032 295.527 382.927 295.429 382.841C295.331 382.755 295.216 382.69 295.092 382.652C294.967 382.613 294.836 382.601 294.707 382.616C294.577 382.632 294.452 382.674 294.34 382.74Z" fill="url(#paint34_linear_0_1)"/>
<path d="M272.709 303.721C273.04 303.807 273.346 303.967 273.606 304.188C273.866 304.41 274.072 304.688 274.209 305.001C274.309 305.148 274.363 305.322 274.363 305.501C274.363 305.679 274.309 305.853 274.209 306.001C274.095 306.125 273.945 306.21 273.781 306.246C273.616 306.282 273.445 306.266 273.289 306.201C272.959 306.108 272.653 305.944 272.393 305.721C272.132 305.499 271.923 305.222 271.779 304.911C271.702 304.766 271.68 304.598 271.717 304.438C271.753 304.278 271.847 304.137 271.979 304.041C272.118 303.929 272.265 303.829 272.419 303.741L272.709 303.721Z" fill="url(#paint35_linear_0_1)"/>
<path d="M323.339 323.419C323.231 323.666 323.097 323.9 322.939 324.119C321.737 325.548 320.316 326.776 318.729 327.759C318.574 327.854 318.405 327.924 318.229 327.969C318.149 327.969 318.009 327.969 317.959 327.969C317.937 327.927 317.926 327.881 317.926 327.834C317.926 327.787 317.937 327.741 317.959 327.699C318.131 327.386 318.325 327.085 318.539 326.799C319.65 325.453 320.908 324.236 322.289 323.169C322.413 323.074 322.547 322.993 322.689 322.929C323.119 322.669 323.339 322.819 323.339 323.419Z" fill="url(#paint36_linear_0_1)"/>
<path d="M272.138 318.93C271.992 318.93 271.849 318.887 271.727 318.805C271.606 318.723 271.512 318.606 271.458 318.47C271.39 318.341 271.37 318.192 271.401 318.049C271.432 317.906 271.513 317.779 271.628 317.69C271.755 317.548 271.899 317.424 272.058 317.32C272.588 316.95 273.058 317.17 273.148 317.82C273.156 317.959 273.136 318.099 273.09 318.231C273.043 318.363 272.971 318.484 272.877 318.587C272.782 318.691 272.669 318.774 272.542 318.833C272.415 318.892 272.278 318.925 272.138 318.93Z" fill="url(#paint37_linear_0_1)"/>
<path d="M310.519 308.749C310.519 309.289 310.179 309.509 309.679 309.279C308.899 308.919 308.739 308.119 309.369 307.639C309.419 307.585 309.481 307.543 309.55 307.516C309.619 307.49 309.693 307.48 309.766 307.486C309.84 307.493 309.911 307.517 309.974 307.555C310.036 307.594 310.09 307.647 310.129 307.709C310.313 308.029 310.471 308.363 310.599 308.709L310.519 308.749Z" fill="url(#paint38_linear_0_1)"/>
<path d="M249.338 322.72C249.053 322.721 248.772 322.651 248.521 322.516C248.269 322.382 248.055 322.187 247.898 321.95C247.608 321.51 247.798 321.2 248.308 321.22C248.572 321.22 248.831 321.287 249.062 321.415C249.293 321.542 249.488 321.726 249.628 321.95C249.729 322.129 249.757 322.34 249.708 322.54C249.628 322.67 249.338 322.67 249.338 322.72Z" fill="url(#paint39_linear_0_1)"/>
<path d="M293.999 315.77C294.034 315.576 294.084 315.386 294.149 315.2C294.167 315.143 294.201 315.093 294.246 315.055C294.292 315.016 294.348 314.992 294.407 314.985C294.466 314.977 294.526 314.987 294.579 315.013C294.633 315.039 294.678 315.079 294.709 315.13C294.898 315.373 295.027 315.658 295.084 315.96C295.142 316.263 295.126 316.575 295.039 316.87C295.039 317 294.869 317.17 294.749 317.19C294.676 317.188 294.605 317.168 294.542 317.132C294.479 317.095 294.427 317.043 294.389 316.98C294.219 316.6 294.099 316.2 293.949 315.81L293.999 315.77Z" fill="url(#paint40_linear_0_1)"/>
<path d="M275.991 309.259C275.891 309.419 275.821 309.679 275.681 309.729C275.581 309.734 275.481 309.715 275.389 309.675C275.297 309.636 275.216 309.575 275.151 309.499C275.002 309.315 274.905 309.094 274.871 308.859C274.811 308.599 275.001 308.449 275.231 308.379C275.333 308.342 275.446 308.345 275.546 308.388C275.646 308.431 275.726 308.51 275.771 308.609C275.861 308.82 275.934 309.037 275.991 309.259Z" fill="url(#paint41_linear_0_1)"/>
<path d="M297.281 326.739C297.281 326.689 297.441 326.549 297.561 326.529C297.744 326.534 297.921 326.597 298.067 326.708C298.212 326.819 298.319 326.974 298.371 327.149C298.372 327.263 298.328 327.372 298.25 327.454C298.171 327.536 298.065 327.584 297.951 327.589C297.759 327.546 297.588 327.438 297.466 327.283C297.344 327.128 297.279 326.936 297.281 326.739Z" fill="url(#paint42_linear_0_1)"/>
<path d="M273.801 333.38C273.801 333.1 273.972 332.96 274.232 333.1C274.437 333.208 274.62 333.354 274.772 333.53C274.942 333.69 274.871 333.83 274.671 333.91C274.581 333.962 274.479 333.989 274.374 333.988C274.27 333.987 274.168 333.957 274.079 333.903C273.99 333.849 273.917 333.772 273.868 333.68C273.82 333.588 273.796 333.484 273.801 333.38Z" fill="url(#paint43_linear_0_1)"/>
<path d="M268.899 332.85C269.051 332.887 269.198 332.941 269.339 333.01C269.437 333.085 269.505 333.193 269.53 333.314C269.556 333.435 269.538 333.561 269.479 333.67C269.289 333.9 269.089 333.75 268.909 333.67C268.831 333.627 268.763 333.569 268.709 333.5C268.619 333.38 268.549 333.23 268.469 333.1L268.899 332.85Z" fill="url(#paint44_linear_0_1)"/>
<path d="M300.399 379.231C300.526 379.274 300.65 379.328 300.769 379.391C301.314 379.678 301.745 380.144 301.989 380.711C302.011 380.759 302.023 380.812 302.023 380.866C302.023 380.919 302.011 380.972 301.989 381.021C301.989 381.081 301.789 381.081 301.689 381.021C300.986 380.831 300.379 380.385 299.989 379.771C299.799 379.471 299.959 379.221 300.399 379.231Z" fill="url(#paint45_linear_0_1)"/>
<path d="M306.802 385.67C307.077 385.718 307.329 385.854 307.52 386.058C307.711 386.262 307.831 386.522 307.862 386.8C307.862 387.08 307.742 387.16 307.502 387.04C307.076 386.833 306.742 386.477 306.562 386.04C306.452 385.75 306.542 385.67 306.802 385.67Z" fill="url(#paint46_linear_0_1)"/>
<path d="M301.46 375.53C301.732 375.573 301.985 375.701 302.182 375.894C302.379 376.088 302.511 376.338 302.559 376.61C302.559 376.87 302.399 377 302.169 376.88C301.744 376.67 301.408 376.315 301.22 375.88C301.11 375.6 301.24 375.51 301.46 375.53Z" fill="url(#paint47_linear_0_1)"/>
<path d="M298.341 399.541C298.341 399.841 298.171 399.931 297.901 399.811C297.738 399.734 297.595 399.618 297.487 399.473C297.379 399.329 297.308 399.159 297.281 398.981C297.273 398.924 297.278 398.866 297.298 398.812C297.317 398.758 297.349 398.709 297.391 398.671C297.45 398.646 297.513 398.633 297.576 398.633C297.64 398.633 297.703 398.646 297.761 398.671C297.929 398.748 298.072 398.87 298.174 399.024C298.276 399.177 298.334 399.356 298.341 399.541Z" fill="url(#paint48_linear_0_1)"/>
<path d="M291.84 399.289C291.92 399.019 291.9 398.749 292.17 398.659C292.249 398.655 292.327 398.667 292.401 398.695C292.475 398.722 292.543 398.764 292.6 398.819C292.703 398.9 292.772 399.017 292.792 399.147C292.813 399.277 292.783 399.41 292.71 399.519C292.551 399.702 292.37 399.863 292.17 399.999L291.84 399.289Z" fill="url(#paint49_linear_0_1)"/>
<path d="M148.412 180.941C106.412 180.941 72.2617 174.941 72.2617 167.471V307.021C72.2633 310.01 73.3174 312.903 75.2393 315.192C77.1611 317.482 79.828 319.021 82.7717 319.541C126.534 327.233 171.308 327.179 215.052 319.381C217.709 318.907 220.115 317.513 221.848 315.443C223.581 313.373 224.531 310.76 224.532 308.061V167.471C224.552 174.911 190.462 180.941 148.412 180.941Z" fill="url(#paint50_linear_0_1)"/>
<path d="M100.238 174.73C100.238 174.73 114.738 179.91 114.738 219.27V297.53C114.738 298.207 115.007 298.855 115.485 299.334C115.963 299.812 116.612 300.08 117.288 300.08C117.63 300.081 117.968 300.012 118.283 299.879C118.598 299.746 118.882 299.551 119.12 299.306C119.358 299.06 119.544 298.77 119.668 298.451C119.791 298.132 119.849 297.792 119.838 297.451C119.358 282.251 117.118 206.01 119.918 198.55C123.028 190.27 127.168 178.87 127.168 178.87L100.238 174.73Z" fill="url(#paint51_linear_0_1)"/>
<path d="M85.75 164.369C85.75 164.369 94.02 167.319 94.02 189.769V234.399C94.02 234.784 94.1728 235.153 94.4447 235.424C94.7166 235.696 95.0854 235.849 95.47 235.849C95.6651 235.849 95.8583 235.81 96.0381 235.734C96.2179 235.658 96.3806 235.547 96.5167 235.407C96.6528 235.268 96.7596 235.102 96.8306 234.92C96.9015 234.738 96.9353 234.544 96.9299 234.349C96.6499 225.679 95.3799 182.209 96.9299 177.949C98.7099 173.229 101.07 166.729 101.07 166.729L85.75 164.369Z" fill="url(#paint52_linear_0_1)"/>
<path d="M146.871 156.08C146.871 156.08 155.141 159.03 155.141 181.48V226.11C155.141 226.301 155.179 226.491 155.252 226.667C155.326 226.844 155.434 227.004 155.569 227.139C155.705 227.274 155.866 227.38 156.043 227.453C156.22 227.525 156.41 227.561 156.601 227.56C156.795 227.559 156.988 227.519 157.166 227.442C157.345 227.366 157.506 227.255 157.641 227.115C157.776 226.975 157.882 226.81 157.953 226.629C158.023 226.448 158.056 226.254 158.051 226.06C157.781 217.4 156.501 173.92 158.051 169.67C159.821 164.94 162.181 158.44 162.181 158.44L146.871 156.08Z" fill="url(#paint53_linear_0_1)"/>
<path d="M159.34 156.08C159.34 156.08 173.01 160.96 173.01 198.08V271.81C173.009 272.126 173.07 272.438 173.19 272.73C173.31 273.022 173.487 273.287 173.71 273.51C173.933 273.733 174.198 273.91 174.49 274.03C174.782 274.15 175.094 274.211 175.41 274.21C175.731 274.21 176.049 274.146 176.345 274.021C176.641 273.896 176.908 273.713 177.132 273.483C177.356 273.252 177.531 272.979 177.648 272.68C177.764 272.381 177.819 272.061 177.81 271.74C177.36 257.42 175.25 185.58 177.89 178.56C180.82 170.75 184.72 160.01 184.72 160.01L159.34 156.08Z" fill="url(#paint54_linear_0_1)"/>
<path d="M208.031 161.26C208.031 161.26 213.161 163.09 213.161 177V204.67C213.161 204.908 213.256 205.137 213.425 205.306C213.594 205.475 213.823 205.57 214.061 205.57C214.182 205.57 214.302 205.546 214.413 205.499C214.524 205.451 214.625 205.382 214.708 205.296C214.792 205.209 214.858 205.106 214.902 204.993C214.945 204.881 214.965 204.76 214.961 204.64C214.791 199.27 213.961 172.32 214.961 169.64C216.061 166.71 217.521 162.64 217.521 162.64L208.031 161.26Z" fill="url(#paint55_linear_0_1)"/>
<path d="M117.852 174.73C117.852 174.73 132.352 179.91 132.352 219.27V297.53C132.352 298.207 132.62 298.855 133.098 299.334C133.577 299.812 134.225 300.08 134.902 300.08C135.243 300.081 135.582 300.012 135.896 299.879C136.211 299.746 136.496 299.551 136.734 299.306C136.971 299.06 137.158 298.77 137.281 298.451C137.404 298.132 137.462 297.792 137.452 297.451C136.972 282.251 134.731 206.01 137.531 198.55C140.641 190.27 144.781 178.87 144.781 178.87L117.852 174.73Z" fill="url(#paint56_linear_0_1)"/>
<path d="M148.412 180.94C190.468 180.94 224.562 174.909 224.562 167.47C224.562 160.031 190.468 154 148.412 154C106.355 154 72.2617 160.031 72.2617 167.47C72.2617 174.909 106.355 180.94 148.412 180.94Z" fill="url(#paint57_linear_0_1)"/>
<path opacity="0.1" d="M292.93 0H33.0699C14.8059 0 0 14.806 0 33.07V482.93C0 501.194 14.8059 516 33.0699 516H292.93C311.194 516 326 501.194 326 482.93V33.07C326 14.806 311.194 0 292.93 0Z" fill="white"/>
<defs>
<linearGradient id="paint0_linear_0_1" x1="252.909" y1="303.64" x2="220.469" y2="244.52" gradientUnits="userSpaceOnUse">
<stop stop-color="#CB1C24"/>
<stop offset="0.11" stop-color="#BF1B23"/>
<stop offset="0.31" stop-color="#9F1920"/>
<stop offset="0.58" stop-color="#6C161A"/>
<stop offset="0.91" stop-color="#261213"/>
<stop offset="1" stop-color="#101111"/>
</linearGradient>
<linearGradient id="paint1_linear_0_1" x1="218.61" y1="308.419" x2="218.61" y2="306.749" gradientUnits="userSpaceOnUse">
<stop stop-color="#CB1C24"/>
<stop offset="0.11" stop-color="#BF1B23"/>
<stop offset="0.31" stop-color="#9F1920"/>
<stop offset="0.58" stop-color="#6C161A"/>
<stop offset="0.91" stop-color="#261213"/>
<stop offset="1" stop-color="#101111"/>
</linearGradient>
<linearGradient id="paint2_linear_0_1" x1="233.059" y1="313.429" x2="233.059" y2="312.379" gradientUnits="userSpaceOnUse">
<stop stop-color="#CB1C24"/>
<stop offset="0.11" stop-color="#BF1B23"/>
<stop offset="0.31" stop-color="#9F1920"/>
<stop offset="0.58" stop-color="#6C161A"/>
<stop offset="0.91" stop-color="#261213"/>
<stop offset="1" stop-color="#101111"/>
</linearGradient>
<linearGradient id="paint3_linear_0_1" x1="216.129" y1="299.691" x2="216.129" y2="298.881" gradientUnits="userSpaceOnUse">
<stop stop-color="#CB1C24"/>
<stop offset="0.11" stop-color="#BF1B23"/>
<stop offset="0.31" stop-color="#9F1920"/>
<stop offset="0.58" stop-color="#6C161A"/>
<stop offset="0.91" stop-color="#261213"/>
<stop offset="1" stop-color="#101111"/>
</linearGradient>
<linearGradient id="paint4_linear_0_1" x1="233.888" y1="294.77" x2="233.888" y2="294.07" gradientUnits="userSpaceOnUse">
<stop stop-color="#CB1C24"/>
<stop offset="0.11" stop-color="#BF1B23"/>
<stop offset="0.31" stop-color="#9F1920"/>
<stop offset="0.58" stop-color="#6C161A"/>
<stop offset="0.91" stop-color="#261213"/>
<stop offset="1" stop-color="#101111"/>
</linearGradient>
<linearGradient id="paint5_linear_0_1" x1="237.908" y1="294.92" x2="237.908" y2="294.2" gradientUnits="userSpaceOnUse">
<stop stop-color="#CB1C24"/>
<stop offset="0.11" stop-color="#BF1B23"/>
<stop offset="0.31" stop-color="#9F1920"/>
<stop offset="0.58" stop-color="#6C161A"/>
<stop offset="0.91" stop-color="#261213"/>
<stop offset="1" stop-color="#101111"/>
</linearGradient>
<linearGradient id="paint6_linear_0_1" x1="203.371" y1="260.201" x2="203.371" y2="256.421" gradientUnits="userSpaceOnUse">
<stop stop-color="#CB1C24"/>
<stop offset="0.11" stop-color="#BF1B23"/>
<stop offset="0.31" stop-color="#9F1920"/>
<stop offset="0.58" stop-color="#6C161A"/>
<stop offset="0.91" stop-color="#261213"/>
<stop offset="1" stop-color="#101111"/>
</linearGradient>
<linearGradient id="paint7_linear_0_1" x1="203.778" y1="253.6" x2="203.778" y2="252.18" gradientUnits="userSpaceOnUse">
<stop stop-color="#CB1C24"/>
<stop offset="0.11" stop-color="#BF1B23"/>
<stop offset="0.31" stop-color="#9F1920"/>
<stop offset="0.58" stop-color="#6C161A"/>
<stop offset="0.91" stop-color="#261213"/>
<stop offset="1" stop-color="#101111"/>
</linearGradient>
<linearGradient id="paint8_linear_0_1" x1="213.751" y1="259.85" x2="213.751" y2="258.46" gradientUnits="userSpaceOnUse">
<stop stop-color="#CB1C24"/>
<stop offset="0.11" stop-color="#BF1B23"/>
<stop offset="0.31" stop-color="#9F1920"/>
<stop offset="0.58" stop-color="#6C161A"/>
<stop offset="0.91" stop-color="#261213"/>
<stop offset="1" stop-color="#101111"/>
</linearGradient>
<linearGradient id="paint9_linear_0_1" x1="209.059" y1="255.01" x2="209.059" y2="253.94" gradientUnits="userSpaceOnUse">
<stop stop-color="#CB1C24"/>
<stop offset="0.11" stop-color="#BF1B23"/>
<stop offset="0.31" stop-color="#9F1920"/>
<stop offset="0.58" stop-color="#6C161A"/>
<stop offset="0.91" stop-color="#261213"/>
<stop offset="1" stop-color="#101111"/>
</linearGradient>
<linearGradient id="paint10_linear_0_1" x1="213.079" y1="262.65" x2="213.079" y2="261.59" gradientUnits="userSpaceOnUse">
<stop stop-color="#CB1C24"/>
<stop offset="0.11" stop-color="#BF1B23"/>
<stop offset="0.31" stop-color="#9F1920"/>
<stop offset="0.58" stop-color="#6C161A"/>
<stop offset="0.91" stop-color="#261213"/>
<stop offset="1" stop-color="#101111"/>
</linearGradient>
<linearGradient id="paint11_linear_0_1" x1="216.17" y1="245.19" x2="216.17" y2="244.26" gradientUnits="userSpaceOnUse">
<stop stop-color="#CB1C24"/>
<stop offset="0.11" stop-color="#BF1B23"/>
<stop offset="0.31" stop-color="#9F1920"/>
<stop offset="0.58" stop-color="#6C161A"/>
<stop offset="0.91" stop-color="#261213"/>
<stop offset="1" stop-color="#101111"/>
</linearGradient>
<linearGradient id="paint12_linear_0_1" x1="220.301" y1="245.171" x2="220.301" y2="244.151" gradientUnits="userSpaceOnUse">
<stop stop-color="#CB1C24"/>
<stop offset="0.11" stop-color="#BF1B23"/>
<stop offset="0.31" stop-color="#9F1920"/>
<stop offset="0.58" stop-color="#6C161A"/>
<stop offset="0.91" stop-color="#261213"/>
<stop offset="1" stop-color="#101111"/>
</linearGradient>
<linearGradient id="paint13_linear_0_1" x1="198.799" y1="258.2" x2="198.799" y2="257.41" gradientUnits="userSpaceOnUse">
<stop stop-color="#CB1C24"/>
<stop offset="0.11" stop-color="#BF1B23"/>
<stop offset="0.31" stop-color="#9F1920"/>
<stop offset="0.58" stop-color="#6C161A"/>
<stop offset="0.91" stop-color="#261213"/>
<stop offset="1" stop-color="#101111"/>
</linearGradient>
<linearGradient id="paint14_linear_0_1" x1="107.853" y1="386.223" x2="148.505" y2="246.703" gradientUnits="userSpaceOnUse">
<stop stop-color="#CB1C24"/>
<stop offset="0.11" stop-color="#BF1B23"/>
<stop offset="0.31" stop-color="#9F1920"/>
<stop offset="0.58" stop-color="#6C161A"/>
<stop offset="0.91" stop-color="#261213"/>
<stop offset="1" stop-color="#101111"/>
</linearGradient>
<linearGradient id="paint15_linear_0_1" x1="49.0355" y1="415.158" x2="52.5287" y2="411.665" gradientUnits="userSpaceOnUse">
<stop stop-color="#CB1C24"/>
<stop offset="0.11" stop-color="#BF1B23"/>
<stop offset="0.31" stop-color="#9F1920"/>
<stop offset="0.58" stop-color="#6C161A"/>
<stop offset="0.91" stop-color="#261213"/>
<stop offset="1" stop-color="#101111"/>
</linearGradient>
<linearGradient id="paint16_linear_0_1" x1="138.694" y1="228.623" x2="139.967" y2="227.35" gradientUnits="userSpaceOnUse">
<stop stop-color="#CB1C24"/>
<stop offset="0.11" stop-color="#BF1B23"/>
<stop offset="0.31" stop-color="#9F1920"/>
<stop offset="0.58" stop-color="#6C161A"/>
<stop offset="0.91" stop-color="#261213"/>
<stop offset="1" stop-color="#101111"/>
</linearGradient>
<linearGradient id="paint17_linear_0_1" x1="9.42455" y1="322.554" x2="16.6229" y2="315.356" gradientUnits="userSpaceOnUse">
<stop stop-color="#CB1C24"/>
<stop offset="0.11" stop-color="#BF1B23"/>
<stop offset="0.31" stop-color="#9F1920"/>
<stop offset="0.58" stop-color="#6C161A"/>
<stop offset="0.91" stop-color="#261213"/>
<stop offset="1" stop-color="#101111"/>
</linearGradient>
<linearGradient id="paint18_linear_0_1" x1="68.6842" y1="397.543" x2="71.1591" y2="395.068" gradientUnits="userSpaceOnUse">
<stop stop-color="#CB1C24"/>
<stop offset="0.11" stop-color="#BF1B23"/>
<stop offset="0.31" stop-color="#9F1920"/>
<stop offset="0.58" stop-color="#6C161A"/>
<stop offset="0.91" stop-color="#261213"/>
<stop offset="1" stop-color="#101111"/>
</linearGradient>
<linearGradient id="paint19_linear_0_1" x1="3.21659" y1="358.844" x2="5.82582" y2="356.235" gradientUnits="userSpaceOnUse">
<stop stop-color="#CB1C24"/>
<stop offset="0.11" stop-color="#BF1B23"/>
<stop offset="0.31" stop-color="#9F1920"/>
<stop offset="0.58" stop-color="#6C161A"/>
<stop offset="0.91" stop-color="#261213"/>
<stop offset="1" stop-color="#101111"/>
</linearGradient>
<linearGradient id="paint20_linear_0_1" x1="107.046" y1="424.604" x2="109.132" y2="422.518" gradientUnits="userSpaceOnUse">
<stop stop-color="#CB1C24"/>
<stop offset="0.11" stop-color="#BF1B23"/>
<stop offset="0.31" stop-color="#9F1920"/>
<stop offset="0.58" stop-color="#6C161A"/>
<stop offset="0.91" stop-color="#261213"/>
<stop offset="1" stop-color="#101111"/>
</linearGradient>
<linearGradient id="paint21_linear_0_1" x1="34.786" y1="369.626" x2="37.8477" y2="366.564" gradientUnits="userSpaceOnUse">
<stop stop-color="#CB1C24"/>
<stop offset="0.11" stop-color="#BF1B23"/>
<stop offset="0.31" stop-color="#9F1920"/>
<stop offset="0.58" stop-color="#6C161A"/>
<stop offset="0.91" stop-color="#261213"/>
<stop offset="1" stop-color="#101111"/>
</linearGradient>
<linearGradient id="paint22_linear_0_1" x1="52.1095" y1="405.35" x2="54.0257" y2="403.434" gradientUnits="userSpaceOnUse">
<stop stop-color="#CB1C24"/>
<stop offset="0.11" stop-color="#BF1B23"/>
<stop offset="0.31" stop-color="#9F1920"/>
<stop offset="0.58" stop-color="#6C161A"/>
<stop offset="0.91" stop-color="#261213"/>
<stop offset="1" stop-color="#101111"/>
</linearGradient>
<linearGradient id="paint23_linear_0_1" x1="46.2486" y1="349.042" x2="47.7265" y2="347.564" gradientUnits="userSpaceOnUse">
<stop stop-color="#CB1C24"/>
<stop offset="0.11" stop-color="#BF1B23"/>
<stop offset="0.31" stop-color="#9F1920"/>
<stop offset="0.58" stop-color="#6C161A"/>
<stop offset="0.91" stop-color="#261213"/>
<stop offset="1" stop-color="#101111"/>
</linearGradient>
<linearGradient id="paint24_linear_0_1" x1="87.8919" y1="372.611" x2="89.1788" y2="371.324" gradientUnits="userSpaceOnUse">
<stop stop-color="#CB1C24"/>
<stop offset="0.11" stop-color="#BF1B23"/>
<stop offset="0.31" stop-color="#9F1920"/>
<stop offset="0.58" stop-color="#6C161A"/>
<stop offset="0.91" stop-color="#261213"/>
<stop offset="1" stop-color="#101111"/>
</linearGradient>
<linearGradient id="paint25_linear_0_1" x1="95.0031" y1="380.276" x2="96.3183" y2="378.961" gradientUnits="userSpaceOnUse">
<stop stop-color="#CB1C24"/>
<stop offset="0.11" stop-color="#BF1B23"/>
<stop offset="0.31" stop-color="#9F1920"/>
<stop offset="0.58" stop-color="#6C161A"/>
<stop offset="0.91" stop-color="#261213"/>
<stop offset="1" stop-color="#101111"/>
</linearGradient>
<linearGradient id="paint26_linear_0_1" x1="95.3218" y1="253.116" x2="102.273" y2="246.165" gradientUnits="userSpaceOnUse">
<stop stop-color="#CB1C24"/>
<stop offset="0.11" stop-color="#BF1B23"/>
<stop offset="0.31" stop-color="#9F1920"/>
<stop offset="0.58" stop-color="#6C161A"/>
<stop offset="0.91" stop-color="#261213"/>
<stop offset="1" stop-color="#101111"/>
</linearGradient>
<linearGradient id="paint27_linear_0_1" x1="108.208" y1="241.761" x2="110.824" y2="239.145" gradientUnits="userSpaceOnUse">
<stop stop-color="#CB1C24"/>
<stop offset="0.11" stop-color="#BF1B23"/>
<stop offset="0.31" stop-color="#9F1920"/>
<stop offset="0.58" stop-color="#6C161A"/>
<stop offset="0.91" stop-color="#261213"/>
<stop offset="1" stop-color="#101111"/>
</linearGradient>
<linearGradient id="paint28_linear_0_1" x1="115.043" y1="271.537" x2="117.595" y2="268.984" gradientUnits="userSpaceOnUse">
<stop stop-color="#CB1C24"/>
<stop offset="0.11" stop-color="#BF1B23"/>
<stop offset="0.31" stop-color="#9F1920"/>
<stop offset="0.58" stop-color="#6C161A"/>
<stop offset="0.91" stop-color="#261213"/>
<stop offset="1" stop-color="#101111"/>
</linearGradient>
<linearGradient id="paint29_linear_0_1" x1="115.298" y1="254.029" x2="117.278" y2="252.049" gradientUnits="userSpaceOnUse">
<stop stop-color="#CB1C24"/>
<stop offset="0.11" stop-color="#BF1B23"/>
<stop offset="0.31" stop-color="#9F1920"/>
<stop offset="0.58" stop-color="#6C161A"/>
<stop offset="0.91" stop-color="#261213"/>
<stop offset="1" stop-color="#101111"/>
</linearGradient>
<linearGradient id="paint30_linear_0_1" x1="108.658" y1="275.433" x2="110.603" y2="273.488" gradientUnits="userSpaceOnUse">
<stop stop-color="#CB1C24"/>
<stop offset="0.11" stop-color="#BF1B23"/>
<stop offset="0.31" stop-color="#9F1920"/>
<stop offset="0.58" stop-color="#6C161A"/>
<stop offset="0.91" stop-color="#261213"/>
<stop offset="1" stop-color="#101111"/>
</linearGradient>
<linearGradient id="paint31_linear_0_1" x1="146.405" y1="249.058" x2="148.123" y2="247.339" gradientUnits="userSpaceOnUse">
<stop stop-color="#CB1C24"/>
<stop offset="0.11" stop-color="#BF1B23"/>
<stop offset="0.31" stop-color="#9F1920"/>
<stop offset="0.58" stop-color="#6C161A"/>
<stop offset="0.91" stop-color="#261213"/>
<stop offset="1" stop-color="#101111"/>
</linearGradient>
<linearGradient id="paint32_linear_0_1" x1="154.018" y1="256.589" x2="155.885" y2="254.722" gradientUnits="userSpaceOnUse">
<stop stop-color="#CB1C24"/>
<stop offset="0.11" stop-color="#BF1B23"/>
<stop offset="0.31" stop-color="#9F1920"/>
<stop offset="0.58" stop-color="#6C161A"/>
<stop offset="0.91" stop-color="#261213"/>
<stop offset="1" stop-color="#101111"/>
</linearGradient>
<linearGradient id="paint33_linear_0_1" x1="90.6276" y1="241.054" x2="92.0701" y2="239.611" gradientUnits="userSpaceOnUse">
<stop stop-color="#CB1C24"/>
<stop offset="0.11" stop-color="#BF1B23"/>
<stop offset="0.31" stop-color="#9F1920"/>
<stop offset="0.58" stop-color="#6C161A"/>
<stop offset="0.91" stop-color="#261213"/>
<stop offset="1" stop-color="#101111"/>
</linearGradient>
<linearGradient id="paint34_linear_0_1" x1="241.429" y1="309.724" x2="284.353" y2="387.917" gradientUnits="userSpaceOnUse">
<stop stop-color="#CB1C24"/>
<stop offset="0.11" stop-color="#BF1B23"/>
<stop offset="0.31" stop-color="#9F1920"/>
<stop offset="0.58" stop-color="#6C161A"/>
<stop offset="0.91" stop-color="#261213"/>
<stop offset="1" stop-color="#101111"/>
</linearGradient>
<linearGradient id="paint35_linear_0_1" x1="273.007" y1="303.749" x2="273.007" y2="306.269" gradientUnits="userSpaceOnUse">
<stop stop-color="#CB1C24"/>
<stop offset="0.11" stop-color="#BF1B23"/>
<stop offset="0.31" stop-color="#9F1920"/>
<stop offset="0.58" stop-color="#6C161A"/>
<stop offset="0.91" stop-color="#261213"/>
<stop offset="1" stop-color="#101111"/>
</linearGradient>
<linearGradient id="paint36_linear_0_1" x1="320.64" y1="322.829" x2="320.641" y2="328.009" gradientUnits="userSpaceOnUse">
<stop stop-color="#CB1C24"/>
<stop offset="0.11" stop-color="#BF1B23"/>
<stop offset="0.31" stop-color="#9F1920"/>
<stop offset="0.58" stop-color="#6C161A"/>
<stop offset="0.91" stop-color="#261213"/>
<stop offset="1" stop-color="#101111"/>
</linearGradient>
<linearGradient id="paint37_linear_0_1" x1="272.278" y1="317.168" x2="272.278" y2="318.958" gradientUnits="userSpaceOnUse">
<stop stop-color="#CB1C24"/>
<stop offset="0.11" stop-color="#BF1B23"/>
<stop offset="0.31" stop-color="#9F1920"/>
<stop offset="0.58" stop-color="#6C161A"/>
<stop offset="0.91" stop-color="#261213"/>
<stop offset="1" stop-color="#101111"/>
</linearGradient>
<linearGradient id="paint38_linear_0_1" x1="309.807" y1="307.521" x2="309.807" y2="309.401" gradientUnits="userSpaceOnUse">
<stop stop-color="#CB1C24"/>
<stop offset="0.11" stop-color="#BF1B23"/>
<stop offset="0.31" stop-color="#9F1920"/>
<stop offset="0.58" stop-color="#6C161A"/>
<stop offset="0.91" stop-color="#261213"/>
<stop offset="1" stop-color="#101111"/>
</linearGradient>
<linearGradient id="paint39_linear_0_1" x1="248.709" y1="321.252" x2="248.709" y2="322.752" gradientUnits="userSpaceOnUse">
<stop stop-color="#CB1C24"/>
<stop offset="0.11" stop-color="#BF1B23"/>
<stop offset="0.31" stop-color="#9F1920"/>
<stop offset="0.58" stop-color="#6C161A"/>
<stop offset="0.91" stop-color="#261213"/>
<stop offset="1" stop-color="#101111"/>
</linearGradient>
<linearGradient id="paint40_linear_0_1" x1="294.549" y1="315.015" x2="294.549" y2="317.225" gradientUnits="userSpaceOnUse">
<stop stop-color="#CB1C24"/>
<stop offset="0.11" stop-color="#BF1B23"/>
<stop offset="0.31" stop-color="#9F1920"/>
<stop offset="0.58" stop-color="#6C161A"/>
<stop offset="0.91" stop-color="#261213"/>
<stop offset="1" stop-color="#101111"/>
</linearGradient>
<linearGradient id="paint41_linear_0_1" x1="275.439" y1="308.387" x2="275.439" y2="309.767" gradientUnits="userSpaceOnUse">
<stop stop-color="#CB1C24"/>
<stop offset="0.11" stop-color="#BF1B23"/>
<stop offset="0.31" stop-color="#9F1920"/>
<stop offset="0.58" stop-color="#6C161A"/>
<stop offset="0.91" stop-color="#261213"/>
<stop offset="1" stop-color="#101111"/>
</linearGradient>
<linearGradient id="paint42_linear_0_1" x1="297.843" y1="326.553" x2="297.843" y2="327.623" gradientUnits="userSpaceOnUse">
<stop stop-color="#CB1C24"/>
<stop offset="0.11" stop-color="#BF1B23"/>
<stop offset="0.31" stop-color="#9F1920"/>
<stop offset="0.58" stop-color="#6C161A"/>
<stop offset="0.91" stop-color="#261213"/>
<stop offset="1" stop-color="#101111"/>
</linearGradient>
<linearGradient id="paint43_linear_0_1" x1="274.344" y1="333.078" x2="274.344" y2="333.998" gradientUnits="userSpaceOnUse">
<stop stop-color="#CB1C24"/>
<stop offset="0.11" stop-color="#BF1B23"/>
<stop offset="0.31" stop-color="#9F1920"/>
<stop offset="0.58" stop-color="#6C161A"/>
<stop offset="0.91" stop-color="#261213"/>
<stop offset="1" stop-color="#101111"/>
</linearGradient>
<linearGradient id="paint44_linear_0_1" x1="269.021" y1="332.879" x2="269.022" y2="333.819" gradientUnits="userSpaceOnUse">
<stop stop-color="#CB1C24"/>
<stop offset="0.11" stop-color="#BF1B23"/>
<stop offset="0.31" stop-color="#9F1920"/>
<stop offset="0.58" stop-color="#6C161A"/>
<stop offset="0.91" stop-color="#261213"/>
<stop offset="1" stop-color="#101111"/>
</linearGradient>
<linearGradient id="paint45_linear_0_1" x1="300.98" y1="379.264" x2="300.98" y2="381.104" gradientUnits="userSpaceOnUse">
<stop stop-color="#CB1C24"/>
<stop offset="0.11" stop-color="#BF1B23"/>
<stop offset="0.31" stop-color="#9F1920"/>
<stop offset="0.58" stop-color="#6C161A"/>
<stop offset="0.91" stop-color="#261213"/>
<stop offset="1" stop-color="#101111"/>
</linearGradient>
<linearGradient id="paint46_linear_0_1" x1="307.204" y1="385.662" x2="307.204" y2="387.082" gradientUnits="userSpaceOnUse">
<stop stop-color="#CB1C24"/>
<stop offset="0.11" stop-color="#BF1B23"/>
<stop offset="0.31" stop-color="#9F1920"/>
<stop offset="0.58" stop-color="#6C161A"/>
<stop offset="0.91" stop-color="#261213"/>
<stop offset="1" stop-color="#101111"/>
</linearGradient>
<linearGradient id="paint47_linear_0_1" x1="301.88" y1="375.553" x2="301.88" y2="376.953" gradientUnits="userSpaceOnUse">
<stop stop-color="#CB1C24"/>
<stop offset="0.11" stop-color="#BF1B23"/>
<stop offset="0.31" stop-color="#9F1920"/>
<stop offset="0.58" stop-color="#6C161A"/>
<stop offset="0.91" stop-color="#261213"/>
<stop offset="1" stop-color="#101111"/>
</linearGradient>
<linearGradient id="paint48_linear_0_1" x1="297.795" y1="398.655" x2="297.796" y2="399.895" gradientUnits="userSpaceOnUse">
<stop stop-color="#CB1C24"/>
<stop offset="0.11" stop-color="#BF1B23"/>
<stop offset="0.31" stop-color="#9F1920"/>
<stop offset="0.58" stop-color="#6C161A"/>
<stop offset="0.91" stop-color="#261213"/>
<stop offset="1" stop-color="#101111"/>
</linearGradient>
<linearGradient id="paint49_linear_0_1" x1="292.334" y1="398.684" x2="292.334" y2="400.034" gradientUnits="userSpaceOnUse">
<stop stop-color="#CB1C24"/>
<stop offset="0.11" stop-color="#BF1B23"/>
<stop offset="0.31" stop-color="#9F1920"/>
<stop offset="0.58" stop-color="#6C161A"/>
<stop offset="0.91" stop-color="#261213"/>
<stop offset="1" stop-color="#101111"/>
</linearGradient>
<linearGradient id="paint50_linear_0_1" x1="3.23176" y1="246.371" x2="317.072" y2="246.371" gradientUnits="userSpaceOnUse">
<stop/>
<stop offset="0.08" stop-color="#333333"/>
<stop offset="0.17" stop-color="#626262"/>
<stop offset="0.26" stop-color="#8C8C8C"/>
<stop offset="0.36" stop-color="#B0B0B0"/>
<stop offset="0.46" stop-color="#CDCDCD"/>
<stop offset="0.56" stop-color="#E3E3E3"/>
<stop offset="0.68" stop-color="#F3F3F3"/>
<stop offset="0.81" stop-color="#FCFCFC"/>
<stop offset="1" stop-color="white"/>
</linearGradient>
<linearGradient id="paint51_linear_0_1" x1="113.698" y1="473.03" x2="113.698" y2="-14.1795" gradientUnits="userSpaceOnUse">
<stop stop-color="#CB1C24"/>
<stop offset="0.11" stop-color="#BF1B23"/>
<stop offset="0.31" stop-color="#9F1920"/>
<stop offset="0.58" stop-color="#6C161A"/>
<stop offset="0.91" stop-color="#261213"/>
<stop offset="1" stop-color="#101111"/>
</linearGradient>
<linearGradient id="paint52_linear_0_1" x1="93.43" y1="334.469" x2="93.43" y2="56.6392" gradientUnits="userSpaceOnUse">
<stop stop-color="#CB1C24"/>
<stop offset="0.11" stop-color="#BF1B23"/>
<stop offset="0.31" stop-color="#9F1920"/>
<stop offset="0.58" stop-color="#6C161A"/>
<stop offset="0.91" stop-color="#261213"/>
<stop offset="1" stop-color="#101111"/>
</linearGradient>
<linearGradient id="paint53_linear_0_1" x1="154.551" y1="326.18" x2="154.551" y2="48.3601" gradientUnits="userSpaceOnUse">
<stop stop-color="#CB1C24"/>
<stop offset="0.11" stop-color="#BF1B23"/>
<stop offset="0.31" stop-color="#9F1920"/>
<stop offset="0.58" stop-color="#6C161A"/>
<stop offset="0.91" stop-color="#261213"/>
<stop offset="1" stop-color="#101111"/>
</linearGradient>
<linearGradient id="paint54_linear_0_1" x1="171.99" y1="437.12" x2="171.99" y2="-21.8999" gradientUnits="userSpaceOnUse">
<stop stop-color="#CB1C24"/>
<stop offset="0.11" stop-color="#BF1B23"/>
<stop offset="0.31" stop-color="#9F1920"/>
<stop offset="0.58" stop-color="#6C161A"/>
<stop offset="0.91" stop-color="#261213"/>
<stop offset="1" stop-color="#101111"/>
</linearGradient>
<linearGradient id="paint55_linear_0_1" x1="212.791" y1="266.7" x2="212.791" y2="94.4897" gradientUnits="userSpaceOnUse">
<stop stop-color="#CB1C24"/>
<stop offset="0.11" stop-color="#BF1B23"/>
<stop offset="0.31" stop-color="#9F1920"/>
<stop offset="0.58" stop-color="#6C161A"/>
<stop offset="0.91" stop-color="#261213"/>
<stop offset="1" stop-color="#101111"/>
</linearGradient>
<linearGradient id="paint56_linear_0_1" x1="131.322" y1="473.03" x2="131.322" y2="-14.1795" gradientUnits="userSpaceOnUse">
<stop stop-color="#CB1C24"/>
<stop offset="0.11" stop-color="#BF1B23"/>
<stop offset="0.31" stop-color="#9F1920"/>
<stop offset="0.58" stop-color="#6C161A"/>
<stop offset="0.91" stop-color="#261213"/>
<stop offset="1" stop-color="#101111"/>
</linearGradient>
<linearGradient id="paint57_linear_0_1" x1="148.412" y1="68.28" x2="148.412" y2="305.53" gradientUnits="userSpaceOnUse">
<stop stop-color="#CB1C24"/>
<stop offset="0.11" stop-color="#B41B22"/>
<stop offset="0.55" stop-color="#5C1519"/>
<stop offset="0.85" stop-color="#251213"/>
<stop offset="1" stop-color="#101111"/>
</linearGradient>
</defs>
</svg>
