<svg width="327" height="516" viewBox="0 0 327 516" fill="none" xmlns="http://www.w3.org/2000/svg">
<path opacity="0.1" d="M292.93 0H33.0699C14.8059 0 0 14.806 0 33.07V482.93C0 501.194 14.8059 516 33.0699 516H292.93C311.194 516 326 501.194 326 482.93V33.07C326 14.806 311.194 0 292.93 0Z" fill="white"/>
<path d="M296.06 251.07C295.81 251.88 295.55 251.91 294.82 251.96C293.868 252 292.92 251.818 292.05 251.43C290.05 250.6 288.12 249.74 286.13 248.96C281.59 247.2 276.99 245.59 272.36 244.08C270.72 243.54 269.06 243.08 267.36 242.62C267.21 242.557 267.046 242.537 266.885 242.56C266.724 242.583 266.572 242.65 266.446 242.752C266.32 242.855 266.224 242.99 266.168 243.143C266.113 243.295 266.099 243.46 266.13 243.62C266.103 244.093 266.208 244.565 266.434 244.982C266.66 245.399 266.998 245.745 267.41 245.98C268.19 246.46 269.02 246.88 269.84 247.3C271.35 248.07 272.84 248.82 274.4 249.58C275.96 250.34 277.33 250.99 278.77 251.74C280.21 252.49 281.39 253.21 282.7 253.96C282.78 253.96 282.85 254.07 282.93 254.12C282.995 254.161 283.041 254.226 283.058 254.301C283.075 254.376 283.061 254.455 283.02 254.52C282.945 254.639 282.827 254.725 282.69 254.76C282.461 254.76 282.234 254.719 282.02 254.64C281.17 254.3 280.32 253.97 279.5 253.58C277.04 252.4 274.61 251.18 272.14 250.01C270.39 249.18 268.6 248.4 266.82 247.63C266.242 247.343 265.605 247.196 264.96 247.2C264.817 247.21 264.676 247.237 264.54 247.28C264.458 247.3 264.381 247.337 264.315 247.389C264.249 247.441 264.195 247.507 264.157 247.582C264.119 247.657 264.098 247.74 264.095 247.824C264.092 247.909 264.107 247.992 264.14 248.07C264.278 248.518 264.559 248.908 264.94 249.18C265.62 249.68 266.33 250.18 267.04 250.6C267.9 251.16 268.77 251.7 269.62 252.26C269.816 252.397 269.997 252.555 270.16 252.73C270.3 252.87 270.4 253.06 270.29 253.23C270.235 253.293 270.167 253.344 270.092 253.38C270.016 253.416 269.934 253.437 269.85 253.44C269.322 253.416 268.809 253.258 268.36 252.98C266.85 252.2 265.36 251.4 263.83 250.63C263.26 250.33 262.67 250.08 262.08 249.83C261.923 249.753 261.751 249.712 261.576 249.709C261.402 249.706 261.228 249.742 261.069 249.813C260.91 249.885 260.768 249.991 260.654 250.123C260.54 250.256 260.457 250.412 260.41 250.58C260.181 251.175 260.109 251.819 260.2 252.45C260.283 253.282 260.478 254.1 260.78 254.88C260.855 255.083 260.975 255.267 261.13 255.418C261.286 255.569 261.474 255.682 261.68 255.75C262.13 255.91 262.59 256.02 263.04 256.16C264.386 256.649 265.625 257.392 266.69 258.35C268.16 259.55 269.69 260.73 271.16 261.9C271.883 262.412 272.553 262.995 273.16 263.64C273.248 263.724 273.316 263.827 273.36 263.94C273.4 264.06 273.4 264.19 273.36 264.31C273.319 264.349 273.27 264.376 273.215 264.39C273.161 264.404 273.104 264.404 273.05 264.39C272.724 264.277 272.409 264.133 272.11 263.96C271.11 263.34 270.19 262.67 269.2 262.06C268.21 261.45 267.44 261.06 266.54 260.58C266.24 260.43 265.86 260.46 265.54 260.32C264.61 259.92 263.7 259.48 262.78 259.07C262.4 258.9 262.02 258.73 261.63 258.59C260.772 258.255 259.818 258.255 258.96 258.59C257.84 259.03 256.74 259.52 255.61 259.91C254.48 260.3 253.22 260.63 252.03 260.99C251.687 261.089 251.353 261.217 251.03 261.37C250.63 261.548 250.293 261.843 250.063 262.216C249.833 262.589 249.72 263.022 249.74 263.46C249.765 264.582 249.865 265.701 250.04 266.81C250.12 267.52 250.14 268.23 250.18 268.94C250.241 269.809 250.149 270.682 249.91 271.52C249.789 271.902 249.621 272.269 249.41 272.61C249.309 272.802 249.143 272.952 248.94 273.031C248.738 273.11 248.514 273.113 248.31 273.04C247.856 272.932 247.443 272.692 247.125 272.35C246.806 272.009 246.596 271.581 246.52 271.12C246.48 270.631 246.48 270.139 246.52 269.65C246.63 268.23 246.8 266.81 246.91 265.39C247.071 264.062 247.071 262.718 246.91 261.39C246.821 260.766 246.569 260.176 246.18 259.68C246.086 259.548 245.955 259.446 245.805 259.386C245.654 259.326 245.489 259.31 245.33 259.34C245.033 259.394 244.732 259.427 244.43 259.44C244.27 259.44 244.05 259.39 244.05 259.19C244.05 258.99 244.21 258.92 244.3 258.79C244.327 258.759 244.362 258.735 244.4 258.72C244.87 258.56 244.76 258.29 244.51 258.06C244.173 257.753 243.808 257.478 243.42 257.24C242.436 256.621 241.337 256.206 240.19 256.02C239.716 255.992 239.242 256.067 238.8 256.24C236.499 256.904 234.232 257.685 232.01 258.58C230.29 259.26 228.6 260.01 226.9 260.73C226.734 260.793 226.587 260.896 226.472 261.031C226.357 261.165 226.277 261.327 226.24 261.5C225.89 262.77 225.53 264.04 225.12 265.29C224.874 266.035 224.581 266.763 224.24 267.47C224.139 267.684 223.971 267.859 223.762 267.969C223.553 268.079 223.313 268.118 223.08 268.08C222.59 268.01 222.44 267.7 222.47 267.22C222.582 266.365 222.85 265.538 223.26 264.78C223.73 263.78 224.26 262.78 224.72 261.78C224.748 261.743 224.768 261.701 224.778 261.656C224.789 261.612 224.79 261.565 224.781 261.52C224.773 261.475 224.755 261.432 224.729 261.394C224.703 261.356 224.669 261.324 224.63 261.3C224.05 260.81 223.51 260.3 222.92 259.79C222.408 259.341 221.793 259.025 221.13 258.87C220.776 258.783 220.405 258.79 220.054 258.89C219.704 258.99 219.385 259.18 219.13 259.44C218.643 259.957 218.199 260.512 217.8 261.1C216.71 262.66 215.66 264.25 214.57 265.81C214.312 266.167 214.024 266.502 213.71 266.81C213.588 266.914 213.445 266.989 213.29 267.03C212.97 267.13 212.76 267.03 212.82 266.66C212.864 266.351 212.974 266.054 213.14 265.79C213.57 265.17 214.06 264.58 214.52 263.98C215.744 262.466 216.867 260.873 217.88 259.21C218.124 258.77 218.319 258.303 218.46 257.82C218.545 257.569 218.537 257.296 218.438 257.05C218.339 256.804 218.155 256.602 217.92 256.48C217.411 256.2 216.883 255.957 216.34 255.75C216.165 255.681 215.971 255.671 215.79 255.724C215.609 255.776 215.451 255.888 215.34 256.04C214.77 256.65 214.21 257.28 213.63 257.88C213.474 258.036 213.303 258.177 213.12 258.3C213.028 258.349 212.931 258.385 212.83 258.41L212.75 258.35C212.802 258.153 212.876 257.961 212.97 257.78C213.26 257.35 213.6 256.94 213.88 256.5C214.093 256.186 214.274 255.851 214.42 255.5C214.503 255.289 214.518 255.058 214.465 254.838C214.411 254.617 214.291 254.419 214.12 254.27C213.761 253.904 213.304 253.649 212.804 253.535C212.304 253.422 211.782 253.455 211.3 253.63C210.243 253.999 209.236 254.496 208.3 255.11C207.01 255.89 205.75 256.71 204.46 257.49C204.11 257.691 203.742 257.858 203.36 257.99C203.06 258.09 202.92 257.99 202.9 257.74C202.9 257.693 202.91 257.646 202.929 257.603C202.948 257.56 202.975 257.522 203.01 257.49C203.5 257.12 204.01 256.72 204.48 256.41C206.18 255.41 207.9 254.41 209.6 253.34C210.18 252.98 210.71 252.55 211.26 252.13C211.42 252.01 211.6 251.83 211.52 251.6C211.47 251.499 211.388 251.417 211.287 251.366C211.186 251.316 211.071 251.3 210.96 251.32C210.43 251.32 209.89 251.41 209.36 251.49C209.04 251.55 208.73 251.68 208.41 251.77L208.17 251.83L208.11 251.76C208.215 251.592 208.332 251.432 208.46 251.28C208.97 250.79 209.46 250.28 210.01 249.81C210.56 249.34 210.58 249.03 209.89 248.55C209.519 248.25 209.073 248.057 208.6 247.99C208.479 247.965 208.369 247.902 208.286 247.81C208.204 247.719 208.152 247.603 208.14 247.48C208.135 247.407 208.135 247.333 208.14 247.26C208.04 246.86 207.73 246.68 207.38 246.86C206.59 247.24 205.81 247.62 205.06 248.06C203.54 248.94 202.06 249.86 200.54 250.78C200.3 250.92 200.1 251.14 199.86 251.27C199.625 251.414 199.368 251.519 199.1 251.58C198.98 251.609 198.854 251.599 198.74 251.55C198.626 251.502 198.531 251.417 198.47 251.31V251.16C198.904 250.683 199.423 250.289 200 250C201.582 249.21 203.109 248.315 204.57 247.32C205.41 246.72 206.21 246.07 207 245.41C207.45 245.03 207.39 244.64 206.9 244.3C206.79 244.23 206.67 244.18 206.57 244.11C206.43 244.026 206.297 243.932 206.17 243.83C206.272 243.716 206.383 243.609 206.5 243.51C206.89 243.24 206.93 243.08 206.64 242.7C206.35 242.32 206.22 242.2 206.02 241.94C205.929 241.8 205.849 241.652 205.78 241.5H206.14C206.418 241.494 206.696 241.467 206.97 241.42C207.05 241.42 207.18 241.22 207.15 241.16C207.01 240.83 207.21 240.62 207.42 240.44C208.201 239.819 209.163 239.468 210.16 239.44C210.52 239.418 210.876 239.351 211.22 239.24C211.284 239.221 211.342 239.188 211.392 239.144C211.441 239.1 211.48 239.045 211.506 238.984C211.532 238.923 211.544 238.856 211.541 238.79C211.538 238.724 211.521 238.659 211.49 238.6C211.416 238.376 211.305 238.166 211.16 237.98C210.73 237.48 210.28 236.98 209.84 236.51L209.18 235.81C209.48 235.81 209.75 235.92 210.03 235.97C210.31 236.02 210.65 236.09 210.96 236.12C211.27 236.15 211.3 236.12 211.33 235.9C211.36 235.68 211.55 235.57 211.77 235.58C211.954 235.59 212.138 235.61 212.32 235.64C212.818 235.74 213.332 235.739 213.83 235.638C214.328 235.537 214.8 235.337 215.22 235.05C215.51 234.86 215.74 234.59 215.56 234.19C215.546 234.158 215.539 234.124 215.539 234.09C215.539 234.056 215.546 234.022 215.56 233.99C215.56 233.99 215.69 233.99 215.75 233.99C216.122 234.121 216.521 234.155 216.909 234.089C217.298 234.022 217.663 233.857 217.97 233.61C218.014 233.587 218.053 233.556 218.085 233.517C218.116 233.478 218.138 233.433 218.151 233.384C218.163 233.336 218.165 233.286 218.156 233.237C218.147 233.188 218.128 233.141 218.1 233.1C217.85 232.71 217.61 232.31 217.34 231.93C217.07 231.55 216.97 231.47 216.78 231.24H216.83C216.872 231.269 216.915 231.296 216.96 231.32C217.247 231.497 217.548 231.651 217.86 231.78C218.28 231.92 218.58 231.64 218.53 231.2C218.487 230.753 218.301 230.332 218 230C217.68 229.67 217.33 229.37 217 229.06C217.083 229.068 217.163 229.1 217.23 229.15C217.993 229.722 218.9 230.068 219.85 230.15C220.21 230.189 220.573 230.152 220.918 230.042C221.262 229.932 221.58 229.75 221.85 229.51C221.985 229.418 222.082 229.28 222.123 229.122C222.163 228.963 222.145 228.796 222.07 228.65C221.97 228.46 222.07 228.36 222.25 228.32C222.349 228.305 222.451 228.305 222.55 228.32C222.96 228.32 223.12 228.18 223.13 227.76C223.176 227.297 223.109 226.829 222.935 226.397C222.761 225.965 222.485 225.582 222.13 225.28C222.01 225.18 221.83 225.07 222.05 224.88C222.05 224.88 222.05 224.76 222.05 224.71C221.976 224.316 221.763 223.961 221.45 223.71C221.38 223.641 221.29 223.596 221.193 223.581C221.096 223.567 220.997 223.584 220.91 223.63C220.85 223.63 220.74 223.63 220.71 223.63C220.695 223.597 220.687 223.561 220.687 223.525C220.687 223.489 220.695 223.453 220.71 223.42C220.75 223.259 220.78 223.095 220.8 222.93C220.796 222.764 220.755 222.601 220.681 222.452C220.607 222.303 220.501 222.173 220.37 222.07C220.03 221.78 219.99 221.49 220.19 221.21C220.32 221.035 220.418 220.839 220.48 220.63C220.66 219.803 220.66 218.947 220.48 218.12C220.442 217.592 220.235 217.091 219.89 216.69C219.459 216.237 219.005 215.807 218.53 215.4C217.67 214.68 216.75 214.02 215.88 213.32C215.516 213.019 215.181 212.684 214.88 212.32C214.67 212.06 214.78 211.86 215.11 211.77C215.268 211.737 215.431 211.742 215.586 211.786C215.741 211.83 215.883 211.91 216 212.02C216.889 212.639 217.701 213.361 218.42 214.17C219.084 214.884 219.814 215.534 220.6 216.11C220.956 216.34 221.374 216.455 221.797 216.441C222.221 216.426 222.63 216.283 222.97 216.03C223.039 215.999 223.1 215.954 223.149 215.897C223.198 215.84 223.234 215.773 223.255 215.701C223.276 215.628 223.281 215.553 223.27 215.478C223.259 215.404 223.231 215.333 223.19 215.27C223.19 215.2 223.19 215.13 223.13 215.03H223.39C223.649 215.06 223.911 215.06 224.17 215.03C224.819 214.915 225.461 214.758 226.09 214.56C227.736 214.008 229.464 213.741 231.2 213.77C232.39 213.77 233.59 213.84 234.78 213.77C235.333 213.745 235.883 213.664 236.42 213.53C236.52 213.514 236.615 213.477 236.699 213.422C236.783 213.367 236.854 213.294 236.908 213.209C236.962 213.124 236.997 213.028 237.011 212.928C237.026 212.828 237.018 212.727 236.99 212.63C236.985 212.553 236.985 212.477 236.99 212.4C237.112 211.8 237.403 211.248 237.83 210.81C238.447 210.132 238.914 209.331 239.2 208.46C239.33 208.03 239.4 207.59 239.51 207.15C239.548 206.72 239.748 206.321 240.069 206.033C240.39 205.746 240.809 205.591 241.24 205.6C241.905 205.538 242.573 205.522 243.24 205.55C243.835 205.522 244.426 205.668 244.94 205.97C245.252 206.201 245.55 206.451 245.83 206.72C246.556 207.271 247.439 207.576 248.35 207.59C249.02 207.65 249.68 207.7 250.35 207.78C250.497 207.785 250.639 207.833 250.758 207.918C250.877 208.004 250.969 208.123 251.02 208.26C251.098 208.516 251.132 208.783 251.12 209.05C251.075 209.629 250.823 210.172 250.41 210.58C250.254 210.709 250.154 210.893 250.13 211.094C250.105 211.295 250.159 211.498 250.28 211.66C250.58 212.13 250.9 212.59 251.18 213.07C251.495 213.531 251.753 214.028 251.95 214.55C252.091 215.053 252.344 215.518 252.69 215.91C253.2 216.47 253.69 217.02 254.26 217.53C255.125 218.353 256.145 218.995 257.26 219.42C258.358 219.814 259.5 220.076 260.66 220.2C261.39 220.303 262.133 220.128 262.74 219.71C263.3 219.33 263.86 218.95 264.43 218.58C264.715 218.398 265.012 218.238 265.32 218.1C265.55 218 265.68 218.1 265.71 218.36C265.733 218.508 265.716 218.66 265.659 218.799C265.603 218.938 265.51 219.06 265.39 219.15C264.95 219.52 264.49 219.86 264.04 220.22C263.802 220.396 263.575 220.586 263.36 220.79C263.05 221.1 263.13 221.38 263.56 221.44C263.938 221.49 264.322 221.49 264.7 221.44C265.938 221.258 267.152 220.939 268.32 220.49C268.99 220.26 269.67 220.06 270.32 219.87C270.447 219.819 270.586 219.805 270.72 219.829C270.855 219.854 270.98 219.917 271.08 220.01C271.152 220.08 271.206 220.167 271.236 220.264C271.267 220.36 271.273 220.462 271.254 220.561C271.235 220.66 271.192 220.753 271.129 220.831C271.065 220.91 270.983 220.971 270.89 221.01C270.626 221.177 270.34 221.305 270.04 221.39C268.808 221.724 267.609 222.173 266.46 222.73C265.964 222.981 265.483 223.261 265.02 223.57C264.83 223.7 264.86 223.87 265.07 223.97C265.148 224.009 265.233 224.029 265.32 224.03C265.972 224.049 266.622 223.951 267.24 223.74C268.37 223.43 269.49 223.06 270.62 222.74C271.092 222.619 271.574 222.542 272.06 222.51C272.223 222.489 272.388 222.527 272.525 222.617C272.663 222.707 272.764 222.842 272.81 223C272.866 223.149 272.866 223.312 272.811 223.461C272.756 223.61 272.649 223.734 272.51 223.81C272.24 224.026 271.936 224.195 271.61 224.31C270.61 224.63 269.5 224.9 268.44 225.19C267.38 225.48 266.44 225.69 265.54 226.01C265.223 226.094 264.947 226.291 264.763 226.563C264.579 226.835 264.5 227.164 264.54 227.49C264.54 227.64 264.54 227.78 264.54 227.92C264.509 228.293 264.578 228.667 264.74 229.005C264.902 229.342 265.15 229.63 265.46 229.84L266.12 230.23C267.156 230.892 268.361 231.239 269.59 231.23C270.25 231.23 270.9 231.12 271.59 231.09C272.856 231.015 274.127 231.075 275.38 231.27C277.61 231.63 279.82 232.04 282.03 232.47C282.64 232.613 283.238 232.8 283.82 233.03C283.925 233.054 284.017 233.117 284.079 233.206C284.14 233.295 284.165 233.403 284.15 233.51C284.142 233.636 284.091 233.756 284.005 233.848C283.92 233.941 283.805 234.002 283.68 234.02C283.348 234.055 283.012 234.055 282.68 234.02C281.49 233.92 280.31 233.76 279.12 233.69C277.93 233.62 276.66 233.57 275.43 233.55C273.89 233.55 272.36 233.55 270.83 233.55C270.281 233.565 269.733 233.615 269.19 233.7C268.99 233.717 268.799 233.786 268.635 233.901C268.471 234.017 268.341 234.173 268.257 234.355C268.174 234.538 268.14 234.739 268.16 234.938C268.18 235.137 268.252 235.328 268.37 235.49C268.664 235.944 269.044 236.334 269.49 236.64C269.741 236.829 269.972 237.044 270.18 237.28C270.232 237.323 270.27 237.38 270.292 237.444C270.314 237.508 270.318 237.576 270.303 237.642C270.289 237.708 270.257 237.769 270.21 237.818C270.164 237.867 270.105 237.902 270.04 237.92C269.71 238.07 269.34 238.16 269.04 238.28C268.73 238.378 268.429 238.502 268.14 238.65C267.995 238.741 267.887 238.88 267.834 239.042C267.781 239.205 267.786 239.381 267.85 239.54C267.994 239.913 268.245 240.237 268.57 240.47C269.248 240.983 270.009 241.375 270.82 241.63C274.2 242.87 277.57 244.13 280.98 245.29C283.98 246.29 287.07 247.23 290.12 248.18C290.748 248.381 291.395 248.518 292.05 248.59C292.878 248.623 293.694 248.802 294.46 249.12C294.835 249.24 295.176 249.449 295.453 249.73C295.73 250.01 295.935 250.353 296.05 250.73L296.06 251.07ZM216.59 212.74C216.357 212.492 216.047 212.33 215.71 212.28C215.71 212.28 215.58 212.39 215.59 212.43C215.632 212.519 215.692 212.598 215.766 212.663C215.841 212.727 215.928 212.776 216.022 212.805C216.116 212.834 216.215 212.843 216.313 212.832C216.411 212.821 216.505 212.79 216.59 212.74Z" fill="url(#paint0_linear_0_1)"/>
<path d="M238.77 281.27C238.518 281.198 238.285 281.07 238.088 280.897C237.891 280.725 237.735 280.51 237.63 280.27C237.559 280.158 237.521 280.028 237.521 279.895C237.521 279.762 237.559 279.632 237.63 279.52C237.718 279.427 237.832 279.363 237.957 279.336C238.082 279.309 238.212 279.321 238.33 279.37C238.579 279.445 238.81 279.573 239.005 279.746C239.2 279.919 239.355 280.131 239.46 280.37C239.518 280.48 239.534 280.607 239.507 280.728C239.479 280.849 239.41 280.956 239.31 281.03C239.204 281.112 239.094 281.189 238.98 281.26L238.77 281.27Z" fill="url(#paint1_linear_0_1)"/>
<path d="M212.07 205.36C212.22 205.48 212.37 205.6 212.51 205.73C212.65 205.86 212.6 205.95 212.45 206C212.357 206.051 212.25 206.07 212.145 206.054C212.04 206.038 211.943 205.987 211.87 205.91C211.8 205.836 211.76 205.737 211.76 205.635C211.76 205.533 211.8 205.434 211.87 205.36H212.07Z" fill="url(#paint2_linear_0_1)"/>
<path d="M200.5 266.36C200.58 266.176 200.681 266.002 200.8 265.84C201.708 264.755 202.785 263.823 203.99 263.08C204.104 263.01 204.229 262.959 204.36 262.93C204.393 262.915 204.429 262.907 204.465 262.907C204.501 262.907 204.537 262.915 204.57 262.93C204.585 262.963 204.592 262.999 204.592 263.035C204.592 263.071 204.585 263.107 204.57 263.14C204.439 263.376 204.292 263.603 204.13 263.82C203.292 264.84 202.339 265.759 201.29 266.56C201.198 266.635 201.097 266.699 200.99 266.75C200.67 266.92 200.5 266.82 200.5 266.36Z" fill="url(#paint3_linear_0_1)"/>
<path d="M239.2 269.77C239.311 269.769 239.419 269.801 239.512 269.861C239.604 269.922 239.677 270.008 239.72 270.11C239.772 270.209 239.787 270.324 239.763 270.433C239.74 270.543 239.678 270.641 239.59 270.71C239.489 270.811 239.379 270.901 239.26 270.98C238.86 271.26 238.5 271.09 238.44 270.6C238.435 270.495 238.45 270.391 238.486 270.292C238.521 270.194 238.576 270.103 238.646 270.026C238.717 269.949 238.802 269.886 238.898 269.842C238.993 269.798 239.095 269.774 239.2 269.77Z" fill="url(#paint4_linear_0_1)"/>
<path d="M210.19 277.46C210.19 277.04 210.44 276.88 210.83 277.06C210.957 277.095 211.072 277.164 211.161 277.261C211.25 277.358 211.31 277.478 211.334 277.608C211.358 277.737 211.345 277.871 211.297 277.993C211.248 278.116 211.166 278.222 211.06 278.3C211.02 278.339 210.972 278.368 210.92 278.387C210.867 278.405 210.811 278.411 210.756 278.406C210.701 278.4 210.647 278.382 210.599 278.353C210.552 278.325 210.511 278.286 210.48 278.24C210.343 278 210.226 277.749 210.13 277.49L210.19 277.46Z" fill="url(#paint5_linear_0_1)"/>
<path d="M256.47 266.9C256.687 266.899 256.9 266.952 257.09 267.056C257.281 267.159 257.443 267.308 257.56 267.49C257.78 267.82 257.64 268.05 257.25 268.04C257.05 268.037 256.854 267.985 256.679 267.887C256.504 267.789 256.357 267.649 256.25 267.48C256.195 267.338 256.195 267.182 256.25 267.04C256.22 267 256.41 266.93 256.47 266.9Z" fill="url(#paint6_linear_0_1)"/>
<path d="M222.68 272.15C222.651 272.296 222.611 272.44 222.56 272.58C222.542 272.621 222.513 272.655 222.475 272.679C222.438 272.703 222.395 272.716 222.35 272.716C222.306 272.716 222.262 272.703 222.225 272.679C222.188 272.655 222.158 272.621 222.14 272.58C221.998 272.397 221.902 272.183 221.858 271.955C221.815 271.727 221.826 271.493 221.89 271.27C221.89 271.17 222.02 271.04 222.11 271.03C222.165 271.03 222.219 271.045 222.267 271.073C222.314 271.101 222.353 271.142 222.38 271.19C222.507 271.477 222.617 271.771 222.71 272.07L222.68 272.15Z" fill="url(#paint7_linear_0_1)"/>
<path d="M236.29 277.07C236.36 276.95 236.42 276.75 236.53 276.72C236.604 276.716 236.677 276.73 236.745 276.759C236.813 276.789 236.872 276.834 236.92 276.89C237.033 277.032 237.109 277.201 237.14 277.38C237.14 277.57 237.04 277.69 236.86 277.74C236.784 277.765 236.702 277.761 236.628 277.73C236.554 277.699 236.495 277.642 236.46 277.57C236.39 277.408 236.333 277.241 236.29 277.07Z" fill="url(#paint8_linear_0_1)"/>
<path d="M220.2 263.86C220.2 263.86 220.08 264 219.99 264.02C219.851 264.018 219.716 263.972 219.606 263.887C219.496 263.802 219.417 263.684 219.38 263.55C219.38 263.465 219.411 263.383 219.469 263.32C219.526 263.257 219.605 263.218 219.69 263.21C219.835 263.246 219.965 263.329 220.057 263.447C220.149 263.565 220.2 263.71 220.2 263.86Z" fill="url(#paint9_linear_0_1)"/>
<path d="M238 258.84C238 259.06 237.87 259.16 237.67 259.06C237.52 258.967 237.382 258.857 237.26 258.73C237.14 258.61 237.19 258.51 237.34 258.45C237.65 258.3 238 258.49 238 258.84Z" fill="url(#paint10_linear_0_1)"/>
<path d="M241.65 259.25C241.536 259.218 241.425 259.174 241.32 259.12C241.246 259.063 241.195 258.98 241.177 258.889C241.159 258.797 241.174 258.701 241.22 258.62C241.36 258.45 241.51 258.56 241.64 258.62C241.704 258.649 241.759 258.693 241.8 258.75C241.866 258.846 241.926 258.947 241.98 259.05L241.65 259.25Z" fill="url(#paint11_linear_0_1)"/>
<path d="M207.13 220.75C207.531 220.747 207.924 220.864 208.257 221.087C208.591 221.31 208.85 221.628 209 222C209.101 222.313 209.108 222.649 209.019 222.966C208.93 223.282 208.749 223.566 208.5 223.78C208.392 223.899 208.271 224.007 208.14 224.1C208.009 224.234 207.851 224.34 207.676 224.41C207.502 224.481 207.315 224.514 207.127 224.509C206.939 224.503 206.754 224.458 206.584 224.378C206.415 224.297 206.263 224.182 206.14 224.04C205.766 223.75 205.43 223.414 205.14 223.04C205.046 222.932 204.975 222.806 204.93 222.67C204.886 222.534 204.869 222.39 204.882 222.248C204.894 222.105 204.934 221.966 205.001 221.839C205.068 221.713 205.159 221.601 205.27 221.51C205.51 221.261 205.8 221.065 206.12 220.934C206.44 220.803 206.784 220.741 207.13 220.75Z" fill="url(#paint12_linear_0_1)"/>
<path d="M208 217.93C207.473 217.857 206.994 217.585 206.66 217.17C206.43 216.88 206.66 216.56 207.04 216.51C207.338 216.529 207.623 216.634 207.862 216.811C208.102 216.989 208.285 217.231 208.39 217.51C208.4 217.82 208.29 217.94 208 217.93Z" fill="url(#paint13_linear_0_1)"/>
<path d="M217.85 224.18C217.754 224.147 217.66 224.107 217.57 224.06C217.16 223.839 216.836 223.487 216.65 223.06C216.633 223.024 216.624 222.985 216.624 222.945C216.624 222.905 216.633 222.866 216.65 222.83C216.65 222.78 216.8 222.78 216.87 222.83C217.412 222.987 217.873 223.344 218.16 223.83C218.3 224 218.18 224.19 217.85 224.18Z" fill="url(#paint14_linear_0_1)"/>
<path d="M213 219.34C212.794 219.3 212.607 219.196 212.463 219.044C212.32 218.891 212.227 218.698 212.2 218.49C212.2 218.28 212.29 218.22 212.47 218.31C212.797 218.464 213.054 218.735 213.19 219.07C213.27 219.25 213.2 219.35 213 219.34Z" fill="url(#paint15_linear_0_1)"/>
<path d="M217 227C216.795 226.965 216.606 226.868 216.459 226.721C216.312 226.574 216.215 226.385 216.18 226.18C216.18 225.98 216.3 225.89 216.47 225.97C216.795 226.142 217.049 226.421 217.19 226.76C217.31 226.92 217.21 227 217 227Z" fill="url(#paint16_linear_0_1)"/>
<path d="M219.43 208.83C219.43 208.61 219.56 208.53 219.77 208.62C219.892 208.681 219.997 208.769 220.077 208.879C220.157 208.989 220.209 209.116 220.23 209.25C220.238 209.293 220.235 209.338 220.221 209.38C220.207 209.422 220.183 209.46 220.15 209.49C220.06 209.525 219.96 209.525 219.87 209.49C219.746 209.428 219.64 209.334 219.563 209.218C219.485 209.103 219.44 208.969 219.43 208.83Z" fill="url(#paint17_linear_0_1)"/>
<path d="M224.32 209C224.26 209.2 224.32 209.41 224.07 209.47C223.993 209.473 223.917 209.456 223.849 209.421C223.781 209.385 223.723 209.332 223.681 209.268C223.64 209.203 223.616 209.128 223.612 209.052C223.609 208.975 223.625 208.898 223.66 208.83C223.78 208.689 223.918 208.565 224.07 208.46L224.32 209Z" fill="url(#paint18_linear_0_1)"/>
<path d="M202.35 221.74C202.425 221.747 202.498 221.77 202.564 221.806C202.63 221.841 202.689 221.89 202.736 221.949C202.784 222.007 202.819 222.075 202.84 222.147C202.862 222.219 202.868 222.295 202.86 222.37C202.841 222.408 202.814 222.442 202.782 222.47C202.749 222.497 202.711 222.518 202.67 222.53C202.547 222.523 202.428 222.485 202.325 222.418C202.221 222.351 202.137 222.259 202.08 222.15C202.064 222.105 202.059 222.057 202.065 222.01C202.071 221.963 202.088 221.918 202.114 221.879C202.14 221.839 202.175 221.806 202.216 221.782C202.257 221.758 202.303 221.744 202.35 221.74Z" fill="url(#paint19_linear_0_1)"/>
<path d="M197.45 385C195.81 385.86 195.36 385.51 194.18 384.47C192.679 383.086 191.515 381.375 190.78 379.47C189.04 375.2 187.37 370.9 185.51 366.68C181.27 357.07 176.73 347.61 171.97 338.25C170.28 334.94 168.46 331.7 166.63 328.46C165.83 327.04 164.49 326.91 163.29 328.03C162.528 328.711 161.971 329.592 161.683 330.572C161.395 331.553 161.387 332.595 161.66 333.58C162.12 335.5 162.74 337.4 163.35 339.29C164.48 342.77 165.66 346.29 166.82 349.72C167.98 353.15 169.14 356.33 170.18 359.72C171.18 362.82 171.94 365.96 172.8 369.09C172.841 369.285 172.871 369.482 172.89 369.68C172.911 369.76 172.916 369.844 172.904 369.926C172.892 370.008 172.863 370.086 172.82 370.157C172.778 370.228 172.721 370.289 172.654 370.338C172.587 370.387 172.511 370.421 172.43 370.44C172.282 370.477 172.128 370.482 171.978 370.454C171.828 370.426 171.685 370.367 171.56 370.28C171.204 369.941 170.922 369.533 170.73 369.08C169.95 367.28 169.15 365.47 168.5 363.62C166.5 358.09 164.7 352.51 162.72 346.98C161.31 343.04 159.78 339.14 158.25 335.24C157.797 333.922 157.044 332.727 156.05 331.75C155.821 331.544 155.565 331.369 155.29 331.23C155.136 331.137 154.964 331.078 154.785 331.058C154.607 331.038 154.426 331.056 154.255 331.112C154.084 331.168 153.927 331.261 153.795 331.383C153.663 331.505 153.559 331.654 153.49 331.82C153.015 332.715 152.85 333.741 153.02 334.74C153.3 336.54 153.68 338.33 154.02 340.11C154.47 342.27 155.02 344.42 155.43 346.57C155.51 347.076 155.54 347.588 155.52 348.1C155.52 348.52 155.39 348.98 154.96 349.1C154.778 349.111 154.596 349.086 154.425 349.026C154.253 348.966 154.095 348.872 153.96 348.75C153.199 347.896 152.666 346.865 152.41 345.75C151.28 342.26 150.22 338.75 149.09 335.27C148.67 333.95 148.15 332.67 147.64 331.38C147.515 331.025 147.315 330.702 147.053 330.433C146.79 330.164 146.473 329.955 146.122 329.821C145.771 329.687 145.394 329.63 145.019 329.656C144.644 329.682 144.28 329.789 143.95 329.97C142.693 330.526 141.603 331.402 140.79 332.51C139.657 333.87 138.718 335.382 138 337C137.798 337.421 137.693 337.883 137.693 338.35C137.693 338.817 137.798 339.279 138 339.7C138.45 340.61 139 341.49 139.44 342.39C140.751 345.189 141.512 348.214 141.68 351.3C142.09 355.37 142.57 359.44 143.07 363.51C143.403 365.394 143.537 367.308 143.47 369.22C143.479 369.475 143.427 369.728 143.32 369.96C143.179 370.203 142.955 370.387 142.69 370.48C142.57 370.476 142.453 370.442 142.35 370.381C142.247 370.32 142.161 370.233 142.1 370.13C141.776 369.46 141.518 368.76 141.33 368.04C140.79 365.6 140.33 363.14 139.78 360.71C139.28 358.59 138.66 356.49 137.99 354.41C137.76 353.72 137.13 353.17 136.86 352.49C136.05 350.49 135.33 348.4 134.56 346.36C134.25 345.52 133.91 344.69 133.56 343.88C132.739 342.069 131.259 340.638 129.42 339.88C127.05 338.88 124.63 337.88 122.3 336.78C119.97 335.68 117.59 334.24 115.22 332.98C114.574 332.637 113.905 332.337 113.22 332.08C112.335 331.747 111.371 331.686 110.452 331.906C109.532 332.125 108.7 332.614 108.06 333.31C106.392 335.062 104.842 336.923 103.42 338.88C102.42 340.07 101.42 341.19 100.42 342.32C99.1886 343.736 97.72 344.927 96.0801 345.84C95.3095 346.247 94.4894 346.553 93.6402 346.75C93.1974 346.876 92.7249 346.845 92.3023 346.663C91.8797 346.48 91.5327 346.158 91.3201 345.75C90.4601 344.11 90.1002 341.75 91.5202 340.08C92.1831 339.255 92.9085 338.483 93.6901 337.77C96.0201 335.77 98.4402 333.88 100.77 331.88C103.027 330.089 105.061 328.034 106.83 325.76C107.631 324.665 108.14 323.385 108.31 322.04C108.368 321.698 108.326 321.346 108.189 321.027C108.053 320.708 107.828 320.435 107.54 320.24C107 319.861 106.486 319.446 106 319C105.74 318.75 105.48 318.34 105.8 318C106.12 317.66 106.44 317.83 106.8 317.77C106.89 317.762 106.98 317.779 107.06 317.82C108.06 318.29 108.27 317.7 108.23 316.98C108.195 315.998 108.057 315.023 107.82 314.07C107.263 311.628 106.223 309.323 104.76 307.29C104.082 306.523 103.246 305.913 102.31 305.5C97.7944 303.01 93.1551 300.75 88.4102 298.73C84.7502 297.15 81.0201 295.73 77.3201 294.22C76.9741 294.064 76.595 293.996 76.2163 294.022C75.8377 294.048 75.4714 294.168 75.1502 294.37C72.6802 295.78 70.2002 297.17 67.6702 298.46C66.1577 299.225 64.5978 299.893 63.0002 300.46C62.5211 300.628 62.0006 300.637 61.516 300.486C61.0314 300.334 60.6086 300.031 60.3102 299.62C59.6702 298.76 59.9201 298.06 60.6901 297.39C62.1672 296.252 63.8421 295.398 65.6302 294.87C67.8602 294.07 70.1101 293.32 72.3601 292.57C72.8201 292.42 73.0001 292.25 72.9501 291.7C72.8101 290.07 72.8202 288.42 72.6602 286.79C72.5587 285.329 72.1021 283.915 71.3301 282.67C70.9224 281.976 70.3367 281.403 69.6335 281.011C68.9302 280.619 68.135 280.422 67.3301 280.44C65.8024 280.483 64.2808 280.65 62.7802 280.94C58.7802 281.66 54.7201 282.47 50.6901 283.2C49.7692 283.327 48.8392 283.374 47.9102 283.34C47.5573 283.323 47.214 283.22 46.9102 283.04C46.2702 282.7 46.1802 282.17 46.7602 281.75C47.2979 281.348 47.9148 281.065 48.5701 280.92C50.1801 280.63 51.8101 280.48 53.4401 280.26C57.6102 279.831 61.7464 279.119 65.8201 278.13C66.8641 277.828 67.8705 277.409 68.8201 276.88C69.3312 276.623 69.7323 276.19 69.9491 275.661C70.166 275.131 70.1841 274.542 70.0002 274C69.6582 272.796 69.227 271.62 68.7101 270.48C68.5398 270.132 68.2627 269.847 67.9191 269.667C67.5755 269.487 67.1836 269.421 66.8002 269.48C65.0002 269.48 63.2002 269.63 61.3902 269.68C60.9165 269.674 60.4444 269.624 59.9801 269.53C59.7674 269.471 59.565 269.38 59.3802 269.26V269.04C59.7565 268.823 60.1555 268.649 60.5701 268.52C61.6801 268.29 62.8102 268.19 63.9102 267.95C64.7267 267.781 65.5241 267.529 66.2902 267.2C66.7427 267.011 67.1238 266.684 67.3789 266.266C67.6341 265.847 67.7499 265.359 67.7101 264.87C67.7269 263.767 67.4243 262.682 66.8388 261.747C66.2533 260.812 65.4099 260.067 64.4102 259.6C62.2477 258.581 59.9717 257.822 57.6302 257.34C54.4802 256.58 51.3102 255.89 48.1602 255.11C47.3147 254.886 46.4938 254.578 45.7101 254.19C45.1101 253.91 45.0402 253.54 45.4102 253.12C45.4807 253.047 45.5666 252.99 45.6617 252.953C45.7567 252.917 45.8586 252.902 45.9601 252.91C47.2632 253.036 48.5585 253.233 49.8401 253.5C54.0101 254.5 58.1402 255.61 62.3102 256.61C63.7402 256.95 65.2202 257.11 66.6802 257.31C67.1202 257.37 67.6802 257.38 67.8902 256.89C67.9668 256.66 67.9662 256.412 67.8886 256.183C67.811 255.953 67.6605 255.756 67.4601 255.62C66.5971 254.845 65.6925 254.117 64.7502 253.44C64.1508 253.07 63.5297 252.736 62.8902 252.44C62.7302 252.36 62.5901 252.26 62.4401 252.17V252C62.8585 251.907 63.2829 251.844 63.7101 251.81C65.2401 251.81 66.7702 251.91 68.3002 251.92C70.1102 251.92 70.3802 251.61 70.0602 249.81C69.9408 248.793 69.5581 247.824 68.9501 247C68.798 246.78 68.7216 246.517 68.7325 246.25C68.7433 245.983 68.8407 245.727 69.0102 245.52C69.1002 245.39 69.2202 245.27 69.3002 245.13C69.4196 244.99 69.5015 244.822 69.5382 244.641C69.575 244.461 69.5655 244.274 69.5105 244.098C69.4556 243.923 69.3571 243.764 69.2242 243.636C69.0912 243.509 68.9281 243.417 68.7502 243.37C66.9802 242.76 65.2002 242.13 63.3902 241.66C59.7202 240.66 56.0402 239.81 52.3902 238.92C51.8102 238.77 51.1901 238.8 50.6101 238.65C50.0426 238.491 49.498 238.259 48.9901 237.96C48.7609 237.819 48.5836 237.607 48.4845 237.356C48.3854 237.106 48.3698 236.83 48.4401 236.57L48.6702 236.34C50.0601 236.319 51.4422 236.549 52.7502 237.02C56.3509 238.216 60.0252 239.178 63.7502 239.9C65.9402 240.27 68.1501 240.51 70.3601 240.69C71.6301 240.8 72.1302 240.11 71.9002 238.84C71.8502 238.57 71.7302 238.32 71.6802 238.05C71.6302 237.78 71.5602 237.37 71.5002 237.05C71.833 237.025 72.1673 237.025 72.5002 237.05C73.5002 237.23 73.8101 237.05 73.9401 236.05C74.0301 235.35 74.0602 234.64 74.1502 233.93C74.2307 233.589 74.3376 233.254 74.4701 232.93C74.6207 233.143 74.7843 233.347 74.9601 233.54C75.3852 233.956 75.8397 234.34 76.3201 234.69C76.4701 234.79 76.9502 234.69 77.0002 234.57C77.3102 233.85 77.9202 233.82 78.5202 233.89C80.6577 234.12 82.6621 235.039 84.2301 236.51C84.805 237.03 85.4475 237.471 86.1402 237.82C86.2667 237.885 86.4057 237.923 86.5479 237.93C86.6901 237.938 86.8323 237.914 86.9649 237.862C87.0974 237.81 87.2172 237.73 87.3164 237.628C87.4157 237.526 87.492 237.404 87.5402 237.27C87.7661 236.812 87.9115 236.318 87.9701 235.81C88.0901 234.4 88.1401 232.97 88.2001 231.56C88.2001 230.87 88.2002 230.18 88.2602 229.49C88.6395 229.988 88.9932 230.506 89.3201 231.04C89.6901 231.6 90.0701 232.15 90.4901 232.67C90.5336 232.747 90.5922 232.815 90.6625 232.869C90.7328 232.924 90.8132 232.963 90.8991 232.986C90.985 233.008 91.0746 233.013 91.1624 233C91.2502 232.987 91.3345 232.956 91.4102 232.91C91.4931 232.837 91.5911 232.782 91.6973 232.751C91.8035 232.719 91.9152 232.711 92.0247 232.728C92.1342 232.744 92.239 232.784 92.3315 232.845C92.4239 232.905 92.502 232.986 92.5602 233.08C92.8294 233.374 93.0799 233.685 93.3102 234.01C93.9161 234.926 94.7003 235.711 95.616 236.317C96.5317 236.924 97.5603 237.34 98.6402 237.54C98.8115 237.608 98.9945 237.642 99.1789 237.639C99.3632 237.636 99.5452 237.596 99.7143 237.523C99.8834 237.45 100.036 237.344 100.164 237.211C100.292 237.078 100.393 236.922 100.46 236.75C100.498 236.682 100.552 236.625 100.616 236.581C100.68 236.538 100.753 236.51 100.83 236.5C100.91 236.5 101.04 236.68 101.09 236.8C101.465 237.569 102.029 238.23 102.728 238.723C103.427 239.216 104.24 239.525 105.09 239.62C105.194 239.656 105.306 239.67 105.416 239.659C105.526 239.648 105.632 239.613 105.727 239.557C105.822 239.501 105.904 239.425 105.967 239.334C106.03 239.243 106.072 239.139 106.09 239.03C106.32 238.03 106.55 237.08 106.73 236.1C106.84 235.47 106.87 234.83 106.93 234.19H107.07C107.084 234.305 107.107 234.419 107.14 234.53C107.306 235.234 107.53 235.923 107.81 236.59C107.881 236.777 108.004 236.941 108.164 237.061C108.324 237.18 108.516 237.252 108.715 237.267C108.915 237.281 109.115 237.239 109.291 237.144C109.467 237.048 109.613 236.905 109.71 236.73C110.287 235.943 110.586 234.986 110.56 234.01C110.56 233.01 110.56 232.01 110.48 231.01C110.595 231.154 110.667 231.327 110.69 231.51C110.976 233.544 111.82 235.458 113.13 237.04C113.623 237.666 114.244 238.179 114.951 238.547C115.658 238.914 116.435 239.126 117.23 239.17C117.579 239.239 117.941 239.175 118.245 238.989C118.549 238.804 118.772 238.512 118.87 238.17C119.02 237.73 119.33 237.74 119.66 237.94C119.841 238.059 120.002 238.204 120.14 238.37C120.74 239.01 121.22 239.01 121.87 238.37C122.628 237.71 123.216 236.878 123.587 235.944C123.957 235.009 124.099 234 124 233C124 232.67 123.86 232.23 124.48 232.26C124.56 232.26 124.68 232.11 124.74 232.01C125.228 231.295 125.444 230.43 125.35 229.57C125.344 229.36 125.273 229.157 125.145 228.99C125.018 228.823 124.841 228.701 124.64 228.64C124.51 228.64 124.32 228.44 124.32 228.34C124.32 228.24 124.48 228.07 124.61 227.98C124.923 227.806 125.221 227.605 125.5 227.38C125.752 227.117 125.942 226.8 126.056 226.455C126.17 226.109 126.206 225.741 126.16 225.38C126.08 224.38 126.46 223.91 127.16 223.78C127.623 223.712 128.072 223.57 128.49 223.36C130.042 222.401 131.369 221.118 132.38 219.6C133.126 218.738 133.572 217.657 133.65 216.52C133.65 215.17 133.65 213.82 133.57 212.52C133.34 210.11 132.95 207.71 132.7 205.3C132.595 204.323 132.595 203.337 132.7 202.36C132.77 201.64 133.24 201.51 133.88 201.86C134.171 202.052 134.412 202.31 134.586 202.612C134.76 202.914 134.86 203.252 134.88 203.6C135.288 205.909 135.426 208.259 135.29 210.6C135.21 212.693 135.331 214.79 135.65 216.86C135.841 217.756 136.302 218.571 136.971 219.197C137.639 219.823 138.484 220.229 139.39 220.36C140.21 220.53 140.56 220.29 140.89 219.53C140.967 219.376 141.057 219.228 141.16 219.09L141.55 219.48C141.902 219.919 142.298 220.321 142.73 220.68C143.897 221.487 145.113 222.222 146.37 222.88C149.723 224.553 152.767 226.785 155.37 229.48C157.16 231.32 158.91 233.21 160.75 235C161.633 235.809 162.598 236.522 163.63 237.13C163.805 237.258 164.005 237.347 164.217 237.392C164.43 237.437 164.649 237.436 164.861 237.39C165.072 237.344 165.272 237.253 165.446 237.123C165.62 236.994 165.765 236.829 165.87 236.64C165.979 236.518 166.103 236.41 166.24 236.32C167.342 235.591 168.629 235.192 169.95 235.17C171.923 235.083 173.853 234.571 175.61 233.67C176.46 233.22 177.25 232.67 178.08 232.15C180.08 230.96 181.31 230.99 183.08 232.43C184.187 233.362 185.232 234.364 186.21 235.43C187.165 236.289 187.841 237.414 188.15 238.66C188.272 239.489 188.349 240.323 188.38 241.16C188.64 243.105 189.52 244.915 190.89 246.32C191.81 247.43 192.74 248.52 193.62 249.65C193.838 249.877 193.983 250.165 194.035 250.475C194.086 250.786 194.043 251.105 193.91 251.39C193.651 251.896 193.313 252.359 192.91 252.76C191.957 253.572 190.742 254.012 189.49 254C189.056 253.967 188.626 254.099 188.284 254.37C187.943 254.64 187.717 255.03 187.65 255.46C187.4 256.63 187.18 257.82 186.88 258.98C186.649 260.158 186.283 261.305 185.79 262.4C185.243 263.387 184.922 264.484 184.85 265.61C184.77 267.23 184.72 268.85 184.77 270.47C184.832 273.03 185.403 275.553 186.45 277.89C187.52 280.165 188.863 282.301 190.45 284.25C191.402 285.516 192.793 286.38 194.35 286.67C195.79 286.95 197.22 287.22 198.65 287.53C199.36 287.688 200.059 287.895 200.74 288.15C201.25 288.35 201.27 288.71 200.94 289.15C200.746 289.408 200.488 289.61 200.191 289.736C199.895 289.862 199.57 289.909 199.25 289.87C198.02 289.77 196.79 289.58 195.56 289.44C194.931 289.345 194.296 289.285 193.66 289.26C192.72 289.26 192.4 289.81 192.97 290.56C193.459 291.217 194.034 291.806 194.68 292.31C196.855 293.922 199.203 295.287 201.68 296.38C203.05 297.04 204.4 297.77 205.68 298.53C205.962 298.639 206.206 298.828 206.384 299.072C206.561 299.317 206.664 299.608 206.68 299.91C206.676 300.118 206.622 300.322 206.522 300.505C206.423 300.688 206.281 300.844 206.109 300.961C205.936 301.078 205.738 301.151 205.531 301.175C205.324 301.2 205.115 301.174 204.92 301.1C204.262 300.953 203.628 300.711 203.04 300.38C200.652 299.008 198.142 297.863 195.54 296.96C194.38 296.572 193.198 296.252 192 296C191.51 295.9 191.31 296.21 191.48 296.69C191.542 296.858 191.634 297.014 191.75 297.15C192.718 298.168 193.855 299.01 195.11 299.64C197.32 300.88 199.58 302.03 201.78 303.28C202.682 303.822 203.538 304.438 204.34 305.12C204.614 305.341 204.803 305.65 204.876 305.994C204.949 306.338 204.901 306.697 204.74 307.01C204.595 307.32 204.345 307.569 204.034 307.714C203.723 307.858 203.371 307.889 203.04 307.8C202.301 307.702 201.58 307.497 200.9 307.19C198.82 306.07 196.79 304.85 194.73 303.69C192.85 302.62 190.99 301.49 189.06 300.53C188.45 300.177 187.733 300.058 187.041 300.194C186.35 300.33 185.731 300.712 185.3 301.27C185.09 301.51 184.85 301.71 184.64 301.94C183.5 303.15 182.64 304.49 183.12 306.26C183.247 306.793 183.387 307.323 183.54 307.85C184.14 310.422 185.47 312.766 187.37 314.6C188.37 315.6 189.53 316.43 190.58 317.39C192.618 319.21 194.462 321.238 196.08 323.44C198.91 327.39 201.66 331.39 204.38 335.44C205.086 336.585 205.711 337.778 206.25 339.01C206.363 339.213 206.401 339.448 206.359 339.676C206.317 339.904 206.197 340.111 206.02 340.26C205.81 340.427 205.549 340.518 205.28 340.518C205.011 340.518 204.751 340.427 204.54 340.26C203.95 339.836 203.407 339.35 202.92 338.81C201.27 336.81 199.71 334.81 198.02 332.88C196.33 330.95 194.45 328.95 192.59 327.05C190.28 324.68 187.92 322.37 185.59 320.05C184.733 319.236 183.828 318.475 182.88 317.77C182.55 317.487 182.15 317.297 181.722 317.22C181.294 317.144 180.853 317.183 180.445 317.334C180.037 317.485 179.677 317.742 179.402 318.079C179.127 318.416 178.946 318.82 178.88 319.25C178.644 320.393 178.627 321.571 178.83 322.72C178.918 323.383 178.941 324.053 178.9 324.72C178.913 324.865 178.887 325.01 178.824 325.141C178.761 325.272 178.664 325.383 178.544 325.464C178.423 325.545 178.283 325.592 178.138 325.6C177.993 325.608 177.849 325.577 177.72 325.51C176.98 325.23 176.29 324.79 175.57 324.45C174.949 324.119 174.3 323.845 173.63 323.63C173.269 323.552 172.891 323.601 172.563 323.771C172.234 323.941 171.975 324.22 171.83 324.56C171.479 325.347 171.371 326.221 171.52 327.07C171.766 328.879 172.324 330.632 173.17 332.25C176.44 339.25 179.66 346.36 183.08 353.32C186.08 359.5 189.4 365.56 192.61 371.66C193.255 372.926 194.033 374.119 194.93 375.22C196.137 376.535 197.105 378.052 197.79 379.7C198.38 381.32 198.79 382.96 197.79 384.58L197.45 385ZM134.74 205.51C134.767 204.771 134.541 204.044 134.1 203.45C134.033 203.427 133.96 203.419 133.889 203.428C133.818 203.436 133.75 203.461 133.69 203.5C133.623 203.699 133.597 203.909 133.613 204.118C133.63 204.328 133.69 204.531 133.788 204.717C133.886 204.902 134.021 205.065 134.185 205.197C134.349 205.328 134.538 205.424 134.74 205.48V205.51Z" fill="url(#paint20_linear_0_1)"/>
<path d="M53.09 379.89C52.7545 379.31 52.5534 378.662 52.5015 377.994C52.4496 377.326 52.5482 376.655 52.7901 376.03C52.8726 375.698 53.0513 375.397 53.3039 375.166C53.5565 374.934 53.8716 374.783 54.21 374.73C54.5419 374.713 54.871 374.8 55.1508 374.979C55.4306 375.159 55.6472 375.421 55.7701 375.73C56.097 376.317 56.2924 376.968 56.3424 377.638C56.3925 378.308 56.2962 378.981 56.0601 379.61C55.9674 379.918 55.7664 380.181 55.4943 380.352C55.2222 380.523 54.8974 380.59 54.58 380.54C54.2426 380.5 53.9085 380.436 53.58 380.35L53.09 379.89Z" fill="url(#paint21_linear_0_1)"/>
<path d="M143.45 191.5C143.45 192 143.57 192.5 143.58 192.98C143.59 193.46 143.33 193.54 142.97 193.36C142.45 193.12 141.97 192.77 142.07 192.13C142.07 191.865 142.175 191.61 142.363 191.423C142.55 191.235 142.805 191.13 143.07 191.13L143.45 191.5Z" fill="url(#paint22_linear_0_1)"/>
<path d="M10.1899 282.26C10.6805 282.07 11.1901 281.932 11.7099 281.85C15.3655 281.537 19.0476 281.804 22.6199 282.64C22.9708 282.725 23.3076 282.859 23.6199 283.04C23.7699 283.12 23.9599 283.33 23.9499 283.47C23.9399 283.61 23.7299 283.81 23.5699 283.86C22.8946 284.053 22.2061 284.197 21.51 284.29C18.1015 284.622 14.6664 284.568 11.27 284.13C10.9664 284.083 10.6683 284.006 10.38 283.9C9.46995 283.6 9.34989 283.1 10.1899 282.26Z" fill="url(#paint23_linear_0_1)"/>
<path d="M74.9998 359.58C75.2007 359.784 75.3372 360.042 75.3923 360.323C75.4474 360.604 75.4188 360.895 75.3099 361.16C75.2198 361.433 75.0382 361.667 74.796 361.821C74.5537 361.976 74.2654 362.043 73.9798 362.01C73.6078 362.015 73.2361 361.985 72.8698 361.92C71.6198 361.69 71.2599 360.72 72.0599 359.71C72.2429 359.506 72.4646 359.34 72.7124 359.223C72.9601 359.106 73.2287 359.039 73.5025 359.027C73.7763 359.015 74.0497 359.058 74.3068 359.153C74.5639 359.248 74.7996 359.393 74.9998 359.58Z" fill="url(#paint24_linear_0_1)"/>
<path d="M7.60981 320.43C8.35981 319.66 9.13984 319.83 9.51984 320.85C10.0998 322.44 9.19987 323.76 7.66987 323.56C7.01987 323.47 6.57987 323.05 6.66987 322.41C6.8667 321.726 7.11403 321.057 7.40986 320.41L7.60981 320.43Z" fill="url(#paint25_linear_0_1)"/>
<path d="M112 386C112.4 386.393 112.695 386.88 112.859 387.416C113.023 387.952 113.051 388.52 112.94 389.07C112.73 390.07 112.04 390.25 111.35 389.51C110.984 389.143 110.716 388.689 110.573 388.191C110.43 387.692 110.415 387.166 110.53 386.66C110.64 386.274 110.894 385.945 111.24 385.74C111.41 385.67 111.81 386 112 386Z" fill="url(#paint26_linear_0_1)"/>
<path d="M40.2901 333.6C39.9728 333.823 39.6384 334.02 39.2901 334.19C39.1873 334.244 39.0711 334.267 38.9556 334.256C38.8401 334.245 38.7302 334.201 38.6392 334.129C38.5482 334.057 38.48 333.961 38.4429 333.851C38.4058 333.741 38.4013 333.622 38.4301 333.51C38.5047 332.911 38.7204 332.339 39.0594 331.84C39.3984 331.341 39.851 330.93 40.38 330.64C40.5117 330.579 40.655 330.548 40.8001 330.548C40.9451 330.548 41.0884 330.579 41.22 330.64C41.3178 330.744 41.3882 330.871 41.4248 331.008C41.4615 331.146 41.4634 331.291 41.4301 331.43C41.1501 332.19 40.7601 332.92 40.4301 333.66L40.2901 333.6Z" fill="url(#paint27_linear_0_1)"/>
<path d="M56.24 367.64C56.59 367.56 57.0699 367.29 57.3299 367.43C57.4682 367.556 57.5768 367.711 57.6477 367.884C57.7186 368.057 57.7501 368.243 57.74 368.43C57.6814 368.894 57.5097 369.337 57.24 369.72C56.96 370.16 56.4899 370.1 56.0699 369.88C55.8792 369.788 55.7295 369.629 55.65 369.433C55.5705 369.237 55.5669 369.019 55.64 368.82C55.8147 368.414 56.0151 368.02 56.24 367.64Z" fill="url(#paint28_linear_0_1)"/>
<path d="M51 313.84C50.87 313.84 50.53 313.84 50.34 313.74C50.0846 313.481 49.921 313.145 49.8741 312.784C49.8271 312.423 49.8994 312.056 50.08 311.74C50.2412 311.589 50.4541 311.505 50.6751 311.505C50.8961 311.505 51.1088 311.589 51.27 311.74C51.4674 312.069 51.5482 312.456 51.4992 312.837C51.4502 313.218 51.2743 313.571 51 313.84Z" fill="url(#paint29_linear_0_1)"/>
<path d="M92.7701 337.21C92.3701 337.61 91.9401 337.55 91.7701 337.01C91.6518 336.57 91.5979 336.115 91.6101 335.66C91.6101 335.2 91.9001 335.12 92.2901 335.28C92.4876 335.331 92.6677 335.434 92.8113 335.579C92.9549 335.723 93.0566 335.904 93.1058 336.102C93.155 336.3 93.1498 336.507 93.0907 336.702C93.0316 336.897 92.9208 337.073 92.7701 337.21Z" fill="url(#paint30_linear_0_1)"/>
<path d="M98.8198 344.76C98.6605 344.492 98.5329 344.207 98.4398 343.91C98.4071 343.669 98.4631 343.425 98.5975 343.222C98.7318 343.02 98.9353 342.873 99.1699 342.81C99.7399 342.81 99.8099 343.23 99.9199 343.63C99.9595 343.798 99.9595 343.972 99.9199 344.14C99.9199 344.44 99.7698 344.73 99.6898 345.03L98.8198 344.76Z" fill="url(#paint31_linear_0_1)"/>
<path d="M106.11 210.68C106.877 211.415 107.394 212.372 107.588 213.416C107.781 214.46 107.642 215.539 107.19 216.5C106.804 217.26 106.203 217.89 105.461 218.309C104.719 218.729 103.87 218.921 103.02 218.86C102.605 218.868 102.19 218.841 101.78 218.78C99.4901 218.46 98.5201 217.51 98.2501 215.07C98.1379 213.871 98.1613 212.664 98.32 211.47C98.3478 211.104 98.4476 210.747 98.6135 210.42C98.7794 210.093 99.0083 209.801 99.2869 209.563C99.5656 209.324 99.8886 209.143 100.237 209.029C100.586 208.915 100.954 208.871 101.32 208.9C102.197 208.86 103.073 208.997 103.896 209.303C104.719 209.609 105.472 210.077 106.11 210.68Z" fill="url(#paint32_linear_0_1)"/>
<path d="M112.82 207.05C112.019 205.936 111.662 204.563 111.82 203.2C111.93 202.2 112.82 201.99 113.72 202.67C114.239 203.267 114.569 204.005 114.669 204.79C114.769 205.575 114.633 206.372 114.28 207.08C113.83 207.62 113.4 207.65 112.82 207.05Z" fill="url(#paint33_linear_0_1)"/>
<path d="M119.5 236.67C119.381 236.432 119.28 236.184 119.2 235.93C118.853 234.77 118.906 233.527 119.35 232.4C119.42 232.21 119.6 231.98 119.76 231.96C119.92 231.94 120.13 232.16 120.22 232.32C120.934 233.568 121.155 235.037 120.84 236.44C120.67 237.17 120.1 237.29 119.5 236.67Z" fill="url(#paint34_linear_0_1)"/>
<path d="M119.5 218.9C119.197 218.453 119.044 217.921 119.064 217.382C119.084 216.843 119.275 216.323 119.61 215.9C120.01 215.53 120.27 215.57 120.44 216.07C120.733 216.953 120.697 217.911 120.34 218.77C120.15 219.22 119.85 219.26 119.5 218.9Z" fill="url(#paint35_linear_0_1)"/>
<path d="M112.88 240.33C112.574 239.89 112.41 239.366 112.41 238.83C112.41 238.294 112.574 237.77 112.88 237.33C113.24 236.97 113.64 237.02 113.79 237.49C114.081 238.398 114.039 239.38 113.67 240.26C113.47 240.7 113.17 240.65 112.88 240.33Z" fill="url(#paint36_linear_0_1)"/>
<path d="M150.6 211.39C151.01 210.98 151.37 211.07 151.6 211.62C151.716 211.952 151.75 212.307 151.699 212.655C151.649 213.004 151.515 213.334 151.31 213.62C151.242 213.713 151.153 213.789 151.051 213.841C150.948 213.893 150.835 213.92 150.72 213.92C150.483 213.821 150.293 213.635 150.19 213.4C150.07 213.059 150.045 212.692 150.118 212.338C150.19 211.985 150.356 211.657 150.6 211.39Z" fill="url(#paint37_linear_0_1)"/>
<path d="M159.23 220.71C158.73 220.97 158.38 221.38 157.89 221.12C157.776 221.018 157.684 220.893 157.62 220.754C157.557 220.614 157.522 220.463 157.52 220.31C157.482 220.053 157.545 219.792 157.697 219.581C157.848 219.37 158.075 219.226 158.33 219.18C158.805 219.153 159.281 219.179 159.75 219.26L159.23 220.71Z" fill="url(#paint38_linear_0_1)"/>
<path d="M95.5199 203.73C95.6441 203.881 95.7369 204.056 95.7927 204.244C95.8485 204.432 95.8661 204.629 95.8447 204.823C95.8233 205.018 95.7632 205.207 95.6679 205.378C95.5726 205.549 95.4441 205.699 95.2899 205.82C95.1861 205.855 95.076 205.867 94.9671 205.855C94.8583 205.843 94.7534 205.807 94.6599 205.75C94.4501 205.512 94.3034 205.225 94.2335 204.916C94.1636 204.607 94.1727 204.285 94.2598 203.98C94.3149 203.869 94.3948 203.772 94.4934 203.696C94.5919 203.621 94.7064 203.569 94.8282 203.545C94.95 203.52 95.0757 203.525 95.1956 203.557C95.3156 203.589 95.4265 203.648 95.5199 203.73Z" fill="url(#paint39_linear_0_1)"/>
<path d="M192.83 296.39C193.17 295.31 193.52 295.27 194.48 295.21C195.738 295.156 196.991 295.396 198.14 295.91C200.75 297 203.34 298.14 205.98 299.17C211.98 301.503 218.053 303.657 224.2 305.63C226.37 306.34 228.57 306.95 230.76 307.56C230.954 307.638 231.164 307.664 231.371 307.636C231.578 307.608 231.775 307.526 231.94 307.399C232.106 307.271 232.235 307.103 232.316 306.91C232.397 306.718 232.426 306.507 232.4 306.3C232.435 305.673 232.295 305.049 231.995 304.498C231.694 303.946 231.246 303.49 230.7 303.18C229.7 302.55 228.57 301.99 227.49 301.44C225.49 300.44 223.49 299.44 221.49 298.44C219.49 297.44 217.62 296.58 215.72 295.58C213.82 294.58 212.24 293.63 210.51 292.65C210.406 292.582 210.306 292.509 210.21 292.43C210.123 292.376 210.061 292.291 210.037 292.192C210.013 292.092 210.028 291.988 210.08 291.9C210.186 291.744 210.347 291.634 210.53 291.59C210.831 291.588 211.129 291.642 211.41 291.75C212.53 292.2 213.66 292.63 214.75 293.15C218 294.71 221.22 296.33 224.48 297.87C226.8 298.97 229.16 300 231.48 301.02C232.248 301.399 233.094 301.591 233.95 301.58C234.14 301.572 234.329 301.538 234.51 301.48C234.612 301.452 234.707 301.403 234.789 301.336C234.871 301.27 234.939 301.187 234.988 301.093C235.036 300.999 235.065 300.897 235.073 300.791C235.08 300.686 235.065 300.58 235.03 300.48C234.86 299.886 234.498 299.366 234 299C233.1 298.34 232.17 297.73 231.23 297.11C230.1 296.37 228.94 295.66 227.81 294.92C227.556 294.738 227.322 294.53 227.11 294.3C226.92 294.12 226.78 293.86 226.94 293.64C227.012 293.555 227.1 293.486 227.2 293.438C227.3 293.39 227.409 293.363 227.52 293.36C228.228 293.389 228.917 293.599 229.52 293.97C231.52 294.97 233.52 296.06 235.52 297.08C236.28 297.47 237.06 297.8 237.84 298.14C238.049 298.239 238.278 298.291 238.509 298.293C238.741 298.295 238.97 298.247 239.181 298.152C239.392 298.057 239.58 297.917 239.731 297.743C239.883 297.568 239.995 297.362 240.06 297.14C240.358 296.349 240.451 295.496 240.33 294.66C240.22 293.56 239.961 292.48 239.56 291.45C239.461 291.18 239.302 290.936 239.096 290.735C238.89 290.535 238.642 290.382 238.37 290.29C237.78 290.09 237.17 289.93 236.58 289.74C234.795 289.099 233.151 288.118 231.74 286.85C229.74 285.26 227.81 283.71 225.83 282.16C224.87 281.483 223.982 280.709 223.18 279.85C223.067 279.74 222.978 279.607 222.92 279.46C222.881 279.296 222.899 279.123 222.97 278.97C223.024 278.92 223.09 278.884 223.161 278.865C223.233 278.846 223.308 278.844 223.38 278.86C223.809 279.013 224.224 279.204 224.62 279.43C225.92 280.26 227.17 281.15 228.48 281.95C229.62 282.65 230.8 283.29 231.99 283.95C232.39 284.15 232.9 284.12 233.31 284.29C234.54 284.82 235.75 285.4 236.97 285.96C237.47 286.18 237.97 286.4 238.49 286.59C239.635 287.021 240.901 286.999 242.03 286.53C243.5 285.94 244.96 285.3 246.46 284.78C247.96 284.26 249.61 283.84 251.18 283.36C251.617 283.22 252.044 283.053 252.46 282.86C252.991 282.622 253.438 282.229 253.743 281.733C254.048 281.238 254.197 280.661 254.17 280.08C254.133 278.596 253.996 277.116 253.76 275.65C253.67 274.72 253.64 273.78 253.58 272.84C253.504 271.691 253.626 270.538 253.94 269.43C254.098 268.919 254.323 268.431 254.61 267.98C254.742 267.729 254.961 267.533 255.225 267.429C255.489 267.324 255.781 267.317 256.05 267.41C256.651 267.556 257.196 267.874 257.618 268.325C258.041 268.777 258.323 269.341 258.43 269.95C258.5 270.598 258.52 271.249 258.49 271.9C258.34 273.78 258.12 275.65 257.97 277.53C257.76 279.287 257.76 281.063 257.97 282.82C258.101 283.644 258.446 284.42 258.97 285.07C259.093 285.245 259.265 285.381 259.464 285.461C259.662 285.54 259.88 285.561 260.09 285.52C260.484 285.455 260.881 285.415 261.28 285.4C261.5 285.4 261.79 285.46 261.78 285.73C261.77 286 261.58 286.08 261.46 286.25C261.421 286.291 261.373 286.322 261.32 286.34C260.7 286.56 260.85 286.92 261.18 287.22C261.625 287.625 262.107 287.986 262.62 288.3C263.922 289.116 265.374 289.663 266.89 289.91C267.516 289.949 268.144 289.854 268.73 289.63C271.73 288.76 274.73 287.69 277.73 286.53C280 285.63 282.24 284.63 284.5 283.67C284.716 283.588 284.909 283.454 285.061 283.279C285.213 283.105 285.319 282.896 285.37 282.67C285.83 280.99 286.31 279.31 286.85 277.67C287.175 276.685 287.566 275.723 288.02 274.79C288.155 274.509 288.377 274.28 288.652 274.134C288.927 273.988 289.242 273.934 289.55 273.98C290.2 274.08 290.39 274.49 290.35 275.12C290.223 276.253 289.884 277.352 289.35 278.36C288.73 279.67 288.08 280.98 287.43 282.28C287.392 282.327 287.364 282.383 287.349 282.442C287.334 282.501 287.332 282.563 287.344 282.623C287.355 282.683 287.38 282.74 287.415 282.789C287.451 282.839 287.497 282.88 287.55 282.91C288.32 283.56 289.03 284.28 289.81 284.91C290.452 285.429 291.199 285.801 292 286C292.475 286.123 292.975 286.118 293.448 285.984C293.921 285.851 294.349 285.594 294.69 285.24C295.339 284.562 295.928 283.829 296.45 283.05C297.89 280.98 299.28 278.89 300.72 276.82C301.06 276.362 301.441 275.937 301.86 275.55C302.022 275.41 302.213 275.307 302.42 275.25C302.85 275.13 303.11 275.32 303.04 275.75C302.99 276.157 302.846 276.547 302.62 276.89C302.05 277.72 301.4 278.5 300.8 279.3C299.171 281.296 297.681 283.401 296.34 285.6C296.02 286.187 295.765 286.807 295.58 287.45C295.467 287.78 295.477 288.139 295.607 288.462C295.737 288.785 295.98 289.051 296.29 289.21C296.964 289.59 297.662 289.924 298.38 290.21C298.606 290.289 298.851 290.294 299.079 290.224C299.308 290.153 299.508 290.012 299.65 289.82C300.41 289.02 301.15 288.19 301.91 287.39C302.118 287.185 302.346 287.001 302.59 286.84C302.71 286.774 302.837 286.723 302.97 286.69L303.08 286.78C303.006 287.035 302.909 287.283 302.79 287.52C302.4 288.1 301.96 288.63 301.58 289.22C301.302 289.647 301.065 290.099 300.87 290.57C300.756 290.85 300.734 291.159 300.808 291.452C300.882 291.745 301.047 292.007 301.28 292.2C301.749 292.686 302.349 293.026 303.008 293.179C303.666 293.331 304.355 293.29 304.99 293.06C306.373 292.548 307.692 291.877 308.92 291.06C310.62 290.06 312.29 288.94 314 287.91C314.461 287.638 314.951 287.417 315.46 287.25C315.84 287.11 316.03 287.25 316.05 287.58C316.051 287.642 316.039 287.703 316.015 287.76C315.991 287.817 315.955 287.868 315.91 287.91C315.27 288.422 314.602 288.9 313.91 289.34C311.67 290.71 309.39 292.03 307.15 293.4C306.39 293.895 305.655 294.429 304.95 295C304.74 295.16 304.49 295.39 304.61 295.7C304.676 295.832 304.783 295.938 304.914 296.005C305.046 296.072 305.195 296.094 305.34 296.07C306.05 296.07 306.76 295.95 307.47 295.84C307.894 295.744 308.312 295.621 308.72 295.47L309.03 295.4L309.12 295.48C308.977 295.7 308.82 295.91 308.65 296.11C307.98 296.77 307.28 297.4 306.65 298.11C306.02 298.82 305.88 299.11 306.8 299.79C307.292 300.182 307.878 300.437 308.5 300.53C308.663 300.558 308.812 300.639 308.924 300.76C309.036 300.881 309.105 301.036 309.12 301.2C309.12 301.3 309.12 301.4 309.12 301.49C309.131 301.601 309.17 301.708 309.232 301.801C309.295 301.894 309.379 301.97 309.478 302.023C309.577 302.075 309.687 302.102 309.799 302.102C309.911 302.101 310.021 302.073 310.12 302.02C311.12 301.51 312.19 301.02 313.19 300.43C315.19 299.26 317.19 298.04 319.19 296.83C319.5 296.64 319.76 296.36 320.08 296.18C320.393 295.999 320.73 295.861 321.08 295.77C321.24 295.729 321.409 295.742 321.561 295.807C321.713 295.872 321.839 295.986 321.92 296.13V296.33C321.329 296.945 320.631 297.446 319.86 297.81C317.765 298.854 315.744 300.04 313.81 301.36C312.7 302.14 311.64 303 310.6 303.88C310 304.39 310.08 304.88 310.73 305.35C310.87 305.45 311.03 305.51 311.17 305.6C311.31 305.69 311.52 305.85 311.69 305.97C311.556 306.126 311.409 306.27 311.25 306.4C310.74 306.75 310.69 306.97 311.07 307.46C311.45 307.95 311.63 308.13 311.9 308.46C312.02 308.647 312.124 308.845 312.21 309.05C312.05 309.04 311.89 309.04 311.73 309.05C311.365 309.055 311.001 309.085 310.64 309.14C310.54 309.14 310.37 309.41 310.4 309.49C310.58 309.94 310.32 310.21 310.04 310.49C309.014 311.323 307.741 311.794 306.42 311.83C305.943 311.855 305.472 311.946 305.02 312.1C304.935 312.123 304.856 312.165 304.79 312.222C304.723 312.279 304.67 312.351 304.634 312.432C304.599 312.512 304.582 312.6 304.585 312.688C304.587 312.776 304.61 312.862 304.65 312.94C304.752 313.237 304.904 313.515 305.1 313.76C305.66 314.43 306.26 315.07 306.85 315.76C307.13 316.07 307.43 316.37 307.72 316.68C307.32 316.68 306.96 316.54 306.59 316.47C306.22 316.4 305.78 316.31 305.37 316.27C305.15 316.27 304.91 316.27 304.87 316.57C304.83 316.87 304.59 317 304.29 316.99C304.045 316.983 303.801 316.956 303.56 316.91C302.9 316.778 302.221 316.779 301.561 316.913C300.902 317.047 300.276 317.311 299.72 317.69C299.33 317.95 299.04 318.29 299.27 318.83C299.291 318.872 299.302 318.918 299.302 318.965C299.302 319.012 299.291 319.058 299.27 319.1C299.27 319.1 299.1 319.1 299.02 319.1C298.528 318.928 298 318.883 297.485 318.97C296.971 319.058 296.488 319.274 296.08 319.6C296.022 319.632 295.972 319.675 295.932 319.728C295.892 319.78 295.864 319.84 295.849 319.904C295.834 319.968 295.832 320.035 295.844 320.1C295.857 320.164 295.882 320.226 295.92 320.28C296.24 320.8 296.56 321.28 296.92 321.82C297.15 322.14 297.42 322.43 297.67 322.74L297.61 322.8L297.43 322.68C297.05 322.448 296.652 322.248 296.24 322.08C295.68 321.89 295.24 322.27 295.36 322.85C295.448 323.44 295.734 323.983 296.17 324.39C296.59 324.83 297.04 325.23 297.48 325.64C297.371 325.627 297.268 325.586 297.18 325.52C296.175 324.759 294.976 324.295 293.72 324.18C293.235 324.12 292.743 324.165 292.278 324.312C291.812 324.458 291.383 324.703 291.02 325.03C290.84 325.149 290.711 325.33 290.655 325.538C290.6 325.746 290.623 325.968 290.72 326.16C290.85 326.42 290.72 326.55 290.48 326.61C290.347 326.625 290.213 326.625 290.08 326.61C289.55 326.61 289.34 326.8 289.33 327.35C289.272 327.966 289.363 328.586 289.597 329.159C289.83 329.732 290.198 330.24 290.67 330.64C290.82 330.77 291.06 330.91 290.78 331.16C290.78 331.16 290.78 331.32 290.78 331.39C290.875 331.911 291.156 332.38 291.57 332.71C291.664 332.8 291.785 332.859 291.914 332.877C292.043 332.895 292.175 332.871 292.29 332.81C292.36 332.81 292.51 332.75 292.56 332.81C292.61 332.87 292.56 332.99 292.56 333.09C292.501 333.303 292.461 333.52 292.44 333.74C292.446 333.958 292.499 334.172 292.595 334.367C292.692 334.562 292.83 334.734 293 334.87C293.45 335.25 293.51 335.64 293.25 336.01C293.077 336.243 292.945 336.503 292.86 336.78C292.6 337.869 292.58 339.002 292.8 340.1C292.851 340.794 293.124 341.454 293.58 341.98C294.147 342.584 294.744 343.158 295.37 343.7C296.52 344.7 297.73 345.52 298.89 346.45C299.35 346.84 299.771 347.271 300.15 347.74C300.43 348.09 300.28 348.35 299.85 348.48C299.641 348.519 299.426 348.509 299.222 348.452C299.017 348.395 298.828 348.292 298.67 348.15C297.497 347.327 296.423 346.371 295.47 345.3C294.597 344.35 293.632 343.489 292.59 342.73C292.118 342.427 291.564 342.275 291.003 342.295C290.442 342.314 289.9 342.505 289.45 342.84C289.36 342.881 289.281 342.942 289.217 343.017C289.152 343.091 289.105 343.179 289.077 343.274C289.05 343.369 289.043 343.468 289.057 343.566C289.072 343.664 289.107 343.757 289.16 343.84C289.189 343.942 289.212 344.046 289.23 344.15H288.89C288.557 344.117 288.223 344.117 287.89 344.15C287.032 344.307 286.184 344.514 285.35 344.77C283.17 345.485 280.884 345.823 278.59 345.77C277.01 345.77 275.44 345.68 273.86 345.71C273.124 345.746 272.394 345.856 271.68 346.04C271.06 346.18 270.86 346.59 270.93 347.22C270.945 347.319 270.945 347.421 270.93 347.52C270.769 348.315 270.384 349.047 269.82 349.63C269.008 350.528 268.394 351.588 268.02 352.74C267.84 353.3 267.75 353.89 267.61 354.47C267.548 355.029 267.278 355.545 266.854 355.915C266.43 356.286 265.883 356.483 265.32 356.47C264.439 356.548 263.554 356.572 262.67 356.54C261.881 356.583 261.097 356.388 260.42 355.98C260.008 355.669 259.614 355.335 259.24 354.98C258.282 354.251 257.114 353.851 255.91 353.84C255.03 353.75 254.15 353.68 253.28 353.57C253.086 353.571 252.896 353.511 252.738 353.398C252.579 353.285 252.461 353.125 252.4 352.94C252.293 352.601 252.246 352.245 252.26 351.89C252.327 351.133 252.66 350.424 253.2 349.89C253.307 349.809 253.397 349.707 253.464 349.59C253.53 349.474 253.573 349.345 253.589 349.211C253.605 349.078 253.594 348.942 253.556 348.813C253.518 348.684 253.455 348.564 253.37 348.46C252.97 347.84 252.55 347.23 252.17 346.6C251.762 345.973 251.426 345.302 251.17 344.6C250.976 343.933 250.634 343.318 250.17 342.8C249.5 342.06 248.82 341.33 248.09 340.66C246.937 339.57 245.577 338.723 244.09 338.17C242.639 337.659 241.131 337.323 239.6 337.17C238.634 337.039 237.655 337.271 236.85 337.82C236.11 338.32 235.37 338.82 234.62 339.31C234.243 339.552 233.849 339.766 233.44 339.95C233.13 340.08 232.96 339.95 232.92 339.6C232.901 339.411 232.929 339.221 233.002 339.046C233.076 338.872 233.192 338.718 233.34 338.6C233.92 338.12 234.53 337.67 235.13 337.2C235.43 336.95 235.75 336.72 236.03 336.45C236.31 336.18 236.34 335.66 235.77 335.58C235.269 335.515 234.761 335.515 234.26 335.58C232.623 335.822 231.017 336.241 229.47 336.83C228.59 337.14 227.69 337.41 226.78 337.65C226.614 337.72 226.431 337.741 226.253 337.709C226.076 337.677 225.911 337.594 225.78 337.47C225.637 337.393 225.521 337.273 225.448 337.128C225.376 336.983 225.35 336.818 225.374 336.658C225.398 336.497 225.471 336.348 225.583 336.23C225.695 336.112 225.841 336.032 226 336C226.35 335.776 226.73 335.604 227.13 335.49C228.762 335.051 230.349 334.458 231.87 333.72C232.523 333.385 233.158 333.015 233.77 332.61C234.03 332.44 233.98 332.22 233.7 332.08C233.599 332.034 233.491 332.006 233.38 332C232.518 331.981 231.659 332.11 230.84 332.38C229.34 332.8 227.84 333.28 226.37 333.69C225.743 333.847 225.104 333.954 224.46 334.01C224.244 334.034 224.026 333.982 223.844 333.864C223.661 333.745 223.526 333.567 223.46 333.36C223.387 333.163 223.386 332.946 223.458 332.749C223.529 332.551 223.668 332.385 223.85 332.28C224.211 331.995 224.616 331.772 225.05 331.62C226.43 331.19 227.84 330.84 229.24 330.46C230.64 330.08 231.82 329.79 233.07 329.37C233.496 329.257 233.866 328.99 234.108 328.621C234.35 328.252 234.447 327.806 234.38 327.37C234.38 327.18 234.38 326.99 234.38 326.8C234.424 326.306 234.333 325.81 234.119 325.363C233.904 324.916 233.573 324.535 233.16 324.26C232.88 324.08 232.58 323.92 232.29 323.75C230.913 322.896 229.32 322.455 227.7 322.48C226.83 322.53 225.96 322.63 225.09 322.67C223.419 322.76 221.744 322.679 220.09 322.43C217.15 321.94 214.22 321.43 211.29 320.84C210.488 320.647 209.699 320.399 208.93 320.1C208.791 320.067 208.668 319.983 208.587 319.864C208.506 319.746 208.471 319.602 208.49 319.46C208.5 319.294 208.567 319.136 208.68 319.014C208.793 318.892 208.945 318.813 209.11 318.79C209.55 318.722 209.995 318.698 210.44 318.72C212.01 318.85 213.57 319.06 215.14 319.16C216.71 319.26 218.4 319.32 220.03 319.34C222.03 319.34 224.09 319.34 226.11 319.34C226.837 319.327 227.562 319.263 228.28 319.15C228.544 319.127 228.798 319.035 229.015 318.883C229.231 318.73 229.404 318.523 229.515 318.282C229.626 318.041 229.67 317.775 229.645 317.512C229.62 317.248 229.525 316.995 229.37 316.78C228.971 316.183 228.466 315.664 227.88 315.25C227.551 315.003 227.246 314.725 226.97 314.42C226.901 314.362 226.85 314.286 226.821 314.201C226.792 314.116 226.786 314.025 226.804 313.936C226.823 313.848 226.865 313.767 226.925 313.701C226.986 313.634 227.064 313.586 227.15 313.56C227.59 313.36 228.08 313.25 228.54 313.09C228.954 312.964 229.356 312.8 229.74 312.6C229.927 312.475 230.066 312.29 230.135 312.076C230.204 311.862 230.199 311.631 230.12 311.42C229.917 310.919 229.568 310.491 229.12 310.19C228.215 309.512 227.2 308.994 226.12 308.66C221.65 307.02 217.19 305.35 212.68 303.82C208.68 302.46 204.62 301.25 200.58 300C199.752 299.727 198.897 299.546 198.03 299.46C196.933 299.411 195.854 299.171 194.84 298.75C194.342 298.592 193.89 298.316 193.523 297.945C193.155 297.574 192.883 297.119 192.73 296.62L192.83 296.39ZM298 347.07C298.31 347.4 298.722 347.615 299.17 347.68C299.17 347.68 299.34 347.54 299.32 347.48C299.265 347.362 299.187 347.256 299.089 347.17C298.991 347.084 298.876 347.02 298.751 346.981C298.627 346.942 298.496 346.93 298.366 346.946C298.237 346.961 298.112 347.003 298 347.07Z" fill="url(#paint40_linear_0_1)"/>
<path d="M276.37 268.05C276.7 268.136 277.007 268.296 277.267 268.518C277.527 268.739 277.733 269.017 277.87 269.33C277.97 269.478 278.024 269.652 278.024 269.83C278.024 270.008 277.97 270.183 277.87 270.33C277.756 270.454 277.606 270.539 277.441 270.575C277.277 270.611 277.105 270.595 276.95 270.53C276.62 270.437 276.314 270.273 276.053 270.051C275.793 269.828 275.583 269.551 275.44 269.24C275.363 269.095 275.34 268.927 275.377 268.768C275.414 268.608 275.507 268.466 275.64 268.37C275.779 268.259 275.926 268.158 276.08 268.07L276.37 268.05Z" fill="url(#paint41_linear_0_1)"/>
<path d="M327 287.75C326.892 287.997 326.758 288.231 326.6 288.45C325.398 289.878 323.977 291.107 322.39 292.09C322.235 292.184 322.066 292.255 321.89 292.3C321.81 292.3 321.67 292.3 321.62 292.3C321.598 292.258 321.587 292.212 321.587 292.165C321.587 292.118 321.598 292.072 321.62 292.03C321.792 291.717 321.986 291.416 322.2 291.13C323.311 289.784 324.569 288.566 325.95 287.5C326.073 287.405 326.208 287.324 326.35 287.26C326.78 287 327 287.15 327 287.75Z" fill="url(#paint42_linear_0_1)"/>
<path d="M275.8 283.26C275.654 283.26 275.51 283.217 275.389 283.135C275.268 283.053 275.174 282.936 275.12 282.8C275.052 282.671 275.032 282.522 275.063 282.379C275.094 282.236 275.174 282.109 275.29 282.02C275.417 281.878 275.561 281.754 275.72 281.65C276.25 281.28 276.72 281.5 276.81 282.15C276.818 282.29 276.798 282.429 276.752 282.561C276.705 282.693 276.632 282.814 276.538 282.917C276.444 283.021 276.331 283.104 276.204 283.163C276.077 283.222 275.94 283.255 275.8 283.26Z" fill="url(#paint43_linear_0_1)"/>
<path d="M314.18 273.08C314.18 273.62 313.84 273.84 313.34 273.61C312.56 273.25 312.4 272.45 313.03 271.97C313.08 271.916 313.142 271.874 313.211 271.847C313.28 271.82 313.354 271.81 313.427 271.817C313.501 271.824 313.572 271.847 313.635 271.886C313.698 271.925 313.751 271.977 313.79 272.04C313.975 272.359 314.132 272.694 314.26 273.04L314.18 273.08Z" fill="url(#paint44_linear_0_1)"/>
<path d="M253 287.05C252.715 287.051 252.434 286.981 252.183 286.847C251.931 286.712 251.717 286.518 251.56 286.28C251.27 285.84 251.46 285.53 251.97 285.55C252.234 285.55 252.493 285.617 252.724 285.745C252.955 285.873 253.15 286.057 253.29 286.28C253.391 286.459 253.419 286.67 253.37 286.87C253.29 287 253 287 253 287.05Z" fill="url(#paint45_linear_0_1)"/>
<path d="M297.66 280.1C297.695 279.906 297.745 279.716 297.81 279.53C297.828 279.473 297.861 279.423 297.907 279.385C297.953 279.346 298.008 279.322 298.067 279.315C298.126 279.307 298.186 279.317 298.24 279.343C298.294 279.369 298.339 279.409 298.37 279.46C298.559 279.703 298.688 279.988 298.745 280.29C298.802 280.593 298.787 280.905 298.7 281.2C298.7 281.33 298.53 281.5 298.41 281.52C298.337 281.518 298.266 281.498 298.203 281.462C298.14 281.425 298.087 281.373 298.05 281.31C297.88 280.93 297.76 280.53 297.61 280.14L297.66 280.1Z" fill="url(#paint46_linear_0_1)"/>
<path d="M279.65 273.59C279.55 273.75 279.48 274.01 279.34 274.06C279.24 274.064 279.14 274.046 279.048 274.006C278.957 273.966 278.875 273.906 278.81 273.83C278.661 273.645 278.565 273.425 278.53 273.19C278.47 272.93 278.66 272.78 278.89 272.71C278.992 272.673 279.105 272.676 279.205 272.719C279.306 272.761 279.386 272.84 279.43 272.94C279.52 273.151 279.593 273.368 279.65 273.59Z" fill="url(#paint47_linear_0_1)"/>
<path d="M300.94 291.07C300.94 291.02 301.1 290.88 301.22 290.86C301.403 290.865 301.58 290.927 301.725 291.039C301.871 291.15 301.978 291.305 302.03 291.48C302.03 291.593 301.987 291.702 301.908 291.784C301.83 291.866 301.723 291.915 301.61 291.92C301.418 291.876 301.247 291.768 301.125 291.614C301.003 291.459 300.937 291.267 300.94 291.07Z" fill="url(#paint48_linear_0_1)"/>
<path d="M277.46 297.71C277.46 297.43 277.63 297.29 277.89 297.43C278.095 297.538 278.278 297.684 278.43 297.86C278.6 298.02 278.53 298.16 278.33 298.24C278.24 298.292 278.137 298.319 278.033 298.318C277.929 298.317 277.827 298.288 277.737 298.233C277.648 298.179 277.576 298.102 277.527 298.01C277.478 297.918 277.455 297.814 277.46 297.71Z" fill="url(#paint49_linear_0_1)"/>
<path d="M272.56 297.18C272.712 297.217 272.859 297.271 273 297.34C273.098 297.415 273.166 297.523 273.191 297.644C273.217 297.765 273.199 297.891 273.14 298C272.95 298.23 272.75 298.08 272.57 298C272.492 297.958 272.424 297.9 272.37 297.83C272.28 297.71 272.21 297.56 272.13 297.43L272.56 297.18Z" fill="url(#paint50_linear_0_1)"/>
<path d="M304.06 343.56C304.187 343.604 304.311 343.657 304.43 343.72C304.976 344.008 305.406 344.474 305.65 345.04C305.673 345.089 305.684 345.141 305.684 345.195C305.684 345.249 305.673 345.301 305.65 345.35C305.65 345.41 305.45 345.41 305.35 345.35C304.647 345.161 304.04 344.715 303.65 344.1C303.46 343.8 303.62 343.55 304.06 343.56Z" fill="url(#paint51_linear_0_1)"/>
<path d="M310.46 350C310.735 350.048 310.987 350.184 311.178 350.388C311.37 350.592 311.489 350.852 311.52 351.13C311.52 351.41 311.4 351.49 311.16 351.37C310.735 351.163 310.4 350.807 310.22 350.37C310.11 350.08 310.2 350 310.46 350Z" fill="url(#paint52_linear_0_1)"/>
<path d="M305.12 339.86C305.393 339.903 305.645 340.031 305.843 340.224C306.04 340.418 306.172 340.668 306.22 340.94C306.22 341.2 306.06 341.33 305.83 341.21C305.405 341 305.068 340.645 304.88 340.21C304.77 339.93 304.9 339.84 305.12 339.86Z" fill="url(#paint53_linear_0_1)"/>
<path d="M302 363.87C302 364.17 301.83 364.26 301.56 364.14C301.396 364.063 301.254 363.947 301.146 363.803C301.038 363.658 300.967 363.489 300.94 363.31C300.931 363.253 300.937 363.195 300.956 363.141C300.975 363.087 301.008 363.039 301.05 363C301.108 362.975 301.171 362.962 301.235 362.962C301.299 362.962 301.362 362.975 301.42 363C301.588 363.077 301.73 363.2 301.833 363.353C301.935 363.507 301.993 363.686 302 363.87Z" fill="url(#paint54_linear_0_1)"/>
<path d="M295.5 363.62C295.58 363.35 295.56 363.08 295.83 362.99C295.909 362.986 295.988 362.998 296.062 363.026C296.135 363.053 296.203 363.096 296.26 363.15C296.363 363.231 296.432 363.349 296.453 363.478C296.473 363.608 296.444 363.741 296.37 363.85C296.211 364.033 296.03 364.194 295.83 364.33L295.5 363.62Z" fill="url(#paint55_linear_0_1)"/>
<path d="M152.07 145.27C110.07 145.27 75.9199 139.27 75.9199 131.8V271.35C75.9215 274.339 76.9756 277.232 78.8975 279.522C80.8193 281.811 83.4862 283.351 86.4299 283.87C130.193 291.562 174.966 291.508 218.71 283.71C221.367 283.236 223.773 281.842 225.506 279.772C227.24 277.703 228.19 275.089 228.19 272.39V131.8C228.21 139.24 194.12 145.27 152.07 145.27Z" fill="url(#paint56_linear_0_1)"/>
<path d="M103.9 139.06C103.9 139.06 118.4 144.24 118.4 183.6V261.86C118.4 262.536 118.669 263.185 119.147 263.663C119.625 264.141 120.274 264.41 120.95 264.41C121.292 264.41 121.63 264.342 121.945 264.209C122.259 264.075 122.544 263.88 122.782 263.635C123.02 263.39 123.206 263.099 123.329 262.78C123.453 262.462 123.511 262.122 123.5 261.78C123.02 246.58 120.78 170.34 123.58 162.88C126.69 154.6 130.83 143.2 130.83 143.2L103.9 139.06Z" fill="url(#paint57_linear_0_1)"/>
<path d="M89.4102 128.7C89.4102 128.7 97.6802 131.65 97.6802 154.1V198.73C97.6802 199.115 97.8329 199.483 98.1049 199.755C98.3768 200.027 98.7456 200.18 99.1301 200.18C99.3253 200.18 99.5184 200.141 99.6982 200.065C99.878 199.989 100.041 199.878 100.177 199.738C100.313 199.599 100.42 199.433 100.491 199.251C100.562 199.069 100.595 198.875 100.59 198.68C100.31 190.01 99.0401 146.54 100.59 142.28C102.37 137.56 104.73 131.06 104.73 131.06L89.4102 128.7Z" fill="url(#paint58_linear_0_1)"/>
<path d="M150.53 120.41C150.53 120.41 158.8 123.36 158.8 145.81V190.44C158.8 190.631 158.838 190.821 158.911 190.997C158.985 191.174 159.093 191.334 159.228 191.469C159.364 191.604 159.525 191.71 159.702 191.783C159.879 191.855 160.069 191.891 160.26 191.89C160.454 191.889 160.646 191.849 160.825 191.772C161.004 191.696 161.165 191.584 161.3 191.445C161.435 191.305 161.541 191.14 161.611 190.959C161.682 190.778 161.715 190.584 161.71 190.39C161.44 181.73 160.16 138.25 161.71 134C163.48 129.27 165.84 122.77 165.84 122.77L150.53 120.41Z" fill="url(#paint59_linear_0_1)"/>
<path d="M163 120.41C163 120.41 176.67 125.29 176.67 162.41V236.14C176.669 236.456 176.73 236.768 176.85 237.06C176.97 237.352 177.147 237.617 177.37 237.84C177.593 238.063 177.858 238.24 178.15 238.36C178.442 238.48 178.754 238.541 179.07 238.54C179.391 238.54 179.709 238.476 180.005 238.351C180.301 238.226 180.568 238.043 180.792 237.812C181.016 237.582 181.191 237.309 181.308 237.01C181.424 236.711 181.479 236.391 181.47 236.07C181.02 221.75 178.91 149.91 181.55 142.89C184.48 135.08 188.38 124.34 188.38 124.34L163 120.41Z" fill="url(#paint60_linear_0_1)"/>
<path d="M211.69 125.59C211.69 125.59 216.82 127.42 216.82 141.33V169C216.82 169.239 216.915 169.468 217.084 169.636C217.252 169.805 217.481 169.9 217.72 169.9C217.841 169.9 217.96 169.876 218.072 169.829C218.183 169.782 218.283 169.713 218.367 169.626C218.451 169.539 218.517 169.436 218.56 169.324C218.604 169.211 218.624 169.091 218.62 168.97C218.45 163.6 217.62 136.65 218.62 133.97C219.72 131.04 221.18 126.97 221.18 126.97L211.69 125.59Z" fill="url(#paint61_linear_0_1)"/>
<path d="M121.51 139.06C121.51 139.06 136.01 144.24 136.01 183.6V261.86C136.01 262.536 136.279 263.185 136.757 263.663C137.235 264.141 137.884 264.41 138.56 264.41C138.902 264.41 139.24 264.342 139.555 264.209C139.869 264.075 140.154 263.88 140.392 263.635C140.63 263.39 140.816 263.099 140.939 262.78C141.063 262.462 141.121 262.122 141.11 261.78C140.63 246.58 138.39 170.34 141.19 162.88C144.3 154.6 148.44 143.2 148.44 143.2L121.51 139.06Z" fill="url(#paint62_linear_0_1)"/>
<path d="M152.07 145.27C194.126 145.27 228.22 139.239 228.22 131.8C228.22 124.361 194.126 118.33 152.07 118.33C110.013 118.33 75.9199 124.361 75.9199 131.8C75.9199 139.239 110.013 145.27 152.07 145.27Z" fill="url(#paint63_linear_0_1)"/>
<defs>
<linearGradient id="paint0_linear_0_1" x1="256.57" y1="267.97" x2="224.13" y2="208.85" gradientUnits="userSpaceOnUse">
<stop stop-color="#CB1C24"/>
<stop offset="0.11" stop-color="#BF1B23"/>
<stop offset="0.31" stop-color="#9F1920"/>
<stop offset="0.58" stop-color="#6C161A"/>
<stop offset="0.91" stop-color="#261213"/>
<stop offset="1" stop-color="#101111"/>
</linearGradient>
<linearGradient id="paint1_linear_0_1" x1="238.55" y1="281.27" x2="238.55" y2="279.36" gradientUnits="userSpaceOnUse">
<stop stop-color="#CB1C24"/>
<stop offset="0.11" stop-color="#BF1B23"/>
<stop offset="0.31" stop-color="#9F1920"/>
<stop offset="0.58" stop-color="#6C161A"/>
<stop offset="0.91" stop-color="#261213"/>
<stop offset="1" stop-color="#101111"/>
</linearGradient>
<linearGradient id="paint2_linear_0_1" x1="212.17" y1="206.05" x2="212.17" y2="205.36" gradientUnits="userSpaceOnUse">
<stop stop-color="#CB1C24"/>
<stop offset="0.11" stop-color="#BF1B23"/>
<stop offset="0.31" stop-color="#9F1920"/>
<stop offset="0.58" stop-color="#6C161A"/>
<stop offset="0.91" stop-color="#261213"/>
<stop offset="1" stop-color="#101111"/>
</linearGradient>
<linearGradient id="paint3_linear_0_1" x1="202.54" y1="266.83" x2="202.54" y2="262.92" gradientUnits="userSpaceOnUse">
<stop stop-color="#CB1C24"/>
<stop offset="0.11" stop-color="#BF1B23"/>
<stop offset="0.31" stop-color="#9F1920"/>
<stop offset="0.58" stop-color="#6C161A"/>
<stop offset="0.91" stop-color="#261213"/>
<stop offset="1" stop-color="#101111"/>
</linearGradient>
<linearGradient id="paint4_linear_0_1" x1="239.1" y1="271.12" x2="239.1" y2="269.77" gradientUnits="userSpaceOnUse">
<stop stop-color="#CB1C24"/>
<stop offset="0.11" stop-color="#BF1B23"/>
<stop offset="0.31" stop-color="#9F1920"/>
<stop offset="0.58" stop-color="#6C161A"/>
<stop offset="0.91" stop-color="#261213"/>
<stop offset="1" stop-color="#101111"/>
</linearGradient>
<linearGradient id="paint5_linear_0_1" x1="210.74" y1="278.41" x2="210.74" y2="276.99" gradientUnits="userSpaceOnUse">
<stop stop-color="#CB1C24"/>
<stop offset="0.11" stop-color="#BF1B23"/>
<stop offset="0.31" stop-color="#9F1920"/>
<stop offset="0.58" stop-color="#6C161A"/>
<stop offset="0.91" stop-color="#261213"/>
<stop offset="1" stop-color="#101111"/>
</linearGradient>
<linearGradient id="paint6_linear_0_1" x1="256.92" y1="268.04" x2="256.92" y2="266.9" gradientUnits="userSpaceOnUse">
<stop stop-color="#CB1C24"/>
<stop offset="0.11" stop-color="#BF1B23"/>
<stop offset="0.31" stop-color="#9F1920"/>
<stop offset="0.58" stop-color="#6C161A"/>
<stop offset="0.91" stop-color="#261213"/>
<stop offset="1" stop-color="#101111"/>
</linearGradient>
<linearGradient id="paint7_linear_0_1" x1="222.27" y1="272.75" x2="222.27" y2="271.08" gradientUnits="userSpaceOnUse">
<stop stop-color="#CB1C24"/>
<stop offset="0.11" stop-color="#BF1B23"/>
<stop offset="0.31" stop-color="#9F1920"/>
<stop offset="0.58" stop-color="#6C161A"/>
<stop offset="0.91" stop-color="#261213"/>
<stop offset="1" stop-color="#101111"/>
</linearGradient>
<linearGradient id="paint8_linear_0_1" x1="236.72" y1="277.76" x2="236.72" y2="276.71" gradientUnits="userSpaceOnUse">
<stop stop-color="#CB1C24"/>
<stop offset="0.11" stop-color="#BF1B23"/>
<stop offset="0.31" stop-color="#9F1920"/>
<stop offset="0.58" stop-color="#6C161A"/>
<stop offset="0.91" stop-color="#261213"/>
<stop offset="1" stop-color="#101111"/>
</linearGradient>
<linearGradient id="paint9_linear_0_1" x1="219.79" y1="264.02" x2="219.79" y2="263.21" gradientUnits="userSpaceOnUse">
<stop stop-color="#CB1C24"/>
<stop offset="0.11" stop-color="#BF1B23"/>
<stop offset="0.31" stop-color="#9F1920"/>
<stop offset="0.58" stop-color="#6C161A"/>
<stop offset="0.91" stop-color="#261213"/>
<stop offset="1" stop-color="#101111"/>
</linearGradient>
<linearGradient id="paint10_linear_0_1" x1="237.55" y1="259.1" x2="237.55" y2="258.4" gradientUnits="userSpaceOnUse">
<stop stop-color="#CB1C24"/>
<stop offset="0.11" stop-color="#BF1B23"/>
<stop offset="0.31" stop-color="#9F1920"/>
<stop offset="0.58" stop-color="#6C161A"/>
<stop offset="0.91" stop-color="#261213"/>
<stop offset="1" stop-color="#101111"/>
</linearGradient>
<linearGradient id="paint11_linear_0_1" x1="241.57" y1="259.25" x2="241.57" y2="258.53" gradientUnits="userSpaceOnUse">
<stop stop-color="#CB1C24"/>
<stop offset="0.11" stop-color="#BF1B23"/>
<stop offset="0.31" stop-color="#9F1920"/>
<stop offset="0.58" stop-color="#6C161A"/>
<stop offset="0.91" stop-color="#261213"/>
<stop offset="1" stop-color="#101111"/>
</linearGradient>
<linearGradient id="paint12_linear_0_1" x1="207.03" y1="224.53" x2="207.03" y2="220.75" gradientUnits="userSpaceOnUse">
<stop stop-color="#CB1C24"/>
<stop offset="0.11" stop-color="#BF1B23"/>
<stop offset="0.31" stop-color="#9F1920"/>
<stop offset="0.58" stop-color="#6C161A"/>
<stop offset="0.91" stop-color="#261213"/>
<stop offset="1" stop-color="#101111"/>
</linearGradient>
<linearGradient id="paint13_linear_0_1" x1="207.44" y1="217.93" x2="207.44" y2="216.51" gradientUnits="userSpaceOnUse">
<stop stop-color="#CB1C24"/>
<stop offset="0.11" stop-color="#BF1B23"/>
<stop offset="0.31" stop-color="#9F1920"/>
<stop offset="0.58" stop-color="#6C161A"/>
<stop offset="0.91" stop-color="#261213"/>
<stop offset="1" stop-color="#101111"/>
</linearGradient>
<linearGradient id="paint14_linear_0_1" x1="217.41" y1="224.18" x2="217.41" y2="222.79" gradientUnits="userSpaceOnUse">
<stop stop-color="#CB1C24"/>
<stop offset="0.11" stop-color="#BF1B23"/>
<stop offset="0.31" stop-color="#9F1920"/>
<stop offset="0.58" stop-color="#6C161A"/>
<stop offset="0.91" stop-color="#261213"/>
<stop offset="1" stop-color="#101111"/>
</linearGradient>
<linearGradient id="paint15_linear_0_1" x1="212.72" y1="219.34" x2="212.72" y2="218.27" gradientUnits="userSpaceOnUse">
<stop stop-color="#CB1C24"/>
<stop offset="0.11" stop-color="#BF1B23"/>
<stop offset="0.31" stop-color="#9F1920"/>
<stop offset="0.58" stop-color="#6C161A"/>
<stop offset="0.91" stop-color="#261213"/>
<stop offset="1" stop-color="#101111"/>
</linearGradient>
<linearGradient id="paint16_linear_0_1" x1="216.74" y1="226.98" x2="216.74" y2="225.92" gradientUnits="userSpaceOnUse">
<stop stop-color="#CB1C24"/>
<stop offset="0.11" stop-color="#BF1B23"/>
<stop offset="0.31" stop-color="#9F1920"/>
<stop offset="0.58" stop-color="#6C161A"/>
<stop offset="0.91" stop-color="#261213"/>
<stop offset="1" stop-color="#101111"/>
</linearGradient>
<linearGradient id="paint17_linear_0_1" x1="219.83" y1="209.52" x2="219.83" y2="208.59" gradientUnits="userSpaceOnUse">
<stop stop-color="#CB1C24"/>
<stop offset="0.11" stop-color="#BF1B23"/>
<stop offset="0.31" stop-color="#9F1920"/>
<stop offset="0.58" stop-color="#6C161A"/>
<stop offset="0.91" stop-color="#261213"/>
<stop offset="1" stop-color="#101111"/>
</linearGradient>
<linearGradient id="paint18_linear_0_1" x1="223.96" y1="209.5" x2="223.96" y2="208.48" gradientUnits="userSpaceOnUse">
<stop stop-color="#CB1C24"/>
<stop offset="0.11" stop-color="#BF1B23"/>
<stop offset="0.31" stop-color="#9F1920"/>
<stop offset="0.58" stop-color="#6C161A"/>
<stop offset="0.91" stop-color="#261213"/>
<stop offset="1" stop-color="#101111"/>
</linearGradient>
<linearGradient id="paint19_linear_0_1" x1="202.46" y1="222.53" x2="202.46" y2="221.74" gradientUnits="userSpaceOnUse">
<stop stop-color="#CB1C24"/>
<stop offset="0.11" stop-color="#BF1B23"/>
<stop offset="0.31" stop-color="#9F1920"/>
<stop offset="0.58" stop-color="#6C161A"/>
<stop offset="0.91" stop-color="#261213"/>
<stop offset="1" stop-color="#101111"/>
</linearGradient>
<linearGradient id="paint20_linear_0_1" x1="111.513" y1="350.552" x2="152.164" y2="211.033" gradientUnits="userSpaceOnUse">
<stop stop-color="#CB1C24"/>
<stop offset="0.11" stop-color="#BF1B23"/>
<stop offset="0.31" stop-color="#9F1920"/>
<stop offset="0.58" stop-color="#6C161A"/>
<stop offset="0.91" stop-color="#261213"/>
<stop offset="1" stop-color="#101111"/>
</linearGradient>
<linearGradient id="paint21_linear_0_1" x1="52.6955" y1="379.487" x2="56.1886" y2="375.994" gradientUnits="userSpaceOnUse">
<stop stop-color="#CB1C24"/>
<stop offset="0.11" stop-color="#BF1B23"/>
<stop offset="0.31" stop-color="#9F1920"/>
<stop offset="0.58" stop-color="#6C161A"/>
<stop offset="0.91" stop-color="#261213"/>
<stop offset="1" stop-color="#101111"/>
</linearGradient>
<linearGradient id="paint22_linear_0_1" x1="142.357" y1="192.952" x2="143.629" y2="191.68" gradientUnits="userSpaceOnUse">
<stop stop-color="#CB1C24"/>
<stop offset="0.11" stop-color="#BF1B23"/>
<stop offset="0.31" stop-color="#9F1920"/>
<stop offset="0.58" stop-color="#6C161A"/>
<stop offset="0.91" stop-color="#261213"/>
<stop offset="1" stop-color="#101111"/>
</linearGradient>
<linearGradient id="paint23_linear_0_1" x1="13.0832" y1="286.885" x2="20.2816" y2="279.686" gradientUnits="userSpaceOnUse">
<stop stop-color="#CB1C24"/>
<stop offset="0.11" stop-color="#BF1B23"/>
<stop offset="0.31" stop-color="#9F1920"/>
<stop offset="0.58" stop-color="#6C161A"/>
<stop offset="0.91" stop-color="#261213"/>
<stop offset="1" stop-color="#101111"/>
</linearGradient>
<linearGradient id="paint24_linear_0_1" x1="72.3458" y1="361.873" x2="74.8207" y2="359.398" gradientUnits="userSpaceOnUse">
<stop stop-color="#CB1C24"/>
<stop offset="0.11" stop-color="#BF1B23"/>
<stop offset="0.31" stop-color="#9F1920"/>
<stop offset="0.58" stop-color="#6C161A"/>
<stop offset="0.91" stop-color="#261213"/>
<stop offset="1" stop-color="#101111"/>
</linearGradient>
<linearGradient id="paint25_linear_0_1" x1="6.87479" y1="323.173" x2="9.48402" y2="320.564" gradientUnits="userSpaceOnUse">
<stop stop-color="#CB1C24"/>
<stop offset="0.11" stop-color="#BF1B23"/>
<stop offset="0.31" stop-color="#9F1920"/>
<stop offset="0.58" stop-color="#6C161A"/>
<stop offset="0.91" stop-color="#261213"/>
<stop offset="1" stop-color="#101111"/>
</linearGradient>
<linearGradient id="paint26_linear_0_1" x1="110.706" y1="388.934" x2="112.792" y2="386.848" gradientUnits="userSpaceOnUse">
<stop stop-color="#CB1C24"/>
<stop offset="0.11" stop-color="#BF1B23"/>
<stop offset="0.31" stop-color="#9F1920"/>
<stop offset="0.58" stop-color="#6C161A"/>
<stop offset="0.91" stop-color="#261213"/>
<stop offset="1" stop-color="#101111"/>
</linearGradient>
<linearGradient id="paint27_linear_0_1" x1="38.4473" y1="333.957" x2="41.5091" y2="330.895" gradientUnits="userSpaceOnUse">
<stop stop-color="#CB1C24"/>
<stop offset="0.11" stop-color="#BF1B23"/>
<stop offset="0.31" stop-color="#9F1920"/>
<stop offset="0.58" stop-color="#6C161A"/>
<stop offset="0.91" stop-color="#261213"/>
<stop offset="1" stop-color="#101111"/>
</linearGradient>
<linearGradient id="paint28_linear_0_1" x1="55.7713" y1="369.68" x2="57.6876" y2="367.763" gradientUnits="userSpaceOnUse">
<stop stop-color="#CB1C24"/>
<stop offset="0.11" stop-color="#BF1B23"/>
<stop offset="0.31" stop-color="#9F1920"/>
<stop offset="0.58" stop-color="#6C161A"/>
<stop offset="0.91" stop-color="#261213"/>
<stop offset="1" stop-color="#101111"/>
</linearGradient>
<linearGradient id="paint29_linear_0_1" x1="49.9095" y1="313.373" x2="51.3874" y2="311.895" gradientUnits="userSpaceOnUse">
<stop stop-color="#CB1C24"/>
<stop offset="0.11" stop-color="#BF1B23"/>
<stop offset="0.31" stop-color="#9F1920"/>
<stop offset="0.58" stop-color="#6C161A"/>
<stop offset="0.91" stop-color="#261213"/>
<stop offset="1" stop-color="#101111"/>
</linearGradient>
<linearGradient id="paint30_linear_0_1" x1="91.5511" y1="336.941" x2="92.838" y2="335.654" gradientUnits="userSpaceOnUse">
<stop stop-color="#CB1C24"/>
<stop offset="0.11" stop-color="#BF1B23"/>
<stop offset="0.31" stop-color="#9F1920"/>
<stop offset="0.58" stop-color="#6C161A"/>
<stop offset="0.91" stop-color="#261213"/>
<stop offset="1" stop-color="#101111"/>
</linearGradient>
<linearGradient id="paint31_linear_0_1" x1="98.6642" y1="344.606" x2="99.9795" y2="343.29" gradientUnits="userSpaceOnUse">
<stop stop-color="#CB1C24"/>
<stop offset="0.11" stop-color="#BF1B23"/>
<stop offset="0.31" stop-color="#9F1920"/>
<stop offset="0.58" stop-color="#6C161A"/>
<stop offset="0.91" stop-color="#261213"/>
<stop offset="1" stop-color="#101111"/>
</linearGradient>
<linearGradient id="paint32_linear_0_1" x1="98.9827" y1="217.447" x2="105.934" y2="210.496" gradientUnits="userSpaceOnUse">
<stop stop-color="#CB1C24"/>
<stop offset="0.11" stop-color="#BF1B23"/>
<stop offset="0.31" stop-color="#9F1920"/>
<stop offset="0.58" stop-color="#6C161A"/>
<stop offset="0.91" stop-color="#261213"/>
<stop offset="1" stop-color="#101111"/>
</linearGradient>
<linearGradient id="paint33_linear_0_1" x1="111.866" y1="206.091" x2="114.482" y2="203.474" gradientUnits="userSpaceOnUse">
<stop stop-color="#CB1C24"/>
<stop offset="0.11" stop-color="#BF1B23"/>
<stop offset="0.31" stop-color="#9F1920"/>
<stop offset="0.58" stop-color="#6C161A"/>
<stop offset="0.91" stop-color="#261213"/>
<stop offset="1" stop-color="#101111"/>
</linearGradient>
<linearGradient id="paint34_linear_0_1" x1="118.704" y1="235.867" x2="121.256" y2="233.314" gradientUnits="userSpaceOnUse">
<stop stop-color="#CB1C24"/>
<stop offset="0.11" stop-color="#BF1B23"/>
<stop offset="0.31" stop-color="#9F1920"/>
<stop offset="0.58" stop-color="#6C161A"/>
<stop offset="0.91" stop-color="#261213"/>
<stop offset="1" stop-color="#101111"/>
</linearGradient>
<linearGradient id="paint35_linear_0_1" x1="118.958" y1="218.359" x2="120.938" y2="216.379" gradientUnits="userSpaceOnUse">
<stop stop-color="#CB1C24"/>
<stop offset="0.11" stop-color="#BF1B23"/>
<stop offset="0.31" stop-color="#9F1920"/>
<stop offset="0.58" stop-color="#6C161A"/>
<stop offset="0.91" stop-color="#261213"/>
<stop offset="1" stop-color="#101111"/>
</linearGradient>
<linearGradient id="paint36_linear_0_1" x1="112.319" y1="239.763" x2="114.263" y2="237.818" gradientUnits="userSpaceOnUse">
<stop stop-color="#CB1C24"/>
<stop offset="0.11" stop-color="#BF1B23"/>
<stop offset="0.31" stop-color="#9F1920"/>
<stop offset="0.58" stop-color="#6C161A"/>
<stop offset="0.91" stop-color="#261213"/>
<stop offset="1" stop-color="#101111"/>
</linearGradient>
<linearGradient id="paint37_linear_0_1" x1="150.064" y1="213.388" x2="151.782" y2="211.67" gradientUnits="userSpaceOnUse">
<stop stop-color="#CB1C24"/>
<stop offset="0.11" stop-color="#BF1B23"/>
<stop offset="0.31" stop-color="#9F1920"/>
<stop offset="0.58" stop-color="#6C161A"/>
<stop offset="0.91" stop-color="#261213"/>
<stop offset="1" stop-color="#101111"/>
</linearGradient>
<linearGradient id="paint38_linear_0_1" x1="157.68" y1="220.919" x2="159.546" y2="219.052" gradientUnits="userSpaceOnUse">
<stop stop-color="#CB1C24"/>
<stop offset="0.11" stop-color="#BF1B23"/>
<stop offset="0.31" stop-color="#9F1920"/>
<stop offset="0.58" stop-color="#6C161A"/>
<stop offset="0.91" stop-color="#261213"/>
<stop offset="1" stop-color="#101111"/>
</linearGradient>
<linearGradient id="paint39_linear_0_1" x1="94.2873" y1="205.383" x2="95.7298" y2="203.941" gradientUnits="userSpaceOnUse">
<stop stop-color="#CB1C24"/>
<stop offset="0.11" stop-color="#BF1B23"/>
<stop offset="0.31" stop-color="#9F1920"/>
<stop offset="0.58" stop-color="#6C161A"/>
<stop offset="0.91" stop-color="#261213"/>
<stop offset="1" stop-color="#101111"/>
</linearGradient>
<linearGradient id="paint40_linear_0_1" x1="245.089" y1="274.054" x2="288.012" y2="352.246" gradientUnits="userSpaceOnUse">
<stop stop-color="#CB1C24"/>
<stop offset="0.11" stop-color="#BF1B23"/>
<stop offset="0.31" stop-color="#9F1920"/>
<stop offset="0.58" stop-color="#6C161A"/>
<stop offset="0.91" stop-color="#261213"/>
<stop offset="1" stop-color="#101111"/>
</linearGradient>
<linearGradient id="paint41_linear_0_1" x1="276.667" y1="268.078" x2="276.668" y2="270.598" gradientUnits="userSpaceOnUse">
<stop stop-color="#CB1C24"/>
<stop offset="0.11" stop-color="#BF1B23"/>
<stop offset="0.31" stop-color="#9F1920"/>
<stop offset="0.58" stop-color="#6C161A"/>
<stop offset="0.91" stop-color="#261213"/>
<stop offset="1" stop-color="#101111"/>
</linearGradient>
<linearGradient id="paint42_linear_0_1" x1="324.301" y1="287.16" x2="324.302" y2="292.34" gradientUnits="userSpaceOnUse">
<stop stop-color="#CB1C24"/>
<stop offset="0.11" stop-color="#BF1B23"/>
<stop offset="0.31" stop-color="#9F1920"/>
<stop offset="0.58" stop-color="#6C161A"/>
<stop offset="0.91" stop-color="#261213"/>
<stop offset="1" stop-color="#101111"/>
</linearGradient>
<linearGradient id="paint43_linear_0_1" x1="275.94" y1="281.499" x2="275.94" y2="283.288" gradientUnits="userSpaceOnUse">
<stop stop-color="#CB1C24"/>
<stop offset="0.11" stop-color="#BF1B23"/>
<stop offset="0.31" stop-color="#9F1920"/>
<stop offset="0.58" stop-color="#6C161A"/>
<stop offset="0.91" stop-color="#261213"/>
<stop offset="1" stop-color="#101111"/>
</linearGradient>
<linearGradient id="paint44_linear_0_1" x1="313.468" y1="271.852" x2="313.468" y2="273.732" gradientUnits="userSpaceOnUse">
<stop stop-color="#CB1C24"/>
<stop offset="0.11" stop-color="#BF1B23"/>
<stop offset="0.31" stop-color="#9F1920"/>
<stop offset="0.58" stop-color="#6C161A"/>
<stop offset="0.91" stop-color="#261213"/>
<stop offset="1" stop-color="#101111"/>
</linearGradient>
<linearGradient id="paint45_linear_0_1" x1="252.371" y1="285.583" x2="252.371" y2="287.083" gradientUnits="userSpaceOnUse">
<stop stop-color="#CB1C24"/>
<stop offset="0.11" stop-color="#BF1B23"/>
<stop offset="0.31" stop-color="#9F1920"/>
<stop offset="0.58" stop-color="#6C161A"/>
<stop offset="0.91" stop-color="#261213"/>
<stop offset="1" stop-color="#101111"/>
</linearGradient>
<linearGradient id="paint46_linear_0_1" x1="298.209" y1="279.345" x2="298.21" y2="281.555" gradientUnits="userSpaceOnUse">
<stop stop-color="#CB1C24"/>
<stop offset="0.11" stop-color="#BF1B23"/>
<stop offset="0.31" stop-color="#9F1920"/>
<stop offset="0.58" stop-color="#6C161A"/>
<stop offset="0.91" stop-color="#261213"/>
<stop offset="1" stop-color="#101111"/>
</linearGradient>
<linearGradient id="paint47_linear_0_1" x1="279.098" y1="272.718" x2="279.099" y2="274.098" gradientUnits="userSpaceOnUse">
<stop stop-color="#CB1C24"/>
<stop offset="0.11" stop-color="#BF1B23"/>
<stop offset="0.31" stop-color="#9F1920"/>
<stop offset="0.58" stop-color="#6C161A"/>
<stop offset="0.91" stop-color="#261213"/>
<stop offset="1" stop-color="#101111"/>
</linearGradient>
<linearGradient id="paint48_linear_0_1" x1="301.502" y1="290.884" x2="301.502" y2="291.954" gradientUnits="userSpaceOnUse">
<stop stop-color="#CB1C24"/>
<stop offset="0.11" stop-color="#BF1B23"/>
<stop offset="0.31" stop-color="#9F1920"/>
<stop offset="0.58" stop-color="#6C161A"/>
<stop offset="0.91" stop-color="#261213"/>
<stop offset="1" stop-color="#101111"/>
</linearGradient>
<linearGradient id="paint49_linear_0_1" x1="278.003" y1="297.408" x2="278.003" y2="298.328" gradientUnits="userSpaceOnUse">
<stop stop-color="#CB1C24"/>
<stop offset="0.11" stop-color="#BF1B23"/>
<stop offset="0.31" stop-color="#9F1920"/>
<stop offset="0.58" stop-color="#6C161A"/>
<stop offset="0.91" stop-color="#261213"/>
<stop offset="1" stop-color="#101111"/>
</linearGradient>
<linearGradient id="paint50_linear_0_1" x1="272.683" y1="297.209" x2="272.683" y2="298.149" gradientUnits="userSpaceOnUse">
<stop stop-color="#CB1C24"/>
<stop offset="0.11" stop-color="#BF1B23"/>
<stop offset="0.31" stop-color="#9F1920"/>
<stop offset="0.58" stop-color="#6C161A"/>
<stop offset="0.91" stop-color="#261213"/>
<stop offset="1" stop-color="#101111"/>
</linearGradient>
<linearGradient id="paint51_linear_0_1" x1="304.641" y1="343.593" x2="304.641" y2="345.433" gradientUnits="userSpaceOnUse">
<stop stop-color="#CB1C24"/>
<stop offset="0.11" stop-color="#BF1B23"/>
<stop offset="0.31" stop-color="#9F1920"/>
<stop offset="0.58" stop-color="#6C161A"/>
<stop offset="0.91" stop-color="#261213"/>
<stop offset="1" stop-color="#101111"/>
</linearGradient>
<linearGradient id="paint52_linear_0_1" x1="310.862" y1="349.992" x2="310.862" y2="351.412" gradientUnits="userSpaceOnUse">
<stop stop-color="#CB1C24"/>
<stop offset="0.11" stop-color="#BF1B23"/>
<stop offset="0.31" stop-color="#9F1920"/>
<stop offset="0.58" stop-color="#6C161A"/>
<stop offset="0.91" stop-color="#261213"/>
<stop offset="1" stop-color="#101111"/>
</linearGradient>
<linearGradient id="paint53_linear_0_1" x1="305.54" y1="339.883" x2="305.541" y2="341.283" gradientUnits="userSpaceOnUse">
<stop stop-color="#CB1C24"/>
<stop offset="0.11" stop-color="#BF1B23"/>
<stop offset="0.31" stop-color="#9F1920"/>
<stop offset="0.58" stop-color="#6C161A"/>
<stop offset="0.91" stop-color="#261213"/>
<stop offset="1" stop-color="#101111"/>
</linearGradient>
<linearGradient id="paint54_linear_0_1" x1="301.454" y1="362.984" x2="301.454" y2="364.224" gradientUnits="userSpaceOnUse">
<stop stop-color="#CB1C24"/>
<stop offset="0.11" stop-color="#BF1B23"/>
<stop offset="0.31" stop-color="#9F1920"/>
<stop offset="0.58" stop-color="#6C161A"/>
<stop offset="0.91" stop-color="#261213"/>
<stop offset="1" stop-color="#101111"/>
</linearGradient>
<linearGradient id="paint55_linear_0_1" x1="295.994" y1="363.015" x2="295.994" y2="364.365" gradientUnits="userSpaceOnUse">
<stop stop-color="#CB1C24"/>
<stop offset="0.11" stop-color="#BF1B23"/>
<stop offset="0.31" stop-color="#9F1920"/>
<stop offset="0.58" stop-color="#6C161A"/>
<stop offset="0.91" stop-color="#261213"/>
<stop offset="1" stop-color="#101111"/>
</linearGradient>
<linearGradient id="paint56_linear_0_1" x1="6.88997" y1="210.7" x2="320.73" y2="210.7" gradientUnits="userSpaceOnUse">
<stop/>
<stop offset="0.08" stop-color="#333333"/>
<stop offset="0.17" stop-color="#626262"/>
<stop offset="0.26" stop-color="#8C8C8C"/>
<stop offset="0.36" stop-color="#B0B0B0"/>
<stop offset="0.46" stop-color="#CDCDCD"/>
<stop offset="0.56" stop-color="#E3E3E3"/>
<stop offset="0.68" stop-color="#F3F3F3"/>
<stop offset="0.81" stop-color="#FCFCFC"/>
<stop offset="1" stop-color="white"/>
</linearGradient>
<linearGradient id="paint57_linear_0_1" x1="117.36" y1="437.36" x2="117.36" y2="-49.85" gradientUnits="userSpaceOnUse">
<stop stop-color="#CB1C24"/>
<stop offset="0.11" stop-color="#BF1B23"/>
<stop offset="0.31" stop-color="#9F1920"/>
<stop offset="0.58" stop-color="#6C161A"/>
<stop offset="0.91" stop-color="#261213"/>
<stop offset="1" stop-color="#101111"/>
</linearGradient>
<linearGradient id="paint58_linear_0_1" x1="97.0901" y1="298.8" x2="97.0901" y2="20.97" gradientUnits="userSpaceOnUse">
<stop stop-color="#CB1C24"/>
<stop offset="0.11" stop-color="#BF1B23"/>
<stop offset="0.31" stop-color="#9F1920"/>
<stop offset="0.58" stop-color="#6C161A"/>
<stop offset="0.91" stop-color="#261213"/>
<stop offset="1" stop-color="#101111"/>
</linearGradient>
<linearGradient id="paint59_linear_0_1" x1="158.21" y1="290.51" x2="158.21" y2="12.69" gradientUnits="userSpaceOnUse">
<stop stop-color="#CB1C24"/>
<stop offset="0.11" stop-color="#BF1B23"/>
<stop offset="0.31" stop-color="#9F1920"/>
<stop offset="0.58" stop-color="#6C161A"/>
<stop offset="0.91" stop-color="#261213"/>
<stop offset="1" stop-color="#101111"/>
</linearGradient>
<linearGradient id="paint60_linear_0_1" x1="175.65" y1="401.45" x2="175.65" y2="-57.57" gradientUnits="userSpaceOnUse">
<stop stop-color="#CB1C24"/>
<stop offset="0.11" stop-color="#BF1B23"/>
<stop offset="0.31" stop-color="#9F1920"/>
<stop offset="0.58" stop-color="#6C161A"/>
<stop offset="0.91" stop-color="#261213"/>
<stop offset="1" stop-color="#101111"/>
</linearGradient>
<linearGradient id="paint61_linear_0_1" x1="216.45" y1="231.03" x2="216.45" y2="58.82" gradientUnits="userSpaceOnUse">
<stop stop-color="#CB1C24"/>
<stop offset="0.11" stop-color="#BF1B23"/>
<stop offset="0.31" stop-color="#9F1920"/>
<stop offset="0.58" stop-color="#6C161A"/>
<stop offset="0.91" stop-color="#261213"/>
<stop offset="1" stop-color="#101111"/>
</linearGradient>
<linearGradient id="paint62_linear_0_1" x1="134.98" y1="437.36" x2="134.98" y2="-49.85" gradientUnits="userSpaceOnUse">
<stop stop-color="#CB1C24"/>
<stop offset="0.11" stop-color="#BF1B23"/>
<stop offset="0.31" stop-color="#9F1920"/>
<stop offset="0.58" stop-color="#6C161A"/>
<stop offset="0.91" stop-color="#261213"/>
<stop offset="1" stop-color="#101111"/>
</linearGradient>
<linearGradient id="paint63_linear_0_1" x1="152.07" y1="32.61" x2="152.07" y2="269.86" gradientUnits="userSpaceOnUse">
<stop stop-color="#CB1C24"/>
<stop offset="0.11" stop-color="#B41B22"/>
<stop offset="0.55" stop-color="#5C1519"/>
<stop offset="0.85" stop-color="#251213"/>
<stop offset="1" stop-color="#101111"/>
</linearGradient>
</defs>
</svg>
