<svg class="z-[10]" width="1802" height="1080" viewBox="0 0 1802 1080" fill="none" xmlns="http://www.w3.org/2000/svg">
<path class="z-[10]" d="M68.5 -0.5V544.5" stroke="#3FBBEC" stroke-width="2" stroke-miterlimit="10"/>
<path class="z-[10]" d="M429.5 231.5V504.5" stroke="#3FBBEC" stroke-width="2" stroke-miterlimit="10"/>
<path class="z-[10]" d="M1046.5 110.5V383.5" stroke="#3FBBEC" stroke-width="2" stroke-miterlimit="10"/>
<path class="z-[10]" d="M1046.5 97.5V370.5" stroke="#3FBBEC" stroke-width="2" stroke-miterlimit="10"/>
<path class="z-[10]" d="M1494.5 489.5V762.5" stroke="#3FBBEC" stroke-width="2" stroke-miterlimit="10"/>
<path d="M1178.5 4.5V271.5" stroke="#3FBBEC" stroke-width="2" stroke-miterlimit="10"/>
<path d="M1472.5 -0.5V339.5" stroke="#3FBBEC" stroke-width="2" stroke-miterlimit="10"/>
<path d="M1687.5 677.5V1085.5" stroke="#3FBBEC" stroke-width="2" stroke-miterlimit="10"/>
<path d="M1800.5 567.5V1084.5" stroke="#3FBBEC" stroke-width="2" stroke-miterlimit="10"/>
<path d="M163.5 744.5V1084.5" stroke="#3FBBEC" stroke-width="2" stroke-miterlimit="10"/>
<path class="z-10" d="M651.5 34.5V374.5" stroke="#F7931E" stroke-width="2" stroke-miterlimit="10"/>
<path class="z-10"  d="M1.5 625.5V1084.5" stroke="#3FBBEC" stroke-width="2" stroke-miterlimit="10"/>
<path class="z-10"  d="M163.5 -0.5V410.5" stroke="#EC3593" stroke-width="2" stroke-miterlimit="10"/>
<path class="z-10"  d="M357.5 234.5V368.5" stroke="#EC3593" stroke-width="2" stroke-miterlimit="10"/>
<path class="z-10"  d="M522.5 543.5V677.5" stroke="#EC3593" stroke-width="2" stroke-miterlimit="10"/>
<path class="z-[10]" d="M1269.5 592.5V726.5" stroke="#EC3593" stroke-width="2" stroke-miterlimit="10"/>
<path class="z-[10]" d="M1040.5 929.5V1063.5" stroke="#EC3593" stroke-width="2" stroke-miterlimit="10"/>
<path class="z-[10]" d="M286.5 744.5V1084.5" stroke="#EC3593" stroke-width="2" stroke-miterlimit="10"/>
<path class="z-[10]" d="M659.5 792.5V1042.5" stroke="#EC3593" stroke-width="2" stroke-miterlimit="10"/>
<path class="z-[10]" d="M1494.5 857.5V1085.5" stroke="#EC3593" stroke-width="2" stroke-miterlimit="10"/>
<path class="z-[10]" d="M1356.5 879.5V1085.5" stroke="#EC3593" stroke-width="2" stroke-miterlimit="10"/>
<path d="M1717.5 66.5V477.5" stroke="#EC3593" stroke-width="2" stroke-miterlimit="10"/>
<path class="z-[10]" d="M1.5 -5.5V334.5" stroke="#F7931E" stroke-width="2" stroke-miterlimit="10"/>
<path class="z-[10]" d="M1269.5 909.5V1079.5" stroke="#F7931E" stroke-width="2" stroke-miterlimit="10"/>
<path class="z-[10]" d="M1610.5 458.5V628.5" stroke="#F7931E" stroke-width="2" stroke-miterlimit="10"/>
<path class="z-[10]" d="M226.5 677.5V847.5" stroke="#F7931E" stroke-width="2" stroke-miterlimit="10"/>
</svg>
