<svg width="326" height="516" viewBox="0 0 326 516" fill="none" xmlns="http://www.w3.org/2000/svg">
<path opacity="0.1" d="M292.93 0H33.07C14.806 0 0 14.806 0 33.07V482.93C0 501.194 14.806 516 33.07 516H292.93C311.194 516 326 501.194 326 482.93V33.07C326 14.806 311.194 0 292.93 0Z" fill="white"/>
<path d="M56.27 286.11C56.27 286.11 57.6 342.86 103.74 354.81C112 329.59 149.87 245 157.83 235.66C162.48 223.71 162.64 179.95 162.64 179.95L169.12 171.6C169.12 171.6 134.6 203.13 141.24 169.28C145.277 154.457 152.59 140.73 162.64 129.11C162.64 129.11 212.64 127.79 220.56 133.11C228.48 138.43 234.83 156.68 234.83 156.68H286.28C286.28 156.68 289.6 202.48 254.75 209.45C229.86 211.45 228.2 205.8 222.22 208.45C216.24 211.1 207.29 210.78 213.22 237.33C215.88 260.56 216.87 295.74 210.9 301.39C211.23 312.67 211.56 345.53 211.56 345.53C211.56 345.53 240.1 345.53 234.46 388.01H226.04V382.37L222.85 380.71L219.53 382.37L219.43 388.01H214.77L214.88 382.37L211.23 380.37L207.58 382.69V388H192.1L192.02 382L188.37 380.34L185.05 382.34V388H180.48L180.39 382.69L176.74 380.69L173.74 382.69V388H113.34L107.69 384.68C107.69 384.68 35.69 390.99 39.69 339.54C41.3937 336.581 43.5194 333.886 46 331.54L39.53 331.17C39.53 331.17 46.32 292.41 56.27 286.11Z" fill="black" stroke="black" stroke-miterlimit="10"/>
<path d="M171.281 366.92C171.281 366.92 130.781 312.16 211.771 247.77C211.771 256.77 218.771 268.35 225.381 268.35C229.031 261.35 223.381 245.45 221.381 244.46C225.701 245.12 239.971 240.46 244.951 232.17C240.951 229.52 226.691 227.53 216.401 237.17C207.401 236.17 159.321 219.58 159.321 219.58C159.321 219.58 160.321 234.52 143.721 256.42C127.121 278.32 107.541 303.22 104.221 315.17C117.181 325.11 171.281 366.92 171.281 366.92Z" fill="url(#paint0_linear_0_1)"/>
<path d="M225.71 150.53V155C225.71 155 220.71 160.78 217.41 160.11C214.11 159.44 200.91 150.49 200.91 150.49L225.71 150.53Z" fill="white" stroke="black" stroke-miterlimit="10"/>
<defs>
<linearGradient id="paint0_linear_0_1" x1="195.761" y1="307.78" x2="148.151" y2="231.05" gradientUnits="userSpaceOnUse">
<stop offset="0.12" stop-color="#EC3593"/>
<stop offset="0.2" stop-color="#E4338E"/>
<stop offset="0.32" stop-color="#CF2F81"/>
<stop offset="0.47" stop-color="#AD276C"/>
<stop offset="0.64" stop-color="#7D1C4E"/>
<stop offset="0.82" stop-color="#410F28"/>
<stop offset="1"/>
</linearGradient>
</defs>
</svg>
