<svg width="326" height="516" viewBox="0 0 326 516" fill="none" xmlns="http://www.w3.org/2000/svg">
<path opacity="0.1" d="M292.93 0H33.07C14.806 0 0 14.806 0 33.07V482.93C0 501.194 14.806 516 33.07 516H292.93C311.194 516 326 501.194 326 482.93V33.07C326 14.806 311.194 0 292.93 0Z" fill="white"/>
<path d="M56.7302 299.11C56.7302 299.11 58.0602 355.86 104.2 367.81C112.49 342.59 150.33 257.95 158.3 248.66C162.94 236.71 163.1 192.95 163.1 192.95L169.58 184.6C169.58 184.6 135.06 216.13 141.7 182.28C145.737 167.457 153.05 153.73 163.1 142.11C163.1 142.11 213.1 140.79 221.02 146.11C228.94 151.43 235.29 169.68 235.29 169.68H286.74C286.74 169.68 290.06 215.48 255.21 222.45C230.32 224.45 228.66 218.8 222.68 221.45C216.7 224.1 207.75 223.78 213.68 250.33C216.34 273.56 217.33 308.74 211.36 314.39C211.69 325.67 212.02 358.53 212.02 358.53C212.02 358.53 240.57 358.53 234.92 401.01H226.5V395.37L223.31 393.71L219.99 395.37L219.89 401.01H215.23L215.34 395.37L211.69 393.37L208.04 395.69V401H192.56L192.48 395L188.83 393.34L185.51 395.34V401H181L180.91 395.69L177.26 393.69L174.26 395.69V401H113.84L108.18 397.68C108.18 397.68 36.1802 403.99 40.1802 352.54C41.884 349.581 44.0096 346.886 46.4902 344.54L40.0203 344.17C40.0203 344.17 46.7802 305.41 56.7302 299.11Z" fill="black" stroke="black" stroke-miterlimit="10"/>
<path d="M226.169 163.53V168C226.169 168 221.169 173.78 217.869 173.11C214.569 172.44 201.369 163.49 201.369 163.49L226.169 163.53Z" fill="white" stroke="black" stroke-miterlimit="10"/>
</svg>
