<svg width="327" height="517" viewBox="0 0 327 517" fill="none" xmlns="http://www.w3.org/2000/svg">
<path opacity="0.1" d="M293.799 0.400024H33.9391C15.675 0.400024 0.869141 15.206 0.869141 33.47V483.33C0.869141 501.594 15.675 516.4 33.9391 516.4H293.799C312.063 516.4 326.869 501.594 326.869 483.33V33.47C326.869 15.206 312.063 0.400024 293.799 0.400024Z" fill="white"/>
<path d="M52.4499 317.51C52.4499 317.51 53.78 374.26 99.91 386.21C108.21 360.99 146.04 276.35 154.01 267.06C158.65 255.11 158.81 211.35 158.81 211.35L165.29 203C165.29 203 130.78 234.53 137.41 200.68C141.447 185.857 148.76 172.129 158.81 160.51C158.81 160.51 208.81 159.19 216.74 164.51C224.67 169.83 231.01 188.08 231.01 188.08H282.45C282.45 188.08 285.77 233.88 250.92 240.85C226.03 242.85 224.37 237.2 218.4 239.85C212.43 242.5 203.46 242.18 209.4 268.73C212.05 291.96 213.05 327.14 207.07 332.79C207.4 344.07 207.74 376.93 207.74 376.93C207.74 376.93 236.28 376.93 230.64 419.41H222.21V413.77L219.02 412.11L215.7 413.77L215.6 419.41H210.94L211.05 413.77L207.4 411.77L203.75 414.09V419.4H188.27L188.19 413.4L184.54 411.74L181.22 413.74V419.38H176.64L176.56 414.07L172.91 412.07L169.91 414.07V419.4H109.52L103.86 416.08C103.86 416.08 31.8599 422.39 35.8599 370.94C37.5673 367.983 39.6926 365.289 42.17 362.94L35.6999 362.57C35.6999 362.57 42.4899 323.81 52.4499 317.51Z" fill="black" stroke="black" stroke-miterlimit="10"/>
<path d="M221.868 181.93V186.4C221.868 186.4 216.868 192.18 213.568 191.51C210.268 190.84 197.068 181.89 197.068 181.89L221.868 181.93Z" fill="white" stroke="black" stroke-miterlimit="10"/>
<path d="M111.58 206.78C116.66 202.22 121.71 197.63 126.82 193.11C129.11 191.11 131.65 189.3 133.82 187.18C134.735 186.221 135.271 184.964 135.33 183.64C135.33 176.84 134.67 170.03 135.23 163.25C136.29 150.37 144.06 141.6 157.23 136.76C167.069 133.009 177.543 131.202 188.07 131.44C209.29 132.13 220.78 144.73 224.27 160.69C224.82 163.19 224.85 165.83 225.43 168.32C225.98 170.63 224.96 172.06 223.02 173.4C214.481 179.334 204.89 183.59 194.76 185.94C191.68 186.649 188.824 188.113 186.45 190.2C178.55 196.78 170.52 203.2 162.29 209.46C159.29 211.71 155.6 213.15 152.22 214.96L141.16 217.65C138.94 217.73 136.71 217.9 134.49 217.9C125.43 217.9 117.89 214.96 112.06 208.78L111.58 206.78Z" fill="url(#paint0_linear_0_1)"/>
<path d="M136.389 185.89C148.229 192.04 170.969 189.1 184.129 187.41C186.419 187.09 188.699 186.73 190.999 186.41C188.749 186.92 186.479 187.41 184.209 187.86C171.209 190.27 147.849 193.17 136.389 185.86V185.89Z" fill="black"/>
<path d="M173.86 137.38C175.996 136.861 177.618 135.993 177.484 135.44C177.35 134.887 175.509 134.86 173.373 135.378C171.237 135.897 169.615 136.766 169.749 137.319C169.883 137.871 171.724 137.899 173.86 137.38Z" fill="black"/>
<path d="M220.329 174.54C218.329 159.02 209.549 142.54 193.579 138.07C188.416 136.671 183.052 136.164 177.719 136.57C183.068 135.894 188.496 136.233 193.719 137.57C209.989 141.82 219.099 158.76 220.309 174.57L220.329 174.54Z" fill="black"/>
<path d="M186.639 185.4C186.839 169.4 185.759 152.25 176.979 138.4C186.539 151.31 187.979 169.87 186.639 185.4Z" fill="black"/>
<defs>
<linearGradient id="paint0_linear_0_1" x1="223.714" y1="156.966" x2="107.076" y2="185.185" gradientUnits="userSpaceOnUse">
<stop offset="0.02"/>
<stop offset="0.05" stop-color="#03090B"/>
<stop offset="0.25" stop-color="#153E4E"/>
<stop offset="0.44" stop-color="#246B87"/>
<stop offset="0.62" stop-color="#308DB2"/>
<stop offset="0.77" stop-color="#38A6D2"/>
<stop offset="0.91" stop-color="#3DB6E5"/>
<stop offset="1" stop-color="#3FBBEC"/>
</linearGradient>
</defs>
</svg>
