<svg class="z-[1000]" width="285" height="520" viewBox="0 0 285 520" fill="none" xmlns="http://www.w3.org/2000/svg">
<path opacity="0.1" d="M251.93 0H33.07C14.806 0 0 14.806 0 33.07V486.93C0 505.194 14.806 520 33.07 520H251.93C270.194 520 285 505.194 285 486.93V33.07C285 14.806 270.194 0 251.93 0Z" fill="white"/>
<path d="M155.73 296.17L151.93 287.29L214.05 251.79L201.8 267.43L155.73 296.17Z" fill="url(#paint0_linear_0_1)"/>
<path d="M129.949 296.17L133.749 287.29L71.6191 251.79L83.8792 267.43L129.949 296.17Z" fill="url(#paint1_linear_0_1)"/>
<path d="M133.75 313.5C133.986 311.962 134.385 310.454 134.94 309C135.458 307.591 136.069 306.218 136.77 304.89V306.89C136.1 305.89 135.45 304.94 134.86 303.89C134.27 302.84 133.71 301.83 133.21 300.75C132.701 299.667 132.257 298.555 131.88 297.42C131.477 296.25 131.186 295.045 131.01 293.82C132.024 294.532 132.969 295.339 133.83 296.23C134.667 297.081 135.455 297.979 136.19 298.92C136.93 299.85 137.61 300.82 138.25 301.81C138.89 302.8 139.47 303.81 140.03 304.81L140.65 305.94L140.04 306.81C139.174 308.034 138.232 309.203 137.22 310.31C136.182 311.496 135.019 312.566 133.75 313.5Z" fill="url(#paint2_linear_0_1)"/>
<path d="M151.718 313.5C150.453 312.591 149.29 311.548 148.248 310.39C147.236 309.283 146.295 308.114 145.428 306.89L144.818 306.02L145.438 304.89C145.998 303.89 146.578 302.82 147.218 301.89C147.858 300.96 148.538 299.89 149.278 299C150.013 298.059 150.801 297.161 151.638 296.31C152.499 295.419 153.444 294.612 154.458 293.9C154.282 295.125 153.991 296.33 153.588 297.5C153.208 298.635 152.76 299.747 152.248 300.83C151.758 301.91 151.248 302.95 150.608 303.97C149.968 304.99 149.368 305.97 148.698 306.97V304.97C149.399 306.298 150.01 307.671 150.528 309.08C151.078 310.508 151.476 311.989 151.718 313.5Z" fill="url(#paint3_linear_0_1)"/>
<path d="M128.469 335.9L134.389 328.29L135.659 310.54H132.699L129.739 319.84L128.469 335.9Z" fill="url(#paint4_linear_0_1)"/>
<path d="M157.629 335.9L151.719 328.29L150.449 310.54H153.409L156.359 319.84L157.629 335.9Z" fill="url(#paint5_linear_0_1)"/>
<path d="M281.679 237L208.979 256.86L206.479 263.57L266.458 255.6L281.679 237Z" fill="url(#paint6_linear_0_1)"/>
<path d="M272.799 275.04L195.459 272.08L184.469 278.84L191.659 283.49L258.429 279.26L272.799 275.04Z" fill="url(#paint7_linear_0_1)"/>
<path d="M252.519 302.09L177.709 283.49L171.369 286.87L177.709 298.28L236.879 304.2L252.519 302.09Z" fill="url(#paint8_linear_0_1)"/>
<path d="M165.029 289.83L217.009 333.36H204.759L159.109 308L163.759 301.24L161.229 292.37L165.029 289.83Z" fill="url(#paint9_linear_0_1)"/>
<path d="M152.77 310.5C152.77 310.5 156.58 308.39 160.77 313.04V349L156.55 341.39L152.77 310.5Z" fill="url(#paint10_linear_0_1)"/>
<path d="M206.449 269.97L208.139 266.16L222.509 263.63L237.299 266.59L214.049 269.97H206.449Z" fill="url(#paint11_linear_0_1)"/>
<path d="M198 286.03L217.01 284.76L226.31 292.79L198 286.03Z" fill="url(#paint12_linear_0_1)"/>
<path d="M209.828 311.38L196.298 302.09L179.818 300.4L185.738 305.89L209.828 311.38Z" fill="url(#paint13_linear_0_1)"/>
<path d="M156.58 298.28L152.77 289.41L214.05 251.79L202.639 269.54L156.58 298.28Z" fill="url(#paint14_linear_0_1)"/>
<path d="M224.189 281.43L237.299 273.68" stroke="url(#paint15_linear_0_1)" stroke-miterlimit="10"/>
<path d="M219.358 293.85L194.828 299.99" stroke="url(#paint16_linear_0_1)" stroke-miterlimit="10"/>
<path d="M169.139 313.58H193.379" stroke="url(#paint17_linear_0_1)" stroke-miterlimit="10"/>
<path d="M239.039 259.24L251.039 245.37" stroke="url(#paint18_linear_0_1)" stroke-miterlimit="10"/>
<path d="M4 237L76.7 256.86L79.2 263.57L19.22 255.6L4 237Z" fill="url(#paint19_linear_0_1)"/>
<path d="M12.8789 275.04L90.2189 272.08L101.209 278.84L94.0289 283.49L27.2489 279.26L12.8789 275.04Z" fill="url(#paint20_linear_0_1)"/>
<path d="M33.1699 302.09L107.97 283.49L114.31 286.87L107.97 298.28L48.7999 304.2L33.1699 302.09Z" fill="url(#paint21_linear_0_1)"/>
<path d="M120.65 289.83L68.6699 333.36H80.9199L126.57 308L121.92 301.24L124.46 292.37L120.65 289.83Z" fill="url(#paint22_linear_0_1)"/>
<path d="M132.908 310.5C132.908 310.5 129.098 308.39 124.908 313.04V349L129.128 341.39L132.908 310.5Z" fill="url(#paint23_linear_0_1)"/>
<path d="M79.2289 269.97L77.5389 266.16L63.1689 263.63L48.3789 266.59L71.6189 269.97H79.2289Z" fill="url(#paint24_linear_0_1)"/>
<path d="M87.6891 286.03L68.6692 284.76L59.3691 292.79L87.6891 286.03Z" fill="url(#paint25_linear_0_1)"/>
<path d="M75.8496 311.38L89.3796 302.09L105.86 300.4L99.9396 305.89L75.8496 311.38Z" fill="url(#paint26_linear_0_1)"/>
<path d="M129.099 298.28L132.909 289.41L71.6191 251.79L83.0392 269.54L129.099 298.28Z" fill="url(#paint27_linear_0_1)"/>
<path d="M61.4889 281.43L48.3789 273.68" stroke="url(#paint28_linear_0_1)" stroke-miterlimit="10"/>
<path d="M66.3184 293.85L90.8584 299.99" stroke="url(#paint29_linear_0_1)" stroke-miterlimit="10"/>
<path d="M116.539 313.58H92.2988" stroke="url(#paint30_linear_0_1)" stroke-miterlimit="10"/>
<path d="M46.6387 259.24L34.6387 245.37" stroke="url(#paint31_linear_0_1)" stroke-miterlimit="10"/>
<path d="M174.328 277.57L189.118 269.54L181.088 278.84L174.328 277.57Z" fill="url(#paint32_linear_0_1)"/>
<path d="M182.779 279.69L189.959 271.23L198.839 269.97L182.779 279.69Z" fill="url(#paint33_linear_0_1)"/>
<path d="M189.959 269.54L209.409 255.6L201.379 267.85L189.959 269.54Z" fill="url(#paint34_linear_0_1)"/>
<path d="M110.929 277.57L96.1387 269.54L104.169 278.84L110.929 277.57Z" fill="url(#paint35_linear_0_1)"/>
<path d="M102.48 279.69L95.2899 271.23L86.4199 269.97L102.48 279.69Z" fill="url(#paint36_linear_0_1)"/>
<path d="M95.2896 269.54L75.8496 255.6L83.8796 267.85L95.2896 269.54Z" fill="url(#paint37_linear_0_1)"/>
<path opacity="0.25" d="M134.949 462.11C178.58 462.11 213.949 459.2 213.949 455.61C213.949 452.02 178.58 449.11 134.949 449.11C91.3187 449.11 55.9492 452.02 55.9492 455.61C55.9492 459.2 91.3187 462.11 134.949 462.11Z" fill="black"/>
<defs>
<linearGradient id="paint0_linear_0_1" x1="151.93" y1="273.98" x2="214.06" y2="273.98" gradientUnits="userSpaceOnUse">
<stop stop-color="#FD9D31"/>
<stop offset="0.09" stop-color="#F0952F"/>
<stop offset="0.25" stop-color="#CF8028"/>
<stop offset="0.47" stop-color="#995F1E"/>
<stop offset="0.74" stop-color="#4F310F"/>
<stop offset="1"/>
</linearGradient>
<linearGradient id="paint1_linear_0_1" x1="133.749" y1="273.98" x2="71.6291" y2="273.98" gradientUnits="userSpaceOnUse">
<stop stop-color="#FD9D31"/>
<stop offset="0.09" stop-color="#F0952F"/>
<stop offset="0.25" stop-color="#CF8028"/>
<stop offset="0.47" stop-color="#995F1E"/>
<stop offset="0.74" stop-color="#4F310F"/>
<stop offset="1"/>
</linearGradient>
<linearGradient id="paint2_linear_0_1" x1="129.3" y1="303.67" x2="140.75" y2="303.67" gradientUnits="userSpaceOnUse">
<stop stop-color="#101111"/>
<stop offset="0.31" stop-color="#141515"/>
<stop offset="0.63" stop-color="#212121"/>
<stop offset="0.92" stop-color="#333333"/>
</linearGradient>
<linearGradient id="paint3_linear_0_1" x1="156.168" y1="303.67" x2="144.718" y2="303.67" gradientUnits="userSpaceOnUse">
<stop stop-color="#101111"/>
<stop offset="0.31" stop-color="#141515"/>
<stop offset="0.63" stop-color="#212121"/>
<stop offset="0.92" stop-color="#333333"/>
</linearGradient>
<linearGradient id="paint4_linear_0_1" x1="135.659" y1="323.22" x2="128.469" y2="323.22" gradientUnits="userSpaceOnUse">
<stop stop-color="#FD9D31"/>
<stop offset="0.09" stop-color="#F0952F"/>
<stop offset="0.25" stop-color="#CF8028"/>
<stop offset="0.47" stop-color="#995F1E"/>
<stop offset="0.74" stop-color="#4F310F"/>
<stop offset="1"/>
</linearGradient>
<linearGradient id="paint5_linear_0_1" x1="150.449" y1="323.22" x2="157.629" y2="323.22" gradientUnits="userSpaceOnUse">
<stop stop-color="#FD9D31"/>
<stop offset="0.09" stop-color="#F0952F"/>
<stop offset="0.25" stop-color="#CF8028"/>
<stop offset="0.47" stop-color="#995F1E"/>
<stop offset="0.74" stop-color="#4F310F"/>
<stop offset="1"/>
</linearGradient>
<linearGradient id="paint6_linear_0_1" x1="206.479" y1="250.29" x2="281.679" y2="250.29" gradientUnits="userSpaceOnUse">
<stop stop-color="#101111"/>
<stop offset="0.31" stop-color="#141515"/>
<stop offset="0.63" stop-color="#212121"/>
<stop offset="0.92" stop-color="#333333"/>
</linearGradient>
<linearGradient id="paint7_linear_0_1" x1="184.469" y1="277.78" x2="272.799" y2="277.78" gradientUnits="userSpaceOnUse">
<stop stop-color="#101111"/>
<stop offset="0.31" stop-color="#141515"/>
<stop offset="0.63" stop-color="#212121"/>
<stop offset="0.92" stop-color="#333333"/>
</linearGradient>
<linearGradient id="paint8_linear_0_1" x1="171.369" y1="293.85" x2="252.519" y2="293.85" gradientUnits="userSpaceOnUse">
<stop stop-color="#101111"/>
<stop offset="0.31" stop-color="#141515"/>
<stop offset="0.63" stop-color="#212121"/>
<stop offset="0.92" stop-color="#333333"/>
</linearGradient>
<linearGradient id="paint9_linear_0_1" x1="159.109" y1="311.6" x2="217.009" y2="311.6" gradientUnits="userSpaceOnUse">
<stop stop-color="#101111"/>
<stop offset="0.31" stop-color="#141515"/>
<stop offset="0.63" stop-color="#212121"/>
<stop offset="0.92" stop-color="#333333"/>
</linearGradient>
<linearGradient id="paint10_linear_0_1" x1="152.77" y1="329.53" x2="160.8" y2="329.53" gradientUnits="userSpaceOnUse">
<stop stop-color="#101111"/>
<stop offset="0.31" stop-color="#141515"/>
<stop offset="0.63" stop-color="#212121"/>
<stop offset="0.92" stop-color="#333333"/>
</linearGradient>
<linearGradient id="paint11_linear_0_1" x1="206.449" y1="266.8" x2="237.299" y2="266.8" gradientUnits="userSpaceOnUse">
<stop stop-color="#101111"/>
<stop offset="0.31" stop-color="#141515"/>
<stop offset="0.63" stop-color="#212121"/>
<stop offset="0.92" stop-color="#333333"/>
</linearGradient>
<linearGradient id="paint12_linear_0_1" x1="197.99" y1="288.77" x2="226.31" y2="288.77" gradientUnits="userSpaceOnUse">
<stop stop-color="#101111"/>
<stop offset="0.31" stop-color="#141515"/>
<stop offset="0.63" stop-color="#212121"/>
<stop offset="0.92" stop-color="#333333"/>
</linearGradient>
<linearGradient id="paint13_linear_0_1" x1="179.818" y1="305.89" x2="209.828" y2="305.89" gradientUnits="userSpaceOnUse">
<stop stop-color="#101111"/>
<stop offset="0.31" stop-color="#141515"/>
<stop offset="0.63" stop-color="#212121"/>
<stop offset="0.92" stop-color="#333333"/>
</linearGradient>
<linearGradient id="paint14_linear_0_1" x1="152.77" y1="275.04" x2="214.06" y2="275.04" gradientUnits="userSpaceOnUse">
<stop stop-color="#101111"/>
<stop offset="0.31" stop-color="#141515"/>
<stop offset="0.63" stop-color="#212121"/>
<stop offset="0.92" stop-color="#333333"/>
</linearGradient>
<linearGradient id="paint15_linear_0_1" x1="223.929" y1="277.56" x2="237.559" y2="277.56" gradientUnits="userSpaceOnUse">
<stop stop-color="#FD9D31"/>
<stop offset="0.09" stop-color="#F0952F"/>
<stop offset="0.25" stop-color="#CF8028"/>
<stop offset="0.47" stop-color="#995F1E"/>
<stop offset="0.74" stop-color="#4F310F"/>
<stop offset="1"/>
</linearGradient>
<linearGradient id="paint16_linear_0_1" x1="194.698" y1="296.92" x2="219.478" y2="296.92" gradientUnits="userSpaceOnUse">
<stop stop-color="#FD9D31"/>
<stop offset="0.09" stop-color="#F0952F"/>
<stop offset="0.25" stop-color="#CF8028"/>
<stop offset="0.47" stop-color="#995F1E"/>
<stop offset="0.74" stop-color="#4F310F"/>
<stop offset="1"/>
</linearGradient>
<linearGradient id="paint17_linear_0_1" x1="-nan" y1="-nan" x2="-nan" y2="-nan" gradientUnits="userSpaceOnUse">
<stop stop-color="#FD9D31"/>
<stop offset="0.09" stop-color="#F0952F"/>
<stop offset="0.25" stop-color="#CF8028"/>
<stop offset="0.47" stop-color="#995F1E"/>
<stop offset="0.74" stop-color="#4F310F"/>
<stop offset="1"/>
</linearGradient>
<linearGradient id="paint18_linear_0_1" x1="238.669" y1="252.31" x2="251.419" y2="252.31" gradientUnits="userSpaceOnUse">
<stop stop-color="#FD9D31"/>
<stop offset="0.09" stop-color="#F0952F"/>
<stop offset="0.25" stop-color="#CF8028"/>
<stop offset="0.47" stop-color="#995F1E"/>
<stop offset="0.74" stop-color="#4F310F"/>
<stop offset="1"/>
</linearGradient>
<linearGradient id="paint19_linear_0_1" x1="79.2" y1="250.29" x2="4" y2="250.29" gradientUnits="userSpaceOnUse">
<stop stop-color="#101111"/>
<stop offset="0.31" stop-color="#141515"/>
<stop offset="0.63" stop-color="#212121"/>
<stop offset="0.92" stop-color="#333333"/>
</linearGradient>
<linearGradient id="paint20_linear_0_1" x1="101.209" y1="277.78" x2="12.8789" y2="277.78" gradientUnits="userSpaceOnUse">
<stop stop-color="#101111"/>
<stop offset="0.31" stop-color="#141515"/>
<stop offset="0.63" stop-color="#212121"/>
<stop offset="0.92" stop-color="#333333"/>
</linearGradient>
<linearGradient id="paint21_linear_0_1" x1="114.31" y1="293.85" x2="33.1599" y2="293.85" gradientUnits="userSpaceOnUse">
<stop stop-color="#101111"/>
<stop offset="0.31" stop-color="#141515"/>
<stop offset="0.63" stop-color="#212121"/>
<stop offset="0.92" stop-color="#333333"/>
</linearGradient>
<linearGradient id="paint22_linear_0_1" x1="126.57" y1="311.6" x2="68.6699" y2="311.6" gradientUnits="userSpaceOnUse">
<stop stop-color="#101111"/>
<stop offset="0.31" stop-color="#141515"/>
<stop offset="0.63" stop-color="#212121"/>
<stop offset="0.92" stop-color="#333333"/>
</linearGradient>
<linearGradient id="paint23_linear_0_1" x1="132.908" y1="329.53" x2="124.878" y2="329.53" gradientUnits="userSpaceOnUse">
<stop stop-color="#101111"/>
<stop offset="0.31" stop-color="#141515"/>
<stop offset="0.63" stop-color="#212121"/>
<stop offset="0.92" stop-color="#333333"/>
</linearGradient>
<linearGradient id="paint24_linear_0_1" x1="79.2289" y1="266.8" x2="48.3789" y2="266.8" gradientUnits="userSpaceOnUse">
<stop stop-color="#101111"/>
<stop offset="0.31" stop-color="#141515"/>
<stop offset="0.63" stop-color="#212121"/>
<stop offset="0.92" stop-color="#333333"/>
</linearGradient>
<linearGradient id="paint25_linear_0_1" x1="87.6891" y1="288.77" x2="59.3691" y2="288.77" gradientUnits="userSpaceOnUse">
<stop stop-color="#101111"/>
<stop offset="0.31" stop-color="#141515"/>
<stop offset="0.63" stop-color="#212121"/>
<stop offset="0.92" stop-color="#333333"/>
</linearGradient>
<linearGradient id="paint26_linear_0_1" x1="105.86" y1="305.89" x2="75.8496" y2="305.89" gradientUnits="userSpaceOnUse">
<stop stop-color="#101111"/>
<stop offset="0.31" stop-color="#141515"/>
<stop offset="0.63" stop-color="#212121"/>
<stop offset="0.92" stop-color="#333333"/>
</linearGradient>
<linearGradient id="paint27_linear_0_1" x1="132.909" y1="275.04" x2="71.6291" y2="275.04" gradientUnits="userSpaceOnUse">
<stop stop-color="#101111"/>
<stop offset="0.31" stop-color="#141515"/>
<stop offset="0.63" stop-color="#212121"/>
<stop offset="0.92" stop-color="#333333"/>
</linearGradient>
<linearGradient id="paint28_linear_0_1" x1="48.1289" y1="277.56" x2="61.7489" y2="277.56" gradientUnits="userSpaceOnUse">
<stop stop-color="#FD9D31"/>
<stop offset="0.09" stop-color="#F0952F"/>
<stop offset="0.25" stop-color="#CF8028"/>
<stop offset="0.47" stop-color="#995F1E"/>
<stop offset="0.74" stop-color="#4F310F"/>
<stop offset="1"/>
</linearGradient>
<linearGradient id="paint29_linear_0_1" x1="66.1984" y1="296.92" x2="90.9784" y2="296.92" gradientUnits="userSpaceOnUse">
<stop stop-color="#FD9D31"/>
<stop offset="0.09" stop-color="#F0952F"/>
<stop offset="0.25" stop-color="#CF8028"/>
<stop offset="0.47" stop-color="#995F1E"/>
<stop offset="0.74" stop-color="#4F310F"/>
<stop offset="1"/>
</linearGradient>
<linearGradient id="paint30_linear_0_1" x1="-nan" y1="-nan" x2="-nan" y2="-nan" gradientUnits="userSpaceOnUse">
<stop stop-color="#FD9D31"/>
<stop offset="0.09" stop-color="#F0952F"/>
<stop offset="0.25" stop-color="#CF8028"/>
<stop offset="0.47" stop-color="#995F1E"/>
<stop offset="0.74" stop-color="#4F310F"/>
<stop offset="1"/>
</linearGradient>
<linearGradient id="paint31_linear_0_1" x1="34.2587" y1="252.31" x2="47.0187" y2="252.31" gradientUnits="userSpaceOnUse">
<stop stop-color="#FD9D31"/>
<stop offset="0.09" stop-color="#F0952F"/>
<stop offset="0.25" stop-color="#CF8028"/>
<stop offset="0.47" stop-color="#995F1E"/>
<stop offset="0.74" stop-color="#4F310F"/>
<stop offset="1"/>
</linearGradient>
<linearGradient id="paint32_linear_0_1" x1="174.328" y1="274.19" x2="189.118" y2="274.19" gradientUnits="userSpaceOnUse">
<stop stop-color="#FD9D31"/>
<stop offset="0.09" stop-color="#F0952F"/>
<stop offset="0.25" stop-color="#CF8028"/>
<stop offset="0.47" stop-color="#995F1E"/>
<stop offset="0.74" stop-color="#4F310F"/>
<stop offset="1"/>
</linearGradient>
<linearGradient id="paint33_linear_0_1" x1="182.779" y1="274.83" x2="198.839" y2="274.83" gradientUnits="userSpaceOnUse">
<stop stop-color="#FD9D31"/>
<stop offset="0.09" stop-color="#F0952F"/>
<stop offset="0.25" stop-color="#CF8028"/>
<stop offset="0.47" stop-color="#995F1E"/>
<stop offset="0.74" stop-color="#4F310F"/>
<stop offset="1"/>
</linearGradient>
<linearGradient id="paint34_linear_0_1" x1="189.959" y1="262.57" x2="209.409" y2="262.57" gradientUnits="userSpaceOnUse">
<stop stop-color="#FD9D31"/>
<stop offset="0.09" stop-color="#F0952F"/>
<stop offset="0.25" stop-color="#CF8028"/>
<stop offset="0.47" stop-color="#995F1E"/>
<stop offset="0.74" stop-color="#4F310F"/>
<stop offset="1"/>
</linearGradient>
<linearGradient id="paint35_linear_0_1" x1="110.929" y1="274.19" x2="96.1387" y2="274.19" gradientUnits="userSpaceOnUse">
<stop stop-color="#FD9D31"/>
<stop offset="0.09" stop-color="#F0952F"/>
<stop offset="0.25" stop-color="#CF8028"/>
<stop offset="0.47" stop-color="#995F1E"/>
<stop offset="0.74" stop-color="#4F310F"/>
<stop offset="1"/>
</linearGradient>
<linearGradient id="paint36_linear_0_1" x1="102.48" y1="274.83" x2="86.4199" y2="274.83" gradientUnits="userSpaceOnUse">
<stop stop-color="#FD9D31"/>
<stop offset="0.09" stop-color="#F0952F"/>
<stop offset="0.25" stop-color="#CF8028"/>
<stop offset="0.47" stop-color="#995F1E"/>
<stop offset="0.74" stop-color="#4F310F"/>
<stop offset="1"/>
</linearGradient>
<linearGradient id="paint37_linear_0_1" x1="95.2896" y1="262.57" x2="75.8496" y2="262.57" gradientUnits="userSpaceOnUse">
<stop stop-color="#FD9D31"/>
<stop offset="0.09" stop-color="#F0952F"/>
<stop offset="0.25" stop-color="#CF8028"/>
<stop offset="0.47" stop-color="#995F1E"/>
<stop offset="0.74" stop-color="#4F310F"/>
<stop offset="1"/>
</linearGradient>
</defs>
</svg>
