<svg width="285" height="520" viewBox="0 0 285 520" fill="none" xmlns="http://www.w3.org/2000/svg">
<path opacity="0.25" d="M148.949 452.11C192.58 452.11 227.949 449.2 227.949 445.61C227.949 442.02 192.58 439.11 148.949 439.11C105.319 439.11 69.9492 442.02 69.9492 445.61C69.9492 449.2 105.319 452.11 148.949 452.11Z" fill="black"/>
<path d="M233.14 386C242.054 386 249.28 330.036 249.28 261C249.28 191.964 242.054 136 233.14 136C224.226 136 217 191.964 217 261C217 330.036 224.226 386 233.14 386Z" fill="url(#paint0_linear_0_1)"/>
<path d="M240.859 136C249.779 136 256.999 192 256.999 261C256.999 330 249.779 386 240.859 386" stroke="#EC3593" stroke-miterlimit="10"/>
<path d="M59.4599 386C68.5947 386 75.9999 330.036 75.9999 261C75.9999 191.964 68.5947 136 59.4599 136C50.3251 136 42.9199 191.964 42.9199 261C42.9199 330.036 50.3251 386 59.4599 386Z" fill="url(#paint1_linear_0_1)"/>
<path d="M51.55 136C42.41 136 35 192 35 261C35 330 42.41 386 51.55 386" stroke="#EC3593" stroke-miterlimit="10"/>
<path d="M95.2891 260.5C104.289 260.29 113.289 260.2 122.289 260.12L149.289 260L176.289 260.12L189.789 260.25L203.289 260.5L189.789 260.75L176.289 260.88L149.289 261L122.289 260.88C113.289 260.8 104.289 260.71 95.2891 260.5Z" fill="url(#paint2_linear_0_1)"/>
<path d="M245.188 184.78L230.168 184.9L215.158 184.94L185.128 185.02L155.098 184.94L140.078 184.9L125.068 184.78L140.078 184.65L155.098 184.61L185.128 184.53L215.158 184.61L230.168 184.65L245.188 184.78Z" fill="url(#paint3_linear_0_1)"/>
<path d="M194.059 216.18C189.039 216.273 184.039 216.337 179.059 216.37L164.059 216.43H149.059C144.039 216.39 139.039 216.323 134.059 216.23C139.065 216.143 144.065 216.08 149.059 216.04L164.059 215.98L179.059 216.04C184.045 216.04 189.045 216.087 194.059 216.18Z" fill="url(#paint4_linear_0_1)"/>
<path d="M220.719 269.86C215.712 269.953 210.712 270.017 205.719 270.05L190.719 270.11L175.719 270.05C170.699 270.05 165.699 269.987 160.719 269.86C165.725 269.767 170.725 269.703 175.719 269.67L190.719 269.61L205.719 269.67C210.712 269.703 215.712 269.767 220.719 269.86Z" fill="url(#paint5_linear_0_1)"/>
<path d="M223.59 269.86C218.577 269.953 213.577 270.017 208.59 270.05L193.59 270.11L178.59 270.05C173.583 270.05 168.583 269.987 163.59 269.86C168.597 269.767 173.597 269.703 178.59 269.67L193.59 269.61L208.59 269.67C213.577 269.703 218.577 269.767 223.59 269.86Z" fill="url(#paint6_linear_0_1)"/>
<path d="M137.189 308.84C132.183 308.927 127.183 308.99 122.189 309.03L107.189 309.09L92.1895 309.03C87.1695 309.03 82.1695 308.967 77.1895 308.84C82.2095 308.747 87.2095 308.683 92.1895 308.65L107.189 308.59L122.189 308.65C127.176 308.677 132.176 308.74 137.189 308.84Z" fill="url(#paint7_linear_0_1)"/>
<path d="M244.088 281.35C239.182 281.443 234.275 281.507 229.368 281.54L214.658 281.6L199.948 281.54C195.048 281.5 190.145 281.437 185.238 281.35C190.138 281.25 195.042 281.183 199.948 281.15H214.658H229.368C234.282 281.19 239.188 281.257 244.088 281.35Z" fill="url(#paint8_linear_0_1)"/>
<path d="M245.19 306.92C238.943 307.02 232.697 307.087 226.45 307.12H207.72H188.99C182.743 307.08 176.497 307.013 170.25 306.92C176.503 306.833 182.75 306.77 188.99 306.73L207.72 306.67L226.45 306.73C232.703 306.77 238.95 306.833 245.19 306.92Z" fill="url(#paint9_linear_0_1)"/>
<path d="M237.469 235.5C231.229 235.587 224.985 235.65 218.739 235.69L200.009 235.75L181.289 235.69C175.049 235.69 168.805 235.627 162.559 235.5C168.799 235.4 175.042 235.333 181.289 235.3H200.029L218.759 235.36C224.999 235.36 231.235 235.407 237.469 235.5Z" fill="url(#paint10_linear_0_1)"/>
<path d="M245.19 193.04L233.87 193.16L222.54 193.21L199.9 193.29L177.25 193.21L165.93 193.16L154.6 193.04L165.93 192.92L177.25 192.88L199.9 192.79L222.54 192.88L233.87 192.92L245.19 193.04Z" fill="url(#paint11_linear_0_1)"/>
<path d="M193.389 209.92C190.929 210.01 188.469 210.08 186.009 210.11L178.629 210.17L171.239 210.11C168.779 210.11 166.319 210.01 163.859 209.92C166.319 209.83 168.779 209.76 171.239 209.73L178.629 209.67L186.009 209.73C188.469 209.76 190.929 209.83 193.389 209.92Z" fill="url(#paint12_linear_0_1)"/>
<path d="M125.29 224.27C122.83 224.37 120.37 224.43 117.91 224.47H110.52H103.14C100.68 224.47 98.2198 224.37 95.7598 224.27C98.2198 224.183 100.68 224.12 103.14 224.08L110.52 224.02L117.91 224.08C120.37 224.12 122.83 224.183 125.29 224.27Z" fill="url(#paint13_linear_0_1)"/>
<path d="M114.489 289.26C112.029 289.35 109.569 289.42 107.109 289.45L99.719 289.51H92.339C89.879 289.51 87.419 289.41 84.959 289.31C87.419 289.22 89.879 289.15 92.339 289.12L99.719 289.06L107.109 289.12C109.569 289.1 112.029 289.17 114.489 289.26Z" fill="url(#paint14_linear_0_1)"/>
<path d="M230.42 328.24L219.1 328.36L207.78 328.4L185.13 328.49L162.48 328.4L151.16 328.36L139.84 328.24L151.16 328.12L162.48 328.07L185.13 327.99L207.78 328.07L219.1 328.12L230.42 328.24Z" fill="url(#paint15_linear_0_1)"/>
<path d="M246.29 178.95C240.05 179.043 233.806 179.107 227.56 179.14L208.82 179.2L190.09 179.14C183.843 179.14 177.596 179.077 171.35 178.95C177.603 178.85 183.85 178.783 190.09 178.75L208.82 178.7L227.56 178.76C233.8 178.793 240.043 178.857 246.29 178.95Z" fill="url(#paint16_linear_0_1)"/>
<path d="M144.029 318.93C140.899 319.02 137.779 319.09 134.659 319.12L125.289 319.18L115.919 319.12C112.799 319.12 109.679 319.02 106.559 318.93C109.679 318.84 112.799 318.77 115.919 318.74L125.289 318.68L134.659 318.74C137.779 318.77 140.899 318.84 144.029 318.93Z" fill="url(#paint17_linear_0_1)"/>
<path d="M95.759 198.5C92.639 198.59 89.509 198.66 86.389 198.69L77.019 198.75L67.6591 198.69C64.5291 198.69 61.4091 198.59 58.2891 198.5C61.4091 198.41 64.5291 198.34 67.6591 198.31L77.019 198.25L86.389 198.31C89.509 198.36 92.639 198.43 95.759 198.5Z" fill="url(#paint18_linear_0_1)"/>
<path opacity="0.1" d="M251.93 0H33.07C14.806 0 0 14.806 0 33.07V486.93C0 505.194 14.806 520 33.07 520H251.93C270.194 520 285 505.194 285 486.93V33.07C285 14.806 270.194 0 251.93 0Z" fill="white"/>
<defs>
<linearGradient id="paint0_linear_0_1" x1="208.06" y1="260.99" x2="254.46" y2="261.01" gradientUnits="userSpaceOnUse">
<stop stop-color="#EC3593"/>
<stop offset="0.1" stop-color="#DE328B"/>
<stop offset="0.28" stop-color="#BB2A74"/>
<stop offset="0.52" stop-color="#811D50"/>
<stop offset="0.82" stop-color="#320B1F"/>
<stop offset="1"/>
</linearGradient>
<linearGradient id="paint1_linear_0_1" x1="85.1699" y1="260.98" x2="37.6099" y2="261.01" gradientUnits="userSpaceOnUse">
<stop stop-color="#EC3593"/>
<stop offset="0.1" stop-color="#DE328B"/>
<stop offset="0.28" stop-color="#BB2A74"/>
<stop offset="0.52" stop-color="#811D50"/>
<stop offset="0.82" stop-color="#320B1F"/>
<stop offset="1"/>
</linearGradient>
<linearGradient id="paint2_linear_0_1" x1="95.2891" y1="260.5" x2="203.289" y2="260.5" gradientUnits="userSpaceOnUse">
<stop stop-color="#EC3593"/>
<stop offset="0.1" stop-color="#DE328B"/>
<stop offset="0.28" stop-color="#BB2A74"/>
<stop offset="0.52" stop-color="#811D50"/>
<stop offset="0.82" stop-color="#320B1F"/>
<stop offset="1"/>
</linearGradient>
<linearGradient id="paint3_linear_0_1" x1="125.068" y1="184.78" x2="245.188" y2="184.78" gradientUnits="userSpaceOnUse">
<stop stop-color="#EC3593"/>
<stop offset="0.1" stop-color="#DE328B"/>
<stop offset="0.28" stop-color="#BB2A74"/>
<stop offset="0.52" stop-color="#811D50"/>
<stop offset="0.82" stop-color="#320B1F"/>
<stop offset="1"/>
</linearGradient>
<linearGradient id="paint4_linear_0_1" x1="133.889" y1="216.18" x2="194.059" y2="216.18" gradientUnits="userSpaceOnUse">
<stop stop-color="#EC3593"/>
<stop offset="0.1" stop-color="#DE328B"/>
<stop offset="0.28" stop-color="#BB2A74"/>
<stop offset="0.52" stop-color="#811D50"/>
<stop offset="0.82" stop-color="#320B1F"/>
<stop offset="1"/>
</linearGradient>
<linearGradient id="paint5_linear_0_1" x1="160.559" y1="269.86" x2="220.719" y2="269.86" gradientUnits="userSpaceOnUse">
<stop stop-color="#EC3593"/>
<stop offset="0.1" stop-color="#DE328B"/>
<stop offset="0.28" stop-color="#BB2A74"/>
<stop offset="0.52" stop-color="#811D50"/>
<stop offset="0.82" stop-color="#320B1F"/>
<stop offset="1"/>
</linearGradient>
<linearGradient id="paint6_linear_0_1" x1="163.42" y1="269.86" x2="223.59" y2="269.86" gradientUnits="userSpaceOnUse">
<stop stop-color="#EC3593"/>
<stop offset="0.1" stop-color="#DE328B"/>
<stop offset="0.28" stop-color="#BB2A74"/>
<stop offset="0.52" stop-color="#811D50"/>
<stop offset="0.82" stop-color="#320B1F"/>
<stop offset="1"/>
</linearGradient>
<linearGradient id="paint7_linear_0_1" x1="77.0195" y1="308.84" x2="137.189" y2="308.84" gradientUnits="userSpaceOnUse">
<stop stop-color="#EC3593"/>
<stop offset="0.1" stop-color="#DE328B"/>
<stop offset="0.28" stop-color="#BB2A74"/>
<stop offset="0.52" stop-color="#811D50"/>
<stop offset="0.82" stop-color="#320B1F"/>
<stop offset="1"/>
</linearGradient>
<linearGradient id="paint8_linear_0_1" x1="185.238" y1="281.35" x2="244.088" y2="281.35" gradientUnits="userSpaceOnUse">
<stop stop-color="#EC3593"/>
<stop offset="0.1" stop-color="#DE328B"/>
<stop offset="0.28" stop-color="#BB2A74"/>
<stop offset="0.52" stop-color="#811D50"/>
<stop offset="0.82" stop-color="#320B1F"/>
<stop offset="1"/>
</linearGradient>
<linearGradient id="paint9_linear_0_1" x1="170.25" y1="306.92" x2="245.19" y2="306.92" gradientUnits="userSpaceOnUse">
<stop stop-color="#EC3593"/>
<stop offset="0.1" stop-color="#DE328B"/>
<stop offset="0.28" stop-color="#BB2A74"/>
<stop offset="0.52" stop-color="#811D50"/>
<stop offset="0.82" stop-color="#320B1F"/>
<stop offset="1"/>
</linearGradient>
<linearGradient id="paint10_linear_0_1" x1="162.539" y1="235.5" x2="237.469" y2="235.5" gradientUnits="userSpaceOnUse">
<stop stop-color="#EC3593"/>
<stop offset="0.1" stop-color="#DE328B"/>
<stop offset="0.28" stop-color="#BB2A74"/>
<stop offset="0.52" stop-color="#811D50"/>
<stop offset="0.82" stop-color="#320B1F"/>
<stop offset="1"/>
</linearGradient>
<linearGradient id="paint11_linear_0_1" x1="154.6" y1="193.04" x2="245.19" y2="193.04" gradientUnits="userSpaceOnUse">
<stop stop-color="#EC3593"/>
<stop offset="0.1" stop-color="#DE328B"/>
<stop offset="0.28" stop-color="#BB2A74"/>
<stop offset="0.52" stop-color="#811D50"/>
<stop offset="0.82" stop-color="#320B1F"/>
<stop offset="1"/>
</linearGradient>
<linearGradient id="paint12_linear_0_1" x1="163.859" y1="209.92" x2="193.389" y2="209.92" gradientUnits="userSpaceOnUse">
<stop stop-color="#EC3593"/>
<stop offset="0.1" stop-color="#DE328B"/>
<stop offset="0.28" stop-color="#BB2A74"/>
<stop offset="0.52" stop-color="#811D50"/>
<stop offset="0.82" stop-color="#320B1F"/>
<stop offset="1"/>
</linearGradient>
<linearGradient id="paint13_linear_0_1" x1="95.7598" y1="224.27" x2="125.29" y2="224.27" gradientUnits="userSpaceOnUse">
<stop stop-color="#EC3593"/>
<stop offset="0.1" stop-color="#DE328B"/>
<stop offset="0.28" stop-color="#BB2A74"/>
<stop offset="0.52" stop-color="#811D50"/>
<stop offset="0.82" stop-color="#320B1F"/>
<stop offset="1"/>
</linearGradient>
<linearGradient id="paint14_linear_0_1" x1="84.959" y1="289.26" x2="114.489" y2="289.26" gradientUnits="userSpaceOnUse">
<stop stop-color="#EC3593"/>
<stop offset="0.1" stop-color="#DE328B"/>
<stop offset="0.28" stop-color="#BB2A74"/>
<stop offset="0.52" stop-color="#811D50"/>
<stop offset="0.82" stop-color="#320B1F"/>
<stop offset="1"/>
</linearGradient>
<linearGradient id="paint15_linear_0_1" x1="139.84" y1="328.24" x2="230.42" y2="328.24" gradientUnits="userSpaceOnUse">
<stop stop-color="#EC3593"/>
<stop offset="0.1" stop-color="#DE328B"/>
<stop offset="0.28" stop-color="#BB2A74"/>
<stop offset="0.52" stop-color="#811D50"/>
<stop offset="0.82" stop-color="#320B1F"/>
<stop offset="1"/>
</linearGradient>
<linearGradient id="paint16_linear_0_1" x1="171.35" y1="178.95" x2="246.29" y2="178.95" gradientUnits="userSpaceOnUse">
<stop stop-color="#EC3593"/>
<stop offset="0.1" stop-color="#DE328B"/>
<stop offset="0.28" stop-color="#BB2A74"/>
<stop offset="0.52" stop-color="#811D50"/>
<stop offset="0.82" stop-color="#320B1F"/>
<stop offset="1"/>
</linearGradient>
<linearGradient id="paint17_linear_0_1" x1="106.559" y1="318.93" x2="144.029" y2="318.93" gradientUnits="userSpaceOnUse">
<stop stop-color="#EC3593"/>
<stop offset="0.1" stop-color="#DE328B"/>
<stop offset="0.28" stop-color="#BB2A74"/>
<stop offset="0.52" stop-color="#811D50"/>
<stop offset="0.82" stop-color="#320B1F"/>
<stop offset="1"/>
</linearGradient>
<linearGradient id="paint18_linear_0_1" x1="58.2891" y1="198.52" x2="95.759" y2="198.52" gradientUnits="userSpaceOnUse">
<stop stop-color="#EC3593"/>
<stop offset="0.1" stop-color="#DE328B"/>
<stop offset="0.28" stop-color="#BB2A74"/>
<stop offset="0.52" stop-color="#811D50"/>
<stop offset="0.82" stop-color="#320B1F"/>
<stop offset="1"/>
</linearGradient>
</defs>
</svg>
