<svg width="285" height="521" viewBox="0 0 285 521" fill="none" xmlns="http://www.w3.org/2000/svg">
<path opacity="0.1" d="M251.93 0.5H33.07C14.806 0.5 0 15.306 0 33.57V487.43C0 505.694 14.806 520.5 33.07 520.5H251.93C270.194 520.5 285 505.694 285 487.43V33.57C285 15.306 270.194 0.5 251.93 0.5Z" fill="white"/>
<path opacity="0.25" d="M142.66 439.61C186.29 439.61 221.66 436.7 221.66 433.11C221.66 429.52 186.29 426.61 142.66 426.61C99.0294 426.61 63.6599 429.52 63.6599 433.11C63.6599 436.7 99.0294 439.61 142.66 439.61Z" fill="black"/>
<path d="M226.85 373.5C235.764 373.5 242.99 317.536 242.99 248.5C242.99 179.464 235.764 123.5 226.85 123.5C217.936 123.5 210.71 179.464 210.71 248.5C210.71 317.536 217.936 373.5 226.85 373.5Z" fill="url(#paint0_linear_0_1)"/>
<path d="M234.57 123.5C243.49 123.5 250.71 179.5 250.71 248.5C250.71 317.5 243.49 373.5 234.57 373.5" stroke="#EC3593" stroke-miterlimit="10"/>
<path d="M53.17 373.5C62.3048 373.5 69.71 317.536 69.71 248.5C69.71 179.464 62.3048 123.5 53.17 123.5C44.0352 123.5 36.63 179.464 36.63 248.5C36.63 317.536 44.0352 373.5 53.17 373.5Z" fill="url(#paint1_linear_0_1)"/>
<path d="M45.2599 123.5C36.1199 123.5 28.71 179.5 28.71 248.5C28.71 317.5 36.1199 373.5 45.2599 373.5" stroke="#EC3593" stroke-miterlimit="10"/>
<path d="M89 248C98 247.79 107 247.7 116 247.62L143 247.5L170 247.62L183.5 247.75L197 248L183.5 248.25L170 248.38L143 248.5L116 248.38C107 248.3 98 248.21 89 248Z" fill="url(#paint2_linear_0_1)"/>
<path d="M238.9 172.28L223.88 172.4L208.87 172.44L178.84 172.52L148.81 172.44L133.79 172.4L118.78 172.28L133.79 172.15L148.81 172.11L178.84 172.03L208.87 172.11L223.88 172.15L238.9 172.28Z" fill="url(#paint3_linear_0_1)"/>
<path d="M187.77 203.68C182.75 203.773 177.75 203.837 172.77 203.87L157.77 203.93H142.77C137.75 203.89 132.75 203.823 127.77 203.73C132.777 203.643 137.777 203.58 142.77 203.54L157.77 203.48L172.77 203.54C177.757 203.54 182.757 203.587 187.77 203.68Z" fill="url(#paint4_linear_0_1)"/>
<path d="M214.43 257.36C209.423 257.453 204.423 257.517 199.43 257.55L184.43 257.61L169.43 257.55C164.41 257.55 159.41 257.487 154.43 257.36C159.437 257.267 164.437 257.203 169.43 257.17L184.43 257.11L199.43 257.17C204.423 257.203 209.423 257.267 214.43 257.36Z" fill="url(#paint5_linear_0_1)"/>
<path d="M217.3 257.36C212.287 257.453 207.287 257.517 202.3 257.55L187.3 257.61L172.3 257.55C167.293 257.55 162.293 257.487 157.3 257.36C162.307 257.267 167.307 257.203 172.3 257.17L187.3 257.11L202.3 257.17C207.287 257.203 212.287 257.267 217.3 257.36Z" fill="url(#paint6_linear_0_1)"/>
<path d="M130.9 296.34C125.893 296.427 120.893 296.49 115.9 296.53L100.9 296.59L85.9 296.53C80.88 296.53 75.88 296.467 70.9 296.34C75.92 296.247 80.92 296.183 85.9 296.15L100.9 296.09L115.9 296.15C120.887 296.177 125.887 296.24 130.9 296.34Z" fill="url(#paint7_linear_0_1)"/>
<path d="M237.8 268.85C232.893 268.943 227.987 269.007 223.08 269.04L208.37 269.1L193.66 269.04C188.76 269 183.857 268.937 178.95 268.85C183.85 268.75 188.753 268.683 193.66 268.65H208.37H223.08C227.993 268.69 232.9 268.757 237.8 268.85Z" fill="url(#paint8_linear_0_1)"/>
<path d="M238.9 294.42C232.653 294.52 226.407 294.587 220.16 294.62H201.43H182.7C176.453 294.58 170.207 294.513 163.96 294.42C170.213 294.333 176.46 294.27 182.7 294.23L201.43 294.17L220.16 294.23C226.413 294.27 232.66 294.333 238.9 294.42Z" fill="url(#paint9_linear_0_1)"/>
<path d="M231.18 223C224.94 223.087 218.697 223.15 212.45 223.19L193.72 223.25L175 223.19C168.76 223.19 162.517 223.127 156.27 223C162.51 222.9 168.753 222.833 175 222.8H193.74L212.47 222.86C218.71 222.86 224.947 222.907 231.18 223Z" fill="url(#paint10_linear_0_1)"/>
<path d="M238.9 180.54L227.58 180.66L216.25 180.71L193.61 180.79L170.96 180.71L159.64 180.66L148.31 180.54L159.64 180.42L170.96 180.38L193.61 180.29L216.25 180.38L227.58 180.42L238.9 180.54Z" fill="url(#paint11_linear_0_1)"/>
<path d="M187.1 197.42C184.64 197.51 182.18 197.58 179.72 197.61L172.34 197.67L164.95 197.61C162.49 197.61 160.03 197.51 157.57 197.42C160.03 197.33 162.49 197.26 164.95 197.23L172.34 197.17L179.72 197.23C182.18 197.26 184.64 197.33 187.1 197.42Z" fill="url(#paint12_linear_0_1)"/>
<path d="M119 211.77C116.54 211.87 114.08 211.93 111.62 211.97H104.23H96.85C94.39 211.97 91.93 211.87 89.47 211.77C91.93 211.683 94.39 211.62 96.85 211.58L104.23 211.52L111.62 211.58C114.08 211.62 116.54 211.683 119 211.77Z" fill="url(#paint13_linear_0_1)"/>
<path d="M108.2 276.76C105.74 276.85 103.28 276.92 100.82 276.95L93.4299 277.01H86.0499C83.5899 277.01 81.1299 276.91 78.6699 276.81C81.1299 276.72 83.5899 276.65 86.0499 276.62L93.4299 276.56L100.82 276.62C103.28 276.6 105.74 276.67 108.2 276.76Z" fill="url(#paint14_linear_0_1)"/>
<path d="M224.13 315.74L212.81 315.86L201.49 315.9L178.84 315.99L156.19 315.9L144.87 315.86L133.55 315.74L144.87 315.62L156.19 315.57L178.84 315.49L201.49 315.57L212.81 315.62L224.13 315.74Z" fill="url(#paint15_linear_0_1)"/>
<path d="M240 166.45C233.76 166.543 227.517 166.607 221.27 166.64L202.53 166.7L183.8 166.64C177.553 166.64 171.307 166.577 165.06 166.45C171.313 166.35 177.56 166.283 183.8 166.25L202.53 166.2L221.27 166.26C227.51 166.293 233.753 166.357 240 166.45Z" fill="url(#paint16_linear_0_1)"/>
<path d="M137.74 306.43C134.61 306.52 131.49 306.59 128.37 306.62L119 306.68L109.63 306.62C106.51 306.62 103.39 306.52 100.27 306.43C103.39 306.34 106.51 306.27 109.63 306.24L119 306.18L128.37 306.24C131.49 306.27 134.61 306.34 137.74 306.43Z" fill="url(#paint17_linear_0_1)"/>
<path d="M89.47 186C86.35 186.09 83.22 186.16 80.1 186.19L70.73 186.25L61.37 186.19C58.24 186.19 55.12 186.09 52 186C55.12 185.91 58.24 185.84 61.37 185.81L70.73 185.75L80.1 185.81C83.22 185.86 86.35 185.93 89.47 186Z" fill="url(#paint18_linear_0_1)"/>
<defs>
<linearGradient id="paint0_linear_0_1" x1="201.77" y1="248.49" x2="248.17" y2="248.51" gradientUnits="userSpaceOnUse">
<stop stop-color="#EC3593"/>
<stop offset="0.1" stop-color="#DE328B"/>
<stop offset="0.28" stop-color="#BB2A74"/>
<stop offset="0.52" stop-color="#811D50"/>
<stop offset="0.82" stop-color="#320B1F"/>
<stop offset="1"/>
</linearGradient>
<linearGradient id="paint1_linear_0_1" x1="78.88" y1="248.48" x2="31.32" y2="248.51" gradientUnits="userSpaceOnUse">
<stop stop-color="#EC3593"/>
<stop offset="0.1" stop-color="#DE328B"/>
<stop offset="0.28" stop-color="#BB2A74"/>
<stop offset="0.52" stop-color="#811D50"/>
<stop offset="0.82" stop-color="#320B1F"/>
<stop offset="1"/>
</linearGradient>
<linearGradient id="paint2_linear_0_1" x1="89" y1="248" x2="197" y2="248" gradientUnits="userSpaceOnUse">
<stop stop-color="#EC3593"/>
<stop offset="0.1" stop-color="#DE328B"/>
<stop offset="0.28" stop-color="#BB2A74"/>
<stop offset="0.52" stop-color="#811D50"/>
<stop offset="0.82" stop-color="#320B1F"/>
<stop offset="1"/>
</linearGradient>
<linearGradient id="paint3_linear_0_1" x1="118.78" y1="172.28" x2="238.9" y2="172.28" gradientUnits="userSpaceOnUse">
<stop stop-color="#EC3593"/>
<stop offset="0.1" stop-color="#DE328B"/>
<stop offset="0.28" stop-color="#BB2A74"/>
<stop offset="0.52" stop-color="#811D50"/>
<stop offset="0.82" stop-color="#320B1F"/>
<stop offset="1"/>
</linearGradient>
<linearGradient id="paint4_linear_0_1" x1="127.6" y1="203.68" x2="187.77" y2="203.68" gradientUnits="userSpaceOnUse">
<stop stop-color="#EC3593"/>
<stop offset="0.1" stop-color="#DE328B"/>
<stop offset="0.28" stop-color="#BB2A74"/>
<stop offset="0.52" stop-color="#811D50"/>
<stop offset="0.82" stop-color="#320B1F"/>
<stop offset="1"/>
</linearGradient>
<linearGradient id="paint5_linear_0_1" x1="154.27" y1="257.36" x2="214.43" y2="257.36" gradientUnits="userSpaceOnUse">
<stop stop-color="#EC3593"/>
<stop offset="0.1" stop-color="#DE328B"/>
<stop offset="0.28" stop-color="#BB2A74"/>
<stop offset="0.52" stop-color="#811D50"/>
<stop offset="0.82" stop-color="#320B1F"/>
<stop offset="1"/>
</linearGradient>
<linearGradient id="paint6_linear_0_1" x1="157.13" y1="257.36" x2="217.3" y2="257.36" gradientUnits="userSpaceOnUse">
<stop stop-color="#EC3593"/>
<stop offset="0.1" stop-color="#DE328B"/>
<stop offset="0.28" stop-color="#BB2A74"/>
<stop offset="0.52" stop-color="#811D50"/>
<stop offset="0.82" stop-color="#320B1F"/>
<stop offset="1"/>
</linearGradient>
<linearGradient id="paint7_linear_0_1" x1="70.73" y1="296.34" x2="130.9" y2="296.34" gradientUnits="userSpaceOnUse">
<stop stop-color="#EC3593"/>
<stop offset="0.1" stop-color="#DE328B"/>
<stop offset="0.28" stop-color="#BB2A74"/>
<stop offset="0.52" stop-color="#811D50"/>
<stop offset="0.82" stop-color="#320B1F"/>
<stop offset="1"/>
</linearGradient>
<linearGradient id="paint8_linear_0_1" x1="178.95" y1="268.85" x2="237.8" y2="268.85" gradientUnits="userSpaceOnUse">
<stop stop-color="#EC3593"/>
<stop offset="0.1" stop-color="#DE328B"/>
<stop offset="0.28" stop-color="#BB2A74"/>
<stop offset="0.52" stop-color="#811D50"/>
<stop offset="0.82" stop-color="#320B1F"/>
<stop offset="1"/>
</linearGradient>
<linearGradient id="paint9_linear_0_1" x1="163.96" y1="294.42" x2="238.9" y2="294.42" gradientUnits="userSpaceOnUse">
<stop stop-color="#EC3593"/>
<stop offset="0.1" stop-color="#DE328B"/>
<stop offset="0.28" stop-color="#BB2A74"/>
<stop offset="0.52" stop-color="#811D50"/>
<stop offset="0.82" stop-color="#320B1F"/>
<stop offset="1"/>
</linearGradient>
<linearGradient id="paint10_linear_0_1" x1="156.25" y1="223" x2="231.18" y2="223" gradientUnits="userSpaceOnUse">
<stop stop-color="#EC3593"/>
<stop offset="0.1" stop-color="#DE328B"/>
<stop offset="0.28" stop-color="#BB2A74"/>
<stop offset="0.52" stop-color="#811D50"/>
<stop offset="0.82" stop-color="#320B1F"/>
<stop offset="1"/>
</linearGradient>
<linearGradient id="paint11_linear_0_1" x1="148.31" y1="180.54" x2="238.9" y2="180.54" gradientUnits="userSpaceOnUse">
<stop stop-color="#EC3593"/>
<stop offset="0.1" stop-color="#DE328B"/>
<stop offset="0.28" stop-color="#BB2A74"/>
<stop offset="0.52" stop-color="#811D50"/>
<stop offset="0.82" stop-color="#320B1F"/>
<stop offset="1"/>
</linearGradient>
<linearGradient id="paint12_linear_0_1" x1="157.57" y1="197.42" x2="187.1" y2="197.42" gradientUnits="userSpaceOnUse">
<stop stop-color="#EC3593"/>
<stop offset="0.1" stop-color="#DE328B"/>
<stop offset="0.28" stop-color="#BB2A74"/>
<stop offset="0.52" stop-color="#811D50"/>
<stop offset="0.82" stop-color="#320B1F"/>
<stop offset="1"/>
</linearGradient>
<linearGradient id="paint13_linear_0_1" x1="89.47" y1="211.77" x2="119" y2="211.77" gradientUnits="userSpaceOnUse">
<stop stop-color="#EC3593"/>
<stop offset="0.1" stop-color="#DE328B"/>
<stop offset="0.28" stop-color="#BB2A74"/>
<stop offset="0.52" stop-color="#811D50"/>
<stop offset="0.82" stop-color="#320B1F"/>
<stop offset="1"/>
</linearGradient>
<linearGradient id="paint14_linear_0_1" x1="78.6699" y1="276.76" x2="108.2" y2="276.76" gradientUnits="userSpaceOnUse">
<stop stop-color="#EC3593"/>
<stop offset="0.1" stop-color="#DE328B"/>
<stop offset="0.28" stop-color="#BB2A74"/>
<stop offset="0.52" stop-color="#811D50"/>
<stop offset="0.82" stop-color="#320B1F"/>
<stop offset="1"/>
</linearGradient>
<linearGradient id="paint15_linear_0_1" x1="133.55" y1="315.74" x2="224.13" y2="315.74" gradientUnits="userSpaceOnUse">
<stop stop-color="#EC3593"/>
<stop offset="0.1" stop-color="#DE328B"/>
<stop offset="0.28" stop-color="#BB2A74"/>
<stop offset="0.52" stop-color="#811D50"/>
<stop offset="0.82" stop-color="#320B1F"/>
<stop offset="1"/>
</linearGradient>
<linearGradient id="paint16_linear_0_1" x1="165.06" y1="166.45" x2="240" y2="166.45" gradientUnits="userSpaceOnUse">
<stop stop-color="#EC3593"/>
<stop offset="0.1" stop-color="#DE328B"/>
<stop offset="0.28" stop-color="#BB2A74"/>
<stop offset="0.52" stop-color="#811D50"/>
<stop offset="0.82" stop-color="#320B1F"/>
<stop offset="1"/>
</linearGradient>
<linearGradient id="paint17_linear_0_1" x1="100.27" y1="306.43" x2="137.74" y2="306.43" gradientUnits="userSpaceOnUse">
<stop stop-color="#EC3593"/>
<stop offset="0.1" stop-color="#DE328B"/>
<stop offset="0.28" stop-color="#BB2A74"/>
<stop offset="0.52" stop-color="#811D50"/>
<stop offset="0.82" stop-color="#320B1F"/>
<stop offset="1"/>
</linearGradient>
<linearGradient id="paint18_linear_0_1" x1="52" y1="186.02" x2="89.47" y2="186.02" gradientUnits="userSpaceOnUse">
<stop stop-color="#EC3593"/>
<stop offset="0.1" stop-color="#DE328B"/>
<stop offset="0.28" stop-color="#BB2A74"/>
<stop offset="0.52" stop-color="#811D50"/>
<stop offset="0.82" stop-color="#320B1F"/>
<stop offset="1"/>
</linearGradient>
</defs>
</svg>
