<svg width="285" height="520" viewBox="0 0 285 520" fill="none" xmlns="http://www.w3.org/2000/svg">
<path d="M56 262.021C59.37 261.191 61.4899 262.681 63.3099 264.751C69.1099 271.331 72.1799 279.391 75.4399 287.351C76.0099 288.731 76.44 290.171 77.05 291.851C76.22 292.071 75.51 292.301 74.77 292.461C71.77 293.111 70.93 295.081 71.98 297.661C72.7923 299.852 73.9838 301.883 75.5 303.661C84.03 313.011 92.7 322.231 101.39 331.431C102.03 332.111 103.2 332.301 104.12 332.721L104.83 331.841C103.97 330.761 103.19 329.601 102.24 328.611C94.62 320.611 86.92 312.741 79.36 304.691C77.572 302.706 76.0091 300.53 74.7 298.201C73.19 295.661 74.05 294.201 76.95 294.841C79.9964 295.506 82.9212 296.64 85.62 298.201C92.45 302.201 98.91 306.781 105.86 310.481C111.235 313.228 116.832 315.52 122.59 317.331C131.59 320.331 137.67 326.181 140.59 334.901C144.05 345.111 146.75 355.561 149.85 365.901C150.75 368.901 150.02 370.901 147.02 371.901C140.65 374.051 134.33 376.321 127.89 378.221C124.72 379.161 123.24 377.871 122.6 374.521C121.78 370.191 121.04 365.841 120.14 361.521C118.85 355.401 114.58 351.301 110.43 347.021C98.0501 334.275 85.78 321.411 73.62 308.431C72.03 306.731 71.1 304.291 70.26 302.041C65.55 289.421 60.97 276.761 56.36 264.111C56.1878 263.425 56.0674 262.726 56 262.021Z" fill="url(#paint0_linear_0_1)"/>
<path d="M61.75 259.431C63.1397 259.395 64.5159 259.711 65.75 260.351C69.2516 262.076 72.2331 264.698 74.39 267.951C80.16 276.091 82.33 285.821 86.39 295.501C82.2 294.261 79.6599 293.031 78.1899 289.131C75.3206 281.912 72.0455 274.861 68.38 268.011C67.03 265.281 64.64 263.071 61.75 259.431Z" fill="url(#paint1_linear_0_1)"/>
<path d="M95.5693 301.241C93.6912 300.525 92.0048 299.382 90.6428 297.904C89.2807 296.426 88.28 294.652 87.7193 292.721C85.3993 285.821 82.4693 279.121 79.8193 272.331C79.5003 271.556 79.5003 270.686 79.8193 269.911C87.4227 278.995 92.8142 289.72 95.5693 301.241Z" fill="url(#paint2_linear_0_1)"/>
<path d="M106.189 307.741C97.839 305.741 98.039 298.871 95.709 292.821C102.119 296.201 101.289 303.581 106.189 307.741Z" fill="url(#paint3_linear_0_1)"/>
<path d="M248.759 262.021C245.379 261.191 243.259 262.681 241.439 264.751C235.639 271.331 232.569 279.391 229.309 287.351C228.739 288.731 228.309 290.171 227.699 291.851C228.529 292.071 229.249 292.301 229.979 292.461C232.979 293.111 233.819 295.081 232.769 297.661C231.957 299.852 230.765 301.883 229.249 303.661C220.719 313.011 212.049 322.231 203.359 331.431C202.719 332.111 201.559 332.301 200.629 332.721L199.919 331.841C200.779 330.761 201.559 329.601 202.509 328.611C210.129 320.611 217.829 312.741 225.389 304.691C227.177 302.706 228.74 300.53 230.049 298.201C231.559 295.661 230.709 294.201 227.799 294.841C224.753 295.506 221.828 296.64 219.129 298.201C212.299 302.201 205.849 306.781 198.889 310.481C193.514 313.228 187.917 315.52 182.159 317.331C173.159 320.331 167.079 326.181 164.159 334.901C160.709 345.111 157.999 355.561 154.899 365.901C153.999 368.901 154.729 370.901 157.739 371.901C164.099 374.051 170.419 376.321 176.859 378.221C180.029 379.161 181.509 377.871 182.149 374.521C182.979 370.191 183.709 365.841 184.619 361.521C185.899 355.401 190.169 351.301 194.319 347.021C206.699 334.275 218.969 321.411 231.129 308.431C232.65 306.537 233.791 304.368 234.489 302.041C239.199 289.421 243.779 276.761 248.389 264.111C248.561 263.424 248.684 262.726 248.759 262.021Z" fill="url(#paint4_linear_0_1)"/>
<path d="M243 259.431C241.545 259.446 240.109 259.76 238.78 260.351C235.461 262.263 232.581 264.852 230.33 267.951C224.56 276.091 222.39 285.821 218.33 295.501C222.52 294.261 225.06 293.031 226.54 289.131C229.406 281.912 232.678 274.861 236.34 268.011C237.72 265.281 240.12 263.071 243 259.431Z" fill="url(#paint5_linear_0_1)"/>
<path d="M209.189 301.241C211.069 300.529 212.756 299.388 214.117 297.909C215.478 296.43 216.476 294.653 217.03 292.721C219.35 285.821 222.279 279.121 224.939 272.331C225.1 271.948 225.182 271.537 225.182 271.121C225.182 270.706 225.1 270.295 224.939 269.911C217.332 278.992 211.94 289.718 209.189 301.241Z" fill="url(#paint6_linear_0_1)"/>
<path d="M198.559 307.741C206.919 305.741 206.709 298.871 209.039 292.821C202.609 296.201 203.459 303.581 198.559 307.741Z" fill="url(#paint7_linear_0_1)"/>
<path opacity="0.25" d="M140.779 457.351C184.41 457.351 219.779 454.441 219.779 450.851C219.779 447.261 184.41 444.351 140.779 444.351C97.1488 444.351 61.7793 447.261 61.7793 450.851C61.7793 454.441 97.1488 457.351 140.779 457.351Z" fill="black"/>
<path d="M204.189 228.551C202.929 231.281 200.269 233.041 197.539 234.081C194.743 235.057 191.818 235.617 188.859 235.741C182.942 235.97 177.019 235.483 171.219 234.291C147.95 229.433 126.075 219.395 107.219 204.921C102.528 201.255 98.2971 197.034 94.6193 192.351C92.775 189.976 91.286 187.345 90.1993 184.541C89.6724 183.105 89.3624 181.599 89.2793 180.071C89.1729 178.51 89.4625 176.947 90.1216 175.527C90.7807 174.108 91.7878 172.878 93.0494 171.951C94.2666 171.029 95.6148 170.294 97.0494 169.771C99.8935 168.794 102.864 168.234 105.869 168.111C111.819 167.908 117.772 168.422 123.599 169.641C146.827 174.725 168.61 184.98 187.329 199.641C191.98 203.306 196.171 207.52 199.809 212.191C201.621 214.536 203.08 217.134 204.139 219.901C205.119 222.661 205.459 225.821 204.189 228.551ZM204.189 228.551C205.449 225.821 205.079 222.661 204.099 219.911C203.025 217.156 201.56 214.57 199.749 212.231C196.091 207.582 191.887 203.389 187.229 199.741C168.433 185.314 146.625 175.309 123.429 170.471C117.668 169.29 111.786 168.806 105.909 169.031C103.002 169.158 100.129 169.707 97.3793 170.661C94.7093 171.661 92.1893 173.371 91.0093 175.941C89.8293 178.511 90.1293 181.511 91.0793 184.211C92.1245 186.928 93.5596 189.478 95.3393 191.781C98.9553 196.419 103.115 200.605 107.729 204.251C116.982 211.577 127.069 217.784 137.779 222.741C148.437 227.859 159.671 231.68 171.239 234.121C177.027 235.33 182.94 235.84 188.849 235.641C191.806 235.525 194.73 234.98 197.529 234.021C200.259 233.021 202.909 231.271 204.189 228.551Z" fill="url(#paint8_linear_0_1)"/>
<path d="M203.189 230.551C201.929 233.281 199.269 235.041 196.539 236.081C193.743 237.057 190.818 237.617 187.859 237.741C181.942 237.97 176.019 237.483 170.219 236.291C146.95 231.433 125.075 221.395 106.219 206.921C101.528 203.255 97.2971 199.034 93.6193 194.351C91.775 191.976 90.286 189.345 89.1993 186.541C88.6724 185.105 88.3624 183.599 88.2793 182.071C88.1729 180.51 88.4625 178.947 89.1216 177.527C89.7807 176.108 90.7878 174.878 92.0494 173.951C93.2666 173.029 94.6148 172.294 96.0494 171.771C98.8935 170.794 101.864 170.234 104.869 170.111C110.819 169.908 116.772 170.422 122.599 171.641C145.827 176.725 167.61 186.98 186.329 201.641C190.98 205.306 195.171 209.52 198.809 214.191C200.621 216.536 202.08 219.134 203.139 221.901C204.119 224.661 204.459 227.821 203.189 230.551ZM203.189 230.551C204.449 227.821 204.079 224.661 203.099 221.911C202.025 219.156 200.56 216.57 198.749 214.231C195.091 209.582 190.887 205.389 186.229 201.741C167.433 187.314 145.625 177.309 122.429 172.471C116.668 171.29 110.786 170.806 104.909 171.031C102.002 171.158 99.1285 171.707 96.3793 172.661C93.7093 173.661 91.1893 175.371 90.0093 177.941C88.8293 180.511 89.1293 183.511 90.0793 186.211C91.1245 188.928 92.5596 191.478 94.3393 193.781C97.9553 198.419 102.115 202.605 106.729 206.251C115.982 213.577 126.069 219.784 136.779 224.741C147.437 229.859 158.671 233.68 170.239 236.121C176.027 237.33 181.94 237.84 187.849 237.641C190.806 237.525 193.73 236.98 196.529 236.021C199.259 235.021 201.909 233.271 203.189 230.551Z" fill="url(#paint9_linear_0_1)"/>
<path d="M202.189 232.551C200.929 235.281 198.269 237.041 195.539 238.081C192.743 239.057 189.818 239.617 186.859 239.741C180.942 239.97 175.019 239.483 169.219 238.291C145.95 233.433 124.075 223.395 105.219 208.921C100.528 205.255 96.2971 201.034 92.6193 196.351C90.775 193.976 89.286 191.345 88.1993 188.541C87.6724 187.105 87.3624 185.599 87.2793 184.071C87.1729 182.51 87.4625 180.947 88.1216 179.527C88.7807 178.108 89.7878 176.878 91.0494 175.951C92.2666 175.029 93.6148 174.294 95.0494 173.771C97.8935 172.794 100.864 172.234 103.869 172.111C109.819 171.908 115.772 172.422 121.599 173.641C144.827 178.725 166.61 188.98 185.329 203.641C189.98 207.306 194.171 211.52 197.809 216.191C199.621 218.536 201.08 221.134 202.139 223.901C203.119 226.661 203.459 229.821 202.189 232.551ZM202.189 232.551C203.449 229.821 203.079 226.661 202.099 223.911C201.025 221.156 199.56 218.57 197.749 216.231C194.091 211.582 189.887 207.389 185.229 203.741C166.433 189.314 144.625 179.309 121.429 174.471C115.668 173.29 109.786 172.806 103.909 173.031C101.002 173.158 98.1285 173.707 95.3793 174.661C92.7093 175.661 90.1893 177.371 89.0093 179.941C87.8293 182.511 88.1293 185.511 89.0793 188.211C90.1245 190.928 91.5596 193.478 93.3393 195.781C96.9553 200.419 101.115 204.605 105.729 208.251C114.982 215.577 125.069 221.784 135.779 226.741C146.437 231.859 157.671 235.68 169.239 238.121C175.027 239.33 180.94 239.84 186.849 239.641C189.806 239.525 192.73 238.98 195.529 238.021C198.259 237.021 200.909 235.271 202.189 232.551Z" fill="url(#paint10_linear_0_1)"/>
<path d="M201.189 235.551C199.929 238.281 197.269 240.041 194.539 241.081C191.743 242.057 188.818 242.617 185.859 242.741C179.942 242.97 174.019 242.483 168.219 241.291C144.95 236.433 123.075 226.395 104.219 211.921C99.5278 208.255 95.2971 204.034 91.6193 199.351C89.775 196.976 88.286 194.345 87.1993 191.541C86.6724 190.105 86.3624 188.599 86.2793 187.071C86.1729 185.51 86.4625 183.947 87.1216 182.527C87.7807 181.108 88.7878 179.878 90.0494 178.951C91.2666 178.029 92.6148 177.294 94.0494 176.771C96.8935 175.794 99.8644 175.234 102.869 175.111C108.819 174.908 114.772 175.422 120.599 176.641C143.827 181.725 165.61 191.98 184.329 206.641C188.98 210.306 193.171 214.52 196.809 219.191C198.621 221.536 200.08 224.134 201.139 226.901C202.119 229.661 202.459 232.821 201.189 235.551ZM201.189 235.551C202.449 232.821 202.079 229.661 201.099 226.911C200.025 224.156 198.56 221.57 196.749 219.231C193.091 214.582 188.887 210.389 184.229 206.741C165.433 192.314 143.625 182.309 120.429 177.471C114.668 176.29 108.786 175.806 102.909 176.031C100.002 176.158 97.1285 176.707 94.3793 177.661C91.7093 178.661 89.1893 180.371 88.0093 182.941C86.8293 185.511 87.1293 188.511 88.0793 191.211C89.1245 193.928 90.5596 196.478 92.3393 198.781C95.9553 203.419 100.115 207.605 104.729 211.251C113.982 218.577 124.069 224.784 134.779 229.741C145.437 234.859 156.671 238.68 168.239 241.121C174.027 242.33 179.94 242.84 185.849 242.641C188.806 242.525 191.73 241.98 194.529 241.021C197.259 240.021 199.909 238.271 201.189 235.551Z" fill="url(#paint11_linear_0_1)"/>
<path d="M203.12 178.421C204.12 181.271 203.34 184.371 202.06 187.001C200.68 189.623 198.929 192.031 196.86 194.151C192.696 198.358 188.043 202.051 183 205.151C162.702 217.534 139.872 225.177 116.21 227.511C110.279 228.043 104.306 227.859 98.4198 226.961C95.4487 226.492 92.5617 225.592 89.8497 224.291C88.4851 223.602 87.2313 222.712 86.1298 221.651C84.9818 220.587 84.122 219.249 83.6306 217.763C83.1392 216.277 83.0323 214.69 83.3197 213.151C83.579 211.645 84.061 210.186 84.7497 208.821C86.1605 206.161 87.949 203.719 90.0597 201.571C94.2706 197.359 98.9707 193.666 104.06 190.571C124.477 178.39 147.378 170.969 171.06 168.861C176.96 168.362 182.899 168.57 188.75 169.481C191.673 169.959 194.512 170.855 197.18 172.141C199.72 173.491 202.12 175.551 203.12 178.421ZM203.12 178.421C202.18 175.561 199.74 173.511 197.12 172.181C194.452 170.902 191.612 170.016 188.69 169.551C182.846 168.667 176.917 168.485 171.03 169.011C159.256 170.089 147.653 172.573 136.47 176.411C125.253 180.091 114.512 185.086 104.47 191.291C99.4647 194.374 94.8454 198.044 90.7097 202.221C88.6784 204.296 86.9573 206.654 85.5997 209.221C84.3397 211.791 83.6697 214.751 84.5997 217.431C85.5297 220.111 87.7797 222.101 90.3097 223.431C92.9318 224.701 95.7243 225.583 98.5997 226.051C104.411 226.955 110.31 227.16 116.17 226.661C139.768 224.553 162.588 217.16 182.94 205.031C187.993 201.957 192.657 198.283 196.83 194.091C198.903 191.982 200.662 189.583 202.05 186.971C203.28 184.371 204.02 181.271 203.12 178.421Z" fill="url(#paint12_linear_0_1)"/>
<path d="M203.72 180.561C204.72 183.411 203.94 186.561 202.66 189.141C201.28 191.763 199.529 194.171 197.46 196.291C193.299 200.501 188.645 204.195 183.6 207.291C173.524 213.521 162.746 218.536 151.49 222.231C140.268 226.082 128.625 228.574 116.81 229.651C110.879 230.183 104.906 229.999 99.0201 229.101C96.049 228.632 93.1621 227.732 90.45 226.431C89.0841 225.743 87.8273 224.857 86.7201 223.801C85.5761 222.732 84.7199 221.392 84.2306 219.905C83.7412 218.417 83.6344 216.831 83.9201 215.291C84.181 213.785 84.6628 212.326 85.3501 210.961C86.7609 208.304 88.5496 205.865 90.6601 203.721C94.8666 199.504 99.5674 195.811 104.66 192.721C125.078 180.54 147.979 173.119 171.66 171.011C177.56 170.512 183.499 170.72 189.35 171.631C192.275 172.105 195.115 173.005 197.78 174.301C200.36 175.641 202.79 177.741 203.72 180.561ZM203.72 180.561C202.77 177.701 200.34 175.651 197.72 174.321C195.051 173.043 192.212 172.157 189.29 171.691C183.443 170.807 177.511 170.625 171.62 171.151C148.061 173.496 125.333 181.114 105.12 193.441C100.113 196.521 95.4931 200.191 91.3601 204.371C89.3269 206.445 87.6056 208.803 86.2501 211.371C84.9901 213.931 84.3201 216.891 85.2501 219.571C86.1801 222.251 88.4301 224.241 90.9601 225.571C93.5799 226.847 96.3732 227.729 99.2501 228.191C105.058 229.1 110.953 229.304 116.81 228.801C140.414 226.707 163.241 219.314 183.59 207.171C188.642 204.094 193.305 200.421 197.48 196.231C199.554 194.124 201.309 191.725 202.69 189.111C203.92 186.511 204.66 183.421 203.72 180.561Z" fill="url(#paint13_linear_0_1)"/>
<path d="M204.36 182.741C205.36 185.601 204.58 188.741 203.3 191.321C201.92 193.946 200.169 196.357 198.1 198.481C193.936 202.689 189.283 206.382 184.24 209.481C163.935 221.848 141.108 229.49 117.45 231.841C111.519 232.368 105.547 232.184 99.6598 231.291C96.6882 230.819 93.8012 229.916 91.0898 228.611C89.7238 227.923 88.467 227.037 87.3598 225.981C86.2356 224.898 85.3825 223.566 84.8698 222.091C84.399 220.602 84.2926 219.021 84.5597 217.481C84.8191 215.972 85.301 214.509 85.9898 213.141C87.4005 210.487 89.1855 208.048 91.2898 205.901C95.501 201.689 100.201 197.996 105.29 194.901C125.712 182.732 148.611 175.316 172.29 173.201C178.19 172.697 184.129 172.905 189.98 173.821C192.905 174.292 195.745 175.188 198.41 176.481C201 177.741 203.43 179.841 204.36 182.741ZM204.36 182.741C203.36 179.881 200.98 177.841 198.36 176.501C195.692 175.223 192.852 174.341 189.93 173.881C184.083 172.988 178.15 172.804 172.26 173.331C148.68 175.663 125.929 183.282 105.7 195.621C100.693 198.702 96.0734 202.371 91.9397 206.551C89.9066 208.625 88.1853 210.983 86.8297 213.551C85.5697 216.111 84.8997 219.071 85.8297 221.751C86.7597 224.431 89.0098 226.421 91.5398 227.751C94.1618 229.019 96.9544 229.898 99.8297 230.361C105.637 231.268 111.533 231.476 117.39 230.981C129.158 230.006 140.769 227.639 151.98 223.931C163.239 220.364 174.029 215.459 184.12 209.321C189.169 206.244 193.832 202.575 198.01 198.391C200.079 196.28 201.834 193.882 203.22 191.271C204.56 188.651 205.3 185.561 204.36 182.741Z" fill="url(#paint14_linear_0_1)"/>
<path d="M205.678 185.571C206.678 188.431 205.898 191.571 204.618 194.161C203.235 196.781 201.484 199.189 199.418 201.311C195.254 205.519 190.601 209.212 185.558 212.311C165.26 224.694 142.43 232.337 118.768 234.671C112.838 235.198 106.865 235.014 100.978 234.121C98.0072 233.652 95.1203 232.752 92.4083 231.451C91.0437 230.762 89.7897 229.872 88.6882 228.811C87.5402 227.747 86.6806 226.409 86.1892 224.923C85.6978 223.437 85.5909 221.85 85.8783 220.311C86.1392 218.802 86.621 217.34 87.3082 215.971C88.7191 213.314 90.5077 210.875 92.6183 208.731C96.8244 204.514 101.525 200.82 106.618 197.731C127.036 185.55 149.937 178.129 173.618 176.021C179.518 175.517 185.458 175.725 191.308 176.641C194.231 177.119 197.07 178.015 199.738 179.301C202.318 180.651 204.748 182.741 205.678 185.571ZM205.678 185.571C204.738 182.721 202.298 180.671 199.678 179.341C197.011 178.059 194.171 177.173 191.248 176.711C185.405 175.823 179.476 175.639 173.588 176.161C161.814 177.242 150.211 179.73 139.028 183.571C127.812 187.251 117.071 192.246 107.028 198.451C102.023 201.534 97.404 205.204 93.2683 209.381C91.237 211.457 89.5159 213.814 88.1583 216.381C86.8983 218.951 86.2283 221.911 87.1583 224.591C88.0883 227.271 90.3383 229.251 92.8683 230.591C95.4916 231.858 98.2836 232.74 101.158 233.211C106.97 234.115 112.868 234.32 118.728 233.821C142.326 231.713 165.147 224.32 185.498 212.191C190.548 209.111 195.211 205.438 199.388 201.251C201.46 199.14 203.218 196.742 204.608 194.131C205.878 191.521 206.618 188.431 205.678 185.571Z" fill="url(#paint15_linear_0_1)"/>
<path d="M181.119 162.611C183.275 164.242 184.71 166.649 185.119 169.321C185.606 171.959 185.704 174.655 185.409 177.321C184.782 182.642 183.524 187.869 181.659 192.891C174.102 213.034 162.093 231.209 146.529 246.061C142.595 249.747 138.23 252.944 133.529 255.581C131.146 256.907 128.582 257.877 125.919 258.461C124.556 258.728 123.161 258.796 121.779 258.661C120.354 258.517 118.983 258.037 117.779 257.261C116.605 256.458 115.641 255.385 114.969 254.131C114.312 252.909 113.843 251.594 113.579 250.231C113.098 247.548 113.011 244.809 113.319 242.101C113.971 236.754 115.261 231.503 117.159 226.461C124.941 206.405 137.143 188.361 152.859 173.671C156.799 170.024 161.164 166.865 165.859 164.261C168.207 162.972 170.73 162.032 173.349 161.471C175.988 160.821 178.778 161.23 181.119 162.611ZM181.119 162.611C178.785 161.25 176.013 160.848 173.389 161.491C170.774 162.066 168.258 163.019 165.919 164.321C161.259 166.943 156.931 170.116 153.029 173.771C145.245 181.102 138.366 189.337 132.539 198.301C126.588 207.175 121.707 216.721 117.999 226.741C116.148 231.72 114.902 236.904 114.289 242.181C113.998 244.797 114.089 247.441 114.559 250.031C114.68 251.313 115.086 252.552 115.745 253.657C116.405 254.763 117.303 255.708 118.374 256.423C119.444 257.138 120.661 257.606 121.935 257.793C123.209 257.979 124.508 257.88 125.739 257.501C128.321 256.947 130.807 256.017 133.119 254.741C137.763 252.151 142.08 249.016 145.979 245.401C153.821 238.156 160.779 230.01 166.709 221.131C172.769 212.318 177.751 202.81 181.549 192.811C183.435 187.81 184.711 182.599 185.349 177.291C185.662 174.627 185.581 171.932 185.109 169.291C184.69 166.633 183.261 164.24 181.119 162.611Z" fill="url(#paint16_linear_0_1)"/>
<path d="M182.74 163.741C184.896 165.372 186.331 167.779 186.74 170.451C187.229 173.089 187.323 175.785 187.02 178.451C186.403 183.773 185.147 189 183.28 194.021C175.713 214.159 163.706 232.332 148.15 247.191C144.214 250.877 139.849 254.077 135.15 256.721C132.765 258.039 130.202 259.006 127.54 259.591C126.178 259.863 124.782 259.93 123.4 259.791C121.974 259.65 120.603 259.17 119.4 258.391C118.226 257.588 117.262 256.515 116.59 255.261C115.933 254.042 115.464 252.731 115.2 251.371C114.719 248.688 114.632 245.949 114.94 243.241C115.586 237.889 116.876 232.635 118.78 227.591C122.586 217.552 127.586 208.007 133.67 199.161C139.62 190.248 146.606 182.071 154.48 174.801C158.42 171.154 162.785 167.995 167.48 165.391C169.827 164.102 172.351 163.162 174.97 162.601C177.609 161.951 180.398 162.36 182.74 163.741ZM182.74 163.741C180.406 162.38 177.634 161.978 175.01 162.621C172.397 163.2 169.881 164.153 167.54 165.451C162.88 168.073 158.552 171.246 154.65 174.901C146.866 182.234 139.984 190.469 134.15 199.431C128.216 208.309 123.349 217.854 119.65 227.871C117.797 232.854 116.552 238.041 115.94 243.321C115.649 245.934 115.74 248.575 116.21 251.161C116.331 252.443 116.737 253.682 117.396 254.787C118.056 255.893 118.954 256.838 120.025 257.553C121.095 258.268 122.312 258.736 123.586 258.923C124.86 259.109 126.159 259.01 127.39 258.631C129.96 258.079 132.436 257.156 134.74 255.891C139.383 253.302 143.701 250.166 147.6 246.551C155.442 239.306 162.4 231.16 168.33 222.281C174.37 213.478 179.335 203.984 183.12 194.001C185.01 189 186.289 183.789 186.93 178.481C187.243 175.817 187.162 173.122 186.69 170.481C186.296 167.808 184.88 165.391 182.74 163.741Z" fill="url(#paint17_linear_0_1)"/>
<path d="M184.389 164.951C186.537 166.59 187.969 168.993 188.389 171.661C188.867 174.301 188.962 176.995 188.669 179.661C188.051 184.982 186.795 190.21 184.929 195.231C181.22 205.273 176.34 214.843 170.389 223.741C164.541 232.741 157.635 241.006 149.819 248.361C145.879 252.042 141.515 255.241 136.819 257.891C134.433 259.208 131.87 260.174 129.209 260.761C127.847 261.033 126.451 261.1 125.069 260.961C123.652 260.838 122.288 260.359 121.105 259.569C119.921 258.779 118.957 257.703 118.299 256.441C117.645 255.217 117.173 253.903 116.899 252.541C116.427 249.857 116.343 247.119 116.649 244.411C117.296 239.059 118.585 233.805 120.489 228.761C124.295 218.725 129.295 209.183 135.379 200.341C141.332 191.427 148.317 183.247 156.189 175.971C160.129 172.325 164.494 169.165 169.189 166.561C171.539 165.276 174.061 164.336 176.679 163.771C179.305 163.154 182.068 163.577 184.389 164.951ZM184.389 164.951C182.056 163.588 179.282 163.19 176.659 163.841C174.045 164.412 171.528 165.362 169.189 166.661C164.529 169.283 160.201 172.456 156.299 176.111C148.515 183.444 141.633 191.679 135.799 200.641C129.865 209.519 124.998 219.065 121.299 229.081C119.447 234.064 118.201 239.251 117.589 244.531C117.298 247.144 117.389 249.785 117.859 252.371C117.979 253.654 118.383 254.894 119.043 256.001C119.702 257.108 120.6 258.054 121.67 258.77C122.741 259.486 123.958 259.955 125.233 260.142C126.507 260.329 127.808 260.23 129.039 259.851C131.608 259.291 134.084 258.365 136.389 257.101C141.033 254.512 145.35 251.376 149.249 247.761C164.901 233.128 177.055 215.156 184.809 195.181C186.698 190.176 187.977 184.962 188.619 179.651C188.927 176.987 188.846 174.292 188.379 171.651C187.963 168.987 186.533 166.587 184.389 164.951Z" fill="url(#paint18_linear_0_1)"/>
<path d="M186.929 166.261C189.083 167.894 190.517 170.3 190.929 172.971C191.415 175.61 191.513 178.305 191.219 180.971C190.592 186.292 189.333 191.519 187.469 196.541C179.919 216.691 167.918 234.877 152.359 249.741C148.425 253.43 144.06 256.63 139.359 259.271C136.974 260.589 134.411 261.556 131.749 262.141C130.386 262.413 128.991 262.48 127.609 262.341C126.183 262.205 124.812 261.729 123.609 260.951C122.44 260.143 121.477 259.071 120.799 257.821C120.143 256.598 119.675 255.283 119.409 253.921C118.928 251.238 118.841 248.499 119.149 245.791C119.801 240.44 121.091 235.186 122.989 230.141C126.799 220.107 131.798 210.566 137.879 201.721C143.829 192.808 150.815 184.631 158.689 177.361C162.624 173.708 166.989 170.548 171.689 167.951C174.036 166.658 176.559 165.715 179.179 165.151C181.809 164.507 184.586 164.905 186.929 166.261ZM186.929 166.261C184.594 164.903 181.822 164.505 179.199 165.151C176.585 165.722 174.068 166.672 171.729 167.971C167.071 170.596 162.744 173.769 158.839 177.421C143.347 192.241 131.385 210.354 123.839 230.421C121.985 235.394 120.736 240.571 120.119 245.841C119.828 248.454 119.919 251.095 120.389 253.681C120.509 254.964 120.913 256.204 121.572 257.311C122.232 258.418 123.129 259.364 124.2 260.08C125.271 260.796 126.488 261.265 127.762 261.452C129.037 261.639 130.337 261.54 131.569 261.161C134.138 260.603 136.614 259.677 138.919 258.411C143.563 255.821 147.88 252.686 151.779 249.071C167.429 234.435 179.586 216.464 187.349 196.491C189.234 191.486 190.51 186.272 191.149 180.961C191.461 178.297 191.38 175.602 190.909 172.961C190.495 170.299 189.069 167.899 186.929 166.261Z" fill="url(#paint19_linear_0_1)"/>
<path d="M114.939 161.611C112.781 163.245 111.346 165.656 110.939 168.331C110.469 170.972 110.385 173.667 110.689 176.331C111.335 181.638 112.614 186.848 114.499 191.851C122.266 211.832 134.441 229.801 150.119 244.421C154.015 248.036 158.329 251.171 162.969 253.761C165.273 255.026 167.749 255.949 170.319 256.501C171.55 256.88 172.849 256.979 174.123 256.793C175.397 256.606 176.614 256.139 177.684 255.423C178.755 254.708 179.653 253.763 180.312 252.657C180.972 251.552 181.378 250.313 181.499 249.031C181.973 246.442 182.067 243.798 181.779 241.181C181.145 235.903 179.883 230.72 178.019 225.741C170.484 205.669 158.521 187.553 143.019 172.741C139.113 169.086 134.782 165.913 130.119 163.291C127.784 161.989 125.27 161.036 122.659 160.461C120.034 159.829 117.266 160.241 114.939 161.611ZM114.939 161.611C117.267 160.234 120.041 159.821 122.669 160.461C125.291 161.022 127.818 161.961 130.169 163.251C134.864 165.855 139.229 169.014 143.169 172.661C158.892 187.348 171.098 205.392 178.879 225.451C180.779 230.492 182.065 235.743 182.709 241.091C183.021 243.799 182.936 246.538 182.459 249.221C182.187 250.583 181.715 251.897 181.059 253.121C180.39 254.374 179.43 255.447 178.259 256.251C177.055 257.028 175.684 257.507 174.259 257.651C172.88 257.786 171.489 257.718 170.129 257.451C167.465 256.869 164.901 255.898 162.519 254.571C157.82 251.931 153.455 248.734 149.519 245.051C141.705 237.694 134.8 229.429 128.949 220.431C122.987 211.522 118.1 201.939 114.389 191.881C112.523 186.86 111.267 181.632 110.649 176.311C110.356 173.645 110.45 170.95 110.929 168.311C111.349 165.643 112.786 163.242 114.939 161.611Z" fill="url(#paint20_linear_0_1)"/>
<path d="M113.289 162.741C111.131 164.375 109.696 166.786 109.289 169.461C108.819 172.102 108.735 174.797 109.039 177.461C109.685 182.768 110.964 187.978 112.849 192.981C116.643 202.982 121.625 212.49 127.689 221.301C133.616 230.182 140.574 238.329 148.419 245.571C152.315 249.186 156.629 252.321 161.269 254.911C163.577 256.176 166.056 257.099 168.629 257.651C169.859 258.03 171.158 258.13 172.432 257.943C173.705 257.757 174.921 257.289 175.991 256.573C177.061 255.858 177.958 254.913 178.616 253.807C179.275 252.701 179.679 251.463 179.799 250.181C180.273 247.595 180.367 244.954 180.079 242.341C179.459 237.061 178.21 231.875 176.359 226.891C168.824 206.819 156.861 188.703 141.359 173.891C137.453 170.235 133.122 167.063 128.459 164.441C126.122 163.143 123.609 162.19 120.999 161.611C118.38 160.976 115.616 161.381 113.289 162.741ZM113.289 162.741C115.621 161.365 118.398 160.952 121.029 161.591C123.648 162.153 126.171 163.093 128.519 164.381C133.213 166.988 137.577 170.147 141.519 173.791C157.235 188.481 169.437 206.525 177.219 226.581C179.12 231.625 180.406 236.88 181.049 242.231C181.361 244.939 181.276 247.678 180.799 250.361C180.531 251.721 180.059 253.033 179.399 254.251C178.733 255.506 177.772 256.58 176.599 257.381C175.395 258.158 174.024 258.637 172.599 258.781C171.22 258.92 169.828 258.853 168.469 258.581C165.807 257.998 163.244 257.031 160.859 255.711C156.16 253.067 151.795 249.867 147.859 246.181C132.295 231.327 120.283 213.152 112.719 193.011C110.857 187.989 109.601 182.762 108.979 177.441C108.686 174.775 108.78 172.08 109.259 169.441C109.684 166.77 111.129 164.368 113.289 162.741Z" fill="url(#paint21_linear_0_1)"/>
<path d="M111.639 163.951C109.484 165.587 108.049 167.997 107.639 170.671C107.169 173.312 107.085 176.007 107.389 178.671C108.036 183.981 109.315 189.195 111.199 194.201C118.97 214.161 131.13 232.117 146.779 246.741C150.675 250.356 154.989 253.491 159.629 256.081C161.938 257.345 164.417 258.271 166.989 258.831C168.22 259.21 169.521 259.309 170.795 259.122C172.07 258.935 173.287 258.466 174.358 257.75C175.429 257.034 176.326 256.088 176.985 254.981C177.645 253.874 178.049 252.634 178.169 251.351C178.634 248.764 178.725 246.124 178.439 243.511C177.824 238.231 176.575 233.043 174.719 228.061C167.184 207.989 155.221 189.873 139.719 175.061C135.817 171.406 131.489 168.233 126.829 165.611C124.489 164.314 121.973 163.364 119.359 162.791C116.733 162.156 113.963 162.573 111.639 163.951ZM111.639 163.951C113.972 162.579 116.747 162.167 119.379 162.801C121.996 163.368 124.519 164.308 126.869 165.591C131.562 168.198 135.927 171.357 139.869 175.001C147.741 182.277 154.726 190.457 160.679 199.371C166.76 208.216 171.759 217.757 175.569 227.791C177.47 232.835 178.756 238.09 179.399 243.441C179.715 246.149 179.631 248.888 179.149 251.571C178.88 252.934 178.408 254.248 177.749 255.471C177.095 256.736 176.13 257.813 174.947 258.604C173.763 259.394 172.398 259.872 170.979 259.991C169.6 260.13 168.208 260.063 166.849 259.791C164.187 259.206 161.624 258.239 159.239 256.921C154.54 254.277 150.175 251.077 146.239 247.391C138.41 240.026 131.491 231.751 125.629 222.741C119.688 213.841 114.818 204.272 111.119 194.231C109.25 189.21 107.991 183.983 107.369 178.661C107.077 175.995 107.171 173.301 107.649 170.661C108.063 167.994 109.493 165.589 111.639 163.951Z" fill="url(#paint22_linear_0_1)"/>
<path d="M109.118 165.261C106.963 166.897 105.529 169.307 105.118 171.981C104.648 174.622 104.564 177.317 104.868 179.981C105.515 185.291 106.794 190.505 108.678 195.511C116.431 215.489 128.589 233.462 144.248 248.091C148.144 251.706 152.458 254.841 157.098 257.431C159.404 258.695 161.879 259.621 164.448 260.181C165.68 260.56 166.98 260.659 168.255 260.472C169.529 260.285 170.746 259.816 171.817 259.1C172.888 258.384 173.786 257.438 174.445 256.331C175.104 255.224 175.508 253.984 175.628 252.701C176.102 250.115 176.196 247.474 175.908 244.861C175.288 239.581 174.039 234.395 172.188 229.411C164.646 209.342 152.684 191.228 137.188 176.411C133.28 172.759 128.949 169.586 124.288 166.961C121.953 165.662 119.439 164.712 116.828 164.141C114.21 163.501 111.446 163.903 109.118 165.261ZM109.118 165.261C111.45 163.894 114.22 163.481 116.848 164.111C119.471 164.675 121.998 165.618 124.348 166.911C129.048 169.507 133.414 172.667 137.348 176.321C153.068 191.006 165.275 209.047 173.058 229.101C174.933 234.145 176.196 239.396 176.818 244.741C177.13 247.449 177.046 250.188 176.568 252.871C176.294 254.233 175.823 255.547 175.168 256.771C174.495 258.021 173.535 259.093 172.368 259.901C171.166 260.679 169.794 261.155 168.368 261.291C166.989 261.431 165.597 261.363 164.238 261.091C161.576 260.508 159.013 259.541 156.628 258.221C151.929 255.577 147.564 252.377 143.628 248.691C135.834 241.336 128.948 233.074 123.118 224.081C117.157 215.175 112.269 205.595 108.558 195.541C106.692 190.52 105.437 185.292 104.818 179.971C104.526 177.305 104.62 174.611 105.098 171.971C105.52 169.299 106.961 166.894 109.118 165.261Z" fill="url(#paint23_linear_0_1)"/>
<path d="M149.989 152.971C147.309 153.152 144.802 154.359 142.989 156.341C141.137 158.272 139.574 160.462 138.349 162.841C135.935 167.605 134.102 172.641 132.889 177.841C128.228 198.758 128.344 220.456 133.229 241.321C134.459 246.494 136.305 251.499 138.729 256.231C139.94 258.565 141.482 260.711 143.309 262.601C144.122 263.6 145.148 264.406 146.311 264.959C147.474 265.512 148.746 265.799 150.034 265.799C151.322 265.799 152.594 265.512 153.758 264.959C154.921 264.406 155.946 263.6 156.759 262.601C158.586 260.708 160.132 258.563 161.349 256.231C163.77 251.499 165.613 246.493 166.839 241.321C171.721 220.456 171.841 198.759 167.189 177.841C165.971 172.641 164.135 167.605 161.719 162.841C160.502 160.46 158.942 158.27 157.089 156.341C155.252 154.336 152.705 153.127 149.989 152.971ZM149.989 152.971C152.69 153.126 155.225 154.323 157.059 156.311C158.925 158.237 160.502 160.423 161.739 162.801C164.178 167.562 166.038 172.598 167.279 177.801C172.178 198.746 172.294 220.525 167.619 241.521C166.403 246.797 164.557 251.907 162.119 256.741C160.868 259.163 159.275 261.392 157.389 263.361C156.407 264.342 155.285 265.171 154.059 265.821C152.807 266.494 151.411 266.854 149.989 266.871C148.569 266.844 147.175 266.485 145.919 265.821C144.694 265.171 143.571 264.342 142.589 263.361C140.698 261.398 139.104 259.167 137.859 256.741C135.429 251.931 133.579 246.848 132.349 241.601C127.672 220.605 127.792 198.825 132.699 177.881C133.941 172.678 135.8 167.642 138.239 162.881C139.477 160.506 141.05 158.32 142.909 156.391C144.736 154.376 147.275 153.149 149.989 152.971Z" fill="url(#paint24_linear_0_1)"/>
<path d="M147.969 153.031C145.288 153.21 142.781 154.418 140.969 156.401C139.119 158.331 137.556 160.516 136.329 162.891C133.913 167.654 132.08 172.69 130.869 177.891C126.207 198.808 126.324 220.506 131.209 241.371C132.434 246.545 134.281 251.551 136.709 256.281C137.919 258.615 139.462 260.761 141.289 262.651C142.102 263.65 143.127 264.456 144.291 265.009C145.454 265.562 146.726 265.849 148.014 265.849C149.302 265.849 150.574 265.562 151.737 265.009C152.901 264.456 153.926 263.65 154.739 262.651C156.566 260.758 158.111 258.613 159.329 256.281C161.75 251.549 163.593 246.543 164.819 241.371C169.701 220.506 169.821 198.809 165.169 177.891C163.95 172.691 162.114 167.655 159.699 162.891C158.479 160.512 156.915 158.325 155.059 156.401C153.225 154.397 150.681 153.187 147.969 153.031ZM147.969 153.031C150.671 153.181 153.207 154.38 155.039 156.371C156.905 158.297 158.481 160.483 159.719 162.861C162.157 167.622 164.017 172.658 165.259 177.861C170.158 198.809 170.274 220.592 165.599 241.591C164.388 246.843 162.548 251.93 160.119 256.741C158.872 259.163 157.282 261.393 155.399 263.361C154.415 264.339 153.293 265.168 152.069 265.821C150.821 266.504 149.421 266.862 147.999 266.862C146.576 266.862 145.177 266.504 143.929 265.821C142.701 265.17 141.578 264.338 140.599 263.351C138.708 261.391 137.114 259.164 135.869 256.741C133.434 251.933 131.584 246.85 130.359 241.601C127.949 231.139 126.801 220.426 126.939 209.691C126.937 198.974 128.199 188.293 130.699 177.871C131.944 172.668 133.808 167.632 136.249 162.871C137.483 160.493 139.056 158.307 140.919 156.381C142.744 154.391 145.273 153.189 147.969 153.031Z" fill="url(#paint25_linear_0_1)"/>
<path d="M145.94 153.091C143.257 153.261 140.746 154.47 138.94 156.461C137.081 158.384 135.518 160.571 134.3 162.951C131.883 167.714 130.047 172.75 128.83 177.951C124.178 198.869 124.298 220.566 129.18 241.431C130.406 246.603 132.249 251.609 134.67 256.341C135.887 258.673 137.433 260.818 139.26 262.711C140.074 263.709 141.1 264.513 142.263 265.065C143.426 265.617 144.697 265.903 145.985 265.903C147.272 265.903 148.544 265.617 149.707 265.065C150.87 264.513 151.896 263.709 152.71 262.711C154.535 260.819 156.077 258.673 157.29 256.341C159.718 251.611 161.565 246.605 162.79 241.431C165.283 231.049 166.541 220.409 166.54 209.731C166.678 199.04 165.533 188.37 163.13 177.951C161.921 172.749 160.088 167.713 157.67 162.951C156.449 160.573 154.886 158.386 153.03 156.461C151.202 154.45 148.654 153.239 145.94 153.091ZM145.94 153.091C148.645 153.239 151.186 154.437 153.02 156.431C154.885 158.357 156.461 160.543 157.7 162.921C160.14 167.682 162 172.718 163.24 177.921C165.74 188.343 167.002 199.024 167 209.741C167.138 220.476 165.99 231.189 163.58 241.651C162.359 246.901 160.509 251.985 158.07 256.791C156.825 259.214 155.231 261.441 153.34 263.401C152.364 264.387 151.245 265.22 150.02 265.871C148.77 266.554 147.369 266.912 145.945 266.912C144.521 266.912 143.12 266.554 141.87 265.871C140.645 265.22 139.526 264.387 138.55 263.401C136.659 261.441 135.065 259.214 133.82 256.791C131.381 251.985 129.531 246.901 128.31 241.651C125.9 231.189 124.752 220.476 124.89 209.741C124.888 199.024 126.15 188.343 128.65 177.921C129.89 172.718 131.75 167.682 134.19 162.921C135.429 160.543 137.005 158.357 138.87 156.431C140.702 154.44 143.238 153.241 145.94 153.091Z" fill="url(#paint26_linear_0_1)"/>
<path d="M143.118 152.741C140.439 152.914 137.93 154.119 136.118 156.101C134.268 158.032 132.708 160.221 131.488 162.601C129.073 167.365 127.236 172.401 126.018 177.601C121.37 198.522 121.486 220.221 126.358 241.091C127.592 246.259 129.439 251.261 131.858 255.991C133.07 258.327 134.616 260.473 136.448 262.361C137.261 263.36 138.287 264.166 139.45 264.719C140.613 265.272 141.885 265.559 143.174 265.559C144.462 265.559 145.734 265.272 146.897 264.719C148.06 264.166 149.086 263.36 149.899 262.361C151.727 260.472 153.27 258.326 154.478 255.991C156.898 251.261 158.744 246.259 159.978 241.091C162.471 230.709 163.73 220.069 163.728 209.391C163.866 198.696 162.721 188.024 160.318 177.601C159.104 172.401 157.271 167.365 154.858 162.601C153.632 160.223 152.069 158.034 150.218 156.101C148.383 154.095 145.834 152.889 143.118 152.741ZM143.118 152.741C145.823 152.893 148.362 154.091 150.198 156.081C152.06 158.004 153.633 160.187 154.868 162.561C157.307 167.322 159.167 172.358 160.409 177.561C165.316 198.505 165.436 220.285 160.758 241.281C159.536 246.531 157.686 251.614 155.248 256.421C154.004 258.847 152.41 261.078 150.518 263.041C149.539 264.025 148.416 264.854 147.188 265.501C145.932 266.156 144.536 266.499 143.118 266.501C141.702 266.493 140.308 266.15 139.049 265.501C137.823 264.851 136.7 264.022 135.718 263.041C133.833 261.075 132.243 258.845 130.998 256.421C128.556 251.616 126.706 246.532 125.488 241.281C120.814 220.285 120.93 198.506 125.828 177.561C127.07 172.358 128.93 167.322 131.368 162.561C132.604 160.184 134.181 158.001 136.049 156.081C137.88 154.09 140.417 152.891 143.118 152.741Z" fill="url(#paint27_linear_0_1)"/>
<path d="M223.04 207.671C222.993 226.656 215.886 244.944 203.102 258.98C190.318 273.015 172.771 281.794 153.874 283.61C134.976 285.425 116.079 280.147 100.857 268.802C85.6349 257.457 75.1765 240.856 71.5157 222.228C67.8548 203.599 71.2532 184.275 81.05 168.014C90.8467 151.752 106.341 139.715 124.521 134.245C142.7 128.774 162.264 130.26 179.409 138.414C196.553 146.568 210.052 160.806 217.28 178.361C221.106 187.658 223.063 197.618 223.04 207.671ZM223.04 207.671C223.065 188.727 216.045 170.451 203.343 156.397C190.641 142.342 173.166 133.514 154.316 131.628C135.467 129.743 116.589 134.935 101.355 146.195C86.1213 157.455 75.6194 173.979 71.892 192.552C68.1646 211.126 71.478 230.422 81.1879 246.688C90.8978 262.954 106.31 275.028 124.428 280.561C142.546 286.094 162.074 284.692 179.215 276.626C196.356 268.56 209.884 254.408 217.17 236.921C221.027 227.651 223.022 217.712 223.04 207.671Z" fill="url(#paint28_linear_0_1)"/>
<path d="M148.039 216.671C153.286 216.671 157.539 212.418 157.539 207.171C157.539 201.925 153.286 197.671 148.039 197.671C142.792 197.671 138.539 201.925 138.539 207.171C138.539 212.418 142.792 216.671 148.039 216.671Z" fill="url(#paint29_linear_0_1)"/>
<path opacity="0.1" d="M251.93 0H33.0699C14.8059 0 0 14.806 0 33.07V486.93C0 505.194 14.8059 520 33.0699 520H251.93C270.194 520 285 505.194 285 486.93V33.07C285 14.806 270.194 0 251.93 0Z" fill="white"/>
<defs>
<linearGradient id="paint0_linear_0_1" x1="56" y1="320.131" x2="150.24" y2="320.131" gradientUnits="userSpaceOnUse">
<stop stop-color="#101111"/>
<stop offset="0.31" stop-color="#141515"/>
<stop offset="0.63" stop-color="#212121"/>
<stop offset="0.92" stop-color="#333333"/>
</linearGradient>
<linearGradient id="paint1_linear_0_1" x1="61.75" y1="277.461" x2="86.45" y2="277.461" gradientUnits="userSpaceOnUse">
<stop stop-color="#101111"/>
<stop offset="0.31" stop-color="#141515"/>
<stop offset="0.63" stop-color="#212121"/>
<stop offset="0.92" stop-color="#333333"/>
</linearGradient>
<linearGradient id="paint2_linear_0_1" x1="79.5593" y1="285.571" x2="95.5693" y2="285.571" gradientUnits="userSpaceOnUse">
<stop stop-color="#101111"/>
<stop offset="0.31" stop-color="#141515"/>
<stop offset="0.63" stop-color="#212121"/>
<stop offset="0.92" stop-color="#333333"/>
</linearGradient>
<linearGradient id="paint3_linear_0_1" x1="95.709" y1="300.271" x2="106.189" y2="300.271" gradientUnits="userSpaceOnUse">
<stop stop-color="#101111"/>
<stop offset="0.31" stop-color="#141515"/>
<stop offset="0.63" stop-color="#212121"/>
<stop offset="0.92" stop-color="#333333"/>
</linearGradient>
<linearGradient id="paint4_linear_0_1" x1="154.509" y1="320.131" x2="248.759" y2="320.131" gradientUnits="userSpaceOnUse">
<stop stop-color="#101111"/>
<stop offset="0.31" stop-color="#141515"/>
<stop offset="0.63" stop-color="#212121"/>
<stop offset="0.92" stop-color="#333333"/>
</linearGradient>
<linearGradient id="paint5_linear_0_1" x1="218.3" y1="277.461" x2="243" y2="277.461" gradientUnits="userSpaceOnUse">
<stop stop-color="#101111"/>
<stop offset="0.31" stop-color="#141515"/>
<stop offset="0.63" stop-color="#212121"/>
<stop offset="0.92" stop-color="#333333"/>
</linearGradient>
<linearGradient id="paint6_linear_0_1" x1="209.189" y1="285.571" x2="225.19" y2="285.571" gradientUnits="userSpaceOnUse">
<stop stop-color="#101111"/>
<stop offset="0.31" stop-color="#141515"/>
<stop offset="0.63" stop-color="#212121"/>
<stop offset="0.92" stop-color="#333333"/>
</linearGradient>
<linearGradient id="paint7_linear_0_1" x1="198.559" y1="300.271" x2="209.039" y2="300.271" gradientUnits="userSpaceOnUse">
<stop stop-color="#101111"/>
<stop offset="0.31" stop-color="#141515"/>
<stop offset="0.63" stop-color="#212121"/>
<stop offset="0.92" stop-color="#333333"/>
</linearGradient>
<linearGradient id="paint8_linear_0_1" x1="147.129" y1="236.291" x2="147.129" y2="167.991" gradientUnits="userSpaceOnUse">
<stop offset="0.02"/>
<stop offset="0.05" stop-color="#03090B"/>
<stop offset="0.25" stop-color="#153E4E"/>
<stop offset="0.44" stop-color="#246B87"/>
<stop offset="0.62" stop-color="#308DB2"/>
<stop offset="0.77" stop-color="#38A6D2"/>
<stop offset="0.91" stop-color="#3DB6E5"/>
<stop offset="1" stop-color="#3FBBEC"/>
</linearGradient>
<linearGradient id="paint9_linear_0_1" x1="146.129" y1="238.291" x2="146.129" y2="169.991" gradientUnits="userSpaceOnUse">
<stop offset="0.02"/>
<stop offset="0.05" stop-color="#03090B"/>
<stop offset="0.25" stop-color="#153E4E"/>
<stop offset="0.44" stop-color="#246B87"/>
<stop offset="0.62" stop-color="#308DB2"/>
<stop offset="0.77" stop-color="#38A6D2"/>
<stop offset="0.91" stop-color="#3DB6E5"/>
<stop offset="1" stop-color="#3FBBEC"/>
</linearGradient>
<linearGradient id="paint10_linear_0_1" x1="145.129" y1="240.291" x2="145.129" y2="171.991" gradientUnits="userSpaceOnUse">
<stop offset="0.02"/>
<stop offset="0.05" stop-color="#03090B"/>
<stop offset="0.25" stop-color="#153E4E"/>
<stop offset="0.44" stop-color="#246B87"/>
<stop offset="0.62" stop-color="#308DB2"/>
<stop offset="0.77" stop-color="#38A6D2"/>
<stop offset="0.91" stop-color="#3DB6E5"/>
<stop offset="1" stop-color="#3FBBEC"/>
</linearGradient>
<linearGradient id="paint11_linear_0_1" x1="144.129" y1="243.291" x2="144.129" y2="174.991" gradientUnits="userSpaceOnUse">
<stop offset="0.02"/>
<stop offset="0.05" stop-color="#03090B"/>
<stop offset="0.25" stop-color="#153E4E"/>
<stop offset="0.44" stop-color="#246B87"/>
<stop offset="0.62" stop-color="#308DB2"/>
<stop offset="0.77" stop-color="#38A6D2"/>
<stop offset="0.91" stop-color="#3DB6E5"/>
<stop offset="1" stop-color="#3FBBEC"/>
</linearGradient>
<linearGradient id="paint12_linear_0_1" x1="143.33" y1="227.861" x2="143.33" y2="168.171" gradientUnits="userSpaceOnUse">
<stop offset="0.02"/>
<stop offset="0.05" stop-color="#03090B"/>
<stop offset="0.25" stop-color="#153E4E"/>
<stop offset="0.44" stop-color="#246B87"/>
<stop offset="0.62" stop-color="#308DB2"/>
<stop offset="0.77" stop-color="#38A6D2"/>
<stop offset="0.91" stop-color="#3DB6E5"/>
<stop offset="1" stop-color="#3FBBEC"/>
</linearGradient>
<linearGradient id="paint13_linear_0_1" x1="143.97" y1="230.011" x2="143.97" y2="170.311" gradientUnits="userSpaceOnUse">
<stop offset="0.02"/>
<stop offset="0.05" stop-color="#03090B"/>
<stop offset="0.25" stop-color="#153E4E"/>
<stop offset="0.44" stop-color="#246B87"/>
<stop offset="0.62" stop-color="#308DB2"/>
<stop offset="0.77" stop-color="#38A6D2"/>
<stop offset="0.91" stop-color="#3DB6E5"/>
<stop offset="1" stop-color="#3FBBEC"/>
</linearGradient>
<linearGradient id="paint14_linear_0_1" x1="144.61" y1="232.151" x2="144.61" y2="172.451" gradientUnits="userSpaceOnUse">
<stop offset="0.02"/>
<stop offset="0.05" stop-color="#03090B"/>
<stop offset="0.25" stop-color="#153E4E"/>
<stop offset="0.44" stop-color="#246B87"/>
<stop offset="0.62" stop-color="#308DB2"/>
<stop offset="0.77" stop-color="#38A6D2"/>
<stop offset="0.91" stop-color="#3DB6E5"/>
<stop offset="1" stop-color="#3FBBEC"/>
</linearGradient>
<linearGradient id="paint15_linear_0_1" x1="145.928" y1="235.021" x2="145.928" y2="175.321" gradientUnits="userSpaceOnUse">
<stop offset="0.02"/>
<stop offset="0.05" stop-color="#03090B"/>
<stop offset="0.25" stop-color="#153E4E"/>
<stop offset="0.44" stop-color="#246B87"/>
<stop offset="0.62" stop-color="#308DB2"/>
<stop offset="0.77" stop-color="#38A6D2"/>
<stop offset="0.91" stop-color="#3DB6E5"/>
<stop offset="1" stop-color="#3FBBEC"/>
</linearGradient>
<linearGradient id="paint16_linear_0_1" x1="149.369" y1="258.721" x2="149.369" y2="160.671" gradientUnits="userSpaceOnUse">
<stop offset="0.02"/>
<stop offset="0.05" stop-color="#03090B"/>
<stop offset="0.25" stop-color="#153E4E"/>
<stop offset="0.44" stop-color="#246B87"/>
<stop offset="0.62" stop-color="#308DB2"/>
<stop offset="0.77" stop-color="#38A6D2"/>
<stop offset="0.91" stop-color="#3DB6E5"/>
<stop offset="1" stop-color="#3FBBEC"/>
</linearGradient>
<linearGradient id="paint17_linear_0_1" x1="151.02" y1="259.891" x2="151.02" y2="161.841" gradientUnits="userSpaceOnUse">
<stop offset="0.02"/>
<stop offset="0.05" stop-color="#03090B"/>
<stop offset="0.25" stop-color="#153E4E"/>
<stop offset="0.44" stop-color="#246B87"/>
<stop offset="0.62" stop-color="#308DB2"/>
<stop offset="0.77" stop-color="#38A6D2"/>
<stop offset="0.91" stop-color="#3DB6E5"/>
<stop offset="1" stop-color="#3FBBEC"/>
</linearGradient>
<linearGradient id="paint18_linear_0_1" x1="152.669" y1="261.061" x2="152.669" y2="163.021" gradientUnits="userSpaceOnUse">
<stop offset="0.02"/>
<stop offset="0.05" stop-color="#03090B"/>
<stop offset="0.25" stop-color="#153E4E"/>
<stop offset="0.44" stop-color="#246B87"/>
<stop offset="0.62" stop-color="#308DB2"/>
<stop offset="0.77" stop-color="#38A6D2"/>
<stop offset="0.91" stop-color="#3DB6E5"/>
<stop offset="1" stop-color="#3FBBEC"/>
</linearGradient>
<linearGradient id="paint19_linear_0_1" x1="155.209" y1="262.371" x2="155.209" y2="164.331" gradientUnits="userSpaceOnUse">
<stop offset="0.02"/>
<stop offset="0.05" stop-color="#03090B"/>
<stop offset="0.25" stop-color="#153E4E"/>
<stop offset="0.44" stop-color="#246B87"/>
<stop offset="0.62" stop-color="#308DB2"/>
<stop offset="0.77" stop-color="#38A6D2"/>
<stop offset="0.91" stop-color="#3DB6E5"/>
<stop offset="1" stop-color="#3FBBEC"/>
</linearGradient>
<linearGradient id="paint20_linear_0_1" x1="146.649" y1="257.721" x2="146.649" y2="159.671" gradientUnits="userSpaceOnUse">
<stop offset="0.02"/>
<stop offset="0.05" stop-color="#03090B"/>
<stop offset="0.25" stop-color="#153E4E"/>
<stop offset="0.44" stop-color="#246B87"/>
<stop offset="0.62" stop-color="#308DB2"/>
<stop offset="0.77" stop-color="#38A6D2"/>
<stop offset="0.91" stop-color="#3DB6E5"/>
<stop offset="1" stop-color="#3FBBEC"/>
</linearGradient>
<linearGradient id="paint21_linear_0_1" x1="145.009" y1="258.891" x2="145.009" y2="160.841" gradientUnits="userSpaceOnUse">
<stop offset="0.02"/>
<stop offset="0.05" stop-color="#03090B"/>
<stop offset="0.25" stop-color="#153E4E"/>
<stop offset="0.44" stop-color="#246B87"/>
<stop offset="0.62" stop-color="#308DB2"/>
<stop offset="0.77" stop-color="#38A6D2"/>
<stop offset="0.91" stop-color="#3DB6E5"/>
<stop offset="1" stop-color="#3FBBEC"/>
</linearGradient>
<linearGradient id="paint22_linear_0_1" x1="143.359" y1="260.061" x2="143.359" y2="162.021" gradientUnits="userSpaceOnUse">
<stop offset="0.02"/>
<stop offset="0.05" stop-color="#03090B"/>
<stop offset="0.25" stop-color="#153E4E"/>
<stop offset="0.44" stop-color="#246B87"/>
<stop offset="0.62" stop-color="#308DB2"/>
<stop offset="0.77" stop-color="#38A6D2"/>
<stop offset="0.91" stop-color="#3DB6E5"/>
<stop offset="1" stop-color="#3FBBEC"/>
</linearGradient>
<linearGradient id="paint23_linear_0_1" x1="140.808" y1="261.371" x2="140.808" y2="163.331" gradientUnits="userSpaceOnUse">
<stop offset="0.02"/>
<stop offset="0.05" stop-color="#03090B"/>
<stop offset="0.25" stop-color="#153E4E"/>
<stop offset="0.44" stop-color="#246B87"/>
<stop offset="0.62" stop-color="#308DB2"/>
<stop offset="0.77" stop-color="#38A6D2"/>
<stop offset="0.91" stop-color="#3DB6E5"/>
<stop offset="1" stop-color="#3FBBEC"/>
</linearGradient>
<linearGradient id="paint24_linear_0_1" x1="149.989" y1="266.821" x2="149.989" y2="152.471" gradientUnits="userSpaceOnUse">
<stop offset="0.02"/>
<stop offset="0.05" stop-color="#03090B"/>
<stop offset="0.25" stop-color="#153E4E"/>
<stop offset="0.44" stop-color="#246B87"/>
<stop offset="0.62" stop-color="#308DB2"/>
<stop offset="0.77" stop-color="#38A6D2"/>
<stop offset="0.91" stop-color="#3DB6E5"/>
<stop offset="1" stop-color="#3FBBEC"/>
</linearGradient>
<linearGradient id="paint25_linear_0_1" x1="147.969" y1="266.871" x2="147.969" y2="152.531" gradientUnits="userSpaceOnUse">
<stop offset="0.02"/>
<stop offset="0.05" stop-color="#03090B"/>
<stop offset="0.25" stop-color="#153E4E"/>
<stop offset="0.44" stop-color="#246B87"/>
<stop offset="0.62" stop-color="#308DB2"/>
<stop offset="0.77" stop-color="#38A6D2"/>
<stop offset="0.91" stop-color="#3DB6E5"/>
<stop offset="1" stop-color="#3FBBEC"/>
</linearGradient>
<linearGradient id="paint26_linear_0_1" x1="145.95" y1="266.931" x2="145.95" y2="152.591" gradientUnits="userSpaceOnUse">
<stop offset="0.02"/>
<stop offset="0.05" stop-color="#03090B"/>
<stop offset="0.25" stop-color="#153E4E"/>
<stop offset="0.44" stop-color="#246B87"/>
<stop offset="0.62" stop-color="#308DB2"/>
<stop offset="0.77" stop-color="#38A6D2"/>
<stop offset="0.91" stop-color="#3DB6E5"/>
<stop offset="1" stop-color="#3FBBEC"/>
</linearGradient>
<linearGradient id="paint27_linear_0_1" x1="143.098" y1="266.611" x2="143.098" y2="152.261" gradientUnits="userSpaceOnUse">
<stop offset="0.02"/>
<stop offset="0.05" stop-color="#03090B"/>
<stop offset="0.25" stop-color="#153E4E"/>
<stop offset="0.44" stop-color="#246B87"/>
<stop offset="0.62" stop-color="#308DB2"/>
<stop offset="0.77" stop-color="#38A6D2"/>
<stop offset="0.91" stop-color="#3DB6E5"/>
<stop offset="1" stop-color="#3FBBEC"/>
</linearGradient>
<linearGradient id="paint28_linear_0_1" x1="146.29" y1="284.671" x2="146.29" y2="130.671" gradientUnits="userSpaceOnUse">
<stop offset="0.02"/>
<stop offset="0.05" stop-color="#03090B"/>
<stop offset="0.25" stop-color="#153E4E"/>
<stop offset="0.44" stop-color="#246B87"/>
<stop offset="0.62" stop-color="#308DB2"/>
<stop offset="0.77" stop-color="#38A6D2"/>
<stop offset="0.91" stop-color="#3DB6E5"/>
<stop offset="1" stop-color="#3FBBEC"/>
</linearGradient>
<linearGradient id="paint29_linear_0_1" x1="148.039" y1="220.271" x2="148.039" y2="198.361" gradientUnits="userSpaceOnUse">
<stop offset="0.02"/>
<stop offset="0.05" stop-color="#03090B"/>
<stop offset="0.26" stop-color="#153E4E"/>
<stop offset="0.45" stop-color="#246B87"/>
<stop offset="0.62" stop-color="#308DB2"/>
<stop offset="0.78" stop-color="#38A6D2"/>
<stop offset="0.91" stop-color="#3DB6E5"/>
<stop offset="1" stop-color="#3FBBEC"/>
</linearGradient>
</defs>
</svg>
