<svg width="285" height="521" viewBox="0 0 285 521" fill="none" xmlns="http://www.w3.org/2000/svg">
<path opacity="0.1" d="M251.93 0.609985H33.0699C14.8059 0.609985 0 15.4159 0 33.68V487.54C0 505.804 14.8059 520.61 33.0699 520.61H251.93C270.194 520.61 285 505.804 285 487.54V33.68C285 15.4159 270.194 0.609985 251.93 0.609985Z" fill="white"/>
<path d="M45.88 247.28C49.25 246.45 51.3699 247.94 53.1899 250.01C58.9899 256.59 62.0599 264.65 65.3199 272.61C65.8899 273.99 66.3201 275.43 66.9301 277.11C66.1001 277.33 65.39 277.56 64.65 277.72C61.65 278.37 60.81 280.34 61.86 282.92C62.6723 285.111 63.8638 287.142 65.38 288.92C73.91 298.27 82.58 307.49 91.27 316.69C91.91 317.37 93.08 317.56 94 317.98L94.71 317.1C93.85 316.02 93.07 314.86 92.12 313.87C84.5 305.87 76.8 298 69.24 289.95C67.452 287.965 65.8891 285.789 64.58 283.46C63.07 280.92 63.93 279.46 66.83 280.1C69.8764 280.765 72.8012 281.898 75.5 283.46C82.33 287.46 88.79 292.04 95.74 295.74C101.115 298.487 106.712 300.778 112.47 302.59C121.47 305.59 127.55 311.44 130.47 320.16C133.93 330.37 136.63 340.82 139.73 351.16C140.63 354.16 139.9 356.16 136.9 357.16C130.53 359.31 124.21 361.58 117.77 363.48C114.6 364.42 113.12 363.13 112.48 359.78C111.66 355.45 110.92 351.1 110.02 346.78C108.73 340.66 104.46 336.56 100.31 332.28C87.9301 319.533 75.66 306.67 63.5 293.69C61.91 291.99 60.98 289.55 60.14 287.3C55.43 274.68 50.85 262.02 46.24 249.37C46.0678 248.683 45.9474 247.985 45.88 247.28Z" fill="url(#paint0_linear_0_1)"/>
<path d="M51.63 244.69C53.0197 244.654 54.3959 244.97 55.63 245.61C59.1316 247.334 62.1131 249.957 64.27 253.21C70.04 261.35 72.21 271.08 76.27 280.76C72.08 279.52 69.5399 278.29 68.0699 274.39C65.2006 267.171 61.9255 260.12 58.26 253.27C56.91 250.54 54.52 248.33 51.63 244.69Z" fill="url(#paint1_linear_0_1)"/>
<path d="M85.4499 286.5C83.5718 285.783 81.8855 284.641 80.5234 283.163C79.1613 281.684 78.1606 279.91 77.5999 277.98C75.2799 271.08 72.3499 264.38 69.6999 257.59C69.381 256.815 69.381 255.945 69.6999 255.17C77.3033 264.254 82.6948 274.979 85.4499 286.5Z" fill="url(#paint2_linear_0_1)"/>
<path d="M96.0699 293C87.7199 291 87.92 284.13 85.59 278.08C92 281.46 91.1699 288.84 96.0699 293Z" fill="url(#paint3_linear_0_1)"/>
<path d="M238.64 247.28C235.26 246.45 233.14 247.94 231.32 250.01C225.52 256.59 222.45 264.65 219.19 272.61C218.62 273.99 218.19 275.43 217.58 277.11C218.41 277.33 219.13 277.56 219.86 277.72C222.86 278.37 223.7 280.34 222.65 282.92C221.838 285.111 220.646 287.142 219.13 288.92C210.6 298.27 201.93 307.49 193.24 316.69C192.6 317.37 191.44 317.56 190.51 317.98L189.8 317.1C190.66 316.02 191.44 314.86 192.39 313.87C200.01 305.87 207.71 298 215.27 289.95C217.058 287.965 218.621 285.789 219.93 283.46C221.44 280.92 220.59 279.46 217.68 280.1C214.634 280.765 211.709 281.898 209.01 283.46C202.18 287.46 195.73 292.04 188.77 295.74C183.395 298.487 177.798 300.778 172.04 302.59C163.04 305.59 156.96 311.44 154.04 320.16C150.59 330.37 147.88 340.82 144.78 351.16C143.88 354.16 144.61 356.16 147.62 357.16C153.98 359.31 160.3 361.58 166.74 363.48C169.91 364.42 171.39 363.13 172.03 359.78C172.86 355.45 173.59 351.1 174.5 346.78C175.78 340.66 180.05 336.56 184.2 332.28C196.58 319.533 208.85 306.67 221.01 293.69C222.531 291.796 223.671 289.626 224.37 287.3C229.08 274.68 233.66 262.02 238.27 249.37C238.441 248.683 238.565 247.984 238.64 247.28Z" fill="url(#paint4_linear_0_1)"/>
<path d="M232.88 244.69C231.425 244.705 229.989 245.018 228.66 245.61C225.341 247.521 222.461 250.111 220.21 253.21C214.44 261.35 212.27 271.08 208.21 280.76C212.4 279.52 214.94 278.29 216.42 274.39C219.286 267.171 222.558 260.12 226.22 253.27C227.6 250.54 230 248.33 232.88 244.69Z" fill="url(#paint5_linear_0_1)"/>
<path d="M199.07 286.5C200.949 285.788 202.637 284.646 203.998 283.167C205.359 281.688 206.356 279.912 206.91 277.98C209.23 271.08 212.16 264.38 214.82 257.59C214.98 257.207 215.062 256.795 215.062 256.38C215.062 255.965 214.98 255.553 214.82 255.17C207.212 264.251 201.82 274.977 199.07 286.5Z" fill="url(#paint6_linear_0_1)"/>
<path d="M188.44 293C196.8 291 196.59 284.13 198.92 278.08C192.49 281.46 193.34 288.84 188.44 293Z" fill="url(#paint7_linear_0_1)"/>
<path opacity="0.25" d="M130.66 442.61C174.291 442.61 209.66 439.7 209.66 436.11C209.66 432.52 174.291 429.61 130.66 429.61C87.0295 429.61 51.66 432.52 51.66 436.11C51.66 439.7 87.0295 442.61 130.66 442.61Z" fill="black"/>
<path d="M194.07 213.81C192.81 216.54 190.15 218.3 187.42 219.34C184.624 220.316 181.699 220.875 178.74 221C172.823 221.229 166.9 220.742 161.1 219.55C137.831 214.692 115.956 204.654 97.1 190.18C92.4085 186.513 88.1778 182.293 84.5 177.61C82.6557 175.235 81.1667 172.604 80.08 169.8C79.5532 168.364 79.2432 166.857 79.1601 165.33C79.0536 163.769 79.3433 162.205 80.0024 160.786C80.6614 159.366 81.6686 158.136 82.9301 157.21C84.1473 156.288 85.4956 155.553 86.9301 155.03C89.7742 154.052 92.7452 153.493 95.75 153.37C101.7 153.167 107.653 153.681 113.48 154.9C136.708 159.984 158.491 170.238 177.21 184.9C181.861 188.564 186.052 192.778 189.69 197.45C191.502 199.795 192.961 202.392 194.02 205.16C195 207.92 195.34 211.08 194.07 213.81ZM194.07 213.81C195.33 211.08 194.96 207.92 193.98 205.17C192.905 202.415 191.441 199.828 189.63 197.49C185.972 192.841 181.768 188.647 177.11 185C158.313 170.573 136.506 160.568 113.31 155.73C107.549 154.549 101.667 154.065 95.7901 154.29C92.8827 154.417 90.0093 154.966 87.2601 155.92C84.5901 156.92 82.0701 158.63 80.8901 161.2C79.7101 163.77 80.01 166.77 80.96 169.47C82.0052 172.187 83.4403 174.737 85.22 177.04C88.836 181.678 92.9958 185.864 97.61 189.51C106.863 196.836 116.95 203.042 127.66 208C138.318 213.118 149.552 216.939 161.12 219.38C166.908 220.588 172.82 221.099 178.73 220.9C181.687 220.784 184.611 220.238 187.41 219.28C190.14 218.28 192.79 216.53 194.07 213.81Z" fill="url(#paint8_linear_0_1)"/>
<path d="M193.07 215.81C191.81 218.54 189.15 220.3 186.42 221.34C183.624 222.316 180.699 222.875 177.74 223C171.823 223.229 165.9 222.742 160.1 221.55C136.831 216.692 114.956 206.654 96.1 192.18C91.4085 188.513 87.1778 184.293 83.5 179.61C81.6557 177.235 80.1667 174.604 79.08 171.8C78.5532 170.364 78.2432 168.857 78.1601 167.33C78.0536 165.769 78.3433 164.205 79.0024 162.786C79.6614 161.366 80.6686 160.136 81.9301 159.21C83.1473 158.288 84.4956 157.553 85.9301 157.03C88.7742 156.052 91.7452 155.493 94.75 155.37C100.7 155.167 106.653 155.681 112.48 156.9C135.708 161.984 157.491 172.238 176.21 186.9C180.861 190.564 185.052 194.778 188.69 199.45C190.502 201.795 191.961 204.392 193.02 207.16C194 209.92 194.34 213.08 193.07 215.81ZM193.07 215.81C194.33 213.08 193.96 209.92 192.98 207.17C191.905 204.415 190.441 201.828 188.63 199.49C184.972 194.841 180.768 190.647 176.11 187C157.313 172.573 135.506 162.568 112.31 157.73C106.549 156.549 100.667 156.065 94.7901 156.29C91.8827 156.417 89.0093 156.966 86.2601 157.92C83.5901 158.92 81.0701 160.63 79.8901 163.2C78.7101 165.77 79.01 168.77 79.96 171.47C81.0052 174.187 82.4403 176.737 84.22 179.04C87.836 183.678 91.9958 187.864 96.61 191.51C105.863 198.836 115.95 205.042 126.66 210C137.318 215.118 148.552 218.939 160.12 221.38C165.908 222.588 171.82 223.099 177.73 222.9C180.687 222.784 183.611 222.238 186.41 221.28C189.14 220.28 191.79 218.53 193.07 215.81Z" fill="url(#paint9_linear_0_1)"/>
<path d="M192.07 217.81C190.81 220.54 188.15 222.3 185.42 223.34C182.624 224.316 179.699 224.875 176.74 225C170.823 225.229 164.9 224.742 159.1 223.55C135.831 218.692 113.956 208.654 95.1 194.18C90.4085 190.513 86.1778 186.293 82.5 181.61C80.6557 179.235 79.1667 176.604 78.08 173.8C77.5532 172.364 77.2432 170.857 77.1601 169.33C77.0536 167.769 77.3433 166.205 78.0024 164.786C78.6614 163.366 79.6686 162.136 80.9301 161.21C82.1473 160.288 83.4956 159.553 84.9301 159.03C87.7742 158.052 90.7452 157.493 93.75 157.37C99.7 157.167 105.653 157.681 111.48 158.9C134.708 163.984 156.491 174.238 175.21 188.9C179.861 192.564 184.052 196.778 187.69 201.45C189.502 203.795 190.961 206.392 192.02 209.16C193 211.92 193.34 215.08 192.07 217.81ZM192.07 217.81C193.33 215.08 192.96 211.92 191.98 209.17C190.905 206.415 189.441 203.828 187.63 201.49C183.972 196.841 179.768 192.647 175.11 189C156.313 174.573 134.506 164.568 111.31 159.73C105.549 158.549 99.6667 158.065 93.7901 158.29C90.8827 158.417 88.0093 158.966 85.2601 159.92C82.5901 160.92 80.0701 162.63 78.8901 165.2C77.7101 167.77 78.01 170.77 78.96 173.47C80.0052 176.187 81.4403 178.737 83.22 181.04C86.836 185.678 90.9958 189.864 95.61 193.51C104.863 200.836 114.95 207.042 125.66 212C136.318 217.118 147.552 220.939 159.12 223.38C164.908 224.588 170.82 225.099 176.73 224.9C179.687 224.784 182.611 224.238 185.41 223.28C188.14 222.28 190.79 220.53 192.07 217.81Z" fill="url(#paint10_linear_0_1)"/>
<path d="M191.07 220.81C189.81 223.54 187.15 225.3 184.42 226.34C181.624 227.316 178.699 227.875 175.74 228C169.823 228.229 163.9 227.742 158.1 226.55C134.831 221.692 112.956 211.654 94.1 197.18C89.4085 193.513 85.1778 189.293 81.5 184.61C79.6557 182.235 78.1667 179.604 77.08 176.8C76.5532 175.364 76.2432 173.857 76.1601 172.33C76.0536 170.769 76.3433 169.205 77.0024 167.786C77.6614 166.366 78.6686 165.136 79.9301 164.21C81.1473 163.288 82.4956 162.553 83.9301 162.03C86.7742 161.052 89.7452 160.493 92.75 160.37C98.7 160.167 104.653 160.681 110.48 161.9C133.708 166.984 155.491 177.238 174.21 191.9C178.861 195.564 183.052 199.778 186.69 204.45C188.502 206.795 189.961 209.392 191.02 212.16C192 214.92 192.34 218.08 191.07 220.81ZM191.07 220.81C192.33 218.08 191.96 214.92 190.98 212.17C189.905 209.415 188.441 206.828 186.63 204.49C182.972 199.841 178.768 195.647 174.11 192C155.313 177.573 133.506 167.568 110.31 162.73C104.549 161.549 98.6667 161.065 92.7901 161.29C89.8827 161.417 87.0093 161.966 84.2601 162.92C81.5901 163.92 79.0701 165.63 77.8901 168.2C76.7101 170.77 77.01 173.77 77.96 176.47C79.0052 179.187 80.4403 181.737 82.22 184.04C85.836 188.678 89.9958 192.864 94.61 196.51C103.863 203.836 113.95 210.042 124.66 215C135.318 220.118 146.552 223.939 158.12 226.38C163.908 227.588 169.82 228.099 175.73 227.9C178.687 227.784 181.611 227.238 184.41 226.28C187.14 225.28 189.79 223.53 191.07 220.81Z" fill="url(#paint11_linear_0_1)"/>
<path d="M193 163.68C194 166.53 193.22 169.63 191.94 172.26C190.56 174.881 188.809 177.29 186.74 179.41C182.576 183.617 177.923 187.31 172.88 190.41C152.582 202.792 129.752 210.435 106.09 212.77C100.159 213.302 94.1864 213.117 88.3 212.22C85.329 211.75 82.442 210.851 79.73 209.55C78.3653 208.86 77.1115 207.97 76.01 206.91C74.862 205.846 74.0022 204.508 73.5109 203.022C73.0195 201.535 72.9125 199.949 73.1999 198.41C73.4592 196.904 73.9412 195.444 74.63 194.08C76.0407 191.42 77.8292 188.978 79.9399 186.83C84.1508 182.618 88.8509 178.925 93.9399 175.83C114.357 163.649 137.259 156.228 160.94 154.12C166.84 153.621 172.779 153.829 178.63 154.74C181.553 155.218 184.392 156.114 187.06 157.4C189.6 158.75 192 160.81 193 163.68ZM193 163.68C192.06 160.82 189.62 158.77 187 157.44C184.332 156.16 181.492 155.275 178.57 154.81C172.726 153.925 166.797 153.744 160.91 154.27C149.136 155.347 137.533 157.832 126.35 161.67C115.134 165.35 104.392 170.345 94.35 176.55C89.345 179.633 84.7256 183.302 80.59 187.48C78.5586 189.555 76.8375 191.913 75.48 194.48C74.22 197.05 73.55 200.01 74.48 202.69C75.41 205.37 77.6599 207.36 80.1899 208.69C82.8121 209.96 85.6045 210.842 88.48 211.31C94.2913 212.214 100.19 212.418 106.05 211.92C129.648 209.812 152.468 202.419 172.82 190.29C177.873 187.215 182.537 183.542 186.71 179.35C188.784 177.24 190.542 174.842 191.93 172.23C193.16 169.63 193.9 166.53 193 163.68Z" fill="url(#paint12_linear_0_1)"/>
<path d="M193.6 165.82C194.6 168.67 193.82 171.82 192.54 174.4C191.16 177.021 189.409 179.43 187.34 181.55C183.179 185.76 178.525 189.453 173.48 192.55C163.404 198.78 152.626 203.795 141.37 207.49C130.148 211.341 118.505 213.832 106.69 214.91C100.759 215.442 94.7864 215.257 88.9 214.36C85.9289 213.89 83.0419 212.991 80.3299 211.69C78.964 211.002 77.7072 210.115 76.6 209.06C75.456 207.991 74.5998 206.651 74.1104 205.164C73.6211 203.676 73.5143 202.089 73.8 200.55C74.0609 199.044 74.5427 197.585 75.23 196.22C76.6408 193.563 78.4295 191.124 80.54 188.98C84.7465 184.763 89.4473 181.069 94.54 177.98C114.957 165.799 137.859 158.378 161.54 156.27C167.44 155.771 173.379 155.979 179.23 156.89C182.155 157.364 184.995 158.263 187.66 159.56C190.24 160.9 192.67 163 193.6 165.82ZM193.6 165.82C192.65 162.96 190.22 160.91 187.6 159.58C184.931 158.302 182.092 157.416 179.17 156.95C173.323 156.065 167.39 155.884 161.5 156.41C137.941 158.755 115.213 166.373 95 178.7C89.9927 181.78 85.373 185.45 81.24 189.63C79.2068 191.704 77.4855 194.062 76.13 196.63C74.87 199.19 74.2 202.15 75.13 204.83C76.06 207.51 78.3099 209.5 80.8399 210.83C83.4597 212.105 86.2531 212.988 89.13 213.45C94.9375 214.358 100.833 214.563 106.69 214.06C130.294 211.966 153.121 204.572 173.47 192.43C178.521 189.353 183.185 185.68 187.36 181.49C189.434 179.383 191.189 176.984 192.57 174.37C193.8 171.77 194.54 168.68 193.6 165.82Z" fill="url(#paint13_linear_0_1)"/>
<path d="M194.24 168C195.24 170.86 194.46 174 193.18 176.58C191.801 179.205 190.049 181.616 187.98 183.74C183.816 187.947 179.163 191.64 174.12 194.74C153.815 207.107 130.988 214.749 107.33 217.1C101.399 217.627 95.4269 217.442 89.5401 216.55C86.5685 216.077 83.6815 215.175 80.97 213.87C79.6041 213.182 78.3472 212.295 77.24 211.24C76.1158 210.157 75.2627 208.824 74.75 207.35C74.2792 205.86 74.1728 204.279 74.44 202.74C74.6993 201.231 75.1813 199.768 75.87 198.4C77.2808 195.745 79.0657 193.307 81.1701 191.16C85.3813 186.948 90.0813 183.255 95.1701 180.16C115.592 167.991 138.491 160.575 162.17 158.46C168.07 157.956 174.01 158.164 179.86 159.08C182.785 159.55 185.625 160.447 188.29 161.74C190.88 163 193.31 165.1 194.24 168ZM194.24 168C193.24 165.14 190.86 163.1 188.24 161.76C185.572 160.482 182.732 159.599 179.81 159.14C173.964 158.247 168.031 158.062 162.14 158.59C138.56 160.922 115.809 168.541 95.58 180.88C90.5732 183.961 85.9536 187.63 81.82 191.81C79.7868 193.884 78.0655 196.242 76.71 198.81C75.45 201.37 74.78 204.33 75.71 207.01C76.64 209.69 78.8901 211.68 81.4201 213.01C84.0421 214.278 86.8346 215.157 89.71 215.62C95.5176 216.527 101.413 216.735 107.27 216.24C119.038 215.264 130.649 212.898 141.86 209.19C153.119 205.622 163.909 200.717 174 194.58C179.049 191.503 183.712 187.834 187.89 183.65C189.959 181.539 191.714 179.141 193.1 176.53C194.44 173.91 195.18 170.82 194.24 168Z" fill="url(#paint14_linear_0_1)"/>
<path d="M195.56 170.83C196.56 173.69 195.78 176.83 194.5 179.42C193.117 182.04 191.366 184.447 189.3 186.57C185.136 190.777 180.483 194.47 175.44 197.57C155.142 209.952 132.312 217.595 108.65 219.93C102.719 220.457 96.7468 220.272 90.86 219.38C87.8889 218.911 85.002 218.011 82.29 216.71C80.9254 216.02 79.6714 215.13 78.5699 214.07C77.422 213.006 76.5623 211.668 76.0709 210.182C75.5796 208.695 75.4726 207.109 75.76 205.57C76.0209 204.061 76.5027 202.599 77.1899 201.23C78.6008 198.573 80.3894 196.134 82.5 193.99C86.7062 189.772 91.407 186.079 96.5 182.99C116.917 170.809 139.819 163.388 163.5 161.28C169.4 160.776 175.34 160.984 181.19 161.9C184.113 162.378 186.952 163.274 189.62 164.56C192.2 165.91 194.63 168 195.56 170.83ZM195.56 170.83C194.62 167.98 192.18 165.93 189.56 164.6C186.893 163.317 184.053 162.431 181.13 161.97C175.286 161.082 169.357 160.897 163.47 161.42C151.695 162.501 140.093 164.988 128.91 168.83C117.694 172.51 106.952 177.505 96.91 183.71C91.905 186.793 87.2857 190.462 83.15 194.64C81.1187 196.715 79.3976 199.073 78.04 201.64C76.78 204.21 76.11 207.17 77.04 209.85C77.97 212.53 80.22 214.51 82.75 215.85C85.3733 217.117 88.1653 217.999 91.04 218.47C96.8514 219.374 102.75 219.578 108.61 219.08C132.208 216.972 155.028 209.579 175.38 197.45C180.429 194.37 185.092 190.697 189.27 186.51C191.341 184.398 193.099 182.001 194.49 179.39C195.76 176.78 196.5 173.69 195.56 170.83Z" fill="url(#paint15_linear_0_1)"/>
<path d="M171 147.87C173.156 149.5 174.591 151.908 175 154.58C175.487 157.218 175.585 159.913 175.29 162.58C174.663 167.901 173.405 173.128 171.54 178.15C163.983 198.292 151.974 216.468 136.41 231.32C132.476 235.006 128.111 238.202 123.41 240.84C121.027 242.165 118.463 243.136 115.8 243.72C114.437 243.987 113.042 244.054 111.66 243.92C110.235 243.776 108.864 243.296 107.66 242.52C106.486 241.717 105.522 240.643 104.85 239.39C104.193 238.167 103.724 236.853 103.46 235.49C102.979 232.807 102.892 230.068 103.2 227.36C103.852 222.012 105.142 216.762 107.04 211.72C114.822 191.664 127.024 173.62 142.74 158.93C146.68 155.283 151.045 152.124 155.74 149.52C158.088 148.23 160.611 147.29 163.23 146.73C165.869 146.08 168.659 146.489 171 147.87ZM171 147.87C168.666 146.509 165.894 146.107 163.27 146.75C160.655 147.324 158.139 148.278 155.8 149.58C151.14 152.202 146.812 155.374 142.91 159.03C135.126 166.36 128.247 174.595 122.42 183.56C116.469 192.433 111.588 201.98 107.88 212C106.028 216.979 104.783 222.163 104.17 227.44C103.879 230.056 103.97 232.7 104.44 235.29C104.561 236.572 104.967 237.811 105.626 238.916C106.286 240.022 107.184 240.967 108.255 241.682C109.325 242.397 110.542 242.865 111.816 243.052C113.09 243.238 114.389 243.138 115.62 242.76C118.202 242.206 120.688 241.276 123 240C127.644 237.41 131.961 234.275 135.86 230.66C143.702 223.415 150.66 215.269 156.59 206.39C162.65 197.577 167.632 188.069 171.43 178.07C173.316 173.068 174.592 167.857 175.23 162.55C175.543 159.886 175.462 157.19 174.99 154.55C174.571 151.892 173.142 149.499 171 147.87Z" fill="url(#paint16_linear_0_1)"/>
<path d="M172.62 149C174.776 150.63 176.211 153.038 176.62 155.71C177.109 158.348 177.203 161.044 176.9 163.71C176.283 169.031 175.027 174.259 173.16 179.28C165.593 199.417 153.586 217.591 138.03 232.45C134.094 236.136 129.729 239.335 125.03 241.98C122.645 243.298 120.082 244.265 117.42 244.85C116.058 245.122 114.662 245.189 113.28 245.05C111.854 244.908 110.483 244.428 109.28 243.65C108.106 242.847 107.142 241.773 106.47 240.52C105.813 239.301 105.344 237.989 105.08 236.63C104.599 233.947 104.512 231.208 104.82 228.5C105.466 223.148 106.756 217.893 108.66 212.85C112.467 202.811 117.466 193.266 123.55 184.42C129.5 175.507 136.486 167.33 144.36 160.06C148.3 156.413 152.665 153.254 157.36 150.65C159.708 149.36 162.231 148.42 164.85 147.86C167.489 147.21 170.279 147.619 172.62 149ZM172.62 149C170.286 147.639 167.514 147.237 164.89 147.88C162.277 148.459 159.761 149.412 157.42 150.71C152.76 153.332 148.432 156.504 144.53 160.16C136.746 167.493 129.864 175.727 124.03 184.69C118.096 193.567 113.229 203.113 109.53 213.13C107.677 218.112 106.432 223.3 105.82 228.58C105.529 231.193 105.62 233.834 106.09 236.42C106.211 237.702 106.617 238.941 107.277 240.046C107.936 241.152 108.834 242.097 109.905 242.812C110.975 243.527 112.192 243.995 113.466 244.182C114.74 244.368 116.039 244.268 117.27 243.89C119.84 243.338 122.316 242.415 124.62 241.15C129.264 238.56 133.581 235.425 137.48 231.81C145.322 224.565 152.28 216.419 158.21 207.54C164.25 198.737 169.215 189.243 173 179.26C174.89 174.259 176.169 169.048 176.81 163.74C177.123 161.076 177.042 158.38 176.57 155.74C176.176 153.066 174.76 150.65 172.62 149Z" fill="url(#paint17_linear_0_1)"/>
<path d="M174.27 150.21C176.417 151.848 177.85 154.252 178.27 156.92C178.748 159.559 178.842 162.254 178.55 164.92C177.932 170.241 176.676 175.469 174.81 180.49C171.101 190.532 166.221 200.101 160.27 209C154.422 217.999 147.516 226.265 139.7 233.62C135.76 237.301 131.396 240.5 126.7 243.15C124.314 244.466 121.751 245.433 119.09 246.02C117.727 246.292 116.332 246.359 114.95 246.22C113.532 246.097 112.169 245.618 110.986 244.828C109.802 244.038 108.837 242.962 108.18 241.7C107.526 240.475 107.054 239.161 106.78 237.8C106.308 235.116 106.223 232.378 106.53 229.67C107.176 224.318 108.466 219.063 110.37 214.02C114.176 203.984 119.175 194.442 125.26 185.6C131.213 176.685 138.198 168.506 146.07 161.23C150.01 157.583 154.375 154.424 159.07 151.82C161.419 150.535 163.942 149.595 166.56 149.03C169.186 148.412 171.949 148.835 174.27 150.21ZM174.27 150.21C171.936 148.847 169.163 148.449 166.54 149.1C163.926 149.671 161.409 150.621 159.07 151.92C154.41 154.542 150.082 157.714 146.18 161.37C138.396 168.703 131.514 176.938 125.68 185.9C119.746 194.777 114.879 204.323 111.18 214.34C109.327 219.322 108.082 224.51 107.47 229.79C107.179 232.403 107.27 235.044 107.74 237.63C107.86 238.913 108.264 240.153 108.923 241.259C109.583 242.366 110.48 243.312 111.551 244.029C112.622 244.745 113.839 245.214 115.113 245.401C116.388 245.588 117.689 245.489 118.92 245.11C121.489 244.55 123.964 243.624 126.27 242.36C130.914 239.77 135.231 236.635 139.13 233.02C154.782 218.386 166.936 200.415 174.69 180.44C176.578 175.435 177.858 170.221 178.5 164.91C178.807 162.246 178.727 159.551 178.26 156.91C177.843 154.246 176.414 151.846 174.27 150.21Z" fill="url(#paint18_linear_0_1)"/>
<path d="M176.81 151.52C178.964 153.153 180.398 155.559 180.81 158.23C181.296 160.868 181.394 163.563 181.1 166.23C180.473 171.551 179.215 176.778 177.35 181.8C169.8 201.95 157.799 220.136 142.24 235C138.307 238.689 133.942 241.889 129.24 244.53C126.855 245.848 124.292 246.815 121.63 247.4C120.268 247.672 118.872 247.739 117.49 247.6C116.065 247.464 114.693 246.987 113.49 246.21C112.321 245.402 111.358 244.329 110.68 243.08C110.024 241.857 109.556 240.542 109.29 239.18C108.809 236.497 108.722 233.758 109.03 231.05C109.683 225.699 110.972 220.445 112.87 215.4C116.68 205.366 121.679 195.824 127.76 186.98C133.71 178.067 140.696 169.89 148.57 162.62C152.505 158.967 156.871 155.807 161.57 153.21C163.917 151.917 166.44 150.974 169.06 150.41C171.69 149.766 174.467 150.164 176.81 151.52ZM176.81 151.52C174.475 150.162 171.703 149.764 169.08 150.41C166.466 150.981 163.949 151.931 161.61 153.23C156.952 155.855 152.625 159.027 148.72 162.68C133.228 177.5 121.266 195.613 113.72 215.68C111.866 220.652 110.617 225.829 110 231.1C109.709 233.713 109.8 236.354 110.27 238.94C110.39 240.223 110.794 241.463 111.454 242.569C112.113 243.676 113.01 244.622 114.081 245.339C115.152 246.055 116.369 246.524 117.644 246.711C118.918 246.898 120.219 246.799 121.45 246.42C124.019 245.862 126.495 244.935 128.8 243.67C133.444 241.08 137.761 237.945 141.66 234.33C157.311 219.693 169.467 201.723 177.23 181.75C179.115 176.745 180.391 171.53 181.03 166.22C181.342 163.556 181.261 160.861 180.79 158.22C180.376 155.557 178.95 153.157 176.81 151.52Z" fill="url(#paint19_linear_0_1)"/>
<path d="M104.82 146.87C102.662 148.504 101.227 150.915 100.82 153.59C100.35 156.231 100.266 158.925 100.57 161.59C101.216 166.897 102.495 172.107 104.38 177.11C112.147 197.09 124.322 215.06 140 229.68C143.896 233.295 148.21 236.43 152.85 239.02C155.154 240.285 157.63 241.208 160.2 241.76C161.431 242.138 162.73 242.238 164.004 242.052C165.278 241.865 166.495 241.397 167.565 240.682C168.636 239.967 169.534 239.022 170.194 237.916C170.853 236.811 171.259 235.572 171.38 234.29C171.854 231.701 171.948 229.056 171.66 226.44C171.026 221.162 169.764 215.979 167.9 211C160.365 190.927 148.402 172.812 132.9 158C128.994 154.344 124.663 151.171 120 148.55C117.665 147.248 115.151 146.294 112.54 145.72C109.915 145.088 107.147 145.5 104.82 146.87ZM104.82 146.87C107.148 145.492 109.922 145.08 112.55 145.72C115.172 146.28 117.699 147.22 120.05 148.51C124.746 151.113 129.11 154.273 133.05 157.92C148.773 172.606 160.98 190.651 168.76 210.71C170.66 215.751 171.946 221.002 172.59 226.35C172.902 229.058 172.817 231.796 172.34 234.48C172.068 235.842 171.596 237.156 170.94 238.38C170.271 239.633 169.311 240.706 168.14 241.51C166.936 242.286 165.565 242.766 164.14 242.91C162.761 243.044 161.37 242.977 160.01 242.71C157.346 242.127 154.782 241.157 152.4 239.83C147.701 237.189 143.336 233.993 139.4 230.31C131.586 222.953 124.681 214.687 118.83 205.69C112.868 196.78 107.981 187.197 104.27 177.14C102.404 172.119 101.148 166.891 100.53 161.57C100.237 158.904 100.331 156.209 100.81 153.57C101.23 150.902 102.667 148.501 104.82 146.87Z" fill="url(#paint20_linear_0_1)"/>
<path d="M103.17 148C101.012 149.634 99.5774 152.045 99.1701 154.72C98.7 157.361 98.6158 160.055 98.9201 162.72C99.5664 168.027 100.845 173.237 102.73 178.24C106.524 188.241 111.506 197.749 117.57 206.56C123.497 215.441 130.455 223.588 138.3 230.83C142.196 234.445 146.51 237.58 151.15 240.17C153.458 241.435 155.937 242.358 158.51 242.91C159.74 243.289 161.039 243.388 162.313 243.202C163.586 243.015 164.802 242.547 165.872 241.832C166.942 241.116 167.839 240.171 168.497 239.066C169.156 237.96 169.56 236.721 169.68 235.44C170.154 232.854 170.248 230.213 169.96 227.6C169.34 222.32 168.091 217.133 166.24 212.15C158.705 192.077 146.742 173.962 131.24 159.15C127.334 155.494 123.003 152.321 118.34 149.7C116.003 148.402 113.49 147.449 110.88 146.87C108.261 146.234 105.497 146.639 103.17 148ZM103.17 148C105.502 146.624 108.279 146.211 110.91 146.85C113.529 147.412 116.052 148.352 118.4 149.64C123.094 152.246 127.458 155.406 131.4 159.05C147.116 173.74 159.318 191.784 167.1 211.84C169.001 216.884 170.287 222.138 170.93 227.49C171.242 230.198 171.157 232.936 170.68 235.62C170.412 236.98 169.94 238.291 169.28 239.51C168.614 240.765 167.653 241.839 166.48 242.64C165.276 243.416 163.905 243.896 162.48 244.04C161.101 244.179 159.709 244.112 158.35 243.84C155.688 243.256 153.125 242.29 150.74 240.97C146.041 238.325 141.676 235.126 137.74 231.44C122.176 216.586 110.164 198.411 102.6 178.27C100.738 173.248 99.482 168.02 98.86 162.7C98.5668 160.034 98.6611 157.339 99.1401 154.7C99.5648 152.029 101.01 149.627 103.17 148Z" fill="url(#paint21_linear_0_1)"/>
<path d="M101.52 149.21C99.3648 150.846 97.9303 153.256 97.52 155.93C97.0501 158.571 96.9659 161.265 97.27 163.93C97.9171 169.24 99.1961 174.454 101.08 179.46C108.851 199.419 121.011 217.376 136.66 232C140.556 235.615 144.87 238.75 149.51 241.34C151.819 242.604 154.298 243.53 156.87 244.09C158.101 244.469 159.402 244.568 160.676 244.381C161.951 244.194 163.168 243.725 164.239 243.009C165.31 242.292 166.207 241.346 166.866 240.239C167.526 239.133 167.93 237.893 168.05 236.61C168.515 234.023 168.606 231.383 168.32 228.77C167.705 223.489 166.456 218.302 164.6 213.32C157.065 193.247 145.102 175.132 129.6 160.32C125.698 156.664 121.37 153.492 116.71 150.87C114.37 149.573 111.854 148.623 109.24 148.05C106.614 147.415 103.844 147.831 101.52 149.21ZM101.52 149.21C103.853 147.838 106.628 147.425 109.26 148.06C111.877 148.627 114.4 149.567 116.75 150.85C121.443 153.456 125.808 156.616 129.75 160.26C137.622 167.536 144.607 175.716 150.56 184.63C156.641 193.475 161.64 203.016 165.45 213.05C167.351 218.094 168.637 223.348 169.28 228.7C169.596 231.408 169.512 234.147 169.03 236.83C168.761 238.193 168.289 239.507 167.63 240.73C166.976 241.994 166.011 243.072 164.827 243.863C163.644 244.653 162.278 245.13 160.86 245.25C159.481 245.389 158.089 245.322 156.73 245.05C154.068 244.465 151.505 243.498 149.12 242.18C144.421 239.535 140.056 236.336 136.12 232.65C128.291 225.285 121.372 217.009 115.51 208C109.569 199.1 104.699 189.531 101 179.49C99.1307 174.469 97.8717 169.242 97.25 163.92C96.9577 161.254 97.0521 158.559 97.53 155.92C97.9442 153.252 99.3739 150.848 101.52 149.21Z" fill="url(#paint22_linear_0_1)"/>
<path d="M99 150.52C96.8447 152.156 95.4103 154.566 95 157.24C94.5302 159.881 94.446 162.575 94.75 165.24C95.3971 170.55 96.6762 175.764 98.56 180.77C106.313 200.748 118.471 218.72 134.13 233.35C138.026 236.965 142.34 240.1 146.98 242.69C149.286 243.954 151.761 244.88 154.33 245.44C155.561 245.819 156.862 245.918 158.136 245.731C159.411 245.544 160.628 245.075 161.699 244.359C162.77 243.642 163.667 242.696 164.327 241.589C164.986 240.483 165.39 239.243 165.51 237.96C165.984 235.374 166.078 232.733 165.79 230.12C165.17 224.84 163.921 219.653 162.07 214.67C154.528 194.601 142.566 176.487 127.07 161.67C123.162 158.017 118.831 154.845 114.17 152.22C111.834 150.921 109.321 149.971 106.71 149.4C104.092 148.76 101.328 149.162 99 150.52ZM99 150.52C101.331 149.152 104.101 148.74 106.73 149.37C109.353 149.934 111.879 150.877 114.23 152.17C118.93 154.766 123.296 157.926 127.23 161.58C142.95 176.265 155.156 194.306 162.94 214.36C164.815 219.404 166.078 224.655 166.7 230C167.011 232.708 166.927 235.446 166.45 238.13C166.176 239.491 165.704 240.805 165.05 242.03C164.377 243.28 163.417 244.352 162.25 245.16C161.047 245.937 159.675 246.414 158.25 246.55C156.871 246.689 155.479 246.622 154.12 246.35C151.458 245.766 148.895 244.8 146.51 243.48C141.81 240.836 137.446 237.636 133.51 233.95C125.716 226.595 118.83 218.333 113 209.34C107.038 200.434 102.151 190.854 98.4399 180.8C96.5739 175.779 95.3182 170.551 94.6999 165.23C94.4077 162.564 94.502 159.869 94.98 157.23C95.4018 154.558 96.8426 152.153 99 150.52Z" fill="url(#paint23_linear_0_1)"/>
<path d="M139.87 138.23C137.19 138.411 134.683 139.618 132.87 141.6C131.017 143.531 129.454 145.721 128.23 148.1C125.816 152.863 123.983 157.899 122.77 163.1C118.108 184.016 118.225 205.715 123.11 226.58C124.339 231.752 126.186 236.758 128.61 241.49C129.82 243.824 131.363 245.969 133.19 247.86C134.003 248.859 135.028 249.665 136.192 250.218C137.355 250.771 138.627 251.058 139.915 251.058C141.203 251.058 142.475 250.771 143.638 250.218C144.802 249.665 145.827 248.859 146.64 247.86C148.467 245.967 150.013 243.822 151.23 241.49C153.651 236.758 155.494 231.752 156.72 226.58C161.602 205.715 161.722 184.018 157.07 163.1C155.852 157.9 154.016 152.864 151.6 148.1C150.383 145.719 148.823 143.529 146.97 141.6C145.133 139.595 142.585 138.386 139.87 138.23ZM139.87 138.23C142.571 138.384 145.106 139.582 146.94 141.57C148.806 143.496 150.382 145.682 151.62 148.06C154.059 152.821 155.919 157.857 157.16 163.06C162.059 184.005 162.175 205.784 157.5 226.78C156.284 232.056 154.437 237.166 152 242C150.748 244.422 149.155 246.651 147.27 248.62C146.288 249.6 145.166 250.43 143.94 251.08C142.688 251.753 141.291 252.113 139.87 252.13C138.45 252.103 137.056 251.744 135.8 251.08C134.574 250.43 133.452 249.6 132.47 248.62C130.578 246.656 128.985 244.426 127.74 242C125.31 237.19 123.46 232.107 122.23 226.86C117.553 205.864 117.672 184.083 122.58 163.14C123.821 157.937 125.681 152.901 128.12 148.14C129.358 145.764 130.931 143.579 132.79 141.65C134.617 139.634 137.156 138.408 139.87 138.23Z" fill="url(#paint24_linear_0_1)"/>
<path d="M137.85 138.29C135.17 138.469 132.662 139.676 130.85 141.66C129 143.589 127.437 145.775 126.21 148.15C123.794 152.912 121.961 157.949 120.75 163.15C116.088 184.066 116.205 205.765 121.09 226.63C122.315 231.804 124.162 236.81 126.59 241.54C127.8 243.874 129.343 246.019 131.17 247.91C131.983 248.909 133.008 249.715 134.172 250.268C135.335 250.821 136.607 251.108 137.895 251.108C139.183 251.108 140.455 250.821 141.618 250.268C142.782 249.715 143.807 248.909 144.62 247.91C146.447 246.017 147.993 243.872 149.21 241.54C151.631 236.808 153.474 231.802 154.7 226.63C159.582 205.765 159.702 184.068 155.05 163.15C153.831 157.95 151.995 152.914 149.58 148.15C148.36 145.771 146.796 143.584 144.94 141.66C143.106 139.655 140.562 138.446 137.85 138.29ZM137.85 138.29C140.552 138.44 143.088 139.639 144.92 141.63C146.786 143.556 148.362 145.742 149.6 148.12C152.038 152.881 153.898 157.917 155.14 163.12C160.039 184.068 160.155 205.851 155.48 226.85C154.269 232.102 152.429 237.189 150 242C148.753 244.422 147.163 246.652 145.28 248.62C144.296 249.598 143.174 250.427 141.95 251.08C140.702 251.763 139.303 252.121 137.88 252.121C136.458 252.121 135.058 251.763 133.81 251.08C132.582 250.429 131.459 249.596 130.48 248.61C128.589 246.65 126.995 244.423 125.75 242C123.315 237.191 121.466 232.109 120.24 226.86C117.83 216.398 116.682 205.685 116.82 194.95C116.818 184.232 118.08 173.552 120.58 163.13C121.825 157.927 123.689 152.891 126.13 148.13C127.364 145.752 128.937 143.566 130.8 141.64C132.625 139.65 135.154 138.448 137.85 138.29Z" fill="url(#paint25_linear_0_1)"/>
<path d="M135.82 138.35C133.137 138.52 130.626 139.729 128.82 141.72C126.961 143.642 125.398 145.829 124.18 148.21C121.763 152.973 119.927 158.009 118.71 163.21C114.058 184.128 114.178 205.825 119.06 226.69C120.286 231.862 122.129 236.868 124.55 241.6C125.767 243.932 127.313 246.077 129.14 247.97C129.954 248.968 130.98 249.772 132.143 250.324C133.306 250.876 134.577 251.162 135.865 251.162C137.152 251.162 138.424 250.876 139.587 250.324C140.75 249.772 141.776 248.968 142.59 247.97C144.415 246.078 145.957 243.932 147.17 241.6C149.598 236.87 151.445 231.864 152.67 226.69C155.163 216.308 156.421 205.667 156.42 194.99C156.558 184.298 155.413 173.629 153.01 163.21C151.801 158.008 149.968 152.972 147.55 148.21C146.329 145.831 144.766 143.645 142.91 141.72C141.082 139.708 138.534 138.498 135.82 138.35ZM135.82 138.35C138.525 138.498 141.066 139.696 142.9 141.69C144.765 143.616 146.341 145.802 147.58 148.18C150.02 152.941 151.88 157.976 153.12 163.18C155.62 173.602 156.882 184.282 156.88 195C157.018 205.735 155.87 216.448 153.46 226.91C152.239 232.16 150.389 237.243 147.95 242.05C146.705 244.473 145.111 246.7 143.22 248.66C142.244 249.646 141.125 250.479 139.9 251.13C138.65 251.813 137.249 252.17 135.825 252.17C134.401 252.17 133 251.813 131.75 251.13C130.525 250.479 129.406 249.646 128.43 248.66C126.539 246.7 124.945 244.473 123.7 242.05C121.261 237.243 119.411 232.16 118.19 226.91C115.78 216.448 114.632 205.735 114.77 195C114.768 184.282 116.03 173.602 118.53 163.18C119.77 157.976 121.63 152.941 124.07 148.18C125.309 145.802 126.885 143.616 128.75 141.69C130.582 139.699 133.118 138.5 135.82 138.35Z" fill="url(#paint26_linear_0_1)"/>
<path d="M133 138C130.32 138.173 127.811 139.377 126 141.36C124.15 143.291 122.59 145.48 121.37 147.86C118.954 152.624 117.118 157.66 115.9 162.86C111.252 183.781 111.368 205.48 116.24 226.35C117.474 231.518 119.32 236.52 121.74 241.25C122.951 243.586 124.498 245.732 126.33 247.62C127.143 248.619 128.168 249.425 129.332 249.978C130.495 250.531 131.767 250.818 133.055 250.818C134.343 250.818 135.615 250.531 136.778 249.978C137.942 249.425 138.967 248.619 139.78 247.62C141.609 245.731 143.152 243.585 144.36 241.25C146.78 236.52 148.626 231.518 149.86 226.35C152.353 215.968 153.611 205.327 153.61 194.65C153.747 183.955 152.602 173.282 150.2 162.86C148.986 157.66 147.153 152.624 144.74 147.86C143.513 145.482 141.95 143.293 140.1 141.36C138.264 139.354 135.715 138.148 133 138ZM133 138C135.704 138.152 138.243 139.35 140.08 141.34C141.942 143.263 143.515 145.446 144.75 147.82C147.189 152.581 149.049 157.617 150.29 162.82C155.198 183.763 155.317 205.544 150.64 226.54C149.418 231.79 147.568 236.873 145.13 241.68C143.885 244.106 142.292 246.336 140.4 248.3C139.42 249.283 138.298 250.113 137.07 250.76C135.813 251.415 134.417 251.758 133 251.76C131.583 251.752 130.189 251.409 128.93 250.76C127.704 250.11 126.582 249.28 125.6 248.3C123.714 246.333 122.125 244.104 120.88 241.68C118.438 236.875 116.588 231.791 115.37 226.54C110.695 205.544 110.811 183.765 115.71 162.82C116.951 157.617 118.811 152.581 121.25 147.82C122.485 145.443 124.062 143.26 125.93 141.34C127.762 139.349 130.298 138.15 133 138Z" fill="url(#paint27_linear_0_1)"/>
<path d="M212.92 192.93C212.873 211.915 205.766 230.203 192.982 244.238C180.198 258.274 162.651 267.053 143.754 268.868C124.856 270.684 105.959 265.406 90.7369 254.061C75.5149 242.716 65.0565 226.115 61.3957 207.487C57.7348 188.858 61.1332 169.534 70.93 153.273C80.7267 137.011 96.2214 124.974 114.401 119.503C132.58 114.032 152.144 115.518 169.289 123.672C186.433 131.826 199.932 146.065 207.16 163.62C210.986 172.917 212.943 182.877 212.92 192.93ZM212.92 192.93C212.945 173.986 205.925 155.71 193.223 141.655C180.521 127.601 163.046 118.772 144.196 116.887C125.347 115.001 106.469 120.194 91.2353 131.454C76.0013 142.714 65.4994 159.238 61.772 177.811C58.0446 196.385 61.358 215.681 71.0679 231.947C80.7778 248.213 96.1902 260.286 114.308 265.82C132.426 271.353 151.954 269.95 169.095 261.885C186.236 253.819 199.764 239.667 207.05 222.18C210.907 212.91 212.902 202.971 212.92 192.93Z" fill="url(#paint28_linear_0_1)"/>
<path d="M137.92 201.93C143.167 201.93 147.42 197.677 147.42 192.43C147.42 187.183 143.167 182.93 137.92 182.93C132.673 182.93 128.42 187.183 128.42 192.43C128.42 197.677 132.673 201.93 137.92 201.93Z" fill="url(#paint29_linear_0_1)"/>
<defs>
<linearGradient id="paint0_linear_0_1" x1="45.88" y1="305.39" x2="140.12" y2="305.39" gradientUnits="userSpaceOnUse">
<stop stop-color="#101111"/>
<stop offset="0.31" stop-color="#141515"/>
<stop offset="0.63" stop-color="#212121"/>
<stop offset="0.92" stop-color="#333333"/>
</linearGradient>
<linearGradient id="paint1_linear_0_1" x1="51.63" y1="262.72" x2="76.33" y2="262.72" gradientUnits="userSpaceOnUse">
<stop stop-color="#101111"/>
<stop offset="0.31" stop-color="#141515"/>
<stop offset="0.63" stop-color="#212121"/>
<stop offset="0.92" stop-color="#333333"/>
</linearGradient>
<linearGradient id="paint2_linear_0_1" x1="69.4399" y1="270.83" x2="85.4499" y2="270.83" gradientUnits="userSpaceOnUse">
<stop stop-color="#101111"/>
<stop offset="0.31" stop-color="#141515"/>
<stop offset="0.63" stop-color="#212121"/>
<stop offset="0.92" stop-color="#333333"/>
</linearGradient>
<linearGradient id="paint3_linear_0_1" x1="85.59" y1="285.53" x2="96.0699" y2="285.53" gradientUnits="userSpaceOnUse">
<stop stop-color="#101111"/>
<stop offset="0.31" stop-color="#141515"/>
<stop offset="0.63" stop-color="#212121"/>
<stop offset="0.92" stop-color="#333333"/>
</linearGradient>
<linearGradient id="paint4_linear_0_1" x1="144.39" y1="305.39" x2="238.64" y2="305.39" gradientUnits="userSpaceOnUse">
<stop stop-color="#101111"/>
<stop offset="0.31" stop-color="#141515"/>
<stop offset="0.63" stop-color="#212121"/>
<stop offset="0.92" stop-color="#333333"/>
</linearGradient>
<linearGradient id="paint5_linear_0_1" x1="208.18" y1="262.72" x2="232.88" y2="262.72" gradientUnits="userSpaceOnUse">
<stop stop-color="#101111"/>
<stop offset="0.31" stop-color="#141515"/>
<stop offset="0.63" stop-color="#212121"/>
<stop offset="0.92" stop-color="#333333"/>
</linearGradient>
<linearGradient id="paint6_linear_0_1" x1="199.07" y1="270.83" x2="215.07" y2="270.83" gradientUnits="userSpaceOnUse">
<stop stop-color="#101111"/>
<stop offset="0.31" stop-color="#141515"/>
<stop offset="0.63" stop-color="#212121"/>
<stop offset="0.92" stop-color="#333333"/>
</linearGradient>
<linearGradient id="paint7_linear_0_1" x1="188.44" y1="285.53" x2="198.92" y2="285.53" gradientUnits="userSpaceOnUse">
<stop stop-color="#101111"/>
<stop offset="0.31" stop-color="#141515"/>
<stop offset="0.63" stop-color="#212121"/>
<stop offset="0.92" stop-color="#333333"/>
</linearGradient>
<linearGradient id="paint8_linear_0_1" x1="137.01" y1="221.55" x2="137.01" y2="153.25" gradientUnits="userSpaceOnUse">
<stop offset="0.02"/>
<stop offset="0.05" stop-color="#03090B"/>
<stop offset="0.25" stop-color="#153E4E"/>
<stop offset="0.44" stop-color="#246B87"/>
<stop offset="0.62" stop-color="#308DB2"/>
<stop offset="0.77" stop-color="#38A6D2"/>
<stop offset="0.91" stop-color="#3DB6E5"/>
<stop offset="1" stop-color="#3FBBEC"/>
</linearGradient>
<linearGradient id="paint9_linear_0_1" x1="136.01" y1="223.55" x2="136.01" y2="155.25" gradientUnits="userSpaceOnUse">
<stop offset="0.02"/>
<stop offset="0.05" stop-color="#03090B"/>
<stop offset="0.25" stop-color="#153E4E"/>
<stop offset="0.44" stop-color="#246B87"/>
<stop offset="0.62" stop-color="#308DB2"/>
<stop offset="0.77" stop-color="#38A6D2"/>
<stop offset="0.91" stop-color="#3DB6E5"/>
<stop offset="1" stop-color="#3FBBEC"/>
</linearGradient>
<linearGradient id="paint10_linear_0_1" x1="135.01" y1="225.55" x2="135.01" y2="157.25" gradientUnits="userSpaceOnUse">
<stop offset="0.02"/>
<stop offset="0.05" stop-color="#03090B"/>
<stop offset="0.25" stop-color="#153E4E"/>
<stop offset="0.44" stop-color="#246B87"/>
<stop offset="0.62" stop-color="#308DB2"/>
<stop offset="0.77" stop-color="#38A6D2"/>
<stop offset="0.91" stop-color="#3DB6E5"/>
<stop offset="1" stop-color="#3FBBEC"/>
</linearGradient>
<linearGradient id="paint11_linear_0_1" x1="134.01" y1="228.55" x2="134.01" y2="160.25" gradientUnits="userSpaceOnUse">
<stop offset="0.02"/>
<stop offset="0.05" stop-color="#03090B"/>
<stop offset="0.25" stop-color="#153E4E"/>
<stop offset="0.44" stop-color="#246B87"/>
<stop offset="0.62" stop-color="#308DB2"/>
<stop offset="0.77" stop-color="#38A6D2"/>
<stop offset="0.91" stop-color="#3DB6E5"/>
<stop offset="1" stop-color="#3FBBEC"/>
</linearGradient>
<linearGradient id="paint12_linear_0_1" x1="133.21" y1="213.12" x2="133.21" y2="153.43" gradientUnits="userSpaceOnUse">
<stop offset="0.02"/>
<stop offset="0.05" stop-color="#03090B"/>
<stop offset="0.25" stop-color="#153E4E"/>
<stop offset="0.44" stop-color="#246B87"/>
<stop offset="0.62" stop-color="#308DB2"/>
<stop offset="0.77" stop-color="#38A6D2"/>
<stop offset="0.91" stop-color="#3DB6E5"/>
<stop offset="1" stop-color="#3FBBEC"/>
</linearGradient>
<linearGradient id="paint13_linear_0_1" x1="133.85" y1="215.27" x2="133.85" y2="155.57" gradientUnits="userSpaceOnUse">
<stop offset="0.02"/>
<stop offset="0.05" stop-color="#03090B"/>
<stop offset="0.25" stop-color="#153E4E"/>
<stop offset="0.44" stop-color="#246B87"/>
<stop offset="0.62" stop-color="#308DB2"/>
<stop offset="0.77" stop-color="#38A6D2"/>
<stop offset="0.91" stop-color="#3DB6E5"/>
<stop offset="1" stop-color="#3FBBEC"/>
</linearGradient>
<linearGradient id="paint14_linear_0_1" x1="134.49" y1="217.41" x2="134.49" y2="157.71" gradientUnits="userSpaceOnUse">
<stop offset="0.02"/>
<stop offset="0.05" stop-color="#03090B"/>
<stop offset="0.25" stop-color="#153E4E"/>
<stop offset="0.44" stop-color="#246B87"/>
<stop offset="0.62" stop-color="#308DB2"/>
<stop offset="0.77" stop-color="#38A6D2"/>
<stop offset="0.91" stop-color="#3DB6E5"/>
<stop offset="1" stop-color="#3FBBEC"/>
</linearGradient>
<linearGradient id="paint15_linear_0_1" x1="135.81" y1="220.28" x2="135.81" y2="160.58" gradientUnits="userSpaceOnUse">
<stop offset="0.02"/>
<stop offset="0.05" stop-color="#03090B"/>
<stop offset="0.25" stop-color="#153E4E"/>
<stop offset="0.44" stop-color="#246B87"/>
<stop offset="0.62" stop-color="#308DB2"/>
<stop offset="0.77" stop-color="#38A6D2"/>
<stop offset="0.91" stop-color="#3DB6E5"/>
<stop offset="1" stop-color="#3FBBEC"/>
</linearGradient>
<linearGradient id="paint16_linear_0_1" x1="139.25" y1="243.98" x2="139.25" y2="145.93" gradientUnits="userSpaceOnUse">
<stop offset="0.02"/>
<stop offset="0.05" stop-color="#03090B"/>
<stop offset="0.25" stop-color="#153E4E"/>
<stop offset="0.44" stop-color="#246B87"/>
<stop offset="0.62" stop-color="#308DB2"/>
<stop offset="0.77" stop-color="#38A6D2"/>
<stop offset="0.91" stop-color="#3DB6E5"/>
<stop offset="1" stop-color="#3FBBEC"/>
</linearGradient>
<linearGradient id="paint17_linear_0_1" x1="140.9" y1="245.15" x2="140.9" y2="147.1" gradientUnits="userSpaceOnUse">
<stop offset="0.02"/>
<stop offset="0.05" stop-color="#03090B"/>
<stop offset="0.25" stop-color="#153E4E"/>
<stop offset="0.44" stop-color="#246B87"/>
<stop offset="0.62" stop-color="#308DB2"/>
<stop offset="0.77" stop-color="#38A6D2"/>
<stop offset="0.91" stop-color="#3DB6E5"/>
<stop offset="1" stop-color="#3FBBEC"/>
</linearGradient>
<linearGradient id="paint18_linear_0_1" x1="142.55" y1="246.32" x2="142.55" y2="148.28" gradientUnits="userSpaceOnUse">
<stop offset="0.02"/>
<stop offset="0.05" stop-color="#03090B"/>
<stop offset="0.25" stop-color="#153E4E"/>
<stop offset="0.44" stop-color="#246B87"/>
<stop offset="0.62" stop-color="#308DB2"/>
<stop offset="0.77" stop-color="#38A6D2"/>
<stop offset="0.91" stop-color="#3DB6E5"/>
<stop offset="1" stop-color="#3FBBEC"/>
</linearGradient>
<linearGradient id="paint19_linear_0_1" x1="145.09" y1="247.63" x2="145.09" y2="149.59" gradientUnits="userSpaceOnUse">
<stop offset="0.02"/>
<stop offset="0.05" stop-color="#03090B"/>
<stop offset="0.25" stop-color="#153E4E"/>
<stop offset="0.44" stop-color="#246B87"/>
<stop offset="0.62" stop-color="#308DB2"/>
<stop offset="0.77" stop-color="#38A6D2"/>
<stop offset="0.91" stop-color="#3DB6E5"/>
<stop offset="1" stop-color="#3FBBEC"/>
</linearGradient>
<linearGradient id="paint20_linear_0_1" x1="136.53" y1="242.98" x2="136.53" y2="144.93" gradientUnits="userSpaceOnUse">
<stop offset="0.02"/>
<stop offset="0.05" stop-color="#03090B"/>
<stop offset="0.25" stop-color="#153E4E"/>
<stop offset="0.44" stop-color="#246B87"/>
<stop offset="0.62" stop-color="#308DB2"/>
<stop offset="0.77" stop-color="#38A6D2"/>
<stop offset="0.91" stop-color="#3DB6E5"/>
<stop offset="1" stop-color="#3FBBEC"/>
</linearGradient>
<linearGradient id="paint21_linear_0_1" x1="134.89" y1="244.15" x2="134.89" y2="146.1" gradientUnits="userSpaceOnUse">
<stop offset="0.02"/>
<stop offset="0.05" stop-color="#03090B"/>
<stop offset="0.25" stop-color="#153E4E"/>
<stop offset="0.44" stop-color="#246B87"/>
<stop offset="0.62" stop-color="#308DB2"/>
<stop offset="0.77" stop-color="#38A6D2"/>
<stop offset="0.91" stop-color="#3DB6E5"/>
<stop offset="1" stop-color="#3FBBEC"/>
</linearGradient>
<linearGradient id="paint22_linear_0_1" x1="133.24" y1="245.32" x2="133.24" y2="147.28" gradientUnits="userSpaceOnUse">
<stop offset="0.02"/>
<stop offset="0.05" stop-color="#03090B"/>
<stop offset="0.25" stop-color="#153E4E"/>
<stop offset="0.44" stop-color="#246B87"/>
<stop offset="0.62" stop-color="#308DB2"/>
<stop offset="0.77" stop-color="#38A6D2"/>
<stop offset="0.91" stop-color="#3DB6E5"/>
<stop offset="1" stop-color="#3FBBEC"/>
</linearGradient>
<linearGradient id="paint23_linear_0_1" x1="130.69" y1="246.63" x2="130.69" y2="148.59" gradientUnits="userSpaceOnUse">
<stop offset="0.02"/>
<stop offset="0.05" stop-color="#03090B"/>
<stop offset="0.25" stop-color="#153E4E"/>
<stop offset="0.44" stop-color="#246B87"/>
<stop offset="0.62" stop-color="#308DB2"/>
<stop offset="0.77" stop-color="#38A6D2"/>
<stop offset="0.91" stop-color="#3DB6E5"/>
<stop offset="1" stop-color="#3FBBEC"/>
</linearGradient>
<linearGradient id="paint24_linear_0_1" x1="139.87" y1="252.08" x2="139.87" y2="137.73" gradientUnits="userSpaceOnUse">
<stop offset="0.02"/>
<stop offset="0.05" stop-color="#03090B"/>
<stop offset="0.25" stop-color="#153E4E"/>
<stop offset="0.44" stop-color="#246B87"/>
<stop offset="0.62" stop-color="#308DB2"/>
<stop offset="0.77" stop-color="#38A6D2"/>
<stop offset="0.91" stop-color="#3DB6E5"/>
<stop offset="1" stop-color="#3FBBEC"/>
</linearGradient>
<linearGradient id="paint25_linear_0_1" x1="137.85" y1="252.13" x2="137.85" y2="137.79" gradientUnits="userSpaceOnUse">
<stop offset="0.02"/>
<stop offset="0.05" stop-color="#03090B"/>
<stop offset="0.25" stop-color="#153E4E"/>
<stop offset="0.44" stop-color="#246B87"/>
<stop offset="0.62" stop-color="#308DB2"/>
<stop offset="0.77" stop-color="#38A6D2"/>
<stop offset="0.91" stop-color="#3DB6E5"/>
<stop offset="1" stop-color="#3FBBEC"/>
</linearGradient>
<linearGradient id="paint26_linear_0_1" x1="135.83" y1="252.19" x2="135.83" y2="137.85" gradientUnits="userSpaceOnUse">
<stop offset="0.02"/>
<stop offset="0.05" stop-color="#03090B"/>
<stop offset="0.25" stop-color="#153E4E"/>
<stop offset="0.44" stop-color="#246B87"/>
<stop offset="0.62" stop-color="#308DB2"/>
<stop offset="0.77" stop-color="#38A6D2"/>
<stop offset="0.91" stop-color="#3DB6E5"/>
<stop offset="1" stop-color="#3FBBEC"/>
</linearGradient>
<linearGradient id="paint27_linear_0_1" x1="132.98" y1="251.87" x2="132.98" y2="137.52" gradientUnits="userSpaceOnUse">
<stop offset="0.02"/>
<stop offset="0.05" stop-color="#03090B"/>
<stop offset="0.25" stop-color="#153E4E"/>
<stop offset="0.44" stop-color="#246B87"/>
<stop offset="0.62" stop-color="#308DB2"/>
<stop offset="0.77" stop-color="#38A6D2"/>
<stop offset="0.91" stop-color="#3DB6E5"/>
<stop offset="1" stop-color="#3FBBEC"/>
</linearGradient>
<linearGradient id="paint28_linear_0_1" x1="136.17" y1="269.93" x2="136.17" y2="115.93" gradientUnits="userSpaceOnUse">
<stop offset="0.02"/>
<stop offset="0.05" stop-color="#03090B"/>
<stop offset="0.25" stop-color="#153E4E"/>
<stop offset="0.44" stop-color="#246B87"/>
<stop offset="0.62" stop-color="#308DB2"/>
<stop offset="0.77" stop-color="#38A6D2"/>
<stop offset="0.91" stop-color="#3DB6E5"/>
<stop offset="1" stop-color="#3FBBEC"/>
</linearGradient>
<linearGradient id="paint29_linear_0_1" x1="137.92" y1="205.53" x2="137.92" y2="183.62" gradientUnits="userSpaceOnUse">
<stop offset="0.02"/>
<stop offset="0.05" stop-color="#03090B"/>
<stop offset="0.26" stop-color="#153E4E"/>
<stop offset="0.45" stop-color="#246B87"/>
<stop offset="0.62" stop-color="#308DB2"/>
<stop offset="0.78" stop-color="#38A6D2"/>
<stop offset="0.91" stop-color="#3DB6E5"/>
<stop offset="1" stop-color="#3FBBEC"/>
</linearGradient>
</defs>
</svg>
